<?xml version="1.0" encoding="UTF-8" standalone="no"?>
<!-- Created with Inkscape (http://www.inkscape.org/) -->

<svg
   xmlns:dc="http://purl.org/dc/elements/1.1/"
   xmlns:cc="http://creativecommons.org/ns#"
   xmlns:rdf="http://www.w3.org/1999/02/22-rdf-syntax-ns#"
   xmlns:svg="http://www.w3.org/2000/svg"
   xmlns="http://www.w3.org/2000/svg"
   xmlns:sodipodi="http://sodipodi.sourceforge.net/DTD/sodipodi-0.dtd"
   xmlns:inkscape="http://www.inkscape.org/namespaces/inkscape"
   width="237.54913mm"
   height="159.95547mm"
   viewBox="0 0 237.54913 159.95547"
   version="1.1"
   id="svg8"
   inkscape:version="0.92.2 2405546, 2018-03-11"
   sodipodi:docname="presentation_cap2_five.svg">
  <defs
     id="defs2">
    <filter
       inkscape:collect="always"
       style="color-interpolation-filters:sRGB"
       id="filter940"
       x="-0.027435562"
       width="1.0548711"
       y="-0.021329107"
       height="1.0426582">
      <feGaussianBlur
         inkscape:collect="always"
         stdDeviation="1.1949735"
         id="feGaussianBlur942" />
    </filter>
    <filter
       inkscape:collect="always"
       style="color-interpolation-filters:sRGB"
       id="filter1027"
       x="-0.19728281"
       width="1.3945656"
       y="-1.0258693"
       height="3.0517385">
      <feGaussianBlur
         inkscape:collect="always"
         stdDeviation="1.4578287"
         id="feGaussianBlur1029" />
    </filter>
    <filter
       inkscape:collect="always"
       style="color-interpolation-filters:sRGB"
       id="filter1031"
       x="-0.072499685"
       width="1.1449994"
       y="-0.213723"
       height="1.427446">
      <feGaussianBlur
         inkscape:collect="always"
         stdDeviation="1.4578287"
         id="feGaussianBlur1033" />
    </filter>
    <filter
       inkscape:collect="always"
       style="color-interpolation-filters:sRGB"
       id="filter1035"
       x="-0.11090493"
       width="1.2218099"
       y="-0.58621204"
       height="2.1724241">
      <feGaussianBlur
         inkscape:collect="always"
         stdDeviation="1.4578287"
         id="feGaussianBlur1037" />
    </filter>
    <filter
       inkscape:collect="always"
       style="color-interpolation-filters:sRGB"
       id="filter1039"
       x="-0.1142362"
       width="1.2284724"
       y="-0.58031982"
       height="2.1606395">
      <feGaussianBlur
         inkscape:collect="always"
         stdDeviation="1.4578287"
         id="feGaussianBlur1041" />
    </filter>
    <filter
       inkscape:collect="always"
       style="color-interpolation-filters:sRGB"
       id="filter1043"
       x="-0.094823547"
       width="1.1896471"
       y="-0.40299991"
       height="1.8059998">
      <feGaussianBlur
         inkscape:collect="always"
         stdDeviation="1.4578287"
         id="feGaussianBlur1045" />
    </filter>
    <filter
       inkscape:collect="always"
       style="color-interpolation-filters:sRGB"
       id="filter1047"
       x="-0.14085436"
       width="1.2817087"
       y="-0.34542871"
       height="1.6908574">
      <feGaussianBlur
         inkscape:collect="always"
         stdDeviation="1.4578287"
         id="feGaussianBlur1049" />
    </filter>
    <filter
       inkscape:collect="always"
       style="color-interpolation-filters:sRGB"
       id="filter1051"
       x="-0.19873974"
       width="1.3974795"
       y="-0.90675086"
       height="2.8135016">
      <feGaussianBlur
         inkscape:collect="always"
         stdDeviation="1.4578287"
         id="feGaussianBlur1053" />
    </filter>
    <filter
       inkscape:collect="always"
       style="color-interpolation-filters:sRGB"
       id="filter1055"
       x="-0.15112498"
       width="1.30225"
       y="-2.4179938"
       height="5.8359876">
      <feGaussianBlur
         inkscape:collect="always"
         stdDeviation="1.4578287"
         id="feGaussianBlur1057" />
    </filter>
    <filter
       inkscape:collect="always"
       style="color-interpolation-filters:sRGB"
       id="filter1059"
       x="-0.1295357"
       width="1.2590714"
       y="-0.43963635"
       height="1.8792727">
      <feGaussianBlur
         inkscape:collect="always"
         stdDeviation="1.4578287"
         id="feGaussianBlur1061" />
    </filter>
  </defs>
  <sodipodi:namedview
     id="base"
     pagecolor="#ffffff"
     bordercolor="#666666"
     borderopacity="1.0"
     inkscape:pageopacity="0.0"
     inkscape:pageshadow="2"
     inkscape:zoom="1.2158824"
     inkscape:cx="315.23293"
     inkscape:cy="257.16797"
     inkscape:document-units="mm"
     inkscape:current-layer="layer3"
     showgrid="false"
     inkscape:window-width="1920"
     inkscape:window-height="1039"
     inkscape:window-x="0"
     inkscape:window-y="0"
     inkscape:window-maximized="1"
     inkscape:object-nodes="false"
     inkscape:snap-nodes="false"
     fit-margin-top="0"
     fit-margin-left="0"
     fit-margin-right="0"
     fit-margin-bottom="0" />
  <metadata
     id="metadata5">
    <rdf:RDF>
      <cc:Work
         rdf:about="">
        <dc:format>image/svg+xml</dc:format>
        <dc:type
           rdf:resource="http://purl.org/dc/dcmitype/StillImage" />
        <dc:title />
      </cc:Work>
    </rdf:RDF>
  </metadata>
  <g
     inkscape:groupmode="layer"
     id="layer3"
     inkscape:label="Form Fade"
     transform="translate(9.7690192,-107.74518)">
    <path
       inkscape:connector-curvature="0"
       id="path933"
       d="m 43.740379,244.05112 1.53475,1.02316 0.42632,-1.8758 4.263195,0.25579 -2.728445,-2.72845 3.325292,-2.04633 -3.154765,-2.55792 2.728447,-2.72844 -3.240029,-1.87581 4.092667,-2.04633 -3.240029,-3.83688 5.286362,-1.10843 -3.581083,-5.20109 11.851682,-3.24003 -8.731271,-6.62663 5.305581,-3.2557 2.170465,3.85861 0.120581,-1.44698 h -7.476045 l 0.844071,15.19325 2.291045,-2.77337 -4.582091,-8.56128 8.561276,-1.80872 -6.27023,-2.65279 2.77337,-2.41162 -4.823254,-1.3264 4.582092,-2.89395 h -3.858604 l -1.205815,2.17046 5.546743,0.12058 -4.702672,3.01454 7.837789,0.36174 -7.596627,3.8586 8.320114,2.65279 -10.128834,2.6528 5.667324,2.89395 -6.631974,2.89395 3.135114,4.34093 -5.787906,1.68814 3.496861,3.2557 -3.135114,2.04988 3.376276,3.13511 -2.893952,1.56756 3.858604,3.37628 -3.738022,3.01453 -3.014536,-1.08523 -0.241162,1.56756 2.411626,-0.36175 -0.723487,-2.41162 4.582091,-2.17047 -3.376276,3.97919 -1.808721,-1.08523 -0.602906,1.9293 6.270231,-4.22035 -3.979185,-1.20581 3.496857,-1.92931 -3.376276,-2.77337 2.893952,-2.29104 -3.858604,-2.89396 5.305581,-1.68814 -3.255698,-3.8586 7.355464,-1.56755 -5.546743,-5.30559 10.611159,-2.65278 -7.114299,-6.14965 -4.099766,11.33464 1.08523,22.30755 -4.220347,-12.9022 13.505114,-17.4843 1.08523,6.02907 -9.525926,-15.43441 0.844069,5.06441 1.326396,-5.06441 3.014533,16.76081 0.964652,-12.2993 1.929302,10.85232 -2.291048,1.56756 -1.085231,-13.02279 -5.787906,10.00825 0.120581,-3.61744 -1.808721,1.3264 1.205815,-2.17047 -1.446977,-1.44697 0.964652,-1.08524 0.120582,-1.08523 0.602906,-0.72349 -1.808721,4.5821 1.446977,-0.36175 0.120581,-0.96465 0.602906,-0.60291 0.120581,-1.08523 0.72349,-0.72349 0.482325,-1.08523 -3.376279,6.14965 1.567558,-1.20581 -0.964649,3.37627 2.411626,-3.01453 -1.326395,3.49686 9.405347,-3.97918 -2.652792,-5.30559 -4.099766,0.96466 -1.326394,-0.96466 4.943835,-2.04988 -5.184997,-1.68814 6.270231,-0.36174 0.361743,0.96465 -5.908487,0.48233 4.823254,-1.68814 -2.893952,-1.68814 3.858604,0.24116 -3.617441,-1.68814 1.326396,-1.08523 -1.446978,-0.96465 1.567559,-0.72349 -1.446977,-0.84407 0.482324,-1.20581 -0.964649,-1.68814 2.411627,26.40732 0.844068,-12.17872 1.567558,11.57581 -8.923019,-0.24116 4.943834,5.42616 -1.085231,-15.79616 2.049884,-11.93756 0.602906,-2.04988 2.079646,-10.57434 1.364221,-4.60425 1.364223,-8.69692 0.682112,-3.58108 0.852638,-6.30953 1.364223,-3.58108 -21.486502,-42.63195 4.60425,-2.38739 25.067585,47.2362 14.324335,-8.69692 -20.292809,-38.0277 -20.292806,27.45498 10.402195,14.49486 34.105558,-25.57917 -13.130638,-16.37067 -32.911865,23.36231 15.347501,19.44017 26.090752,-15.00645 -14.153806,-27.45497 -29.330782,18.92858 24.897059,26.09075 18.417003,-12.78958 -43.655117,-17.22331 47.747784,-6.48005 -34.958199,-9.2085 -13.81275,8.18533 45.360393,17.22331 -38.709811,11.0843 31.206588,8.86745 -16.711724,-45.01934 -20.463335,12.278 42.461421,26.94339 -13.812753,6.30953 -25.920224,-44.33722 -4.945305,4.60425 10.74325,34.27608 34.958196,-37.51611 3.581086,19.09911 -41.779312,11.76642 28.989726,12.78958 6.480056,-4.09266 -18.417,-41.60879 -21.657032,13.98328 10.91378,27.28445 15.688558,-41.77931 4.60425,46.38356 13.81275,-42.29089 3.581085,7.50322 -10.572723,32.22975 -18.417003,-0.17052 -20.974917,-39.73298 10.913779,-5.11583 23.703362,46.38356 14.153808,-39.39192 -8.526391,-3.41056 -28.989726,39.73298 1.023168,6.30952 -0.511583,6.139 1.023168,8.69692 -0.17053,9.03798 0.682112,6.30953 0.511583,3.58108 0.511585,-3.58108 -1.364224,-5.28637 0.341056,-3.41055 -1.023167,-8.52639 v -7.84428 l -0.682112,-7.3327 3.922141,-47.2362 10.913779,45.53093 17.223306,-41.43826 0.511582,35.98137 -11.084305,-39.39192 -9.37903,44.67828 -2.046332,7.50322 -1.193694,7.16217 -5.968474,24.556 3.24003,-6.48005 1.705276,-7.16217 3.0695,-10.4022 1.705279,-9.89061 1.875806,-4.77478 -1.705279,2.04633 -2.898971,14.6654 -2.728446,12.44853 2.557917,-6.30953 3.581085,-12.96012 1.705277,-9.03797 1.193694,-1.70528 1.023167,3.58109 -0.682111,4.26319 -2.046333,5.11584 -4.092667,9.54955 -3.922141,9.2085 -0.341053,5.28636 3.922138,-10.74325 5.627417,-15.17697 1.193695,-2.72845 5.456888,-6.139 2.557917,0.17053 -1.193694,3.0695 2.216862,-3.75161 -3.751612,6.48006 -9.720085,18.75806 -2.387388,5.79794 -5.286362,8.69692 -1.193694,2.38739 2.557918,-9.54956 -2.387391,12.78958 -1.705277,-5.45689 1.193694,-13.30116 0.852638,-9.2085 0.852639,-8.01481 3.751612,-11.76642 -2.898971,-5.28636 -0.682112,5.45689 -1.364223,4.43372 -0.682112,3.24003 1.534753,3.0695 -2.216862,-5.96847 -0.341056,-2.55792 -0.682112,-4.09267 v 4.60425 l -0.852638,6.139 1.875806,17.56437 v 13.81275 l 0.170526,2.04633 4.092668,-19.78122 7.503223,-28.47814 16.711724,-35.12873 8.185335,4.43372 4.60425,-0.68211 3.0695,1.53475 4.774781,-1.19369 1.8758,1.36422 4.09267,-0.85264 1.8758,1.1937 2.04634,-0.51159 2.72844,1.1937 2.72845,-0.68211 1.53475,1.02316 3.24003,-0.34105 1.53475,1.02316 3.41055,-0.51158 4.2632,2.04633 1.70528,-0.85264 6.65058,1.87581 0.85264,-4.43372 1.36422,2.21686 -0.68211,1.36422 -2.89897,-3.58108 -0.85264,3.92214 -2.38739,-2.21686 -1.02317,2.38738 2.38739,-2.55791 3.24003,2.89897 -0.17053,-4.09267 2.04634,1.36423 -0.85264,1.8758 -3.41056,-3.0695 -2.21686,3.75161 -2.38739,-1.8758 1.53475,-0.85264 -4.09267,0.34105 -2.89897,0.68211 -4.26319,-2.38738 -0.68212,1.70527 -3.75161,-1.70527 -1.70527,0.34105 -2.21687,-0.85264 -2.72844,1.02317 -2.89897,-2.21686 -1.1937,1.53475 -2.21686,-1.36422 -4.43372,0.51158 -3.581085,-0.85264 -3.581085,0.68211 -3.581083,-1.8758 -2.728444,2.89897 -10.913779,-8.01481 -31.377115,32.91187 0.511583,5.62741 3.240029,2.04634 39.732976,-28.98973 -49.964643,-8.69692"
       style="fill:none;stroke:#000000;stroke-width:0.69999999;stroke-linecap:round;stroke-linejoin:round;stroke-miterlimit:4;stroke-dasharray:none;stroke-opacity:1;filter:url(#filter940)" />
  </g>
  <g
     inkscape:groupmode="layer"
     id="layer5"
     inkscape:label="cloud Fade"
     transform="translate(9.7690192,-107.74518)">
    <path
       inkscape:connector-curvature="0"
       id="path964"
       d="m 23.19178,235.60999 9.549558,-2.38739 6.480056,1.36422 1.705276,-2.38739"
       style="fill:none;stroke:#000000;stroke-width:0.1;stroke-linecap:round;stroke-linejoin:round;stroke-miterlimit:4;stroke-dasharray:none;stroke-opacity:1;filter:url(#filter1027)" />
    <path
       inkscape:connector-curvature="0"
       id="path966"
       d="m 83.217564,218.21615 13.983279,-2.21686 11.425357,3.24003 14.15381,-2.72844 4.77478,3.24002 3.92214,8.18534 -3.92214,4.43372"
       style="fill:none;stroke:#000000;stroke-width:0.1;stroke-linecap:round;stroke-linejoin:round;stroke-miterlimit:4;stroke-dasharray:none;stroke-opacity:1;filter:url(#filter1031)" />
    <path
       inkscape:connector-curvature="0"
       id="path968"
       d="m 148.52971,221.62671 9.89061,-4.77478 14.66539,0.85264 6.99164,-2.04633"
       style="fill:none;stroke:#000000;stroke-width:0.1;stroke-linecap:round;stroke-linejoin:round;stroke-miterlimit:4;stroke-dasharray:none;stroke-opacity:1;filter:url(#filter1035)" />
    <path
       inkscape:connector-curvature="0"
       id="path970"
       d="m 193.65366,203.1877 19.53418,0.72349 4.34093,5.30558 6.75256,-1.68814"
       style="fill:none;stroke:#000000;stroke-width:0.1;stroke-linecap:round;stroke-linejoin:round;stroke-miterlimit:4;stroke-dasharray:none;stroke-opacity:1;filter:url(#filter1039)" />
    <path
       inkscape:connector-curvature="0"
       id="path972"
       d="m 155.79112,242.25606 12.78162,-7.71721 15.43441,1.9293 8.68186,-2.89395 -0.72349,6.51139"
       style="fill:none;stroke:#000000;stroke-width:0.1;stroke-linecap:round;stroke-linejoin:round;stroke-miterlimit:4;stroke-dasharray:none;stroke-opacity:1;filter:url(#filter1043)" />
    <path
       inkscape:connector-curvature="0"
       id="path974"
       d="m 95.500438,255.76117 6.029072,0.48233 9.40534,1.20581 9.40535,-10.12883"
       style="fill:none;stroke:#000000;stroke-width:0.1;stroke-linecap:round;stroke-linejoin:round;stroke-miterlimit:4;stroke-dasharray:none;stroke-opacity:1;filter:url(#filter1047)" />
    <path
       inkscape:connector-curvature="0"
       id="path976"
       d="m 18.810692,210.18142 -7.476044,-1.68814 -10.1288344,3.8586"
       style="fill:none;stroke:#000000;stroke-width:0.1;stroke-linecap:round;stroke-linejoin:round;stroke-miterlimit:4;stroke-dasharray:none;stroke-opacity:1;filter:url(#filter1051)" />
    <path
       inkscape:connector-curvature="0"
       id="path978"
       d="m 118.4109,208.49328 -7.47605,-1.44698 -6.51139,0.72349 -9.164185,-0.48233"
       style="fill:none;stroke:#000000;stroke-width:0.1;stroke-linecap:round;stroke-linejoin:round;stroke-miterlimit:4;stroke-dasharray:none;stroke-opacity:1;filter:url(#filter1055)" />
    <path
       inkscape:connector-curvature="0"
       id="path980"
       d="m -6.2702307,262.27257 12.058136,1.9293 10.8523227,-7.95837 4.099766,1.44697"
       style="fill:none;stroke:#000000;stroke-width:0.1;stroke-linecap:round;stroke-linejoin:round;stroke-miterlimit:4;stroke-dasharray:none;stroke-opacity:1;filter:url(#filter1059)" />
  </g>
  <g
     inkscape:groupmode="layer"
     id="layer4"
     inkscape:label="cloud"
     transform="translate(9.7690192,-107.74518)">
    <path
       style="fill:none;stroke:#000000;stroke-width:0.1;stroke-linecap:round;stroke-linejoin:round;stroke-miterlimit:4;stroke-dasharray:none;stroke-opacity:1"
       d="m 23.19178,235.60999 9.549558,-2.38739 6.480056,1.36422 1.705276,-2.38739"
       id="path945"
       inkscape:connector-curvature="0" />
    <path
       style="fill:none;stroke:#000000;stroke-width:0.1;stroke-linecap:round;stroke-linejoin:round;stroke-miterlimit:4;stroke-dasharray:none;stroke-opacity:1"
       d="m 83.217564,218.21615 13.983279,-2.21686 11.425357,3.24003 14.15381,-2.72844 4.77478,3.24002 3.92214,8.18534 -3.92214,4.43372"
       id="path947"
       inkscape:connector-curvature="0" />
    <path
       style="fill:none;stroke:#000000;stroke-width:0.1;stroke-linecap:round;stroke-linejoin:round;stroke-miterlimit:4;stroke-dasharray:none;stroke-opacity:1"
       d="m 148.52971,221.62671 9.89061,-4.77478 14.66539,0.85264 6.99164,-2.04633"
       id="path949"
       inkscape:connector-curvature="0" />
    <path
       style="fill:none;stroke:#000000;stroke-width:0.1;stroke-linecap:round;stroke-linejoin:round;stroke-miterlimit:4;stroke-dasharray:none;stroke-opacity:1"
       d="m 193.65366,203.1877 19.53418,0.72349 4.34093,5.30558 6.75256,-1.68814"
       id="path951"
       inkscape:connector-curvature="0" />
    <path
       style="fill:none;stroke:#000000;stroke-width:0.1;stroke-linecap:round;stroke-linejoin:round;stroke-miterlimit:4;stroke-dasharray:none;stroke-opacity:1"
       d="m 155.79112,242.25606 12.78162,-7.71721 15.43441,1.9293 8.68186,-2.89395 -0.72349,6.51139"
       id="path953"
       inkscape:connector-curvature="0" />
    <path
       style="fill:none;stroke:#000000;stroke-width:0.1;stroke-linecap:round;stroke-linejoin:round;stroke-miterlimit:4;stroke-dasharray:none;stroke-opacity:1"
       d="m 95.500438,255.76117 6.029072,0.48233 9.40534,1.20581 9.40535,-10.12883"
       id="path955"
       inkscape:connector-curvature="0" />
    <path
       style="fill:none;stroke:#000000;stroke-width:0.1;stroke-linecap:round;stroke-linejoin:round;stroke-miterlimit:4;stroke-dasharray:none;stroke-opacity:1"
       d="m 18.810692,210.18142 -7.476044,-1.68814 -10.1288344,3.8586"
       id="path957"
       inkscape:connector-curvature="0" />
    <path
       style="fill:none;stroke:#000000;stroke-width:0.1;stroke-linecap:round;stroke-linejoin:round;stroke-miterlimit:4;stroke-dasharray:none;stroke-opacity:1"
       d="m 118.4109,208.49328 -7.47605,-1.44698 -6.51139,0.72349 -9.164185,-0.48233"
       id="path959"
       inkscape:connector-curvature="0" />
    <path
       style="fill:none;stroke:#000000;stroke-width:0.1;stroke-linecap:round;stroke-linejoin:round;stroke-miterlimit:4;stroke-dasharray:none;stroke-opacity:1"
       d="m -6.2702307,262.27257 12.058136,1.9293 10.8523227,-7.95837 4.099766,1.44697"
       id="path961"
       inkscape:connector-curvature="0" />
  </g>
  <g
     inkscape:groupmode="layer"
     id="layer2"
     inkscape:label="Form"
     transform="translate(9.7690192,-107.74518)">
    <path
       style="fill:none;stroke:#000000;stroke-width:0.69999999;stroke-linecap:round;stroke-linejoin:round;stroke-miterlimit:4;stroke-dasharray:none;stroke-opacity:1"
       d="m 43.740379,244.05112 1.53475,1.02316 0.42632,-1.8758 4.263195,0.25579 -2.728445,-2.72845 3.325292,-2.04633 -3.154765,-2.55792 2.728447,-2.72844 -3.240029,-1.87581 4.092667,-2.04633 -3.240029,-3.83688 5.286362,-1.10843 -3.581083,-5.20109 11.851682,-3.24003 -8.731271,-6.62663 5.305581,-3.2557 2.170465,3.85861 0.120581,-1.44698 h -7.476045 l 0.844071,15.19325 2.291045,-2.77337 -4.582091,-8.56128 8.561276,-1.80872 -6.27023,-2.65279 2.77337,-2.41162 -4.823254,-1.3264 4.582092,-2.89395 h -3.858604 l -1.205815,2.17046 5.546743,0.12058 -4.702672,3.01454 7.837789,0.36174 -7.596627,3.8586 8.320114,2.65279 -10.128834,2.6528 5.667324,2.89395 -6.631974,2.89395 3.135114,4.34093 -5.787906,1.68814 3.496861,3.2557 -3.135114,2.04988 3.376276,3.13511 -2.893952,1.56756 3.858604,3.37628 -3.738022,3.01453 -3.014536,-1.08523 -0.241162,1.56756 2.411626,-0.36175 -0.723487,-2.41162 4.582091,-2.17047 -3.376276,3.97919 -1.808721,-1.08523 -0.602906,1.9293 6.270231,-4.22035 -3.979185,-1.20581 3.496857,-1.92931 -3.376276,-2.77337 2.893952,-2.29104 -3.858604,-2.89396 5.305581,-1.68814 -3.255698,-3.8586 7.355464,-1.56755 -5.546743,-5.30559 10.611159,-2.65278 -7.114299,-6.14965 -4.099766,11.33464 1.08523,22.30755 -4.220347,-12.9022 13.505114,-17.4843 1.08523,6.02907 -9.525926,-15.43441 0.844069,5.06441 1.326396,-5.06441 3.014533,16.76081 0.964652,-12.2993 1.929302,10.85232 -2.291048,1.56756 -1.085231,-13.02279 -5.787906,10.00825 0.120581,-3.61744 -1.808721,1.3264 1.205815,-2.17047 -1.446977,-1.44697 0.964652,-1.08524 0.120582,-1.08523 0.602906,-0.72349 -1.808721,4.5821 1.446977,-0.36175 0.120581,-0.96465 0.602906,-0.60291 0.120581,-1.08523 0.72349,-0.72349 0.482325,-1.08523 -3.376279,6.14965 1.567558,-1.20581 -0.964649,3.37627 2.411626,-3.01453 -1.326395,3.49686 9.405347,-3.97918 -2.652792,-5.30559 -4.099766,0.96466 -1.326394,-0.96466 4.943835,-2.04988 -5.184997,-1.68814 6.270231,-0.36174 0.361743,0.96465 -5.908487,0.48233 4.823254,-1.68814 -2.893952,-1.68814 3.858604,0.24116 -3.617441,-1.68814 1.326396,-1.08523 -1.446978,-0.96465 1.567559,-0.72349 -1.446977,-0.84407 0.482324,-1.20581 -0.964649,-1.68814 2.411627,26.40732 0.844068,-12.17872 1.567558,11.57581 -8.923019,-0.24116 4.943834,5.42616 -1.085231,-15.79616 2.049884,-11.93756 0.602906,-2.04988 2.079646,-10.57434 1.364221,-4.60425 1.364223,-8.69692 0.682112,-3.58108 0.852638,-6.30953 1.364223,-3.58108 -21.486502,-42.63195 4.60425,-2.38739 25.067585,47.2362 14.324335,-8.69692 -20.292809,-38.0277 -20.292806,27.45498 10.402195,14.49486 34.105558,-25.57917 -13.130638,-16.37067 -32.911865,23.36231 15.347501,19.44017 26.090752,-15.00645 -14.153806,-27.45497 -29.330782,18.92858 24.897059,26.09075 18.417003,-12.78958 -43.655117,-17.22331 47.747784,-6.48005 -34.958199,-9.2085 -13.81275,8.18533 45.360393,17.22331 -38.709811,11.0843 31.206588,8.86745 -16.711724,-45.01934 -20.463335,12.278 42.461421,26.94339 -13.812753,6.30953 -25.920224,-44.33722 -4.945305,4.60425 10.74325,34.27608 34.958196,-37.51611 3.581086,19.09911 -41.779312,11.76642 28.989726,12.78958 6.480056,-4.09266 -18.417,-41.60879 -21.657032,13.98328 10.91378,27.28445 15.688558,-41.77931 4.60425,46.38356 13.81275,-42.29089 3.581085,7.50322 -10.572723,32.22975 -18.417003,-0.17052 -20.974917,-39.73298 10.913779,-5.11583 23.703362,46.38356 14.153808,-39.39192 -8.526391,-3.41056 -28.989726,39.73298 1.023168,6.30952 -0.511583,6.139 1.023168,8.69692 -0.17053,9.03798 0.682112,6.30953 0.511583,3.58108 0.511585,-3.58108 -1.364224,-5.28637 0.341056,-3.41055 -1.023167,-8.52639 v -7.84428 l -0.682112,-7.3327 3.922141,-47.2362 10.913779,45.53093 17.223306,-41.43826 0.511582,35.98137 -11.084305,-39.39192 -9.37903,44.67828 -2.046332,7.50322 -1.193694,7.16217 -5.968474,24.556 3.24003,-6.48005 1.705276,-7.16217 3.0695,-10.4022 1.705279,-9.89061 1.875806,-4.77478 -1.705279,2.04633 -2.898971,14.6654 -2.728446,12.44853 2.557917,-6.30953 3.581085,-12.96012 1.705277,-9.03797 1.193694,-1.70528 1.023167,3.58109 -0.682111,4.26319 -2.046333,5.11584 -4.092667,9.54955 -3.922141,9.2085 -0.341053,5.28636 3.922138,-10.74325 5.627417,-15.17697 1.193695,-2.72845 5.456888,-6.139 2.557917,0.17053 -1.193694,3.0695 2.216862,-3.75161 -3.751612,6.48006 -9.720085,18.75806 -2.387388,5.79794 -5.286362,8.69692 -1.193694,2.38739 2.557918,-9.54956 -2.387391,12.78958 -1.705277,-5.45689 1.193694,-13.30116 0.852638,-9.2085 0.852639,-8.01481 3.751612,-11.76642 -2.898971,-5.28636 -0.682112,5.45689 -1.364223,4.43372 -0.682112,3.24003 1.534753,3.0695 -2.216862,-5.96847 -0.341056,-2.55792 -0.682112,-4.09267 v 4.60425 l -0.852638,6.139 1.875806,17.56437 v 13.81275 l 0.170526,2.04633 4.092668,-19.78122 7.503223,-28.47814 16.711724,-35.12873 8.185335,4.43372 4.60425,-0.68211 3.0695,1.53475 4.774781,-1.19369 1.8758,1.36422 4.09267,-0.85264 1.8758,1.1937 2.04634,-0.51159 2.72844,1.1937 2.72845,-0.68211 1.53475,1.02316 3.24003,-0.34105 1.53475,1.02316 3.41055,-0.51158 4.2632,2.04633 1.70528,-0.85264 6.65058,1.87581 0.85264,-4.43372 1.36422,2.21686 -0.68211,1.36422 -2.89897,-3.58108 -0.85264,3.92214 -2.38739,-2.21686 -1.02317,2.38738 2.38739,-2.55791 3.24003,2.89897 -0.17053,-4.09267 2.04634,1.36423 -0.85264,1.8758 -3.41056,-3.0695 -2.21686,3.75161 -2.38739,-1.8758 1.53475,-0.85264 -4.09267,0.34105 -2.89897,0.68211 -4.26319,-2.38738 -0.68212,1.70527 -3.75161,-1.70527 -1.70527,0.34105 -2.21687,-0.85264 -2.72844,1.02317 -2.89897,-2.21686 -1.1937,1.53475 -2.21686,-1.36422 -4.43372,0.51158 -3.581085,-0.85264 -3.581085,0.68211 -3.581083,-1.8758 -2.728444,2.89897 -10.913779,-8.01481 -31.377115,32.91187 0.511583,5.62741 3.240029,2.04634 39.732976,-28.98973 -49.964643,-8.69692"
       id="path827"
       inkscape:connector-curvature="0" />
  </g>
</svg>
