<?xml version="1.0" encoding="UTF-8" standalone="no"?>
<!-- Created with Inkscape (http://www.inkscape.org/) -->

<svg
   xmlns:dc="http://purl.org/dc/elements/1.1/"
   xmlns:cc="http://creativecommons.org/ns#"
   xmlns:rdf="http://www.w3.org/1999/02/22-rdf-syntax-ns#"
   xmlns:svg="http://www.w3.org/2000/svg"
   xmlns="http://www.w3.org/2000/svg"
   xmlns:sodipodi="http://sodipodi.sourceforge.net/DTD/sodipodi-0.dtd"
   xmlns:inkscape="http://www.inkscape.org/namespaces/inkscape"
   width="235.81551mm"
   height="161.62503mm"
   viewBox="0 0 235.81551 161.62503"
   version="1.1"
   id="svg8"
   inkscape:version="0.92.4 5da689c313, 2019-01-14"
   sodipodi:docname="presentation_cap2_zero.svg.2019_01_31_16_16_26.0.svg">
  <defs
     id="defs2">
    <filter
       inkscape:collect="always"
       style="color-interpolation-filters:sRGB"
       id="filter1234"
       x="-0.04724282"
       width="1.0944856"
       y="-0.026135383"
       height="1.0522708">
      <feGaussianBlur
         inkscape:collect="always"
         stdDeviation="1.2461319"
         id="feGaussianBlur1236" />
    </filter>
    <filter
       inkscape:collect="always"
       style="color-interpolation-filters:sRGB"
       id="filter1238"
       x="-0.077090122"
       width="1.1541802"
       y="-0.053145461"
       height="1.1062909">
      <feGaussianBlur
         inkscape:collect="always"
         stdDeviation="1.2461319"
         id="feGaussianBlur1240" />
    </filter>
    <filter
       inkscape:collect="always"
       style="color-interpolation-filters:sRGB"
       id="filter1242"
       x="-0.042209387"
       width="1.0844188"
       y="-0.079718158"
       height="1.1594363">
      <feGaussianBlur
         inkscape:collect="always"
         stdDeviation="1.2461319"
         id="feGaussianBlur1244" />
    </filter>
    <filter
       inkscape:collect="always"
       style="color-interpolation-filters:sRGB"
       id="filter1246"
       x="-0.19595543"
       width="1.3919108"
       y="-0.21786413"
       height="1.4357282">
      <feGaussianBlur
         inkscape:collect="always"
         stdDeviation="1.2461319"
         id="feGaussianBlur1248" />
    </filter>
    <filter
       inkscape:collect="always"
       style="color-interpolation-filters:sRGB"
       id="filter1250"
       x="-0.11242309"
       width="1.2248462"
       y="-0.15658928"
       height="1.3131787">
      <feGaussianBlur
         inkscape:collect="always"
         stdDeviation="1.2461319"
         id="feGaussianBlur1252" />
    </filter>
    <filter
       inkscape:collect="always"
       style="color-interpolation-filters:sRGB"
       id="filter1616"
       x="-0.31387159"
       width="1.6277432"
       y="-0.67082345"
       height="2.3416469">
      <feGaussianBlur
         inkscape:collect="always"
         stdDeviation="1.7188873"
         id="feGaussianBlur1618" />
    </filter>
    <filter
       inkscape:collect="always"
       style="color-interpolation-filters:sRGB"
       id="filter1620"
       x="-0.29493108"
       width="1.5898621"
       y="-0.41219249"
       height="1.824385">
      <feGaussianBlur
         inkscape:collect="always"
         stdDeviation="1.7188873"
         id="feGaussianBlur1622" />
    </filter>
    <filter
       inkscape:collect="always"
       style="color-interpolation-filters:sRGB"
       id="filter1624"
       x="-0.55180639"
       width="2.1036129"
       y="-0.69820368"
       height="2.3964074">
      <feGaussianBlur
         inkscape:collect="always"
         stdDeviation="1.7188873"
         id="feGaussianBlur1626" />
    </filter>
    <filter
       inkscape:collect="always"
       style="color-interpolation-filters:sRGB"
       id="filter1628"
       x="-1.0062351"
       width="3.0124702"
       y="-0.87723136"
       height="2.7544627">
      <feGaussianBlur
         inkscape:collect="always"
         stdDeviation="1.7188873"
         id="feGaussianBlur1630" />
    </filter>
    <filter
       inkscape:collect="always"
       style="color-interpolation-filters:sRGB"
       id="filter1632"
       x="-0.9246487"
       width="2.8492973"
       y="-2.0124736"
       height="5.0249472">
      <feGaussianBlur
         inkscape:collect="always"
         stdDeviation="1.7188873"
         id="feGaussianBlur1634" />
    </filter>
    <filter
       inkscape:collect="always"
       style="color-interpolation-filters:sRGB"
       id="filter1636"
       x="-1.9006662"
       width="4.8013325"
       y="-2.1382408"
       height="5.2764816">
      <feGaussianBlur
         inkscape:collect="always"
         stdDeviation="1.7188873"
         id="feGaussianBlur1638" />
    </filter>
    <filter
       inkscape:collect="always"
       style="color-interpolation-filters:sRGB"
       id="filter1640"
       x="-0.58986187"
       width="2.1797237"
       y="-0.90031612"
       height="2.8006322">
      <feGaussianBlur
         inkscape:collect="always"
         stdDeviation="1.7188873"
         id="feGaussianBlur1642" />
    </filter>
    <filter
       inkscape:collect="always"
       style="color-interpolation-filters:sRGB"
       id="filter1644"
       x="-0.30546433"
       width="1.6109287"
       y="-0.74373949"
       height="2.487479">
      <feGaussianBlur
         inkscape:collect="always"
         stdDeviation="1.7188873"
         id="feGaussianBlur1646" />
    </filter>
    <filter
       inkscape:collect="always"
       style="color-interpolation-filters:sRGB"
       id="filter1648"
       x="-0.79562765"
       width="2.5912554"
       y="-0.95033312"
       height="2.9006662">
      <feGaussianBlur
         inkscape:collect="always"
         stdDeviation="1.7188873"
         id="feGaussianBlur1650" />
    </filter>
    <filter
       inkscape:collect="always"
       style="color-interpolation-filters:sRGB"
       id="filter1652"
       x="-0.74373907"
       width="2.4874783"
       y="-2.0124736"
       height="5.0249472">
      <feGaussianBlur
         inkscape:collect="always"
         stdDeviation="1.7188873"
         id="feGaussianBlur1654" />
    </filter>
    <filter
       inkscape:collect="always"
       style="color-interpolation-filters:sRGB"
       id="filter1656"
       x="-1.0062351"
       width="3.0124702"
       y="-1.1404003"
       height="3.2808006">
      <feGaussianBlur
         inkscape:collect="always"
         stdDeviation="1.7188873"
         id="feGaussianBlur1658" />
    </filter>
    <filter
       inkscape:collect="always"
       style="color-interpolation-filters:sRGB"
       id="filter1660"
       x="-0.1859348"
       width="1.3718696"
       y="-0.25342211"
       height="1.5068442">
      <feGaussianBlur
         inkscape:collect="always"
         stdDeviation="1.7188873"
         id="feGaussianBlur1662" />
    </filter>
    <filter
       inkscape:collect="always"
       style="color-interpolation-filters:sRGB"
       id="filter1664"
       x="-1.0062344"
       width="3.0124688"
       y="-1.2671137"
       height="3.5342276">
      <feGaussianBlur
         inkscape:collect="always"
         stdDeviation="1.7188873"
         id="feGaussianBlur1666" />
    </filter>
    <filter
       inkscape:collect="always"
       style="color-interpolation-filters:sRGB"
       id="filter1668"
       x="-1.3684773"
       width="3.7369547"
       y="-4.276504"
       height="9.5530081">
      <feGaussianBlur
         inkscape:collect="always"
         stdDeviation="1.7188873"
         id="feGaussianBlur1670" />
    </filter>
    <filter
       inkscape:collect="always"
       style="color-interpolation-filters:sRGB"
       id="filter1672"
       x="-0.187978"
       width="1.3759561"
       y="-0.43306318"
       height="1.8661264">
      <feGaussianBlur
         inkscape:collect="always"
         stdDeviation="1.7188873"
         id="feGaussianBlur1674" />
    </filter>
    <filter
       inkscape:collect="always"
       style="color-interpolation-filters:sRGB"
       id="filter1676"
       x="-2.138252"
       width="5.276504"
       y="-3.4212103"
       height="7.8424206">
      <feGaussianBlur
         inkscape:collect="always"
         stdDeviation="1.7188873"
         id="feGaussianBlur1678" />
    </filter>
    <filter
       inkscape:collect="always"
       style="color-interpolation-filters:sRGB"
       id="filter1680"
       x="-0.1719196"
       width="1.3438392"
       y="-0.23758332"
       height="1.4751666">
      <feGaussianBlur
         inkscape:collect="always"
         stdDeviation="1.7188873"
         id="feGaussianBlur1682" />
    </filter>
    <filter
       inkscape:collect="always"
       style="color-interpolation-filters:sRGB"
       id="filter1684"
       x="-0.28993222"
       width="1.5798644"
       y="-0.31387159"
       height="1.6277432">
      <feGaussianBlur
         inkscape:collect="always"
         stdDeviation="1.7188873"
         id="feGaussianBlur1686" />
    </filter>
    <filter
       inkscape:collect="always"
       style="color-interpolation-filters:sRGB"
       id="filter1688"
       x="-0.62203681"
       width="2.2440736"
       y="-0.46232435"
       height="1.9246486">
      <feGaussianBlur
         inkscape:collect="always"
         stdDeviation="1.7188873"
         id="feGaussianBlur1690" />
    </filter>
    <filter
       inkscape:collect="always"
       style="color-interpolation-filters:sRGB"
       id="filter1692"
       x="-0.31973821"
       width="1.6394764"
       y="-0.43861535"
       height="1.8772306">
      <feGaussianBlur
         inkscape:collect="always"
         stdDeviation="1.7188873"
         id="feGaussianBlur1694" />
    </filter>
    <filter
       inkscape:collect="always"
       style="color-interpolation-filters:sRGB"
       id="filter1696"
       x="-0.38877273"
       width="1.7775455"
       y="-0.49582607"
       height="1.9916523">
      <feGaussianBlur
         inkscape:collect="always"
         stdDeviation="1.7188873"
         id="feGaussianBlur1698" />
    </filter>
    <filter
       inkscape:collect="always"
       style="color-interpolation-filters:sRGB"
       id="filter1700"
       x="-0.3387326"
       width="1.6774652"
       y="-0.45615986"
       height="1.9123197">
      <feGaussianBlur
         inkscape:collect="always"
         stdDeviation="1.7188873"
         id="feGaussianBlur1702" />
    </filter>
    <filter
       inkscape:collect="always"
       style="color-interpolation-filters:sRGB"
       id="filter1704"
       x="-0.5183636"
       width="2.0367272"
       y="-0.81457162"
       height="2.6291432">
      <feGaussianBlur
         inkscape:collect="always"
         stdDeviation="1.7188873"
         id="feGaussianBlur1706" />
    </filter>
    <filter
       inkscape:collect="always"
       style="color-interpolation-filters:sRGB"
       id="filter1708"
       x="-0.41721958"
       width="1.8344392"
       y="-0.74373937"
       height="2.4874787">
      <feGaussianBlur
         inkscape:collect="always"
         stdDeviation="1.7188873"
         id="feGaussianBlur1710" />
    </filter>
    <filter
       inkscape:collect="always"
       style="color-interpolation-filters:sRGB"
       id="filter1712"
       x="-0.5183636"
       width="2.0367272"
       y="-0.71275032"
       height="2.4255006">
      <feGaussianBlur
         inkscape:collect="always"
         stdDeviation="1.7188873"
         id="feGaussianBlur1714" />
    </filter>
    <filter
       inkscape:collect="always"
       style="color-interpolation-filters:sRGB"
       id="filter1716"
       x="-0.48874316"
       width="1.9774863"
       y="-0.72791487"
       height="2.4558299">
      <feGaussianBlur
         inkscape:collect="always"
         stdDeviation="1.7188873"
         id="feGaussianBlur1718" />
    </filter>
    <filter
       inkscape:collect="always"
       style="color-interpolation-filters:sRGB"
       id="filter1720"
       x="-0.4072859"
       width="1.8145719"
       y="-0.68423998"
       height="2.36848">
      <feGaussianBlur
         inkscape:collect="always"
         stdDeviation="1.7188873"
         id="feGaussianBlur1722" />
    </filter>
    <filter
       inkscape:collect="always"
       style="color-interpolation-filters:sRGB"
       id="filter1724"
       x="-0.31101841"
       width="1.6220368"
       y="-0.5031178"
       height="2.0062356">
      <feGaussianBlur
         inkscape:collect="always"
         stdDeviation="1.7188873"
         id="feGaussianBlur1726" />
    </filter>
    <filter
       inkscape:collect="always"
       style="color-interpolation-filters:sRGB"
       id="filter1728"
       x="-0.3527011"
       width="1.7054023"
       y="-1.3684809"
       height="3.7369618">
      <feGaussianBlur
         inkscape:collect="always"
         stdDeviation="1.7188873"
         id="feGaussianBlur1730" />
    </filter>
    <filter
       inkscape:collect="always"
       style="color-interpolation-filters:sRGB"
       id="filter1732"
       x="-0.45615989"
       width="1.9123198"
       y="-2.8509986"
       height="6.7019973">
      <feGaussianBlur
         inkscape:collect="always"
         stdDeviation="1.7188873"
         id="feGaussianBlur1734" />
    </filter>
    <filter
       inkscape:collect="always"
       style="color-interpolation-filters:sRGB"
       id="filter1736"
       x="-0.7127499"
       width="2.4254999"
       y="-1.179724"
       height="3.359448">
      <feGaussianBlur
         inkscape:collect="always"
         stdDeviation="1.7188873"
         id="feGaussianBlur1738" />
    </filter>
    <filter
       inkscape:collect="always"
       style="color-interpolation-filters:sRGB"
       id="filter1740"
       x="-1.8006315"
       width="4.601263"
       y="-2.0124736"
       height="5.0249472">
      <feGaussianBlur
         inkscape:collect="always"
         stdDeviation="1.7188873"
         id="feGaussianBlur1742" />
    </filter>
    <filter
       inkscape:collect="always"
       style="color-interpolation-filters:sRGB"
       id="filter1744"
       x="-0.12531868"
       width="1.2506374"
       y="-0.26316917"
       height="1.5263385">
      <feGaussianBlur
         inkscape:collect="always"
         stdDeviation="1.7188873"
         id="feGaussianBlur1746" />
    </filter>
    <filter
       inkscape:collect="always"
       style="color-interpolation-filters:sRGB"
       id="filter1748"
       x="-0.13739759"
       width="1.2747952"
       y="-0.26316935"
       height="1.5263387">
      <feGaussianBlur
         inkscape:collect="always"
         stdDeviation="1.7188873"
         id="feGaussianBlur1750" />
    </filter>
    <filter
       inkscape:collect="always"
       style="color-interpolation-filters:sRGB"
       id="filter1752"
       x="-0.30821624"
       width="1.6164325"
       y="-0.57986444"
       height="2.159729">
      <feGaussianBlur
         inkscape:collect="always"
         stdDeviation="1.7188873"
         id="feGaussianBlur1754" />
    </filter>
    <filter
       inkscape:collect="always"
       style="color-interpolation-filters:sRGB"
       id="filter1756"
       x="-1.5550915"
       width="4.1101828"
       y="-3.4212103"
       height="7.8424206">
      <feGaussianBlur
         inkscape:collect="always"
         stdDeviation="1.7188873"
         id="feGaussianBlur1758" />
    </filter>
    <filter
       inkscape:collect="always"
       style="color-interpolation-filters:sRGB"
       id="filter1760"
       x="-0.90031594"
       width="2.800632"
       y="-2.1382408"
       height="5.2764816">
      <feGaussianBlur
         inkscape:collect="always"
         stdDeviation="1.7188873"
         id="feGaussianBlur1762" />
    </filter>
    <filter
       inkscape:collect="always"
       style="color-interpolation-filters:sRGB"
       id="filter1764"
       x="-0.45616001"
       width="1.91232"
       y="-0.77754545"
       height="2.5550909">
      <feGaussianBlur
         inkscape:collect="always"
         stdDeviation="1.7188873"
         id="feGaussianBlur1766" />
    </filter>
    <filter
       inkscape:collect="always"
       style="color-interpolation-filters:sRGB"
       id="filter1768"
       x="-0.74373919"
       width="2.4874785"
       y="-1.0367259"
       height="3.073452">
      <feGaussianBlur
         inkscape:collect="always"
         stdDeviation="1.7188873"
         id="feGaussianBlur1770" />
    </filter>
    <filter
       inkscape:collect="always"
       style="color-interpolation-filters:sRGB"
       id="filter1772"
       x="-0.58986199"
       width="2.179724"
       y="-0.77754557"
       height="2.5550911">
      <feGaussianBlur
         inkscape:collect="always"
         stdDeviation="1.7188873"
         id="feGaussianBlur1774" />
    </filter>
  </defs>
  <sodipodi:namedview
     id="base"
     pagecolor="#ffffff"
     bordercolor="#666666"
     borderopacity="1.0"
     inkscape:pageopacity="0.0"
     inkscape:pageshadow="2"
     inkscape:zoom="0.67375321"
     inkscape:cx="424.9653"
     inkscape:cy="59.987226"
     inkscape:document-units="mm"
     inkscape:current-layer="layer4"
     showgrid="false"
     inkscape:window-width="1920"
     inkscape:window-height="1039"
     inkscape:window-x="0"
     inkscape:window-y="0"
     inkscape:window-maximized="1"
     inkscape:snap-others="false"
     inkscape:snap-nodes="false"
     showguides="false"
     fit-margin-top="0"
     fit-margin-left="0"
     fit-margin-right="0"
     fit-margin-bottom="0">
    <sodipodi:guide
       position="159.22642,98.352737"
       orientation="0,1"
       id="guide1067"
       inkscape:locked="false" />
  </sodipodi:namedview>
  <metadata
     id="metadata5">
    <rdf:RDF>
      <cc:Work
         rdf:about="">
        <dc:format>image/svg+xml</dc:format>
        <dc:type
           rdf:resource="http://purl.org/dc/dcmitype/StillImage" />
        <dc:title></dc:title>
      </cc:Work>
    </rdf:RDF>
  </metadata>
  <g
     inkscape:groupmode="layer"
     id="layer4"
     inkscape:label="Form Fade"
     transform="translate(4.7282363,-47.25556)">
    <path
       sodipodi:nodetypes="cccccccccccccccccccccccccccccccccccccccccccccccccccccccccccccccccccccccccccccccccccccccccccccccccccccccccccccccccccccccccccccccccccccccccccccccccccccccccc"
       inkscape:connector-curvature="0"
       id="path1159"
       d="m 129.62496,144.46458 -20.86057,2.41162 1.32639,17.24314 15.91674,-19.77535 v 4.22035 l -25.08092,6.27023 2.29105,-9.52592 3.8586,1.44697 -0.84407,17.60488 2.53221,-0.36174 6.27023,-20.37825 6.27023,9.52592 -19.05186,5.54675 7.23489,5.185 4.58209,-2.6528 -0.60291,-16.64022 13.62569,2.17046 -23.75452,16.1579 6.75255,-19.29301 6.87314,12.41988 -16.39907,-6.02907 9.16419,13.62569 10.9729,-19.65476 2.89395,5.66732 -21.9458,-1.20581 1.80872,13.6257 9.0436,-0.12059 -1.44698,-17.60488 h -2.89395 l -0.84407,-2.65279 -2.77337,0.72349 -0.36175,-0.96465 -1.32639,2.29105 2.29104,-3.01453 0.96466,2.5322 3.13511,-0.36174 -3.61744,20.86057 10.49058,-5.06441 -3.97918,-14.10802 -9.64651,2.65279 2.41162,16.27848 11.57581,-6.51139 1.56756,-13.50511 4.46151,6.63197 1.56756,-5.78791 3.2557,2.77338 0.72348,-2.77338 0.84407,0.48233 -28.57778,7.95837 8.56128,-7.83779 -3.13512,0.60291 v -1.56756 l -0.60291,0.72349 2.29105,-0.84407 0.12058,20.13709 -5.42616,-7.1143 6.14965,-10.61116 6.75256,13.38453 1.9293,-15.555 4.34093,6.51139 1.32639,-5.90848 2.41163,3.49686 3.13512,-3.2557 -26.88965,10.73174 12.78163,5.66733 3.25569,-0.12059 -0.96465,3.73803 4.94384,1.32639 -1.68814,4.09977 2.04988,0.48232 -3.97918,-4.09976 1.56755,-3.85861 -5.90848,-0.12058 2.04988,-4.70267 6.02907,12.66104 -7.23488,-9.40534 8.19953,8.68186 0.24116,-3.01454 2.89396,2.04988 0.6029,-4.22034 1.9293,1.80872 0.12059,-2.77337 1.32639,1.32639 0.36174,-2.77337 1.44698,1.08523 0.48233,-2.17046 0.48232,1.68813 0.72349,-3.13511 2.41163,-1.68814 -0.36175,-3.2557 0.96465,0.60291 -2.04988,1.9293 0.36174,3.73802 -2.04988,0.36175 -0.60291,2.04988 -0.72348,-1.32639 -0.24117,1.80872 -1.9293,-0.60291 -0.12058,2.17046 -1.80872,-1.08523 -0.12058,2.89395 -2.65279,-1.56755 -0.12058,3.97918 -1.9293,-3.13511 -3.61744,0.84407 2.41162,-3.61744 h -5.54674 l 1.3264,-5.185 -16.03733,-7.59663 4.94384,-5.30558 16.1579,20.98116 v 3.01453 l 3.37628,-0.72349 3.37628,-5.42616 3.73802,-1.44697 3.73802,-7.35547 -2.65279,6.75256 -12.66104,7.35546 -16.88139,-23.63394 -4.943837,-11.21407 -0.844069,-3.97919 -2.532208,-3.8586 v -2.29104 l -1.929302,-2.65279 -0.482324,-3.49686 -1.929302,-1.9293 -1.808721,-6.14965 -3.858604,-7.59663 -1.205815,-5.184997 -1.929302,-3.376279 4.099767,8.320116 0.120581,3.61744 1.567558,1.08523 -4.582091,-8.92302 -2.77337,-9.767091 -1.68814,-3.255695 -0.361744,-3.617442 -1.80872,-2.170464 -2.773371,-10.731741 -1.326396,0.120581 1.567559,1.205812 3.858601,12.299299 2.170467,3.858604 3.617439,13.143368 3.376279,6.873139 3.858604,8.68186 0.964649,4.46151 2.049884,2.41162 v 2.29105 l 2.170464,2.53221 0.361744,3.8586 2.291048,2.65279 v 2.04989 l 1.205812,0.48233 0.72349,3.8586 10.61116,24.11627 -7.95837,0.36174 1.56756,1.56756 -1.56756,1.08523 0.84407,1.56756 h -0.96465 l 1.08523,-1.08523 -0.96465,-1.44698 1.9293,-2.17046 -1.9293,6.51139 13.98744,-2.41163 -2.17047,5.54675 4.09977,1.56755 -3.73802,2.77338 1.44697,1.20581 -2.53221,0.60291 v 1.44697 h -2.17046 l -0.36174,1.44698 -1.56756,-0.24116 -1.3264,1.20581 -1.08523,-0.12058 2.53221,-0.36175 0.84407,-1.44697 h 2.04988 l 0.48233,-1.56756 h 1.44697 v -1.3264 l 2.77338,-1.56755 -1.92931,-1.44698 3.37628,-2.89395 -6.14965,-1.3264 1.08523,-6.51139 -6.39081,6.14965 -3.01453,-3.97919 6.63197,-2.77337 6.99372,5.78791 0.24117,3.73802 -2.89396,5.30558 1.68814,-10.61116 -6.75255,2.29105 -3.2557,-5.06442 -2.29105,5.185 -2.65279,-0.84407 10.61116,-5.06442 -0.84407,5.90849 6.02907,-1.3264 -2.89395,4.46151 2.65279,2.77337 -0.36175,-8.07895 -8.80244,-3.37627 -2.65279,5.90848 -2.17046,-2.89395 9.88767,-4.70267 0.60291,7.59662 3.8586,-0.36174 -2.65279,-5.30558 -9.16418,0.24116 0.48232,5.06442 5.54675,-7.35547 1.80872,7.71721 2.65279,-3.37628 -5.30558,-4.22034 -2.65279,7.23488 -3.37628,-5.54674 3.73802,-0.48233 2.04988,5.66732 3.85861,-5.18499"
       style="fill:none;stroke:#000000;stroke-width:0.5;stroke-linecap:round;stroke-linejoin:round;stroke-miterlimit:4;stroke-dasharray:none;stroke-opacity:1;filter:url(#filter1234)" />
    <path
       inkscape:connector-curvature="0"
       id="path1161"
       d="m 121.16,165.52307 -2.98424,-9.54956 15.68856,2.30212 -5.71268,-13.30116 9.37903,1.96107 -2.81371,-7.67375 8.0148,1.27895 -4.26319,-7.75901 9.2085,-1.44949 -3.0695,-7.0769 5.96847,-0.59685 -2.04633,-1.79054 3.75161,0.76738 -1.8758,-3.92214 2.64318,-1.44949 -0.34106,-2.72844 1.96107,-1.62002 -1.62001,-1.79054 1.27895,-0.51158 -1.44948,1.70527 1.36422,1.1937 -1.44949,0.42632 0.93791,1.19369 -2.04634,0.68211 1.53475,1.53475 -2.21686,0.17053 1.96107,1.36422 -3.49582,1.27896 3.24003,2.1316 0.85264,-2.21686 -3.24003,-0.85264 3.32529,1.87581 0.59685,-1.70528 0.34106,0.76737 0.42632,-1.10843 0.59684,1.02317 -0.9379,-1.27896 -0.34106,1.44949 -0.59684,-1.02317 -3.0695,4.09267 -1.27896,-2.55792 3.66635,-1.70528 -2.98424,3.75162 1.36422,-6.13901 2.04634,-0.85264 -0.42632,-4.68951 1.53475,0.59685 -0.59685,2.64318 -1.87581,0.85264 0.68211,2.89897 -3.49582,3.24003 0.51159,3.24003 -1.44949,-2.64319 -1.27896,1.44949 2.64318,-0.34105 -1.36422,1.8758 2.04634,-1.10843 -30.18342,39.81824 2.13159,-12.87485 13.81275,0.85264 -5.37162,10.65799 -9.72009,2.38739 4.34846,-16.71173 11.42536,0.51159 -3.0695,-8.18534 7.84428,1.79055 -4.34845,-6.3948 7.92954,1.44949 -5.28636,-8.52639 8.2706,0.68211 -1.70528,-5.62742 3.24003,1.53475 -7.58849,-0.25579 4.51899,8.10007 -8.2706,1.10843 4.0074,6.99164 -8.18533,-1.44948 3.15476,8.35586 -9.80535,-1.62001 -0.17053,17.56436 -10.1464,-3.49582 1.87581,-5.54215 15.51803,1.44948 -2.98424,-12.53379 7.16217,1.70528 -2.64318,-7.92955 7.92954,1.36423 -5.11584,-8.2706 9.20851,-0.42632 -2.55792,-6.56532 4.0074,2.1316 -8.35586,0.17052 4.77478,8.61166 -8.18534,0.51158 2.38739,8.01481 -7.67375,-1.10843 3.58109,8.18533 -12.5338,-0.59685 -3.0695,14.4096 3.15477,2.72845 3.15476,-19.35491 9.54956,3.32529 -4.51899,11.08431 -15.09171,-4.26319 0.17053,2.30212 8.78218,5.03057 v -16.11488 l 9.97588,4.51899 -17.64963,8.86745 2.38739,-9.63482 14.4096,1.53475 -4.94531,-9.54956 8.35586,1.79054 -2.81371,-7.92954 8.18534,1.02317 -4.77478,-7.50323 9.12324,-1.27896 -2.89897,-6.73584 5.28636,2.72844 -7.24743,-2.1316 6.05373,2.81371 -8.35586,-0.17053 4.68951,8.86745 -8.69691,0.85264 2.81371,7.33269 -7.75902,-1.27895 3.49582,12.02221 -13.89801,11.93694 -0.0853,-15.85908 12.36327,1.96107 -0.59685,6.82111 -16.20014,-3.15477 8.35586,8.10007 -5.79794,-10.91378 15.60329,1.62002 5.71268,-28.47814 14.4096,-7.50323 -3.92214,3.15477 2.47265,-11.85168 -1.02316,2.30212 -4.17794,15.43277 -15.68855,13.13064 -11.3401,24.72653 7.92954,-21.57177 -2.64318,-0.51158 4.2632,-5.2011 2.72844,0.76738 0.17053,-0.85264 -5.88321,1.10843 2.81371,4.09266 0.34105,-5.54215 1.96107,2.55792 0.17053,-2.30213 -6.22426,2.72845 2.47265,2.81371 0.9379,-5.2011 1.70528,3.24003 -5.28636,0.68211 6.48005,-2.55792 -4.0074,-1.27896 2.98424,-0.17053 -5.37163,3.49582 4.86004,0.68212 -4.9453,0.9379 6.90637,-4.86004 -5.37162,0.42632 -0.42632,-0.85264 2.21686,-1.96107 0.42632,-1.27896 0.68211,-0.85264 -0.51158,0.17053 -0.17053,1.10843 -1.36422,3.15476 -1.36422,-0.17053 v -1.27895 l -0.17053,-1.1937 -0.42632,-1.79054 0.76737,2.98424 -0.51158,1.02316 h 2.30213 l -2.30213,-0.76737 2.89897,-0.85264 -2.30212,-0.42632 0.85264,-0.85264 v 3.0695 l 1.10843,-2.81371 0.42632,2.98424 1.44948,-0.76738 0.76738,-0.68211 0.42632,0.76738 -0.76738,-0.17053 -0.17053,0.51158 -1.02316,0.0853 1.70528,-1.02317 -3.75162,1.79054 0.34106,-4.09267 -2.04633,3.58109 1.10843,0.51158 -1.53475,4.0074 7.84428,10.82852 -2.38739,-11.68115 5.79794,4.43372 -2.1316,2.98423 2.04634,-0.0853 -2.04634,1.62001 2.04634,-0.42631 -2.64318,-0.51159 2.55791,-1.79054 -1.53475,-0.34106 1.44949,-2.30212"
       style="fill:none;stroke:#000000;stroke-width:0.5;stroke-linecap:round;stroke-linejoin:round;stroke-miterlimit:4;stroke-dasharray:none;stroke-opacity:1;filter:url(#filter1238)" />
    <path
       inkscape:connector-curvature="0"
       id="path1163"
       d="m 113.65678,171.49154 -5.79795,11.16957 -11.254834,-10.74325 -7.759015,10.06114 -5.456891,-17.05278 -10.828514,4.51898 -1.53475,-8.61165 -7.24743,2.72845 -2.046335,-10.65799 -10.572723,7.50322 -5.542153,-4.9453 5.627417,-3.75162 16.285403,5.28637 -9.975873,4.86004 -9.80535,-8.78218 -2.131597,6.22426 9.464294,-7.92954 5.115832,12.44853 2.472653,0.76737 -0.426318,0.68212 -3.410556,-12.44853 -10.999043,7.58848 -2.813709,-3.0695 8.014806,-5.71268 11.340099,8.78218 -10.231667,0.76738 -7.503224,-6.82111 20.037015,-0.17053 0.682112,3.0695 -2.984236,-4.2632 -11.510626,7.58849 -6.56532,-5.71268 3.325291,-2.64318 13.471697,10.65798 -2.302127,-10.06113 -11.510626,7.67375 -3.751612,-4.09267 8.782182,-4.60425 0.426321,9.29376 3.751612,-8.10007 0.596847,9.4643 4.860041,-9.54956 -3.410556,10.82852 2.984235,-4.17794 -1.36422,5.54216 1.961068,-5.2011 -2.898971,4.51899 1.620014,-5.45689 -2.898973,3.75161 -0.255791,-9.63482 -11.425362,7.50322 -2.813709,-3.58108 20.804391,-2.1316 -0.341056,2.30212 -1.193694,-4.17793 -0.170529,5.2011 -1.96107,-4.9453 -3.922139,8.69691 -4.263194,-10.1464 -7.844279,7.67375 10.316932,-6.73585 8.10007,5.37163 2.64318,0.25579 0.767376,7.92954 9.293765,-4.0074 1.108429,10.82851 12.363265,-2.38739 6.991641,14.32434 3.325294,-15.00645 14.06854,7.16217 0.34106,-3.32529 -5.28636,-3.49582 -6.65059,13.47169 -10.487459,-11.3401 -9.037973,5.37163 -3.410556,-14.66539 -9.720085,4.09267 -2.302124,-7.58849 -5.797944,3.58108 3.666347,-5.8832 -0.767376,7.33269 9.975876,-3.32529 v 9.89061 l 10.91378,-3.58108 6.906376,16.71172 4.774777,-12.36326 13.471701,8.10007 3.15476,-7.41796 -7.75901,-1.87581 -6.30953,13.55696 -8.44113,-11.76642 -6.139,6.90638 -4.092668,-15.51803 -10.74325,4.17793 -7.332697,-9.2085 4.348459,0.17053 8.355862,12.96011 22.765461,12.44853 13.727493,-5.71268 0.9379,-6.99164 -15.091711,-0.68211 -8.014808,11.3401 -5.883209,-16.5412 -11.595888,4.43372 -0.767376,-9.03797 -8.441127,2.81371 0.511585,-5.62742 19.184377,7.67375 16.029607,18.50227 14.92119,-11.42536 -17.479103,-1.62002 -10.487459,8.86745 1.620015,-12.19274 -11.169571,4.09266 -1.278959,-10.31692 -6.053735,4.34845 -2.1316,-7.41795 -5.371623,0.0853 33.082391,25.4939 19.440174,-9.63482 -28.648674,4.94531 23.362304,-9.97588 -29.84236,5.03057 10.913779,-5.11583 -16.285406,0.68211 11.084306,-4.0074 -16.455932,0.42632 -1.364221,-7.67375 -4.007403,1.70527 3.325292,4.51899 12.533793,-3.24003 1.705277,13.13064 10.316932,-3.66634 3.325292,13.30116 4.433721,-14.06854 10.4022,10.82851 0.76737,-10.65798 3.83688,6.82111 -14.23907,-7.24743 -0.937907,13.4717 -21.145445,-22.08335 -5.968473,7.0769 16.455932,-0.0853 5.456889,15.94435 -13.898015,-6.56532 -2.387388,5.54216 -2.813709,-2.64318 -3.922141,5.37162 -3.666347,-2.38739 3.581085,-2.89897 3.495818,4.17793 3.666349,-6.82111 4.860042,5.2011 0.937903,-5.62742 5.371626,5.54215 2.046332,-0.17053 0.255792,0.68212 -1.875806,-1.79054 -3.154765,1.27895 -4.092665,-5.62741 -1.96107,5.28636 -4.177932,-4.60425 0.08526,4.86004 -3.0695,-2.89897 -4.348459,7.84428 -0.170529,-7.84428 -0.682109,5.28636 2.216862,1.36422 -1.961071,0.9379 1.10843,0.17053 -1.278959,-1.19369 2.302126,-6.30953 2.728445,4.86004 2.643182,-4.94531 3.240026,2.98424 2.387391,-6.22426 3.154762,5.54215 2.984238,-2.72845 -10.913779,-1.44948 6.480056,-1.1937 -14.324335,7.67376 6.309529,-0.51159 -6.309529,-4.09267 h 2.643182 l -0.852641,5.62742 -2.643179,-1.02316 4.092667,-4.17794 3.410556,2.64319 3.410556,-5.2011 5.371623,4.9453 4.945309,-2.04633 -11.681156,1.96107 -1.023167,-1.44949 18.246476,-9.97588 10.316932,10.48747 6.65059,-12.19274 -8.61166,-0.76738 -3.24003,14.49487 -8.014805,-1.27896 0.341055,-11.51063 -10.572723,4.86004 33.593983,-2.55791 -1.87581,4.86004"
       style="fill:none;stroke:#000000;stroke-width:0.5;stroke-linecap:round;stroke-linejoin:round;stroke-miterlimit:4;stroke-dasharray:none;stroke-opacity:1;filter:url(#filter1242)" />
    <path
       inkscape:connector-curvature="0"
       id="path1165"
       d="m 117.1526,177.46001 4.09266,-1.27896 1.1937,-5.8832 4.34846,0.51158 0.85263,-3.66635 2.38739,0.0853 1.87581,-3.49581 -12.61906,10.82851 0.76738,1.79054 -1.62002,-0.42632 5.28637,-2.89897 2.38738,-4.26319 2.55792,-0.68212 1.10843,-3.0695 h 1.87581 l -12.70432,10.4022 1.70527,-4.43373 2.21687,2.3874 0.25579,-3.24003 2.38739,1.36422 0.42632,-2.89897 2.47265,0.68211 0.51158,-3.15477 3.49582,-1.62001 -7.33269,7.58849 -4.77478,-0.0853 0.59685,4.2632 0.85264,-5.88321 0.51158,3.92214 1.70528,-4.2632 2.55791,-0.0853"
       style="fill:none;stroke:#000000;stroke-width:0.5;stroke-linecap:round;stroke-linejoin:round;stroke-miterlimit:4;stroke-dasharray:none;stroke-opacity:1;filter:url(#filter1246)" />
    <path
       inkscape:connector-curvature="0"
       id="path1167"
       d="M 73.497479,69.345391 65.482673,65.593779 58.149979,65.764306 56.615229,66.958 V 60.989529 L 61.04895,54.68 l 9.037973,-4.433723 8.526391,2.557917 4.60425,2.387389 -5.797944,6.480058 -2.898974,6.650583 -5.968473,-1.023168 8.014806,-4.263194 -19.610694,-2.728444 5.96847,-6.30953 18.928585,0.17053 -16.711723,11.425361 1.53475,-13.983279 7.162168,-0.682112 5.797944,8.014806 -19.95175,6.650585 1.193694,-10.743252 22.339141,0.341056 -26.602335,9.720085 1.193694,0.682111 -1.193694,1.023168 1.193694,-7.332697 1.53475,6.309529 4.263194,-11.936946 1.364223,11.595891 5.286362,-15.006447 0.852638,17.90542 3.751612,-2.387391 -1.53475,-14.835918 8.014806,5.968474 v -2.898974 l -24.556003,8.526391 5.115835,2.557918 2.898971,-11.936947 3.751612,13.81275 8.526391,-5.286359 -0.852641,-9.379029 -10.913777,1.193694 -1.875806,12.619056 -5.456891,-7.844277 0.511586,8.014806 19.610694,-13.812753"
       style="fill:none;stroke:#000000;stroke-width:0.5;stroke-linecap:round;stroke-linejoin:round;stroke-miterlimit:4;stroke-dasharray:none;stroke-opacity:1;filter:url(#filter1250)" />
    <text
       xml:space="preserve"
       style="font-style:normal;font-variant:normal;font-weight:bold;font-stretch:normal;font-size:42.33333206px;line-height:1.25;font-family:Hack;-inkscape-font-specification:'Hack Bold';letter-spacing:0px;word-spacing:0px;fill:#000000;fill-opacity:1;stroke:none;stroke-width:0.26458332"
       x="142.02632"
       y="157.50955"
       id="text998"><tspan
         sodipodi:role="line"
         x="142.02632"
         y="157.50955"
         style="font-style:oblique;font-variant:normal;font-weight:bold;font-stretch:normal;font-size:14.11111069px;font-family:Hack;-inkscape-font-specification:'Hack Bold Oblique';stroke-width:0.26458332"
         id="tspan1000">Trabalhos</tspan></text>
    <text
       xml:space="preserve"
       style="font-style:normal;font-variant:normal;font-weight:bold;font-stretch:normal;font-size:42.33333206px;line-height:1.25;font-family:Hack;-inkscape-font-specification:'Hack Bold';letter-spacing:0px;word-spacing:0px;fill:#000000;fill-opacity:1;stroke:none;stroke-width:0.26458332"
       x="130.36371"
       y="183.47275"
       id="text1008"><tspan
         sodipodi:role="line"
         id="tspan1006"
         x="130.36371"
         y="183.47275"
         style="font-style:oblique;font-variant:normal;font-weight:bold;font-stretch:normal;font-size:16.93333244px;font-family:Hack;-inkscape-font-specification:'Hack Bold Oblique';stroke-width:0.26458332">Analisados</tspan></text>
  </g>
  <g
     inkscape:groupmode="layer"
     id="layer2"
     inkscape:label="Form"
     transform="translate(4.7282363,-47.25556)">
    <path
       style="fill:none;stroke:#000000;stroke-width:0.5;stroke-linecap:round;stroke-linejoin:round;stroke-miterlimit:4;stroke-dasharray:none;stroke-opacity:1"
       d="m 129.62496,144.46458 -20.86057,2.41162 1.32639,17.24314 15.91674,-19.77535 v 4.22035 l -25.08092,6.27023 2.29105,-9.52592 3.8586,1.44697 -0.84407,17.60488 2.53221,-0.36174 6.27023,-20.37825 6.27023,9.52592 -19.05186,5.54675 7.23489,5.185 4.58209,-2.6528 -0.60291,-16.64022 13.62569,2.17046 -23.75452,16.1579 6.75255,-19.29301 6.87314,12.41988 -16.39907,-6.02907 9.16419,13.62569 10.9729,-19.65476 2.89395,5.66732 -21.9458,-1.20581 1.80872,13.6257 9.0436,-0.12059 -1.44698,-17.60488 h -2.89395 l -0.84407,-2.65279 -2.77337,0.72349 -0.36175,-0.96465 -1.32639,2.29105 2.29104,-3.01453 0.96466,2.5322 3.13511,-0.36174 -3.61744,20.86057 10.49058,-5.06441 -3.97918,-14.10802 -9.64651,2.65279 2.41162,16.27848 11.57581,-6.51139 1.56756,-13.50511 4.46151,6.63197 1.56756,-5.78791 3.2557,2.77338 0.72348,-2.77338 0.84407,0.48233 -28.57778,7.95837 8.56128,-7.83779 -3.13512,0.60291 v -1.56756 l -0.60291,0.72349 2.29105,-0.84407 0.12058,20.13709 -5.42616,-7.1143 6.14965,-10.61116 6.75256,13.38453 1.9293,-15.555 4.34093,6.51139 1.32639,-5.90848 2.41163,3.49686 3.13512,-3.2557 -26.88965,10.73174 12.78163,5.66733 3.25569,-0.12059 -0.96465,3.73803 4.94384,1.32639 -1.68814,4.09977 2.04988,0.48232 -3.97918,-4.09976 1.56755,-3.85861 -5.90848,-0.12058 2.04988,-4.70267 6.02907,12.66104 -7.23488,-9.40534 8.19953,8.68186 0.24116,-3.01454 2.89396,2.04988 0.6029,-4.22034 1.9293,1.80872 0.12059,-2.77337 1.32639,1.32639 0.36174,-2.77337 1.44698,1.08523 0.48233,-2.17046 0.48232,1.68813 0.72349,-3.13511 2.41163,-1.68814 -0.36175,-3.2557 0.96465,0.60291 -2.04988,1.9293 0.36174,3.73802 -2.04988,0.36175 -0.60291,2.04988 -0.72348,-1.32639 -0.24117,1.80872 -1.9293,-0.60291 -0.12058,2.17046 -1.80872,-1.08523 -0.12058,2.89395 -2.65279,-1.56755 -0.12058,3.97918 -1.9293,-3.13511 -3.61744,0.84407 2.41162,-3.61744 h -5.54674 l 1.3264,-5.185 -16.03733,-7.59663 4.94384,-5.30558 16.1579,20.98116 v 3.01453 l 3.37628,-0.72349 3.37628,-5.42616 3.73802,-1.44697 3.73802,-7.35547 -2.65279,6.75256 -12.66104,7.35546 -16.88139,-23.63394 -4.943837,-11.21407 -0.844069,-3.97919 -2.532208,-3.8586 v -2.29104 l -1.929302,-2.65279 -0.482324,-3.49686 -1.929302,-1.9293 -1.808721,-6.14965 -3.858604,-7.59663 -1.205815,-5.184997 -1.929302,-3.376279 4.099767,8.320116 0.120581,3.61744 1.567558,1.08523 -4.582091,-8.92302 -2.77337,-9.767091 -1.68814,-3.255695 -0.361744,-3.617442 -1.80872,-2.170464 -2.773371,-10.731741 -1.326396,0.120581 1.567559,1.205812 3.858601,12.299299 2.170467,3.858604 3.617439,13.143368 3.376279,6.873139 3.858604,8.68186 0.964649,4.46151 2.049884,2.41162 v 2.29105 l 2.170464,2.53221 0.361744,3.8586 2.291048,2.65279 v 2.04989 l 1.205812,0.48233 0.72349,3.8586 10.61116,24.11627 -7.95837,0.36174 1.56756,1.56756 -1.56756,1.08523 0.84407,1.56756 h -0.96465 l 1.08523,-1.08523 -0.96465,-1.44698 1.9293,-2.17046 -1.9293,6.51139 13.98744,-2.41163 -2.17047,5.54675 4.09977,1.56755 -3.73802,2.77338 1.44697,1.20581 -2.53221,0.60291 v 1.44697 h -2.17046 l -0.36174,1.44698 -1.56756,-0.24116 -1.3264,1.20581 -1.08523,-0.12058 2.53221,-0.36175 0.84407,-1.44697 h 2.04988 l 0.48233,-1.56756 h 1.44697 v -1.3264 l 2.77338,-1.56755 -1.92931,-1.44698 3.37628,-2.89395 -6.14965,-1.3264 1.08523,-6.51139 -6.39081,6.14965 -3.01453,-3.97919 6.63197,-2.77337 6.99372,5.78791 0.24117,3.73802 -2.89396,5.30558 1.68814,-10.61116 -6.75255,2.29105 -3.2557,-5.06442 -2.29105,5.185 -2.65279,-0.84407 10.61116,-5.06442 -0.84407,5.90849 6.02907,-1.3264 -2.89395,4.46151 2.65279,2.77337 -0.36175,-8.07895 -8.80244,-3.37627 -2.65279,5.90848 -2.17046,-2.89395 9.88767,-4.70267 0.60291,7.59662 3.8586,-0.36174 -2.65279,-5.30558 -9.16418,0.24116 0.48232,5.06442 5.54675,-7.35547 1.80872,7.71721 2.65279,-3.37628 -5.30558,-4.22034 -2.65279,7.23488 -3.37628,-5.54674 3.73802,-0.48233 2.04988,5.66732 3.85861,-5.18499"
       id="path1065"
       inkscape:connector-curvature="0"
       sodipodi:nodetypes="cccccccccccccccccccccccccccccccccccccccccccccccccccccccccccccccccccccccccccccccccccccccccccccccccccccccccccccccccccccccccccccccccccccccccccccccccccccccccc" />
    <path
       style="fill:none;stroke:#000000;stroke-width:0.5;stroke-linecap:round;stroke-linejoin:round;stroke-miterlimit:4;stroke-dasharray:none;stroke-opacity:1"
       d="m 121.16,165.52307 -2.98424,-9.54956 15.68856,2.30212 -5.71268,-13.30116 9.37903,1.96107 -2.81371,-7.67375 8.0148,1.27895 -4.26319,-7.75901 9.2085,-1.44949 -3.0695,-7.0769 5.96847,-0.59685 -2.04633,-1.79054 3.75161,0.76738 -1.8758,-3.92214 2.64318,-1.44949 -0.34106,-2.72844 1.96107,-1.62002 -1.62001,-1.79054 1.27895,-0.51158 -1.44948,1.70527 1.36422,1.1937 -1.44949,0.42632 0.93791,1.19369 -2.04634,0.68211 1.53475,1.53475 -2.21686,0.17053 1.96107,1.36422 -3.49582,1.27896 3.24003,2.1316 0.85264,-2.21686 -3.24003,-0.85264 3.32529,1.87581 0.59685,-1.70528 0.34106,0.76737 0.42632,-1.10843 0.59684,1.02317 -0.9379,-1.27896 -0.34106,1.44949 -0.59684,-1.02317 -3.0695,4.09267 -1.27896,-2.55792 3.66635,-1.70528 -2.98424,3.75162 1.36422,-6.13901 2.04634,-0.85264 -0.42632,-4.68951 1.53475,0.59685 -0.59685,2.64318 -1.87581,0.85264 0.68211,2.89897 -3.49582,3.24003 0.51159,3.24003 -1.44949,-2.64319 -1.27896,1.44949 2.64318,-0.34105 -1.36422,1.8758 2.04634,-1.10843 -30.18342,39.81824 2.13159,-12.87485 13.81275,0.85264 -5.37162,10.65799 -9.72009,2.38739 4.34846,-16.71173 11.42536,0.51159 -3.0695,-8.18534 7.84428,1.79055 -4.34845,-6.3948 7.92954,1.44949 -5.28636,-8.52639 8.2706,0.68211 -1.70528,-5.62742 3.24003,1.53475 -7.58849,-0.25579 4.51899,8.10007 -8.2706,1.10843 4.0074,6.99164 -8.18533,-1.44948 3.15476,8.35586 -9.80535,-1.62001 -0.17053,17.56436 -10.1464,-3.49582 1.87581,-5.54215 15.51803,1.44948 -2.98424,-12.53379 7.16217,1.70528 -2.64318,-7.92955 7.92954,1.36423 -5.11584,-8.2706 9.20851,-0.42632 -2.55792,-6.56532 4.0074,2.1316 -8.35586,0.17052 4.77478,8.61166 -8.18534,0.51158 2.38739,8.01481 -7.67375,-1.10843 3.58109,8.18533 -12.5338,-0.59685 -3.0695,14.4096 3.15477,2.72845 3.15476,-19.35491 9.54956,3.32529 -4.51899,11.08431 -15.09171,-4.26319 0.17053,2.30212 8.78218,5.03057 v -16.11488 l 9.97588,4.51899 -17.64963,8.86745 2.38739,-9.63482 14.4096,1.53475 -4.94531,-9.54956 8.35586,1.79054 -2.81371,-7.92954 8.18534,1.02317 -4.77478,-7.50323 9.12324,-1.27896 -2.89897,-6.73584 5.28636,2.72844 -7.24743,-2.1316 6.05373,2.81371 -8.35586,-0.17053 4.68951,8.86745 -8.69691,0.85264 2.81371,7.33269 -7.75902,-1.27895 3.49582,12.02221 -13.89801,11.93694 -0.0853,-15.85908 12.36327,1.96107 -0.59685,6.82111 -16.20014,-3.15477 8.35586,8.10007 -5.79794,-10.91378 15.60329,1.62002 5.71268,-28.47814 14.4096,-7.50323 -3.92214,3.15477 2.47265,-11.85168 -1.02316,2.30212 -4.17794,15.43277 -15.68855,13.13064 -11.3401,24.72653 7.92954,-21.57177 -2.64318,-0.51158 4.2632,-5.2011 2.72844,0.76738 0.17053,-0.85264 -5.88321,1.10843 2.81371,4.09266 0.34105,-5.54215 1.96107,2.55792 0.17053,-2.30213 -6.22426,2.72845 2.47265,2.81371 0.9379,-5.2011 1.70528,3.24003 -5.28636,0.68211 6.48005,-2.55792 -4.0074,-1.27896 2.98424,-0.17053 -5.37163,3.49582 4.86004,0.68212 -4.9453,0.9379 6.90637,-4.86004 -5.37162,0.42632 -0.42632,-0.85264 2.21686,-1.96107 0.42632,-1.27896 0.68211,-0.85264 -0.51158,0.17053 -0.17053,1.10843 -1.36422,3.15476 -1.36422,-0.17053 v -1.27895 l -0.17053,-1.1937 -0.42632,-1.79054 0.76737,2.98424 -0.51158,1.02316 h 2.30213 l -2.30213,-0.76737 2.89897,-0.85264 -2.30212,-0.42632 0.85264,-0.85264 v 3.0695 l 1.10843,-2.81371 0.42632,2.98424 1.44948,-0.76738 0.76738,-0.68211 0.42632,0.76738 -0.76738,-0.17053 -0.17053,0.51158 -1.02316,0.0853 1.70528,-1.02317 -3.75162,1.79054 0.34106,-4.09267 -2.04633,3.58109 1.10843,0.51158 -1.53475,4.0074 7.84428,10.82852 -2.38739,-11.68115 5.79794,4.43372 -2.1316,2.98423 2.04634,-0.0853 -2.04634,1.62001 2.04634,-0.42631 -2.64318,-0.51159 2.55791,-1.79054 -1.53475,-0.34106 1.44949,-2.30212"
       id="path1069"
       inkscape:connector-curvature="0" />
    <path
       style="fill:none;stroke:#000000;stroke-width:0.5;stroke-linecap:round;stroke-linejoin:round;stroke-miterlimit:4;stroke-dasharray:none;stroke-opacity:1"
       d="m 113.65678,171.49154 -5.79795,11.16957 -11.254834,-10.74325 -7.759015,10.06114 -5.456891,-17.05278 -10.828514,4.51898 -1.53475,-8.61165 -7.24743,2.72845 -2.046335,-10.65799 -10.572723,7.50322 -5.542153,-4.9453 5.627417,-3.75162 16.285403,5.28637 -9.975873,4.86004 -9.80535,-8.78218 -2.131597,6.22426 9.464294,-7.92954 5.115832,12.44853 2.472653,0.76737 -0.426318,0.68212 -3.410556,-12.44853 -10.999043,7.58848 -2.813709,-3.0695 8.014806,-5.71268 11.340099,8.78218 -10.231667,0.76738 -7.503224,-6.82111 20.037015,-0.17053 0.682112,3.0695 -2.984236,-4.2632 -11.510626,7.58849 -6.56532,-5.71268 3.325291,-2.64318 13.471697,10.65798 -2.302127,-10.06113 -11.510626,7.67375 -3.751612,-4.09267 8.782182,-4.60425 0.426321,9.29376 3.751612,-8.10007 0.596847,9.4643 4.860041,-9.54956 -3.410556,10.82852 2.984235,-4.17794 -1.36422,5.54216 1.961068,-5.2011 -2.898971,4.51899 1.620014,-5.45689 -2.898973,3.75161 -0.255791,-9.63482 -11.425362,7.50322 -2.813709,-3.58108 20.804391,-2.1316 -0.341056,2.30212 -1.193694,-4.17793 -0.170529,5.2011 -1.96107,-4.9453 -3.922139,8.69691 -4.263194,-10.1464 -7.844279,7.67375 10.316932,-6.73585 8.10007,5.37163 2.64318,0.25579 0.767376,7.92954 9.293765,-4.0074 1.108429,10.82851 12.363265,-2.38739 6.991641,14.32434 3.325294,-15.00645 14.06854,7.16217 0.34106,-3.32529 -5.28636,-3.49582 -6.65059,13.47169 -10.487459,-11.3401 -9.037973,5.37163 -3.410556,-14.66539 -9.720085,4.09267 -2.302124,-7.58849 -5.797944,3.58108 3.666347,-5.8832 -0.767376,7.33269 9.975876,-3.32529 v 9.89061 l 10.91378,-3.58108 6.906376,16.71172 4.774777,-12.36326 13.471701,8.10007 3.15476,-7.41796 -7.75901,-1.87581 -6.30953,13.55696 -8.44113,-11.76642 -6.139,6.90638 -4.092668,-15.51803 -10.74325,4.17793 -7.332697,-9.2085 4.348459,0.17053 8.355862,12.96011 22.765461,12.44853 13.727493,-5.71268 0.9379,-6.99164 -15.091711,-0.68211 -8.014808,11.3401 -5.883209,-16.5412 -11.595888,4.43372 -0.767376,-9.03797 -8.441127,2.81371 0.511585,-5.62742 19.184377,7.67375 16.029607,18.50227 14.92119,-11.42536 -17.479103,-1.62002 -10.487459,8.86745 1.620015,-12.19274 -11.169571,4.09266 -1.278959,-10.31692 -6.053735,4.34845 -2.1316,-7.41795 -5.371623,0.0853 33.082391,25.4939 19.440174,-9.63482 -28.648674,4.94531 23.362304,-9.97588 -29.84236,5.03057 10.913779,-5.11583 -16.285406,0.68211 11.084306,-4.0074 -16.455932,0.42632 -1.364221,-7.67375 -4.007403,1.70527 3.325292,4.51899 12.533793,-3.24003 1.705277,13.13064 10.316932,-3.66634 3.325292,13.30116 4.433721,-14.06854 10.4022,10.82851 0.76737,-10.65798 3.83688,6.82111 -14.23907,-7.24743 -0.937907,13.4717 -21.145445,-22.08335 -5.968473,7.0769 16.455932,-0.0853 5.456889,15.94435 -13.898015,-6.56532 -2.387388,5.54216 -2.813709,-2.64318 -3.922141,5.37162 -3.666347,-2.38739 3.581085,-2.89897 3.495818,4.17793 3.666349,-6.82111 4.860042,5.2011 0.937903,-5.62742 5.371626,5.54215 2.046332,-0.17053 0.255792,0.68212 -1.875806,-1.79054 -3.154765,1.27895 -4.092665,-5.62741 -1.96107,5.28636 -4.177932,-4.60425 0.08526,4.86004 -3.0695,-2.89897 -4.348459,7.84428 -0.170529,-7.84428 -0.682109,5.28636 2.216862,1.36422 -1.961071,0.9379 1.10843,0.17053 -1.278959,-1.19369 2.302126,-6.30953 2.728445,4.86004 2.643182,-4.94531 3.240026,2.98424 2.387391,-6.22426 3.154762,5.54215 2.984238,-2.72845 -10.913779,-1.44948 6.480056,-1.1937 -14.324335,7.67376 6.309529,-0.51159 -6.309529,-4.09267 h 2.643182 l -0.852641,5.62742 -2.643179,-1.02316 4.092667,-4.17794 3.410556,2.64319 3.410556,-5.2011 5.371623,4.9453 4.945309,-2.04633 -11.681156,1.96107 -1.023167,-1.44949 18.246476,-9.97588 10.316932,10.48747 6.65059,-12.19274 -8.61166,-0.76738 -3.24003,14.49487 -8.014805,-1.27896 0.341055,-11.51063 -10.572723,4.86004 33.593983,-2.55791 -1.87581,4.86004"
       id="path1071"
       inkscape:connector-curvature="0" />
    <path
       style="fill:none;stroke:#000000;stroke-width:0.5;stroke-linecap:round;stroke-linejoin:round;stroke-miterlimit:4;stroke-dasharray:none;stroke-opacity:1"
       d="m 117.1526,177.46001 4.09266,-1.27896 1.1937,-5.8832 4.34846,0.51158 0.85263,-3.66635 2.38739,0.0853 1.87581,-3.49581 -12.61906,10.82851 0.76738,1.79054 -1.62002,-0.42632 5.28637,-2.89897 2.38738,-4.26319 2.55792,-0.68212 1.10843,-3.0695 h 1.87581 l -12.70432,10.4022 1.70527,-4.43373 2.21687,2.3874 0.25579,-3.24003 2.38739,1.36422 0.42632,-2.89897 2.47265,0.68211 0.51158,-3.15477 3.49582,-1.62001 -7.33269,7.58849 -4.77478,-0.0853 0.59685,4.2632 0.85264,-5.88321 0.51158,3.92214 1.70528,-4.2632 2.55791,-0.0853"
       id="path1073"
       inkscape:connector-curvature="0" />
    <path
       style="fill:none;stroke:#000000;stroke-width:0.5;stroke-linecap:round;stroke-linejoin:round;stroke-miterlimit:4;stroke-dasharray:none;stroke-opacity:1"
       d="M 73.497479,69.345391 65.482673,65.593779 58.149979,65.764306 56.615229,66.958 V 60.989529 L 61.04895,54.68 l 9.037973,-4.433723 8.526391,2.557917 4.60425,2.387389 -5.797944,6.480058 -2.898974,6.650583 -5.968473,-1.023168 8.014806,-4.263194 -19.610694,-2.728444 5.96847,-6.30953 18.928585,0.17053 -16.711723,11.425361 1.53475,-13.983279 7.162168,-0.682112 5.797944,8.014806 -19.95175,6.650585 1.193694,-10.743252 22.339141,0.341056 -26.602335,9.720085 1.193694,0.682111 -1.193694,1.023168 1.193694,-7.332697 1.53475,6.309529 4.263194,-11.936946 1.364223,11.595891 5.286362,-15.006447 0.852638,17.90542 3.751612,-2.387391 -1.53475,-14.835918 8.014806,5.968474 v -2.898974 l -24.556003,8.526391 5.115835,2.557918 2.898971,-11.936947 3.751612,13.81275 8.526391,-5.286359 -0.852641,-9.379029 -10.913777,1.193694 -1.875806,12.619056 -5.456891,-7.844277 0.511586,8.014806 19.610694,-13.812753"
       id="path1157"
       inkscape:connector-curvature="0" />
  </g>
  <g
     inkscape:groupmode="layer"
     id="layer3"
     inkscape:label="cloud"
     transform="translate(4.7282363,-47.25556)">
    <path
       style="fill:none;stroke:#000000;stroke-width:0.2;stroke-linecap:round;stroke-linejoin:round;stroke-miterlimit:4;stroke-dasharray:none;stroke-opacity:1"
       d="m 78.980791,108.16959 -0.361744,-1.08524 -3.738022,0.24117 -3.376279,3.49686 -5.667322,2.41162"
       id="path1076"
       inkscape:connector-curvature="0" />
    <path
       style="fill:none;stroke:#000000;stroke-width:0.2;stroke-linecap:round;stroke-linejoin:round;stroke-miterlimit:4;stroke-dasharray:none;stroke-opacity:1"
       d="m 86.336253,115.88679 -9.405345,6.02907 -4.582091,3.97919 5.426159,-2.04989 6.390812,-0.84407"
       id="path1078"
       inkscape:connector-curvature="0" />
    <path
       style="fill:none;stroke:#000000;stroke-width:0.2;stroke-linecap:round;stroke-linejoin:round;stroke-miterlimit:4;stroke-dasharray:none;stroke-opacity:1"
       d="m 71.987073,127.70377 -3.49686,-0.84407 2.049883,-1.3264 -1.567558,-0.96465 1.085233,-2.53221 -3.979185,1.9293 0.723487,1.56756 -2.291045,0.72349 1.446977,1.68814"
       id="path1080"
       inkscape:connector-curvature="0" />
    <path
       style="fill:none;stroke:#000000;stroke-width:0.2;stroke-linecap:round;stroke-linejoin:round;stroke-miterlimit:4;stroke-dasharray:none;stroke-opacity:1"
       d="m 82.598233,109.01366 -4.099767,1.44697 0.482325,3.2557"
       id="path1082"
       inkscape:connector-curvature="0" />
    <path
       style="fill:none;stroke:#000000;stroke-width:0.2;stroke-linecap:round;stroke-linejoin:round;stroke-miterlimit:4;stroke-dasharray:none;stroke-opacity:1"
       d="m 77.051489,113.59575 -2.291046,2.04988 -2.170464,-0.60291"
       id="path1084"
       inkscape:connector-curvature="0" />
    <path
       style="fill:none;stroke:#000000;stroke-width:0.2;stroke-linecap:round;stroke-linejoin:round;stroke-miterlimit:4;stroke-dasharray:none;stroke-opacity:1"
       d="m 74.157537,112.6311 2.170465,-1.92931"
       id="path1086"
       inkscape:connector-curvature="0" />
    <path
       style="fill:none;stroke:#000000;stroke-width:0.2;stroke-linecap:round;stroke-linejoin:round;stroke-miterlimit:4;stroke-dasharray:none;stroke-opacity:1"
       d="m 76.448583,108.77249 -3.49686,2.65279 -3.014533,0.96465 -0.482328,0.96465"
       id="path1088"
       inkscape:connector-curvature="0" />
    <path
       style="fill:none;stroke:#000000;stroke-width:0.2;stroke-linecap:round;stroke-linejoin:round;stroke-miterlimit:4;stroke-dasharray:none;stroke-opacity:1"
       d="m 66.802073,117.45435 2.773371,2.53221 -3.617439,1.08523 -1.446977,-0.12058 -1.205815,1.3264 -1.205812,-1.3264 -1.085234,1.20582 -4.943834,0.84406"
       id="path1090"
       inkscape:connector-curvature="0" />
    <path
       style="fill:none;stroke:#000000;stroke-width:0.2;stroke-linecap:round;stroke-linejoin:round;stroke-miterlimit:4;stroke-dasharray:none;stroke-opacity:1"
       d="m 98.51497,123.12168 4.09977,-1.68814 1.08523,-2.65279"
       id="path1092"
       inkscape:connector-curvature="0" />
    <path
       style="fill:none;stroke:#000000;stroke-width:0.2;stroke-linecap:round;stroke-linejoin:round;stroke-miterlimit:4;stroke-dasharray:none;stroke-opacity:1"
       d="m 88.747882,119.26307 -4.943837,2.04988 -0.602906,-1.56755"
       id="path1094"
       inkscape:connector-curvature="0" />
    <path
       style="fill:none;stroke:#000000;stroke-width:0.2;stroke-linecap:round;stroke-linejoin:round;stroke-miterlimit:4;stroke-dasharray:none;stroke-opacity:1"
       d="m 60.411261,125.5333 1.446977,3.61744 2.65279,-0.84407"
       id="path1096"
       inkscape:connector-curvature="0" />
    <path
       style="fill:none;stroke:#000000;stroke-width:0.2;stroke-linecap:round;stroke-linejoin:round;stroke-miterlimit:4;stroke-dasharray:none;stroke-opacity:1"
       d="m 142.88891,107.08435 -6.14965,4.34093 -7.83779,7.47605 -2.77337,0.24116 2.53221,1.3264 -5.66732,2.89395 -2.29105,-0.72349 2.65279,-1.20581"
       id="path1098"
       inkscape:connector-curvature="0" />
    <path
       style="fill:none;stroke:#000000;stroke-width:0.2;stroke-linecap:round;stroke-linejoin:round;stroke-miterlimit:4;stroke-dasharray:none;stroke-opacity:1"
       d="m 129.50438,113.83691 -3.37628,2.04988 1.3264,-3.25569 -2.04989,1.56756"
       id="path1100"
       inkscape:connector-curvature="0" />
    <path
       style="fill:none;stroke:#000000;stroke-width:0.2;stroke-linecap:round;stroke-linejoin:round;stroke-miterlimit:4;stroke-dasharray:none;stroke-opacity:1"
       d="m 141.20077,113.71633 1.80872,0.96465 1.20582,-0.84407"
       id="path1102"
       inkscape:connector-curvature="0" />
    <path
       style="fill:none;stroke:#000000;stroke-width:0.2;stroke-linecap:round;stroke-linejoin:round;stroke-miterlimit:4;stroke-dasharray:none;stroke-opacity:1"
       d="m 150.12379,109.61656 4.34093,-3.73802 0.72349,0.60291 1.56756,-1.44698 -1.80872,-0.12058 6.02906,-2.41163 2.41163,0.96465 4.09977,-1.44697 4.58209,-1.20582 -7.1143,3.49686 -7.1143,4.94384 2.41163,-0.12058 -3.2557,1.20581"
       id="path1104"
       inkscape:connector-curvature="0" />
    <path
       style="fill:none;stroke:#000000;stroke-width:0.2;stroke-linecap:round;stroke-linejoin:round;stroke-miterlimit:4;stroke-dasharray:none;stroke-opacity:1"
       d="m 157.23809,105.87854 1.9293,-1.20581"
       id="path1106"
       inkscape:connector-curvature="0" />
    <path
       style="fill:none;stroke:#000000;stroke-width:0.2;stroke-linecap:round;stroke-linejoin:round;stroke-miterlimit:4;stroke-dasharray:none;stroke-opacity:1"
       d="m 132.27775,87.18843 23.99569,-17.363717 -1.9293,5.305581 -5.06442,3.858604 -3.73802,-0.723487"
       id="path1108"
       inkscape:connector-curvature="0" />
    <path
       style="fill:none;stroke:#000000;stroke-width:0.2;stroke-linecap:round;stroke-linejoin:round;stroke-miterlimit:4;stroke-dasharray:none;stroke-opacity:1"
       d="m 163.62891,69.945297 -6.39082,5.305578 -1.32639,4.099766 -5.66733,1.567559 -0.84406,2.170464"
       id="path1110"
       inkscape:connector-curvature="0" />
    <path
       style="fill:none;stroke:#000000;stroke-width:0.2;stroke-linecap:round;stroke-linejoin:round;stroke-miterlimit:4;stroke-dasharray:none;stroke-opacity:1"
       d="m 152.53542,88.15308 2.29105,-4.823253 3.01453,-1.085234 1.32639,-3.014533"
       id="path1112"
       inkscape:connector-curvature="0" />
    <path
       style="fill:none;stroke:#000000;stroke-width:0.2;stroke-linecap:round;stroke-linejoin:round;stroke-miterlimit:4;stroke-dasharray:none;stroke-opacity:1"
       d="m 174.36065,73.803898 -5.78791,1.446977 -3.13512,3.376279 -2.17046,0.723487 -0.24116,3.858604 h -1.56756"
       id="path1114"
       inkscape:connector-curvature="0" />
    <path
       style="fill:none;stroke:#000000;stroke-width:0.2;stroke-linecap:round;stroke-linejoin:round;stroke-miterlimit:4;stroke-dasharray:none;stroke-opacity:1"
       d="m 162.30251,76.577271 1.20581,-0.72349 -0.12058,-2.532208 2.17047,-0.602906 3.61744,-3.255698 3.61744,-0.361743 0.12058,-0.844069"
       id="path1116"
       inkscape:connector-curvature="0" />
    <path
       style="fill:none;stroke:#000000;stroke-width:0.2;stroke-linecap:round;stroke-linejoin:round;stroke-miterlimit:4;stroke-dasharray:none;stroke-opacity:1"
       d="m 173.9989,101.17587 5.06442,-4.340932 4.58209,-1.688137 2.53221,-3.014536"
       id="path1118"
       inkscape:connector-curvature="0" />
    <path
       style="fill:none;stroke:#000000;stroke-width:0.2;stroke-linecap:round;stroke-linejoin:round;stroke-miterlimit:4;stroke-dasharray:none;stroke-opacity:1"
       d="m 170.38146,96.473194 3.61744,-1.446974 4.34093,-3.617442"
       id="path1120"
       inkscape:connector-curvature="0" />
    <path
       style="fill:none;stroke:#000000;stroke-width:0.2;stroke-linecap:round;stroke-linejoin:round;stroke-miterlimit:4;stroke-dasharray:none;stroke-opacity:1"
       d="m 177.13402,87.18843 -4.94384,2.291046 -4.94383,3.255695"
       id="path1122"
       inkscape:connector-curvature="0" />
    <path
       style="fill:none;stroke:#000000;stroke-width:0.2;stroke-linecap:round;stroke-linejoin:round;stroke-miterlimit:4;stroke-dasharray:none;stroke-opacity:1"
       d="m 172.31076,86.223778 4.70268,-2.77337 3.25569,-3.014533"
       id="path1124"
       inkscape:connector-curvature="0" />
    <path
       style="fill:none;stroke:#000000;stroke-width:0.2;stroke-linecap:round;stroke-linejoin:round;stroke-miterlimit:4;stroke-dasharray:none;stroke-opacity:1"
       d="m 170.01972,80.556456 4.58209,-2.893954 1.9293,-0.602906 1.9293,-2.170464"
       id="path1126"
       inkscape:connector-curvature="0" />
    <path
       style="fill:none;stroke:#000000;stroke-width:0.2;stroke-linecap:round;stroke-linejoin:round;stroke-miterlimit:4;stroke-dasharray:none;stroke-opacity:1"
       d="m 188.83041,90.082382 3.01453,-1.326393 7.1143,-4.702675 -4.70267,5.305581"
       id="path1128"
       inkscape:connector-curvature="0" />
    <path
       style="fill:none;stroke:#000000;stroke-width:0.2;stroke-linecap:round;stroke-linejoin:round;stroke-miterlimit:4;stroke-dasharray:none;stroke-opacity:1"
       d="m 170.74321,115.76621 7.59662,-5.42616 5.66732,-2.77337"
       id="path1130"
       inkscape:connector-curvature="0" />
    <path
       style="fill:none;stroke:#000000;stroke-width:0.2;stroke-linecap:round;stroke-linejoin:round;stroke-miterlimit:4;stroke-dasharray:none;stroke-opacity:1"
       d="m 132.76008,81.641687 -2.77338,0.964652 v 1.808718 h -3.37627 l -0.48233,-1.08523 -2.53221,-0.120582 -0.72348,-1.80872 h -1.80872"
       id="path1132"
       inkscape:connector-curvature="0" />
    <path
       style="fill:none;stroke:#000000;stroke-width:0.2;stroke-linecap:round;stroke-linejoin:round;stroke-miterlimit:4;stroke-dasharray:none;stroke-opacity:1"
       d="m 91.882996,80.435875 1.68814,0.96465 3.376279,-1.326396 1.929299,1.446977 2.049886,-1.446977"
       id="path1134"
       inkscape:connector-curvature="0" />
    <path
       style="fill:none;stroke:#000000;stroke-width:0.2;stroke-linecap:round;stroke-linejoin:round;stroke-miterlimit:4;stroke-dasharray:none;stroke-opacity:1"
       d="m 51.36766,191.12956 -2.411629,1.08523 -3.376277,2.41163"
       id="path1136"
       inkscape:connector-curvature="0" />
    <path
       style="fill:none;stroke:#000000;stroke-width:0.2;stroke-linecap:round;stroke-linejoin:round;stroke-miterlimit:4;stroke-dasharray:none;stroke-opacity:1"
       d="m 54.020449,190.16491 1.326396,-1.56756 0.96465,-0.48232"
       id="path1138"
       inkscape:connector-curvature="0" />
    <path
       style="fill:none;stroke:#000000;stroke-width:0.2;stroke-linecap:round;stroke-linejoin:round;stroke-miterlimit:4;stroke-dasharray:none;stroke-opacity:1"
       d="m -0.6029068,203.91119 7.2348816,-4.22035 12.2992992,-4.46151 7.234881,-4.70268 6.149651,-2.29104"
       id="path1140"
       inkscape:connector-curvature="0" />
    <path
       style="fill:none;stroke:#000000;stroke-width:0.2;stroke-linecap:round;stroke-linejoin:round;stroke-miterlimit:4;stroke-dasharray:none;stroke-opacity:1"
       d="m 36.053826,189.44142 10.73174,-5.54674 9.64651,-6.14965 9.64651,-3.97918"
       id="path1142"
       inkscape:connector-curvature="0" />
    <path
       style="fill:none;stroke:#000000;stroke-width:0.2;stroke-linecap:round;stroke-linejoin:round;stroke-miterlimit:4;stroke-dasharray:none;stroke-opacity:1"
       d="m 38.586036,184.73875 9.284764,-4.46151 4.099766,-2.65279"
       id="path1144"
       inkscape:connector-curvature="0" />
    <path
       style="fill:none;stroke:#000000;stroke-width:0.2;stroke-linecap:round;stroke-linejoin:round;stroke-miterlimit:4;stroke-dasharray:none;stroke-opacity:1"
       d="m 53.538125,176.78038 2.291045,-0.72349 0.361744,-0.48232"
       id="path1146"
       inkscape:connector-curvature="0" />
    <path
       style="fill:none;stroke:#000000;stroke-width:0.2;stroke-linecap:round;stroke-linejoin:round;stroke-miterlimit:4;stroke-dasharray:none;stroke-opacity:1"
       d="m 62.822888,184.97991 -2.170464,1.68814 -2.411627,0.24117"
       id="path1148"
       inkscape:connector-curvature="0" />
    <path
       style="fill:none;stroke:#000000;stroke-width:0.2;stroke-linecap:round;stroke-linejoin:round;stroke-miterlimit:4;stroke-dasharray:none;stroke-opacity:1"
       d="m 24.478016,204.75526 4.099767,-1.68814 4.943835,-3.61744"
       id="path1150"
       inkscape:connector-curvature="0" />
    <path
       style="fill:none;stroke:#000000;stroke-width:0.2;stroke-linecap:round;stroke-linejoin:round;stroke-miterlimit:4;stroke-dasharray:none;stroke-opacity:1"
       d="m 95.500438,165.92806 2.049883,-0.84407 0.723487,-2.04989 1.808722,0.24117 0.96465,-0.84407 -0.48233,-0.48233"
       id="path1152"
       inkscape:connector-curvature="0" />
    <path
       style="fill:none;stroke:#000000;stroke-width:0.2;stroke-linecap:round;stroke-linejoin:round;stroke-miterlimit:4;stroke-dasharray:none;stroke-opacity:1"
       d="m 199.68273,98.281915 3.85861,-1.567559 2.17046,-2.77337 0.96465,-0.96465"
       id="path1154"
       inkscape:connector-curvature="0" />
  </g>
  <g
     inkscape:groupmode="layer"
     id="layer6"
     inkscape:label="cloudFade"
     transform="translate(4.7282363,-47.25556)">
    <path
       inkscape:connector-curvature="0"
       id="path1336"
       d="m 78.980791,108.16959 -0.361744,-1.08524 -3.738022,0.24117 -3.376279,3.49686 -5.667322,2.41162"
       style="fill:none;stroke:#000000;stroke-width:0.2;stroke-linecap:round;stroke-linejoin:round;stroke-miterlimit:4;stroke-dasharray:none;stroke-opacity:1;filter:url(#filter1616)" />
    <path
       inkscape:connector-curvature="0"
       id="path1338"
       d="m 86.336253,115.88679 -9.405345,6.02907 -4.582091,3.97919 5.426159,-2.04989 6.390812,-0.84407"
       style="fill:none;stroke:#000000;stroke-width:0.2;stroke-linecap:round;stroke-linejoin:round;stroke-miterlimit:4;stroke-dasharray:none;stroke-opacity:1;filter:url(#filter1620)" />
    <path
       inkscape:connector-curvature="0"
       id="path1340"
       d="m 71.987073,127.70377 -3.49686,-0.84407 2.049883,-1.3264 -1.567558,-0.96465 1.085233,-2.53221 -3.979185,1.9293 0.723487,1.56756 -2.291045,0.72349 1.446977,1.68814"
       style="fill:none;stroke:#000000;stroke-width:0.2;stroke-linecap:round;stroke-linejoin:round;stroke-miterlimit:4;stroke-dasharray:none;stroke-opacity:1;filter:url(#filter1624)" />
    <path
       inkscape:connector-curvature="0"
       id="path1342"
       d="m 82.598233,109.01366 -4.099767,1.44697 0.482325,3.2557"
       style="fill:none;stroke:#000000;stroke-width:0.2;stroke-linecap:round;stroke-linejoin:round;stroke-miterlimit:4;stroke-dasharray:none;stroke-opacity:1;filter:url(#filter1628)" />
    <path
       inkscape:connector-curvature="0"
       id="path1344"
       d="m 77.051489,113.59575 -2.291046,2.04988 -2.170464,-0.60291"
       style="fill:none;stroke:#000000;stroke-width:0.2;stroke-linecap:round;stroke-linejoin:round;stroke-miterlimit:4;stroke-dasharray:none;stroke-opacity:1;filter:url(#filter1632)" />
    <path
       inkscape:connector-curvature="0"
       id="path1346"
       d="m 74.157537,112.6311 2.170465,-1.92931"
       style="fill:none;stroke:#000000;stroke-width:0.2;stroke-linecap:round;stroke-linejoin:round;stroke-miterlimit:4;stroke-dasharray:none;stroke-opacity:1;filter:url(#filter1636)" />
    <path
       inkscape:connector-curvature="0"
       id="path1348"
       d="m 76.448583,108.77249 -3.49686,2.65279 -3.014533,0.96465 -0.482328,0.96465"
       style="fill:none;stroke:#000000;stroke-width:0.2;stroke-linecap:round;stroke-linejoin:round;stroke-miterlimit:4;stroke-dasharray:none;stroke-opacity:1;filter:url(#filter1640)" />
    <path
       inkscape:connector-curvature="0"
       id="path1350"
       d="m 66.802073,117.45435 2.773371,2.53221 -3.617439,1.08523 -1.446977,-0.12058 -1.205815,1.3264 -1.205812,-1.3264 -1.085234,1.20582 -4.943834,0.84406"
       style="fill:none;stroke:#000000;stroke-width:0.2;stroke-linecap:round;stroke-linejoin:round;stroke-miterlimit:4;stroke-dasharray:none;stroke-opacity:1;filter:url(#filter1644)" />
    <path
       inkscape:connector-curvature="0"
       id="path1352"
       d="m 98.51497,123.12168 4.09977,-1.68814 1.08523,-2.65279"
       style="fill:none;stroke:#000000;stroke-width:0.2;stroke-linecap:round;stroke-linejoin:round;stroke-miterlimit:4;stroke-dasharray:none;stroke-opacity:1;filter:url(#filter1648)" />
    <path
       inkscape:connector-curvature="0"
       id="path1354"
       d="m 88.747882,119.26307 -4.943837,2.04988 -0.602906,-1.56755"
       style="fill:none;stroke:#000000;stroke-width:0.2;stroke-linecap:round;stroke-linejoin:round;stroke-miterlimit:4;stroke-dasharray:none;stroke-opacity:1;filter:url(#filter1652)" />
    <path
       inkscape:connector-curvature="0"
       id="path1356"
       d="m 60.411261,125.5333 1.446977,3.61744 2.65279,-0.84407"
       style="fill:none;stroke:#000000;stroke-width:0.2;stroke-linecap:round;stroke-linejoin:round;stroke-miterlimit:4;stroke-dasharray:none;stroke-opacity:1;filter:url(#filter1656)" />
    <path
       inkscape:connector-curvature="0"
       id="path1358"
       d="m 142.88891,107.08435 -6.14965,4.34093 -7.83779,7.47605 -2.77337,0.24116 2.53221,1.3264 -5.66732,2.89395 -2.29105,-0.72349 2.65279,-1.20581"
       style="fill:none;stroke:#000000;stroke-width:0.2;stroke-linecap:round;stroke-linejoin:round;stroke-miterlimit:4;stroke-dasharray:none;stroke-opacity:1;filter:url(#filter1660)" />
    <path
       inkscape:connector-curvature="0"
       id="path1360"
       d="m 129.50438,113.83691 -3.37628,2.04988 1.3264,-3.25569 -2.04989,1.56756"
       style="fill:none;stroke:#000000;stroke-width:0.2;stroke-linecap:round;stroke-linejoin:round;stroke-miterlimit:4;stroke-dasharray:none;stroke-opacity:1;filter:url(#filter1664)" />
    <path
       inkscape:connector-curvature="0"
       id="path1362"
       d="m 141.20077,113.71633 1.80872,0.96465 1.20582,-0.84407"
       style="fill:none;stroke:#000000;stroke-width:0.2;stroke-linecap:round;stroke-linejoin:round;stroke-miterlimit:4;stroke-dasharray:none;stroke-opacity:1;filter:url(#filter1668)" />
    <path
       inkscape:connector-curvature="0"
       id="path1364"
       d="m 150.12379,109.61656 4.34093,-3.73802 0.72349,0.60291 1.56756,-1.44698 -1.80872,-0.12058 6.02906,-2.41163 2.41163,0.96465 4.09977,-1.44697 4.58209,-1.20582 -7.1143,3.49686 -7.1143,4.94384 2.41163,-0.12058 -3.2557,1.20581"
       style="fill:none;stroke:#000000;stroke-width:0.2;stroke-linecap:round;stroke-linejoin:round;stroke-miterlimit:4;stroke-dasharray:none;stroke-opacity:1;filter:url(#filter1672)" />
    <path
       inkscape:connector-curvature="0"
       id="path1366"
       d="m 157.23809,105.87854 1.9293,-1.20581"
       style="fill:none;stroke:#000000;stroke-width:0.2;stroke-linecap:round;stroke-linejoin:round;stroke-miterlimit:4;stroke-dasharray:none;stroke-opacity:1;filter:url(#filter1676)" />
    <path
       inkscape:connector-curvature="0"
       id="path1368"
       d="m 132.27775,87.18843 23.99569,-17.363717 -1.9293,5.305581 -5.06442,3.858604 -3.73802,-0.723487"
       style="fill:none;stroke:#000000;stroke-width:0.2;stroke-linecap:round;stroke-linejoin:round;stroke-miterlimit:4;stroke-dasharray:none;stroke-opacity:1;filter:url(#filter1680)" />
    <path
       inkscape:connector-curvature="0"
       id="path1370"
       d="m 163.62891,69.945297 -6.39082,5.305578 -1.32639,4.099766 -5.66733,1.567559 -0.84406,2.170464"
       style="fill:none;stroke:#000000;stroke-width:0.2;stroke-linecap:round;stroke-linejoin:round;stroke-miterlimit:4;stroke-dasharray:none;stroke-opacity:1;filter:url(#filter1684)" />
    <path
       inkscape:connector-curvature="0"
       id="path1372"
       d="m 152.53542,88.15308 2.29105,-4.823253 3.01453,-1.085234 1.32639,-3.014533"
       style="fill:none;stroke:#000000;stroke-width:0.2;stroke-linecap:round;stroke-linejoin:round;stroke-miterlimit:4;stroke-dasharray:none;stroke-opacity:1;filter:url(#filter1688)" />
    <path
       inkscape:connector-curvature="0"
       id="path1374"
       d="m 174.36065,73.803898 -5.78791,1.446977 -3.13512,3.376279 -2.17046,0.723487 -0.24116,3.858604 h -1.56756"
       style="fill:none;stroke:#000000;stroke-width:0.2;stroke-linecap:round;stroke-linejoin:round;stroke-miterlimit:4;stroke-dasharray:none;stroke-opacity:1;filter:url(#filter1692)" />
    <path
       inkscape:connector-curvature="0"
       id="path1376"
       d="m 162.30251,76.577271 1.20581,-0.72349 -0.12058,-2.532208 2.17047,-0.602906 3.61744,-3.255698 3.61744,-0.361743 0.12058,-0.844069"
       style="fill:none;stroke:#000000;stroke-width:0.2;stroke-linecap:round;stroke-linejoin:round;stroke-miterlimit:4;stroke-dasharray:none;stroke-opacity:1;filter:url(#filter1696)" />
    <path
       inkscape:connector-curvature="0"
       id="path1378"
       d="m 173.9989,101.17587 5.06442,-4.340932 4.58209,-1.688137 2.53221,-3.014536"
       style="fill:none;stroke:#000000;stroke-width:0.2;stroke-linecap:round;stroke-linejoin:round;stroke-miterlimit:4;stroke-dasharray:none;stroke-opacity:1;filter:url(#filter1700)" />
    <path
       inkscape:connector-curvature="0"
       id="path1380"
       d="m 170.38146,96.473194 3.61744,-1.446974 4.34093,-3.617442"
       style="fill:none;stroke:#000000;stroke-width:0.2;stroke-linecap:round;stroke-linejoin:round;stroke-miterlimit:4;stroke-dasharray:none;stroke-opacity:1;filter:url(#filter1704)" />
    <path
       inkscape:connector-curvature="0"
       id="path1382"
       d="m 177.13402,87.18843 -4.94384,2.291046 -4.94383,3.255695"
       style="fill:none;stroke:#000000;stroke-width:0.2;stroke-linecap:round;stroke-linejoin:round;stroke-miterlimit:4;stroke-dasharray:none;stroke-opacity:1;filter:url(#filter1708)" />
    <path
       inkscape:connector-curvature="0"
       id="path1384"
       d="m 172.31076,86.223778 4.70268,-2.77337 3.25569,-3.014533"
       style="fill:none;stroke:#000000;stroke-width:0.2;stroke-linecap:round;stroke-linejoin:round;stroke-miterlimit:4;stroke-dasharray:none;stroke-opacity:1;filter:url(#filter1712)" />
    <path
       inkscape:connector-curvature="0"
       id="path1386"
       d="m 170.01972,80.556456 4.58209,-2.893954 1.9293,-0.602906 1.9293,-2.170464"
       style="fill:none;stroke:#000000;stroke-width:0.2;stroke-linecap:round;stroke-linejoin:round;stroke-miterlimit:4;stroke-dasharray:none;stroke-opacity:1;filter:url(#filter1716)" />
    <path
       inkscape:connector-curvature="0"
       id="path1388"
       d="m 188.83041,90.082382 3.01453,-1.326393 7.1143,-4.702675 -4.70267,5.305581"
       style="fill:none;stroke:#000000;stroke-width:0.2;stroke-linecap:round;stroke-linejoin:round;stroke-miterlimit:4;stroke-dasharray:none;stroke-opacity:1;filter:url(#filter1720)" />
    <path
       inkscape:connector-curvature="0"
       id="path1390"
       d="m 170.74321,115.76621 7.59662,-5.42616 5.66732,-2.77337"
       style="fill:none;stroke:#000000;stroke-width:0.2;stroke-linecap:round;stroke-linejoin:round;stroke-miterlimit:4;stroke-dasharray:none;stroke-opacity:1;filter:url(#filter1724)" />
    <path
       inkscape:connector-curvature="0"
       id="path1392"
       d="m 132.76008,81.641687 -2.77338,0.964652 v 1.808718 h -3.37627 l -0.48233,-1.08523 -2.53221,-0.120582 -0.72348,-1.80872 h -1.80872"
       style="fill:none;stroke:#000000;stroke-width:0.2;stroke-linecap:round;stroke-linejoin:round;stroke-miterlimit:4;stroke-dasharray:none;stroke-opacity:1;filter:url(#filter1728)" />
    <path
       inkscape:connector-curvature="0"
       id="path1394"
       d="m 91.882996,80.435875 1.68814,0.96465 3.376279,-1.326396 1.929299,1.446977 2.049886,-1.446977"
       style="fill:none;stroke:#000000;stroke-width:0.2;stroke-linecap:round;stroke-linejoin:round;stroke-miterlimit:4;stroke-dasharray:none;stroke-opacity:1;filter:url(#filter1732)" />
    <path
       inkscape:connector-curvature="0"
       id="path1396"
       d="m 51.36766,191.12956 -2.411629,1.08523 -3.376277,2.41163"
       style="fill:none;stroke:#000000;stroke-width:0.2;stroke-linecap:round;stroke-linejoin:round;stroke-miterlimit:4;stroke-dasharray:none;stroke-opacity:1;filter:url(#filter1736)" />
    <path
       inkscape:connector-curvature="0"
       id="path1398"
       d="m 54.020449,190.16491 1.326396,-1.56756 0.96465,-0.48232"
       style="fill:none;stroke:#000000;stroke-width:0.2;stroke-linecap:round;stroke-linejoin:round;stroke-miterlimit:4;stroke-dasharray:none;stroke-opacity:1;filter:url(#filter1740)" />
    <path
       inkscape:connector-curvature="0"
       id="path1400"
       d="m -0.6029068,203.91119 7.2348816,-4.22035 12.2992992,-4.46151 7.234881,-4.70268 6.149651,-2.29104"
       style="fill:none;stroke:#000000;stroke-width:0.2;stroke-linecap:round;stroke-linejoin:round;stroke-miterlimit:4;stroke-dasharray:none;stroke-opacity:1;filter:url(#filter1744)" />
    <path
       inkscape:connector-curvature="0"
       id="path1402"
       d="m 36.053826,189.44142 10.73174,-5.54674 9.64651,-6.14965 9.64651,-3.97918"
       style="fill:none;stroke:#000000;stroke-width:0.2;stroke-linecap:round;stroke-linejoin:round;stroke-miterlimit:4;stroke-dasharray:none;stroke-opacity:1;filter:url(#filter1748)" />
    <path
       inkscape:connector-curvature="0"
       id="path1404"
       d="m 38.586036,184.73875 9.284764,-4.46151 4.099766,-2.65279"
       style="fill:none;stroke:#000000;stroke-width:0.2;stroke-linecap:round;stroke-linejoin:round;stroke-miterlimit:4;stroke-dasharray:none;stroke-opacity:1;filter:url(#filter1752)" />
    <path
       inkscape:connector-curvature="0"
       id="path1406"
       d="m 53.538125,176.78038 2.291045,-0.72349 0.361744,-0.48232"
       style="fill:none;stroke:#000000;stroke-width:0.2;stroke-linecap:round;stroke-linejoin:round;stroke-miterlimit:4;stroke-dasharray:none;stroke-opacity:1;filter:url(#filter1756)" />
    <path
       inkscape:connector-curvature="0"
       id="path1408"
       d="m 62.822888,184.97991 -2.170464,1.68814 -2.411627,0.24117"
       style="fill:none;stroke:#000000;stroke-width:0.2;stroke-linecap:round;stroke-linejoin:round;stroke-miterlimit:4;stroke-dasharray:none;stroke-opacity:1;filter:url(#filter1760)" />
    <path
       inkscape:connector-curvature="0"
       id="path1410"
       d="m 24.478016,204.75526 4.099767,-1.68814 4.943835,-3.61744"
       style="fill:none;stroke:#000000;stroke-width:0.2;stroke-linecap:round;stroke-linejoin:round;stroke-miterlimit:4;stroke-dasharray:none;stroke-opacity:1;filter:url(#filter1764)" />
    <path
       inkscape:connector-curvature="0"
       id="path1412"
       d="m 95.500438,165.92806 2.049883,-0.84407 0.723487,-2.04989 1.808722,0.24117 0.96465,-0.84407 -0.48233,-0.48233"
       style="fill:none;stroke:#000000;stroke-width:0.2;stroke-linecap:round;stroke-linejoin:round;stroke-miterlimit:4;stroke-dasharray:none;stroke-opacity:1;filter:url(#filter1768)" />
    <path
       inkscape:connector-curvature="0"
       id="path1414"
       d="m 199.68273,98.281915 3.85861,-1.567559 2.17046,-2.77337 0.96465,-0.96465"
       style="fill:none;stroke:#000000;stroke-width:0.2;stroke-linecap:round;stroke-linejoin:round;stroke-miterlimit:4;stroke-dasharray:none;stroke-opacity:1;filter:url(#filter1772)" />
  </g>
</svg>
