<?xml version="1.0" encoding="UTF-8" standalone="no"?>
<!-- Created with Inkscape (http://www.inkscape.org/) -->

<svg
   xmlns:dc="http://purl.org/dc/elements/1.1/"
   xmlns:cc="http://creativecommons.org/ns#"
   xmlns:rdf="http://www.w3.org/1999/02/22-rdf-syntax-ns#"
   xmlns:svg="http://www.w3.org/2000/svg"
   xmlns="http://www.w3.org/2000/svg"
   xmlns:sodipodi="http://sodipodi.sourceforge.net/DTD/sodipodi-0.dtd"
   xmlns:inkscape="http://www.inkscape.org/namespaces/inkscape"
   width="325.75107mm"
   height="125.55325mm"
   viewBox="0 0 325.75107 125.55325"
   version="1.1"
   id="svg8"
   inkscape:version="0.92.2 2405546, 2018-03-11"
   sodipodi:docname="presentation_sec_nine.svg">
  <defs
     id="defs2">
    <filter
       inkscape:collect="always"
       style="color-interpolation-filters:sRGB"
       id="filter1312"
       x="-0.30316158"
       width="1.6063232"
       y="-0.36417333"
       height="1.7283467">
      <feGaussianBlur
         inkscape:collect="always"
         stdDeviation="1.028559"
         id="feGaussianBlur1314" />
    </filter>
    <filter
       inkscape:collect="always"
       style="color-interpolation-filters:sRGB"
       id="filter1316"
       x="-0.028472878"
       width="1.0569458"
       y="-0.025632571"
       height="1.0512651">
      <feGaussianBlur
         inkscape:collect="always"
         stdDeviation="1.028559"
         id="feGaussianBlur1318" />
    </filter>
    <filter
       inkscape:collect="always"
       style="color-interpolation-filters:sRGB"
       id="filter1320"
       x="-0.29038301"
       width="1.580766"
       y="-0.2121451"
       height="1.4242902">
      <feGaussianBlur
         inkscape:collect="always"
         stdDeviation="1.028559"
         id="feGaussianBlur1322" />
    </filter>
    <filter
       inkscape:collect="always"
       style="color-interpolation-filters:sRGB"
       id="filter1324"
       x="-0.059082259"
       width="1.1181645"
       y="-0.04509251"
       height="1.090185">
      <feGaussianBlur
         inkscape:collect="always"
         stdDeviation="1.028559"
         id="feGaussianBlur1326" />
    </filter>
    <filter
       inkscape:collect="always"
       style="color-interpolation-filters:sRGB"
       id="filter1328"
       x="-0.028552051"
       width="1.0571041"
       y="-0.036009674"
       height="1.0720193">
      <feGaussianBlur
         inkscape:collect="always"
         stdDeviation="1.028559"
         id="feGaussianBlur1330" />
    </filter>
    <filter
       inkscape:collect="always"
       style="color-interpolation-filters:sRGB"
       id="filter1572"
       x="-0.12111601"
       width="1.242232"
       y="-0.40167575"
       height="1.8033515">
      <feGaussianBlur
         inkscape:collect="always"
         stdDeviation="2.2546897"
         id="feGaussianBlur1574" />
    </filter>
    <filter
       inkscape:collect="always"
       style="color-interpolation-filters:sRGB"
       id="filter1576"
       x="-0.17531709"
       width="1.3506342"
       y="-0.4346903"
       height="1.8693806">
      <feGaussianBlur
         inkscape:collect="always"
         stdDeviation="2.2546897"
         id="feGaussianBlur1578" />
    </filter>
    <filter
       inkscape:collect="always"
       style="color-interpolation-filters:sRGB"
       id="filter1580"
       x="-0.20211716"
       width="1.4042343"
       y="-0.54710981"
       height="2.0942196">
      <feGaussianBlur
         inkscape:collect="always"
         stdDeviation="2.2546897"
         id="feGaussianBlur1582" />
    </filter>
    <filter
       inkscape:collect="always"
       style="color-interpolation-filters:sRGB"
       id="filter1584"
       x="-0.051597389"
       width="1.1031948"
       y="-0.16789628"
       height="1.3357926">
      <feGaussianBlur
         inkscape:collect="always"
         stdDeviation="2.2546897"
         id="feGaussianBlur1586" />
    </filter>
    <filter
       inkscape:collect="always"
       style="color-interpolation-filters:sRGB"
       id="filter1588"
       x="-0.11373619"
       width="1.2274724"
       y="-1.9832781"
       height="4.9665561">
      <feGaussianBlur
         inkscape:collect="always"
         stdDeviation="2.2546897"
         id="feGaussianBlur1590" />
    </filter>
    <filter
       inkscape:collect="always"
       style="color-interpolation-filters:sRGB"
       id="filter1592"
       x="-0.26397872"
       width="1.5279574"
       y="-0.44876367"
       height="1.8975273">
      <feGaussianBlur
         inkscape:collect="always"
         stdDeviation="2.2546897"
         id="feGaussianBlur1594" />
    </filter>
    <filter
       inkscape:collect="always"
       style="color-interpolation-filters:sRGB"
       id="filter1596"
       x="-0.12895513"
       width="1.2579103"
       y="-0.2579102"
       height="1.5158204">
      <feGaussianBlur
         inkscape:collect="always"
         stdDeviation="2.2546897"
         id="feGaussianBlur1598" />
    </filter>
    <filter
       inkscape:collect="always"
       style="color-interpolation-filters:sRGB"
       id="filter1600"
       x="-0.21575178"
       width="1.4315036"
       y="-0.33489842"
       height="1.6697968">
      <feGaussianBlur
         inkscape:collect="always"
         stdDeviation="2.2546897"
         id="feGaussianBlur1602" />
    </filter>
    <filter
       inkscape:collect="always"
       style="color-interpolation-filters:sRGB"
       id="filter1604"
       x="-0.28766915"
       width="1.5753383"
       y="-0.46746234"
       height="1.9349247">
      <feGaussianBlur
         inkscape:collect="always"
         stdDeviation="2.2546897"
         id="feGaussianBlur1606" />
    </filter>
    <filter
       inkscape:collect="always"
       style="color-interpolation-filters:sRGB"
       id="filter1608"
       x="-0.2412709"
       width="1.4825418"
       y="-0.23373117"
       height="1.4674623">
      <feGaussianBlur
         inkscape:collect="always"
         stdDeviation="2.2546897"
         id="feGaussianBlur1610" />
    </filter>
    <filter
       inkscape:collect="always"
       style="color-interpolation-filters:sRGB"
       id="filter1612"
       x="-0.15691042"
       width="1.3138208"
       y="-0.14958797"
       height="1.2991759">
      <feGaussianBlur
         inkscape:collect="always"
         stdDeviation="2.2546897"
         id="feGaussianBlur1614" />
    </filter>
    <filter
       inkscape:collect="always"
       style="color-interpolation-filters:sRGB"
       id="filter1616"
       x="-0.074793972"
       width="1.1495879"
       y="-0.2703396"
       height="1.5406792">
      <feGaussianBlur
         inkscape:collect="always"
         stdDeviation="2.2546897"
         id="feGaussianBlur1618" />
    </filter>
    <filter
       inkscape:collect="always"
       style="color-interpolation-filters:sRGB"
       id="filter1620"
       x="-0.1187206"
       width="1.2374412"
       y="-0.30737246"
       height="1.6147449">
      <feGaussianBlur
         inkscape:collect="always"
         stdDeviation="2.2546897"
         id="feGaussianBlur1622" />
    </filter>
    <filter
       inkscape:collect="always"
       style="color-interpolation-filters:sRGB"
       id="filter1624"
       x="-0.27363652"
       width="1.547273"
       y="-0.72381207"
       height="2.4476241">
      <feGaussianBlur
         inkscape:collect="always"
         stdDeviation="2.2546897"
         id="feGaussianBlur1626" />
    </filter>
    <filter
       inkscape:collect="always"
       style="color-interpolation-filters:sRGB"
       id="filter1628"
       x="-0.10485134"
       width="1.2097027"
       y="-0.22438193"
       height="1.4487639">
      <feGaussianBlur
         inkscape:collect="always"
         stdDeviation="2.2546897"
         id="feGaussianBlur1630" />
    </filter>
    <filter
       inkscape:collect="always"
       style="color-interpolation-filters:sRGB"
       id="filter1632"
       x="-0.77373061"
       width="2.5474612"
       y="-0.74793987"
       height="2.4958797">
      <feGaussianBlur
         inkscape:collect="always"
         stdDeviation="2.2546897"
         id="feGaussianBlur1634" />
    </filter>
  </defs>
  <sodipodi:namedview
     id="base"
     pagecolor="#ffffff"
     bordercolor="#666666"
     borderopacity="1.0"
     inkscape:pageopacity="0.0"
     inkscape:pageshadow="2"
     inkscape:zoom="0.85975869"
     inkscape:cx="326.89685"
     inkscape:cy="167.31967"
     inkscape:document-units="mm"
     inkscape:current-layer="layer4"
     showgrid="false"
     inkscape:window-width="1920"
     inkscape:window-height="1039"
     inkscape:window-x="0"
     inkscape:window-y="0"
     inkscape:window-maximized="1"
     inkscape:snap-others="false"
     inkscape:object-nodes="false"
     inkscape:snap-nodes="false"
     fit-margin-top="0"
     fit-margin-left="0"
     fit-margin-right="0"
     fit-margin-bottom="0" />
  <metadata
     id="metadata5">
    <rdf:RDF>
      <cc:Work
         rdf:about="">
        <dc:format>image/svg+xml</dc:format>
        <dc:type
           rdf:resource="http://purl.org/dc/dcmitype/StillImage" />
        <dc:title></dc:title>
      </cc:Work>
    </rdf:RDF>
  </metadata>
  <g
     inkscape:groupmode="layer"
     id="layer4"
     inkscape:label="formFade">
    <path
       transform="translate(64.693303,-110.52488)"
       inkscape:connector-curvature="0"
       id="path1277"
       d="m 107.21935,173.62314 6.09637,-0.81001 -0.51158,-4.39109 1.66264,1.70528 -6.82111,2.21686 1.40686,2.55792 0.9379,-5.4569 3.8795,1.91844 0.55422,-2.34475 -3.24003,-0.0853 -0.29842,5.88321 -2.47265,-3.96477 4.17793,2.55792 -0.76738,-4.98794 2.17423,2.51529 -0.34105,-2.72845 1.19369,2.68581 -5.28636,-0.63948 2.47265,3.75162 -5.2011,-1.15107 4.00741,2.0037 -0.0426,-5.41426 2.68582,2.68582 -1.83318,2.85634 -2.64318,-4.86004 -2.30212,3.36792 2.81371,1.10843 1.27895,-5.79794 1.40686,5.28636 -1.83317,0.17053 -2.34476,-3.28267 5.58478,-2.60054 -1.79054,6.52269 -2.30212,-5.2011"
       style="fill:none;stroke:#000000;stroke-width:0.69999999;stroke-linecap:round;stroke-linejoin:round;stroke-miterlimit:4;stroke-dasharray:none;stroke-opacity:1;filter:url(#filter1312)" />
    <path
       transform="translate(64.693303,-110.52488)"
       inkscape:connector-curvature="0"
       id="path1279"
       d="m 68.637438,209.00765 5.456888,1.62002 -2.131597,-4.77478 3.922141,1.36422 -1.620015,-5.11583 -1.53475,0.76737 0.852638,-3.15476 -1.620014,-1.79054 3.325294,10.06114 -4.518988,-1.36422 2.046332,4.68951 -3.666347,-1.1937 0.682112,-2.13159 4.433723,1.10843 -1.278959,-4.86004 2.984236,-0.42632 -4.945306,8.52639 3.325294,-9.54956 -5.456891,5.79794 1.620014,2.98424 3.666347,-1.96107 2.984236,-5.03057 0.511585,2.81371 1.790541,-1.62001 0.852638,2.04633 1.875806,-2.04633 1.278959,2.04633 1.620015,-2.04633 0.852638,1.10843 1.449488,-1.44949 0.682109,1.44949 1.449488,-1.36423 1.193694,1.02317 0.852639,-1.36422 0.767376,2.98424 -3.325294,0.9379 0.937903,1.62001 -3.666347,0.17053 2.302126,1.44949 -0.42632,-2.38739 h 2.898973 l -1.53475,-1.96107 2.984236,-1.27896 -1.790542,-1.44949 -1.364223,1.36423 -0.937903,-1.36423 -1.620015,1.53475 -0.682109,-1.02316 -1.364223,1.36422 -1.53475,-1.79054 -1.620015,2.64318 -0.596847,-2.64318 -2.046332,2.04633 -0.767377,-2.64318 -1.790541,2.21686 v -2.72844 l -4.348459,1.27895 -2.216861,5.54216 1.875806,1.62001 5.115835,-8.44112 0.511582,2.98423 1.790541,-1.8758 0.426321,2.04633 2.216861,-1.70528 0.767374,2.1316 1.705279,-2.1316 1.364221,1.1937 1.108432,-1.02317 0.852639,0.76738 1.193694,-1.1937 1.193694,1.02317 1.193694,-0.93791 1.278959,2.04634 -2.728444,-0.25579 1.790541,1.70527 -2.046333,-0.34105 1.023168,1.70528 h -2.472653 l 0.852638,0.9379 -1.53475,0.68211 4.774777,-5.71268 -2.131597,0.68211 1.875806,1.1937 -1.193694,-2.55792 -19.440168,0.76737 4.092668,-3.58108 -2.046335,0.51158 0.682111,-1.62001 -1.278959,-1.10843 0.682112,-0.76738 -0.767376,-0.42632 -0.511583,-1.27895 14.750653,-18.84333 -4.518985,-3.83687 1.96107,-4.2632 -6.650585,-0.59684 0.341056,-1.53475 4.177932,0.25579 -1.108432,3.66635 4.263194,1.70527 -2.302123,3.24003 2.984235,1.44949 -0.852638,-2.81371 -3.495821,-2.47265 1.53475,-3.83688 -9.123235,-0.42632 6.480056,-0.9379 -0.852641,2.38739 5.456891,1.96107 -2.387389,3.0695 2.557915,0.17053 -4.774776,-4.43373 0.937903,-3.41055 -4.860044,1.44948 0.255794,-0.42632 7.332694,2.64318 -1.53475,3.66635 1.790541,2.72845 1.53475,-1.96107 -6.650582,-7.75902 -2.216862,1.44949 5.968473,0.34105 1.193694,7.58849 11.595889,2.72845 -3.666347,-4.86005 5.371626,-0.42632 -2.302126,-4.60425 7.503227,1.44949 -6.48006,-1.96107 2.216862,3.58108 -5.030571,-0.51158 3.325292,4.09267 -4.860042,0.9379 3.836877,1.87581 -2.472653,-5.28637 3.666347,0.93791 -3.0695,-3.49582 5.797944,0.51158 -0.937903,-1.96107 -4.092667,0.59685 0.767376,8.35586 3.581082,-8.86744 1.620016,1.62001 -7.332695,1.36422 -0.170529,3.66635 5.712682,-6.82111 -4.774779,8.2706 -1.278959,-4.51899 4.774779,-4.2632 -0.937903,6.48006 -2.387388,-5.11583 3.666347,-1.1937 2.813705,1.96107 -7.588484,5.28636 -13.045377,27.11392 -12.107473,-14.4096 31.377114,-2.13159 -28.392876,-17.7349 -15.592719,10.38252 -2.53221,-5.30558 12.781624,-12.05813 -12.540462,-7.95837 11.696393,-7.71721 -9.284763,-7.23488 7.717205,-5.66733 -9.405345,-16.39906 5.184997,-2.65279 5.908487,8.44069 -3.979185,9.64651 -6.270231,-7.59662 7.717208,-9.0436 2.411627,19.77534 2.411627,-3.13512 -11.455228,-17.96662 -2.170464,6.39081 12.540461,13.02279 v -3.73802 l -10.611159,0.12058 -1.205815,-3.61744 10.008253,-7.23488 -3.738022,-3.97919 -7.1143,3.37628 4.582092,12.54046 6.390811,-10.12883 -7.114301,-6.87314 -3.376277,1.56756 12.661043,17.60488 -2.893952,1.44697 0.844069,-8.07895 -10.61116,-7.35546 6.029069,-4.94384 4.582091,9.52593 -9.767091,5.185 8.078951,-11.6964 -8.92302,4.82326 3.617442,-7.1143 7.114299,10.12883 -5.064416,6.63198 -5.305581,-3.37628 9.887672,-8.07895 -9.284766,-5.66732 -0.482325,10.9729 11.816974,4.58209 -1.567558,4.34093 -9.284764,-3.37628 8.92302,5.66733 -9.043601,1.68814 9.405345,2.65279 -9.525929,1.56755 9.284766,3.2557 -10.249415,2.53221 10.369997,1.68814 -11.455231,3.49686 12.902208,3.8586 -13.505114,4.70267 13.263951,3.97919 -12.902207,4.70267 48.594285,13.50511 7.59663,-11.81697 7.35546,12.66104 8.80244,-20.0165 -13.26395,-6.63198 8.07895,-10.61116 -8.68186,1.08524 9.04361,0.96465 -9.28477,5.90848 11.33465,1.80872 -9.16418,6.75256 11.93755,0.48232 -9.88767,6.39082 11.21407,1.08523 -16.27849,12.66104 -8.32011,-14.2286 1.80872,-0.12058 8.92302,14.59034 10.9729,-24.23685 -12.54046,-4.22035 3.2557,-8.68186 8.19953,6.75256 -7.83779,13.38453 13.6257,10.61116 -3.49686,3.97919 -7.95837,-7.35547 6.02907,-16.64022 -11.6964,-6.87314 5.42617,-4.22035 5.42616,3.37628 -8.80244,10.24942 13.38453,7.95836 -5.185,15.07268 -8.4407,-11.45524 -7.59662,12.17872 -7.958371,-10.61116 8.681861,-3.25569 8.56127,14.10802 1.56756,-11.6964 7.23488,9.76709 3.85861,-8.92302 -12.90221,-7.95837 7.71721,-14.10802 -10.97291,-2.5322 11.21407,6.87313 -7.59663,13.38453 12.17872,11.57581 -8.68186,3.2557 -7.1143,-12.78162 -7.83778,12.2993 -4.340932,-12.78163 23.633942,12.66105 3.2557,-17.96663 -16.76081,-18.93127 4.46151,-0.36175 -0.84407,-5.54674 10.12884,-5.66732 -0.84407,-5.54674 -5.42616,2.41162 4.58209,12.66105 -10.85233,-0.84407 2.53221,4.22034 -4.22035,0.72349 2.17047,2.04988 -0.72349,-5.7879 5.185,0.12058 -0.84407,-7.95837 8.56128,-3.2557 -2.29105,-4.34092 2.65279,0.96465 -8.19953,3.73802 2.89395,9.76709 3.2557,-3.8586 -2.29105,-9.64651 4.82326,1.32639 -8.80244,3.85861 1.32639,8.68185 4.94384,-14.71092 -1.80872,14.34918 1.44697,-1.08523 -0.6029,2.41162 -4.34093,-11.93755 6.27023,-3.2557 -0.24116,7.35547 -10.37,4.94383 1.44697,3.8586 -3.13511,-0.72348 -0.24116,4.94383 8.92302,-19.4136 3.73802,5.06442 -7.83779,0.60291 5.42616,7.59662 -8.32011,-1.9293 3.49686,3.2557 h -5.185 l 10.24942,-1.08523 -9.52593,3.73802 8.44069,-2.65279 -8.32011,-1.80872 13.74628,18.44894 -8.68186,10.24942 11.57581,6.63198 -6.87314,4.94383 -7.95837,-12.41988 -4.94383,12.78163 -7.59663,-14.95209 0.72349,13.14336 -4.582095,-4.70267 -10.008254,23.87511 -10.972903,-20.73999 -8.199532,3.61744 22.428133,17.36372 7.476046,-8.07896 -22.548715,-26.76906 -4.943838,13.98744 -2.652789,-13.74628 -8.561276,11.45523 6.390812,-36.53615 -2.532208,-7.47604 -9.164185,20.86057 2.652792,21.70465 9.646507,-10.85232 -11.093484,-17.4843 5.305581,-14.83151 6.27023,19.77534 -12.661045,10.85233 10.731743,15.91673 9.646508,-13.86685 18.207786,33.15987 11.937556,-30.26592 8.44069,14.10802 16.15791,-7.35546 -13.6257,-4.22035 -18.328365,3.73802 4.220345,8.68186 -23.513362,15.67558 2.77337,-32.43639 3.135117,5.185 -14.710926,20.86057 2.532208,9.76709 h -6.029068 l 1.929302,-16.76081 -7.355464,2.77338 0.844071,-10.61116 -7.717208,2.89395 -0.844069,-9.0436 -6.029068,3.61744 -0.844071,-6.14965 -3.014533,3.73802 5.908487,-2.04988 1.567559,6.63197 4.702672,-1.9293 1.446977,7.47605 9.284764,-0.48233 -2.893952,10.00825 6.270231,-0.24116 -4.461513,6.02907 9.525929,0.12058 -5.184997,4.58209 0.120581,-23.39278 3.496857,20.98116 3.738023,-35.08918 6.390812,4.94383 -9.405345,9.52593 -3.738022,-13.14337 -7.717208,11.81698 -7.596627,-12.17872 12.178718,-9.88767 -10.008251,-12.90221 9.043601,-7.1143 -8.078951,-4.46151 3.376279,-2.89395 3.73802,2.77337 -7.717205,1.80872 8.92302,7.1143 -9.284764,0.72349 9.164182,4.22035 -11.093484,3.13511 12.058134,3.49686 -12.661042,3.61744 12.902205,5.78791 -12.299297,7.35546 28.577781,1.68814 -14.469764,8.32011 -14.349182,-6.27023 12.540462,-6.87313 2.049883,12.78162 c 0,0 10.731743,-14.71093 10.008253,-13.38453 -0.723487,1.32639 -1.688139,33.15987 -1.688139,33.15987 l 8.440697,-24.96034 -0.844071,26.40732 4.702673,-35.08918 -0.844069,35.33034 5.908487,-35.08917 0.844069,2.5322 -9.164183,0.96465 5.305579,-3.73802 4.340928,1.20582 -10.852321,-0.12058 0.602908,-1.3264 8.561277,5.54674 -7.355465,0.36175 6.873137,2.41162 -6.029068,0.36175 7.114302,2.04988 -7.476046,-3.49686 7.234883,-3.13511 -6.99372,-3.61744 -1.567556,2.29104 7.23488,4.22035 -7.355461,28.33662 -10.490579,-34.72743 -8.199532,13.74627 -12.661043,-17.00197 11.937553,-11.45523 -10.249416,-13.02279 4.099766,-8.19953 6.14965,50.16185 6.029068,-13.6257 26.648481,21.58407 -9.887672,13.26395 -2.77337,-26.64848 -10.61116,23.2722 -0.120581,-18.32837 -7.234883,24.35744 0.241162,-16.27849 -5.184997,8.80244 2.773371,-11.81697 -6.993718,0.60291 -0.844071,-7.47605 -6.270231,1.08523 -1.567556,-7.1143 -6.029068,2.41163 -0.241162,-2.77337 2.77337,-0.84407 1.808721,6.14965 5.064416,-1.9293 0.964652,7.23488 9.284764,-1.56756 -3.376277,7.71721 6.511393,-2.77337 -5.185,5.42616 6.511393,-3.37628 -4.582091,10.00825 8.802439,3.61745 -7.596624,0.12058 4.702672,2.77337 -0.964649,-7.83779 4.220347,-1.44698 -4.220347,-3.49686 29.421851,-0.24116 -29.542432,-4.94384 30.627663,0.24117 -30.386501,-5.185 c 0,0 60.411262,-3.01453 59.928932,-3.13512"
       style="fill:none;stroke:#000000;stroke-width:0.80000001;stroke-linecap:round;stroke-linejoin:round;stroke-miterlimit:4;stroke-dasharray:none;stroke-opacity:1;filter:url(#filter1316)" />
    <path
       transform="translate(64.693303,-110.52488)"
       inkscape:connector-curvature="0"
       id="path1281"
       d="m 41.600569,177.74503 1.68814,-6.02907 -5.727615,-0.42203 0.542615,-1.44698 h -1.205812 l -0.241163,-1.38668 -1.326395,0.36174 0.06029,-0.54261 1.989593,0.66319 -0.120581,1.44698 0.964649,0.36174 -0.361743,2.41163 5.787905,0.78378 -2.532208,3.2557 -3.074826,-1.26611 -0.06029,-1.56756 4.823256,0.96465 -1.266105,-5.72761 0.904359,-1.2661 -0.904359,-0.24117 -0.301453,-1.14552 -0.783781,0.18087 -0.542615,-1.02494 -0.542616,0.78378 1.386687,-0.18087 0.120581,0.90436 1.02494,0.18087 -0.301453,0.96465 1.205815,1.50727 0.422034,4.46151 -3.557151,1.98959 2.893952,-6.14965 -4.099766,2.95424 2.411629,-4.46151 -0.72349,-0.12058 0.180872,-0.96465 -0.844068,0.12058 -0.241163,-1.14552 -0.964652,0.36174 -0.361744,-0.72348 -0.602906,0.12058 -0.120581,-0.42204 0.602906,0.72349 0.904362,-0.24116 0.120581,0.84407 1.205812,-0.24117 -0.120581,1.38669 1.266105,-0.42203 -0.904362,1.14552 2.230755,0.36174 -4.582091,2.53221 5.426162,0.18087 -5.064418,1.68814 4.883547,0.54262 -4.160057,1.2661 -1.74843,-1.02494 0.663196,-0.96465 -0.602906,-0.36175 0.422034,-0.36174 -0.663196,-0.90436 0.482325,-0.0603 -0.301453,2.17047 4.762962,1.9293 -3.315985,-6.20994 1.02494,-0.72349 h -1.085231 l 0.602906,-0.96465 -1.446977,0.0603 0.180872,-1.08523 -1.145522,0.42203 -0.361743,-1.08523 -0.964653,0.48232 -0.06029,-0.42203 -0.301453,0.48232 0.964649,-0.54261 -0.06029,0.6029 1.266105,-0.54261 0.180872,1.3264 1.326396,-0.54262 -0.602909,1.50726 1.446977,-0.24116 -0.964649,1.08524 4.160057,0.96465 -0.120582,4.70267 -1.446977,-6.39081 0.06029,-0.96465 -0.422034,-0.48233 -1.205815,-0.42204 -0.723487,-0.6029 -1.266106,-0.72349 -0.844068,0.30145 1.085231,1.08524 0.964652,0.30145 0.844069,1.56756 0.120581,0.24116 -1.266103,0.36175 -0.602909,-1.50727 -1.266102,-0.48233 -1.145524,-0.24116 -0.301453,-0.18087 2.291045,1.2661"
       style="fill:none;stroke:#000000;stroke-width:0.80000001;stroke-linecap:round;stroke-linejoin:round;stroke-miterlimit:4;stroke-dasharray:none;stroke-opacity:1;filter:url(#filter1320)" />
    <path
       transform="translate(64.693303,-110.52488)"
       inkscape:connector-curvature="0"
       id="path1283"
       d="m 76.388292,207.28746 9.646508,14.28889 -11.57581,5.2453 -0.542618,-11.0332 14.590345,-8.98331 0.964652,1.62785 -3.918894,2.11017 -1.567559,-2.83366 -7.958367,20.07679 5.607031,0.36175 4.039476,-12.60075 -5.607034,-8.07895 -5.124707,3.49686 -0.361743,-1.86902 2.713079,-1.68814 9.103892,11.6964 -12.480171,4.94383 2.893955,-16.64023 3.255695,21.16204 5.24529,-15.37413 0.602906,10.67145 -2.77337,3.67773 -9.405347,-2.23075 12.359589,-5.36587 -11.455228,-6.14965 9.586217,-2.04988 -10.189123,-1.62785 8.561277,-1.92931 5.245287,2.04989 -1.446977,-3.07483 3.135117,-0.18087 -4.039476,3.43657 -0.120581,-3.13512 -9.043601,4.46152 8.681857,-0.90437 -7.054011,18.08721 -4.5218,-7.47605 12.239008,-6.87313 -9.586217,-2.04989 2.291046,16.2182 6.390812,-2.77338 -7.355464,-13.92714 -3.496861,7.1143 10.611162,7.47604 1.326394,-3.8586 -11.816972,-7.53634 11.214066,-1.86901 1.266105,5.48646 -13.685985,1.56755 2.110173,-6.20994 10.128835,-0.96465 1.688139,7.41576 -11.274358,6.63197 -2.652789,-5.54674 11.515518,-9.1039 -2.110174,-4.5218 -4.220347,3.85861 6.99372,12.48017 -7.355464,3.1954 -2.652789,-10.61116 8.742148,-4.82325 -4.883544,-4.22035 -4.039476,1.02494 10.128835,1.44698 0.964649,-3.2557 1.024943,3.55715 1.808721,-1.38668 -1.266105,-2.35134 1.80872,-0.18087 -12.118427,5.00413 7.89808,3.49685 -11.636102,7.7775 8.923022,5.12471 2.351336,-20.6797 12.962496,-17.12256 -15.675578,14.83151 -12.41988,-14.28889 24.055982,8.50099 -22.729586,-11.15378 26.467609,5.06442 -25.201504,-8.68186 28.396905,1.2661 7.23489,-11.81697 3.55714,13.32424"
       style="fill:none;stroke:#000000;stroke-width:0.80000001;stroke-linecap:round;stroke-linejoin:round;stroke-miterlimit:4;stroke-dasharray:none;stroke-opacity:1;filter:url(#filter1324)" />
    <path
       transform="translate(64.693303,-110.52488)"
       inkscape:connector-curvature="0"
       id="path1285"
       d="m 44.848811,174.39051 8.441124,4.43372 -9.890612,-4.0074 23.532835,16.62646 -25.238111,-13.98328 8.952708,5.62742 3.325292,-2.47265 -1.449486,4.51898 5.456888,-2.30212 -1.108429,5.88321 6.906376,-2.47266 -3.49582,7.75902 6.650582,-2.55792 -5.115832,7.24743 34.872935,-0.51158 -33.082394,5.79794 8.611653,-19.18437 -4.689515,1.70527 24.982324,17.13805 -0.596848,1.96107 -2.387388,-0.85264 4.60425,-2.89897 3.581083,-7.50323 -12.789586,11.08431 -8.185332,0.0853 15.518029,-34.87293 -10.913779,-1.44949 -15.091709,2.04634 -9.975876,10.65798 -3.410556,-12.36326 5.115832,-32.05923 4.007403,46.04251 7.929544,-12.278 3.154765,13.38643 4.092665,-13.38643 16.37067,31.97396 0.255791,-23.44757 -29.586573,26.26128 3.325291,-14.15381 42.631945,-16.88225 9.12324,12.19274 8.86745,-8.69692 -14.4096,-10.65799 8.61165,-9.2085 -11.42536,-2.04633 9.37903,-5.71268 -7.58849,11.25483 12.02221,4.43372 -9.46429,21.40124 -13.98328,-14.66539"
       style="fill:none;stroke:#000000;stroke-width:0.80000001;stroke-linecap:round;stroke-linejoin:round;stroke-miterlimit:4;stroke-dasharray:none;stroke-opacity:1;filter:url(#filter1328)" />
  </g>
  <g
     inkscape:groupmode="layer"
     id="layer2"
     inkscape:label="form"
     transform="translate(64.693303,-110.52488)">
    <path
       style="fill:none;stroke:#000000;stroke-width:0.69999999;stroke-linecap:round;stroke-linejoin:round;stroke-miterlimit:4;stroke-dasharray:none;stroke-opacity:1"
       d="m 107.21935,173.62314 6.09637,-0.81001 -0.51158,-4.39109 1.66264,1.70528 -6.82111,2.21686 1.40686,2.55792 0.9379,-5.4569 3.8795,1.91844 0.55422,-2.34475 -3.24003,-0.0853 -0.29842,5.88321 -2.47265,-3.96477 4.17793,2.55792 -0.76738,-4.98794 2.17423,2.51529 -0.34105,-2.72845 1.19369,2.68581 -5.28636,-0.63948 2.47265,3.75162 -5.2011,-1.15107 4.00741,2.0037 -0.0426,-5.41426 2.68582,2.68582 -1.83318,2.85634 -2.64318,-4.86004 -2.30212,3.36792 2.81371,1.10843 1.27895,-5.79794 1.40686,5.28636 -1.83317,0.17053 -2.34476,-3.28267 5.58478,-2.60054 -1.79054,6.52269 -2.30212,-5.2011"
       id="path1256"
       inkscape:connector-curvature="0" />
    <path
       style="fill:none;stroke:#000000;stroke-width:0.80000001;stroke-linecap:round;stroke-linejoin:round;stroke-miterlimit:4;stroke-dasharray:none;stroke-opacity:1"
       d="m 68.637438,209.00765 5.456888,1.62002 -2.131597,-4.77478 3.922141,1.36422 -1.620015,-5.11583 -1.53475,0.76737 0.852638,-3.15476 -1.620014,-1.79054 3.325294,10.06114 -4.518988,-1.36422 2.046332,4.68951 -3.666347,-1.1937 0.682112,-2.13159 4.433723,1.10843 -1.278959,-4.86004 2.984236,-0.42632 -4.945306,8.52639 3.325294,-9.54956 -5.456891,5.79794 1.620014,2.98424 3.666347,-1.96107 2.984236,-5.03057 0.511585,2.81371 1.790541,-1.62001 0.852638,2.04633 1.875806,-2.04633 1.278959,2.04633 1.620015,-2.04633 0.852638,1.10843 1.449488,-1.44949 0.682109,1.44949 1.449488,-1.36423 1.193694,1.02317 0.852639,-1.36422 0.767376,2.98424 -3.325294,0.9379 0.937903,1.62001 -3.666347,0.17053 2.302126,1.44949 -0.42632,-2.38739 h 2.898973 l -1.53475,-1.96107 2.984236,-1.27896 -1.790542,-1.44949 -1.364223,1.36423 -0.937903,-1.36423 -1.620015,1.53475 -0.682109,-1.02316 -1.364223,1.36422 -1.53475,-1.79054 -1.620015,2.64318 -0.596847,-2.64318 -2.046332,2.04633 -0.767377,-2.64318 -1.790541,2.21686 v -2.72844 l -4.348459,1.27895 -2.216861,5.54216 1.875806,1.62001 5.115835,-8.44112 0.511582,2.98423 1.790541,-1.8758 0.426321,2.04633 2.216861,-1.70528 0.767374,2.1316 1.705279,-2.1316 1.364221,1.1937 1.108432,-1.02317 0.852639,0.76738 1.193694,-1.1937 1.193694,1.02317 1.193694,-0.93791 1.278959,2.04634 -2.728444,-0.25579 1.790541,1.70527 -2.046333,-0.34105 1.023168,1.70528 h -2.472653 l 0.852638,0.9379 -1.53475,0.68211 4.774777,-5.71268 -2.131597,0.68211 1.875806,1.1937 -1.193694,-2.55792 -19.440168,0.76737 4.092668,-3.58108 -2.046335,0.51158 0.682111,-1.62001 -1.278959,-1.10843 0.682112,-0.76738 -0.767376,-0.42632 -0.511583,-1.27895 14.750653,-18.84333 -4.518985,-3.83687 1.96107,-4.2632 -6.650585,-0.59684 0.341056,-1.53475 4.177932,0.25579 -1.108432,3.66635 4.263194,1.70527 -2.302123,3.24003 2.984235,1.44949 -0.852638,-2.81371 -3.495821,-2.47265 1.53475,-3.83688 -9.123235,-0.42632 6.480056,-0.9379 -0.852641,2.38739 5.456891,1.96107 -2.387389,3.0695 2.557915,0.17053 -4.774776,-4.43373 0.937903,-3.41055 -4.860044,1.44948 0.255794,-0.42632 7.332694,2.64318 -1.53475,3.66635 1.790541,2.72845 1.53475,-1.96107 -6.650582,-7.75902 -2.216862,1.44949 5.968473,0.34105 1.193694,7.58849 11.595889,2.72845 -3.666347,-4.86005 5.371626,-0.42632 -2.302126,-4.60425 7.503227,1.44949 -6.48006,-1.96107 2.216862,3.58108 -5.030571,-0.51158 3.325292,4.09267 -4.860042,0.9379 3.836877,1.87581 -2.472653,-5.28637 3.666347,0.93791 -3.0695,-3.49582 5.797944,0.51158 -0.937903,-1.96107 -4.092667,0.59685 0.767376,8.35586 3.581082,-8.86744 1.620016,1.62001 -7.332695,1.36422 -0.170529,3.66635 5.712682,-6.82111 -4.774779,8.2706 -1.278959,-4.51899 4.774779,-4.2632 -0.937903,6.48006 -2.387388,-5.11583 3.666347,-1.1937 2.813705,1.96107 -7.588484,5.28636 -13.045377,27.11392 -12.107473,-14.4096 31.377114,-2.13159 -28.392876,-17.7349 -15.592719,10.38252 -2.53221,-5.30558 12.781624,-12.05813 -12.540462,-7.95837 11.696393,-7.71721 -9.284763,-7.23488 7.717205,-5.66733 -9.405345,-16.39906 5.184997,-2.65279 5.908487,8.44069 -3.979185,9.64651 -6.270231,-7.59662 7.717208,-9.0436 2.411627,19.77534 2.411627,-3.13512 -11.455228,-17.96662 -2.170464,6.39081 12.540461,13.02279 v -3.73802 l -10.611159,0.12058 -1.205815,-3.61744 10.008253,-7.23488 -3.738022,-3.97919 -7.1143,3.37628 4.582092,12.54046 6.390811,-10.12883 -7.114301,-6.87314 -3.376277,1.56756 12.661043,17.60488 -2.893952,1.44697 0.844069,-8.07895 -10.61116,-7.35546 6.029069,-4.94384 4.582091,9.52593 -9.767091,5.185 8.078951,-11.6964 -8.92302,4.82326 3.617442,-7.1143 7.114299,10.12883 -5.064416,6.63198 -5.305581,-3.37628 9.887672,-8.07895 -9.284766,-5.66732 -0.482325,10.9729 11.816974,4.58209 -1.567558,4.34093 -9.284764,-3.37628 8.92302,5.66733 -9.043601,1.68814 9.405345,2.65279 -9.525929,1.56755 9.284766,3.2557 -10.249415,2.53221 10.369997,1.68814 -11.455231,3.49686 12.902208,3.8586 -13.505114,4.70267 13.263951,3.97919 -12.902207,4.70267 48.594285,13.50511 7.59663,-11.81697 7.35546,12.66104 8.80244,-20.0165 -13.26395,-6.63198 8.07895,-10.61116 -8.68186,1.08524 9.04361,0.96465 -9.28477,5.90848 11.33465,1.80872 -9.16418,6.75256 11.93755,0.48232 -9.88767,6.39082 11.21407,1.08523 -16.27849,12.66104 -8.32011,-14.2286 1.80872,-0.12058 8.92302,14.59034 10.9729,-24.23685 -12.54046,-4.22035 3.2557,-8.68186 8.19953,6.75256 -7.83779,13.38453 13.6257,10.61116 -3.49686,3.97919 -7.95837,-7.35547 6.02907,-16.64022 -11.6964,-6.87314 5.42617,-4.22035 5.42616,3.37628 -8.80244,10.24942 13.38453,7.95836 -5.185,15.07268 -8.4407,-11.45524 -7.59662,12.17872 -7.958371,-10.61116 8.681861,-3.25569 8.56127,14.10802 1.56756,-11.6964 7.23488,9.76709 3.85861,-8.92302 -12.90221,-7.95837 7.71721,-14.10802 -10.97291,-2.5322 11.21407,6.87313 -7.59663,13.38453 12.17872,11.57581 -8.68186,3.2557 -7.1143,-12.78162 -7.83778,12.2993 -4.340932,-12.78163 23.633942,12.66105 3.2557,-17.96663 -16.76081,-18.93127 4.46151,-0.36175 -0.84407,-5.54674 10.12884,-5.66732 -0.84407,-5.54674 -5.42616,2.41162 4.58209,12.66105 -10.85233,-0.84407 2.53221,4.22034 -4.22035,0.72349 2.17047,2.04988 -0.72349,-5.7879 5.185,0.12058 -0.84407,-7.95837 8.56128,-3.2557 -2.29105,-4.34092 2.65279,0.96465 -8.19953,3.73802 2.89395,9.76709 3.2557,-3.8586 -2.29105,-9.64651 4.82326,1.32639 -8.80244,3.85861 1.32639,8.68185 4.94384,-14.71092 -1.80872,14.34918 1.44697,-1.08523 -0.6029,2.41162 -4.34093,-11.93755 6.27023,-3.2557 -0.24116,7.35547 -10.37,4.94383 1.44697,3.8586 -3.13511,-0.72348 -0.24116,4.94383 8.92302,-19.4136 3.73802,5.06442 -7.83779,0.60291 5.42616,7.59662 -8.32011,-1.9293 3.49686,3.2557 h -5.185 l 10.24942,-1.08523 -9.52593,3.73802 8.44069,-2.65279 -8.32011,-1.80872 13.74628,18.44894 -8.68186,10.24942 11.57581,6.63198 -6.87314,4.94383 -7.95837,-12.41988 -4.94383,12.78163 -7.59663,-14.95209 0.72349,13.14336 -4.582095,-4.70267 -10.008254,23.87511 -10.972903,-20.73999 -8.199532,3.61744 22.428133,17.36372 7.476046,-8.07896 -22.548715,-26.76906 -4.943838,13.98744 -2.652789,-13.74628 -8.561276,11.45523 6.390812,-36.53615 -2.532208,-7.47604 -9.164185,20.86057 2.652792,21.70465 9.646507,-10.85232 -11.093484,-17.4843 5.305581,-14.83151 6.27023,19.77534 -12.661045,10.85233 10.731743,15.91673 9.646508,-13.86685 18.207786,33.15987 11.937556,-30.26592 8.44069,14.10802 16.15791,-7.35546 -13.6257,-4.22035 -18.328365,3.73802 4.220345,8.68186 -23.513362,15.67558 2.77337,-32.43639 3.135117,5.185 -14.710926,20.86057 2.532208,9.76709 h -6.029068 l 1.929302,-16.76081 -7.355464,2.77338 0.844071,-10.61116 -7.717208,2.89395 -0.844069,-9.0436 -6.029068,3.61744 -0.844071,-6.14965 -3.014533,3.73802 5.908487,-2.04988 1.567559,6.63197 4.702672,-1.9293 1.446977,7.47605 9.284764,-0.48233 -2.893952,10.00825 6.270231,-0.24116 -4.461513,6.02907 9.525929,0.12058 -5.184997,4.58209 0.120581,-23.39278 3.496857,20.98116 3.738023,-35.08918 6.390812,4.94383 -9.405345,9.52593 -3.738022,-13.14337 -7.717208,11.81698 -7.596627,-12.17872 12.178718,-9.88767 -10.008251,-12.90221 9.043601,-7.1143 -8.078951,-4.46151 3.376279,-2.89395 3.73802,2.77337 -7.717205,1.80872 8.92302,7.1143 -9.284764,0.72349 9.164182,4.22035 -11.093484,3.13511 12.058134,3.49686 -12.661042,3.61744 12.902205,5.78791 -12.299297,7.35546 28.577781,1.68814 -14.469764,8.32011 -14.349182,-6.27023 12.540462,-6.87313 2.049883,12.78162 c 0,0 10.731743,-14.71093 10.008253,-13.38453 -0.723487,1.32639 -1.688139,33.15987 -1.688139,33.15987 l 8.440697,-24.96034 -0.844071,26.40732 4.702673,-35.08918 -0.844069,35.33034 5.908487,-35.08917 0.844069,2.5322 -9.164183,0.96465 5.305579,-3.73802 4.340928,1.20582 -10.852321,-0.12058 0.602908,-1.3264 8.561277,5.54674 -7.355465,0.36175 6.873137,2.41162 -6.029068,0.36175 7.114302,2.04988 -7.476046,-3.49686 7.234883,-3.13511 -6.99372,-3.61744 -1.567556,2.29104 7.23488,4.22035 -7.355461,28.33662 -10.490579,-34.72743 -8.199532,13.74627 -12.661043,-17.00197 11.937553,-11.45523 -10.249416,-13.02279 4.099766,-8.19953 6.14965,50.16185 6.029068,-13.6257 26.648481,21.58407 -9.887672,13.26395 -2.77337,-26.64848 -10.61116,23.2722 -0.120581,-18.32837 -7.234883,24.35744 0.241162,-16.27849 -5.184997,8.80244 2.773371,-11.81697 -6.993718,0.60291 -0.844071,-7.47605 -6.270231,1.08523 -1.567556,-7.1143 -6.029068,2.41163 -0.241162,-2.77337 2.77337,-0.84407 1.808721,6.14965 5.064416,-1.9293 0.964652,7.23488 9.284764,-1.56756 -3.376277,7.71721 6.511393,-2.77337 -5.185,5.42616 6.511393,-3.37628 -4.582091,10.00825 8.802439,3.61745 -7.596624,0.12058 4.702672,2.77337 -0.964649,-7.83779 4.220347,-1.44698 -4.220347,-3.49686 29.421851,-0.24116 -29.542432,-4.94384 30.627663,0.24117 -30.386501,-5.185 c 0,0 60.411262,-3.01453 59.928932,-3.13512"
       id="path1216"
       inkscape:connector-curvature="0" />
    <path
       style="fill:none;stroke:#000000;stroke-width:0.80000001;stroke-linecap:round;stroke-linejoin:round;stroke-miterlimit:4;stroke-dasharray:none;stroke-opacity:1"
       d="m 41.600569,177.74503 1.68814,-6.02907 -5.727615,-0.42203 0.542615,-1.44698 h -1.205812 l -0.241163,-1.38668 -1.326395,0.36174 0.06029,-0.54261 1.989593,0.66319 -0.120581,1.44698 0.964649,0.36174 -0.361743,2.41163 5.787905,0.78378 -2.532208,3.2557 -3.074826,-1.26611 -0.06029,-1.56756 4.823256,0.96465 -1.266105,-5.72761 0.904359,-1.2661 -0.904359,-0.24117 -0.301453,-1.14552 -0.783781,0.18087 -0.542615,-1.02494 -0.542616,0.78378 1.386687,-0.18087 0.120581,0.90436 1.02494,0.18087 -0.301453,0.96465 1.205815,1.50727 0.422034,4.46151 -3.557151,1.98959 2.893952,-6.14965 -4.099766,2.95424 2.411629,-4.46151 -0.72349,-0.12058 0.180872,-0.96465 -0.844068,0.12058 -0.241163,-1.14552 -0.964652,0.36174 -0.361744,-0.72348 -0.602906,0.12058 -0.120581,-0.42204 0.602906,0.72349 0.904362,-0.24116 0.120581,0.84407 1.205812,-0.24117 -0.120581,1.38669 1.266105,-0.42203 -0.904362,1.14552 2.230755,0.36174 -4.582091,2.53221 5.426162,0.18087 -5.064418,1.68814 4.883547,0.54262 -4.160057,1.2661 -1.74843,-1.02494 0.663196,-0.96465 -0.602906,-0.36175 0.422034,-0.36174 -0.663196,-0.90436 0.482325,-0.0603 -0.301453,2.17047 4.762962,1.9293 -3.315985,-6.20994 1.02494,-0.72349 h -1.085231 l 0.602906,-0.96465 -1.446977,0.0603 0.180872,-1.08523 -1.145522,0.42203 -0.361743,-1.08523 -0.964653,0.48232 -0.06029,-0.42203 -0.301453,0.48232 0.964649,-0.54261 -0.06029,0.6029 1.266105,-0.54261 0.180872,1.3264 1.326396,-0.54262 -0.602909,1.50726 1.446977,-0.24116 -0.964649,1.08524 4.160057,0.96465 -0.120582,4.70267 -1.446977,-6.39081 0.06029,-0.96465 -0.422034,-0.48233 -1.205815,-0.42204 -0.723487,-0.6029 -1.266106,-0.72349 -0.844068,0.30145 1.085231,1.08524 0.964652,0.30145 0.844069,1.56756 0.120581,0.24116 -1.266103,0.36175 -0.602909,-1.50727 -1.266102,-0.48233 -1.145524,-0.24116 -0.301453,-0.18087 2.291045,1.2661"
       id="path1218"
       inkscape:connector-curvature="0" />
    <path
       style="fill:none;stroke:#000000;stroke-width:0.80000001;stroke-linecap:round;stroke-linejoin:round;stroke-miterlimit:4;stroke-dasharray:none;stroke-opacity:1"
       d="m 76.388292,207.28746 9.646508,14.28889 -11.57581,5.2453 -0.542618,-11.0332 14.590345,-8.98331 0.964652,1.62785 -3.918894,2.11017 -1.567559,-2.83366 -7.958367,20.07679 5.607031,0.36175 4.039476,-12.60075 -5.607034,-8.07895 -5.124707,3.49686 -0.361743,-1.86902 2.713079,-1.68814 9.103892,11.6964 -12.480171,4.94383 2.893955,-16.64023 3.255695,21.16204 5.24529,-15.37413 0.602906,10.67145 -2.77337,3.67773 -9.405347,-2.23075 12.359589,-5.36587 -11.455228,-6.14965 9.586217,-2.04988 -10.189123,-1.62785 8.561277,-1.92931 5.245287,2.04989 -1.446977,-3.07483 3.135117,-0.18087 -4.039476,3.43657 -0.120581,-3.13512 -9.043601,4.46152 8.681857,-0.90437 -7.054011,18.08721 -4.5218,-7.47605 12.239008,-6.87313 -9.586217,-2.04989 2.291046,16.2182 6.390812,-2.77338 -7.355464,-13.92714 -3.496861,7.1143 10.611162,7.47604 1.326394,-3.8586 -11.816972,-7.53634 11.214066,-1.86901 1.266105,5.48646 -13.685985,1.56755 2.110173,-6.20994 10.128835,-0.96465 1.688139,7.41576 -11.274358,6.63197 -2.652789,-5.54674 11.515518,-9.1039 -2.110174,-4.5218 -4.220347,3.85861 6.99372,12.48017 -7.355464,3.1954 -2.652789,-10.61116 8.742148,-4.82325 -4.883544,-4.22035 -4.039476,1.02494 10.128835,1.44698 0.964649,-3.2557 1.024943,3.55715 1.808721,-1.38668 -1.266105,-2.35134 1.80872,-0.18087 -12.118427,5.00413 7.89808,3.49685 -11.636102,7.7775 8.923022,5.12471 2.351336,-20.6797 12.962496,-17.12256 -15.675578,14.83151 -12.41988,-14.28889 24.055982,8.50099 -22.729586,-11.15378 26.467609,5.06442 -25.201504,-8.68186 28.396905,1.2661 7.23489,-11.81697 3.55714,13.32424"
       id="path1220"
       inkscape:connector-curvature="0" />
    <path
       style="fill:none;stroke:#000000;stroke-width:0.80000001;stroke-linecap:round;stroke-linejoin:round;stroke-miterlimit:4;stroke-dasharray:none;stroke-opacity:1"
       d="m 44.848811,174.39051 8.441124,4.43372 -9.890612,-4.0074 23.532835,16.62646 -25.238111,-13.98328 8.952708,5.62742 3.325292,-2.47265 -1.449486,4.51898 5.456888,-2.30212 -1.108429,5.88321 6.906376,-2.47266 -3.49582,7.75902 6.650582,-2.55792 -5.115832,7.24743 34.872935,-0.51158 -33.082394,5.79794 8.611653,-19.18437 -4.689515,1.70527 24.982324,17.13805 -0.596848,1.96107 -2.387388,-0.85264 4.60425,-2.89897 3.581083,-7.50323 -12.789586,11.08431 -8.185332,0.0853 15.518029,-34.87293 -10.913779,-1.44949 -15.091709,2.04634 -9.975876,10.65798 -3.410556,-12.36326 5.115832,-32.05923 4.007403,46.04251 7.929544,-12.278 3.154765,13.38643 4.092665,-13.38643 16.37067,31.97396 0.255791,-23.44757 -29.586573,26.26128 3.325291,-14.15381 42.631945,-16.88225 9.12324,12.19274 8.86745,-8.69692 -14.4096,-10.65799 8.61165,-9.2085 -11.42536,-2.04633 9.37903,-5.71268 -7.58849,11.25483 12.02221,4.43372 -9.46429,21.40124 -13.98328,-14.66539"
       id="path1222"
       inkscape:connector-curvature="0" />
  </g>
  <g
     inkscape:groupmode="layer"
     id="layer5"
     inkscape:label="cloudFade">
    <path
       inkscape:connector-curvature="0"
       id="path1332"
       d="m 3.2400282,235.95105 -12.9601125,-3.75162 -14.8359177,-7.16216 -16.882253,-2.55792"
       style="fill:none;stroke:#000000;stroke-width:0.26458332px;stroke-linecap:round;stroke-linejoin:round;stroke-opacity:1;filter:url(#filter1572)"
       transform="translate(64.693303,-110.52488)" />
    <path
       inkscape:connector-curvature="0"
       id="path1334"
       d="m -64.630035,214.8056 17.223309,9.37903 13.642223,3.0695"
       style="fill:none;stroke:#000000;stroke-width:0.26458332px;stroke-linecap:round;stroke-linejoin:round;stroke-opacity:1;filter:url(#filter1576)"
       transform="translate(64.693303,-110.52488)" />
    <path
       inkscape:connector-curvature="0"
       id="path1336"
       d="m -7.5032229,219.92143 11.2548343,5.96848 15.5180296,3.92214"
       style="fill:none;stroke:#000000;stroke-width:0.26458332px;stroke-linecap:round;stroke-linejoin:round;stroke-opacity:1;filter:url(#filter1580)"
       transform="translate(64.693303,-110.52488)" />
    <path
       inkscape:connector-curvature="0"
       id="path1338"
       d="m 40.585614,197.75282 -26.090751,-6.48006 -38.368754,-16.02961 -28.64867,-3.92214 -11.766418,-5.79794"
       style="fill:none;stroke:#000000;stroke-width:0.26458332px;stroke-linecap:round;stroke-linejoin:round;stroke-opacity:1;filter:url(#filter1584)"
       transform="translate(64.693303,-110.52488)" />
    <path
       inkscape:connector-curvature="0"
       id="path1340"
       d="m 180.24788,158.01984 24.89706,-2.04633 22.68019,2.72844"
       style="fill:none;stroke:#000000;stroke-width:0.26458332px;stroke-linecap:round;stroke-linejoin:round;stroke-opacity:1;filter:url(#filter1588)"
       transform="translate(64.693303,-110.52488)" />
    <path
       inkscape:connector-curvature="0"
       id="path1342"
       d="m 37.380222,235.26234 10.852322,-5.78791 9.646509,-6.27023"
       style="fill:none;stroke:#000000;stroke-width:0.26458332px;stroke-linecap:round;stroke-linejoin:round;stroke-opacity:1;filter:url(#filter1592)"
       transform="translate(64.693303,-110.52488)" />
    <path
       inkscape:connector-curvature="0"
       id="path1344"
       d="m 146.38577,165.32515 14.2286,-12.05813 27.73371,-8.92303"
       style="fill:none;stroke:#000000;stroke-width:0.26458332px;stroke-linecap:round;stroke-linejoin:round;stroke-opacity:1;filter:url(#filter1596)"
       transform="translate(64.693303,-110.52488)" />
    <path
       inkscape:connector-curvature="0"
       id="path1346"
       d="m 147.83275,135.66214 -14.46977,4.58209 -10.61116,11.57581"
       style="fill:none;stroke:#000000;stroke-width:0.26458332px;stroke-linecap:round;stroke-linejoin:round;stroke-opacity:1;filter:url(#filter1600)"
       transform="translate(64.693303,-110.52488)" />
    <path
       inkscape:connector-curvature="0"
       id="path1348"
       d="m 171.70786,135.42097 18.81069,-11.57581"
       style="fill:none;stroke:#000000;stroke-width:0.26458332px;stroke-linecap:round;stroke-linejoin:round;stroke-opacity:1;filter:url(#filter1604)"
       transform="translate(64.693303,-110.52488)" />
    <path
       inkscape:connector-curvature="0"
       id="path1350"
       d="m 238.50993,133.73283 6.75256,-4.34092 11.81697,-10.61116 3.8586,-8.19954"
       style="fill:none;stroke:#000000;stroke-width:0.26458332px;stroke-linecap:round;stroke-linejoin:round;stroke-opacity:1;filter:url(#filter1608)"
       transform="translate(64.693303,-110.52488)" />
    <path
       inkscape:connector-curvature="0"
       id="path1352"
       d="m 8.4406951,173.52468 11.5758109,-9.40534 6.993719,-14.2286 7.95837,-3.85861 7.95837,-8.68185"
       style="fill:none;stroke:#000000;stroke-width:0.26458332px;stroke-linecap:round;stroke-linejoin:round;stroke-opacity:1;filter:url(#filter1612)"
       transform="translate(64.693303,-110.52488)" />
    <path
       inkscape:connector-curvature="0"
       id="path1354"
       d="m -21.704645,134.93865 33.762781,-8.19953 15.193251,-1.92931 23.392783,-9.88767"
       style="fill:none;stroke:#000000;stroke-width:0.26458332px;stroke-linecap:round;stroke-linejoin:round;stroke-opacity:1;filter:url(#filter1616)"
       transform="translate(64.693303,-110.52488)" />
    <path
       inkscape:connector-curvature="0"
       id="path1356"
       d="m 206.67645,228.50978 c 1.20582,-2.17046 27.49255,-14.2286 27.49255,-14.2286 l 18.0872,-3.37628"
       style="fill:none;stroke:#000000;stroke-width:0.26458332px;stroke-linecap:round;stroke-linejoin:round;stroke-opacity:1;filter:url(#filter1620)"
       transform="translate(64.693303,-110.52488)" />
    <path
       inkscape:connector-curvature="0"
       id="path1358"
       d="m 196.54762,192.33538 9.64651,-7.47605 10.12883,1.20581"
       style="fill:none;stroke:#000000;stroke-width:0.26458332px;stroke-linecap:round;stroke-linejoin:round;stroke-opacity:1;filter:url(#filter1624)"
       transform="translate(64.693303,-110.52488)" />
    <path
       inkscape:connector-curvature="0"
       id="path1360"
       d="m 128.78089,214.04002 40.03301,-12.05814 11.57582,-12.05813"
       style="fill:none;stroke:#000000;stroke-width:0.26458332px;stroke-linecap:round;stroke-linejoin:round;stroke-opacity:1;filter:url(#filter1628)"
       transform="translate(64.693303,-110.52488)" />
    <path
       inkscape:connector-curvature="0"
       id="path1362"
       d="m 251.05039,170.63073 6.99372,-7.23488"
       style="fill:none;stroke:#000000;stroke-width:0.26458332px;stroke-linecap:round;stroke-linejoin:round;stroke-opacity:1;filter:url(#filter1632)"
       transform="translate(64.693303,-110.52488)" />
  </g>
  <g
     inkscape:groupmode="layer"
     id="layer3"
     inkscape:label="cloud">
    <path
       transform="translate(64.693303,-110.52488)"
       style="fill:none;stroke:#000000;stroke-width:0.2;stroke-linecap:butt;stroke-linejoin:miter;stroke-opacity:1;stroke-miterlimit:4;stroke-dasharray:none"
       d="m 3.2400282,235.95105 -12.9601125,-3.75162 -14.8359177,-7.16216 -16.882253,-2.55792"
       id="path1224"
       inkscape:connector-curvature="0" />
    <path
       transform="translate(64.693303,-110.52488)"
       style="fill:none;stroke:#000000;stroke-width:0.2;stroke-linecap:butt;stroke-linejoin:miter;stroke-opacity:1;stroke-miterlimit:4;stroke-dasharray:none"
       d="m -64.630035,214.8056 17.223309,9.37903 13.642223,3.0695"
       id="path1226"
       inkscape:connector-curvature="0" />
    <path
       transform="translate(64.693303,-110.52488)"
       style="fill:none;stroke:#000000;stroke-width:0.2;stroke-linecap:butt;stroke-linejoin:miter;stroke-opacity:1;stroke-miterlimit:4;stroke-dasharray:none"
       d="m -7.5032229,219.92143 11.2548343,5.96848 15.5180296,3.92214"
       id="path1228"
       inkscape:connector-curvature="0" />
    <path
       transform="translate(64.693303,-110.52488)"
       style="fill:none;stroke:#000000;stroke-width:0.2;stroke-linecap:butt;stroke-linejoin:miter;stroke-opacity:1;stroke-miterlimit:4;stroke-dasharray:none"
       d="m 40.585614,197.75282 -26.090751,-6.48006 -38.368754,-16.02961 -28.64867,-3.92214 -11.766418,-5.79794"
       id="path1230"
       inkscape:connector-curvature="0" />
    <path
       transform="translate(64.693303,-110.52488)"
       style="fill:none;stroke:#000000;stroke-width:0.2;stroke-linecap:butt;stroke-linejoin:miter;stroke-opacity:1;stroke-miterlimit:4;stroke-dasharray:none"
       d="m 180.24788,158.01984 24.89706,-2.04633 22.68019,2.72844"
       id="path1232"
       inkscape:connector-curvature="0" />
    <path
       transform="translate(64.693303,-110.52488)"
       style="fill:none;stroke:#000000;stroke-width:0.2;stroke-linecap:butt;stroke-linejoin:miter;stroke-opacity:1;stroke-miterlimit:4;stroke-dasharray:none"
       d="m 37.380222,235.26234 10.852322,-5.78791 9.646509,-6.27023"
       id="path1234"
       inkscape:connector-curvature="0" />
    <path
       transform="translate(64.693303,-110.52488)"
       style="fill:none;stroke:#000000;stroke-width:0.2;stroke-linecap:butt;stroke-linejoin:miter;stroke-opacity:1;stroke-miterlimit:4;stroke-dasharray:none"
       d="m 146.38577,165.32515 14.2286,-12.05813 27.73371,-8.92303"
       id="path1236"
       inkscape:connector-curvature="0" />
    <path
       transform="translate(64.693303,-110.52488)"
       style="fill:none;stroke:#000000;stroke-width:0.2;stroke-linecap:butt;stroke-linejoin:miter;stroke-opacity:1;stroke-miterlimit:4;stroke-dasharray:none"
       d="m 147.83275,135.66214 -14.46977,4.58209 -10.61116,11.57581"
       id="path1238"
       inkscape:connector-curvature="0" />
    <path
       transform="translate(64.693303,-110.52488)"
       style="fill:none;stroke:#000000;stroke-width:0.2;stroke-linecap:butt;stroke-linejoin:miter;stroke-opacity:1;stroke-miterlimit:4;stroke-dasharray:none"
       d="m 171.70786,135.42097 18.81069,-11.57581"
       id="path1240"
       inkscape:connector-curvature="0" />
    <path
       transform="translate(64.693303,-110.52488)"
       style="fill:none;stroke:#000000;stroke-width:0.2;stroke-linecap:butt;stroke-linejoin:miter;stroke-opacity:1;stroke-miterlimit:4;stroke-dasharray:none"
       d="m 238.50993,133.73283 6.75256,-4.34092 11.81697,-10.61116 3.8586,-8.19954"
       id="path1242"
       inkscape:connector-curvature="0" />
    <path
       transform="translate(64.693303,-110.52488)"
       style="fill:none;stroke:#000000;stroke-width:0.2;stroke-linecap:butt;stroke-linejoin:miter;stroke-opacity:1;stroke-miterlimit:4;stroke-dasharray:none"
       d="m 8.4406951,173.52468 11.5758109,-9.40534 6.993719,-14.2286 7.95837,-3.85861 7.95837,-8.68185"
       id="path1244"
       inkscape:connector-curvature="0" />
    <path
       transform="translate(64.693303,-110.52488)"
       style="fill:none;stroke:#000000;stroke-width:0.2;stroke-linecap:butt;stroke-linejoin:miter;stroke-opacity:1;stroke-miterlimit:4;stroke-dasharray:none"
       d="m -21.704645,134.93865 33.762781,-8.19953 15.193251,-1.92931 23.392783,-9.88767"
       id="path1246"
       inkscape:connector-curvature="0" />
    <path
       transform="translate(64.693303,-110.52488)"
       style="fill:none;stroke:#000000;stroke-width:0.2;stroke-linecap:butt;stroke-linejoin:miter;stroke-opacity:1;stroke-miterlimit:4;stroke-dasharray:none"
       d="m 206.67645,228.50978 c 1.20582,-2.17046 27.49255,-14.2286 27.49255,-14.2286 l 18.0872,-3.37628"
       id="path1248"
       inkscape:connector-curvature="0" />
    <path
       transform="translate(64.693303,-110.52488)"
       style="fill:none;stroke:#000000;stroke-width:0.2;stroke-linecap:butt;stroke-linejoin:miter;stroke-opacity:1;stroke-miterlimit:4;stroke-dasharray:none"
       d="m 196.54762,192.33538 9.64651,-7.47605 10.12883,1.20581"
       id="path1250"
       inkscape:connector-curvature="0" />
    <path
       transform="translate(64.693303,-110.52488)"
       style="fill:none;stroke:#000000;stroke-width:0.2;stroke-linecap:butt;stroke-linejoin:miter;stroke-opacity:1;stroke-miterlimit:4;stroke-dasharray:none"
       d="m 128.78089,214.04002 40.03301,-12.05814 11.57582,-12.05813"
       id="path1252"
       inkscape:connector-curvature="0" />
    <path
       transform="translate(64.693303,-110.52488)"
       style="fill:none;stroke:#000000;stroke-width:0.2;stroke-linecap:butt;stroke-linejoin:miter;stroke-opacity:1;stroke-miterlimit:4;stroke-dasharray:none"
       d="m 251.05039,170.63073 6.99372,-7.23488"
       id="path1254"
       inkscape:connector-curvature="0" />
  </g>
</svg>
