<?xml version="1.0" encoding="UTF-8" standalone="no"?>
<!-- Created with Inkscape (http://www.inkscape.org/) -->

<svg
   xmlns:dc="http://purl.org/dc/elements/1.1/"
   xmlns:cc="http://creativecommons.org/ns#"
   xmlns:rdf="http://www.w3.org/1999/02/22-rdf-syntax-ns#"
   xmlns:svg="http://www.w3.org/2000/svg"
   xmlns="http://www.w3.org/2000/svg"
   xmlns:sodipodi="http://sodipodi.sourceforge.net/DTD/sodipodi-0.dtd"
   xmlns:inkscape="http://www.inkscape.org/namespaces/inkscape"
   width="240.89006mm"
   height="121.318mm"
   viewBox="0 0 240.89006 121.318"
   version="1.1"
   id="svg8"
   inkscape:version="0.92.2 2405546, 2018-03-11"
   sodipodi:docname="parachute_open2.svg">
  <defs
     id="defs2">
    <filter
       inkscape:collect="always"
       style="color-interpolation-filters:sRGB"
       id="filter1189"
       x="-0.027889101"
       width="1.0557782"
       y="-0.021062816"
       height="1.0421256">
      <feGaussianBlur
         inkscape:collect="always"
         stdDeviation="0.78162215"
         id="feGaussianBlur1191" />
    </filter>
    <filter
       inkscape:collect="always"
       style="color-interpolation-filters:sRGB"
       id="filter1193"
       x="-0.32548208"
       width="1.6509642"
       y="-0.4067074"
       height="1.8134148">
      <feGaussianBlur
         inkscape:collect="always"
         stdDeviation="0.78162215"
         id="feGaussianBlur1195" />
    </filter>
    <filter
       inkscape:collect="always"
       style="color-interpolation-filters:sRGB"
       id="filter1197"
       x="-3.0739245"
       width="7.147849"
       y="-0.27935488"
       height="1.5587098">
      <feGaussianBlur
         inkscape:collect="always"
         stdDeviation="0.78162215"
         id="feGaussianBlur1199" />
    </filter>
    <filter
       inkscape:collect="always"
       style="color-interpolation-filters:sRGB"
       id="filter1201"
       x="-0.051044253"
       width="1.1020885"
       y="-0.040550479"
       height="1.081101">
      <feGaussianBlur
         inkscape:collect="always"
         stdDeviation="0.78162215"
         id="feGaussianBlur1203" />
    </filter>
    <filter
       inkscape:collect="always"
       style="color-interpolation-filters:sRGB"
       id="filter1205"
       x="-0.26601886"
       width="1.5320377"
       y="-0.1088796"
       height="1.2177592">
      <feGaussianBlur
         inkscape:collect="always"
         stdDeviation="0.78162215"
         id="feGaussianBlur1207" />
    </filter>
    <filter
       inkscape:collect="always"
       style="color-interpolation-filters:sRGB"
       id="filter1209"
       x="-2.7666"
       width="6.5332001"
       y="-0.11287934"
       height="1.2257587">
      <feGaussianBlur
         inkscape:collect="always"
         stdDeviation="0.78162215"
         id="feGaussianBlur1211" />
    </filter>
    <filter
       inkscape:collect="always"
       style="color-interpolation-filters:sRGB"
       id="filter1213"
       x="-0.19761408"
       width="1.3952282"
       y="-0.088355952"
       height="1.1767119">
      <feGaussianBlur
         inkscape:collect="always"
         stdDeviation="0.78162215"
         id="feGaussianBlur1215" />
    </filter>
    <filter
       inkscape:collect="always"
       style="color-interpolation-filters:sRGB"
       id="filter1217"
       x="-0.065096438"
       width="1.1301929"
       y="-0.091878351"
       height="1.1837567">
      <feGaussianBlur
         inkscape:collect="always"
         stdDeviation="0.78162215"
         id="feGaussianBlur1219" />
    </filter>
    <filter
       inkscape:collect="always"
       style="color-interpolation-filters:sRGB"
       id="filter1221"
       x="-0.23646199"
       width="1.472924"
       y="-0.42546811"
       height="1.8509362">
      <feGaussianBlur
         inkscape:collect="always"
         stdDeviation="0.78162215"
         id="feGaussianBlur1223" />
    </filter>
    <filter
       inkscape:collect="always"
       style="color-interpolation-filters:sRGB"
       id="filter1661"
       x="-0.096682934"
       width="1.1933659"
       y="-0.86177626"
       height="2.7235525">
      <feGaussianBlur
         inkscape:collect="always"
         stdDeviation="1.6533285"
         id="feGaussianBlur1663" />
    </filter>
    <filter
       inkscape:collect="always"
       style="color-interpolation-filters:sRGB"
       id="filter1665"
       x="-0.2873631"
       width="1.5747262"
       y="-2.9546367"
       height="6.9092734">
      <feGaussianBlur
         inkscape:collect="always"
         stdDeviation="1.6533285"
         id="feGaussianBlur1667" />
    </filter>
    <filter
       inkscape:collect="always"
       style="color-interpolation-filters:sRGB"
       id="filter1669"
       x="-0.32328356"
       width="1.6465671"
       y="-0.73865093"
       height="2.4773019">
      <feGaussianBlur
         inkscape:collect="always"
         stdDeviation="1.6533285"
         id="feGaussianBlur1671" />
    </filter>
    <filter
       inkscape:collect="always"
       style="color-interpolation-filters:sRGB"
       id="filter1673"
       x="-0.18309868"
       width="1.3661974"
       y="-1.4772909"
       height="3.9545817">
      <feGaussianBlur
         inkscape:collect="always"
         stdDeviation="1.6533285"
         id="feGaussianBlur1675" />
    </filter>
    <filter
       inkscape:collect="always"
       style="color-interpolation-filters:sRGB"
       id="filter1677"
       x="-0.073110069"
       width="1.1462201"
       y="-0.5044455"
       height="2.008891">
      <feGaussianBlur
         inkscape:collect="always"
         stdDeviation="1.6533285"
         id="feGaussianBlur1679" />
    </filter>
    <filter
       inkscape:collect="always"
       style="color-interpolation-filters:sRGB"
       id="filter1681"
       x="-0.1083254"
       width="1.2166508"
       y="-1.0341113"
       height="3.0682226">
      <feGaussianBlur
         inkscape:collect="always"
         stdDeviation="1.6533285"
         id="feGaussianBlur1683" />
    </filter>
    <filter
       inkscape:collect="always"
       style="color-interpolation-filters:sRGB"
       id="filter1685"
       x="-0.040175041"
       width="1.0803501"
       y="-0.21543997"
       height="1.4308799">
      <feGaussianBlur
         inkscape:collect="always"
         stdDeviation="1.6533285"
         id="feGaussianBlur1687" />
    </filter>
    <filter
       inkscape:collect="always"
       style="color-interpolation-filters:sRGB"
       id="filter1689"
       x="-0.17534022"
       width="1.3506804"
       y="-1.1490092"
       height="3.2980185">
      <feGaussianBlur
         inkscape:collect="always"
         stdDeviation="1.6533285"
         id="feGaussianBlur1691" />
    </filter>
    <filter
       inkscape:collect="always"
       style="color-interpolation-filters:sRGB"
       id="filter1693"
       x="-0.11558737"
       width="1.2311747"
       y="-0.47005003"
       height="1.9401001">
      <feGaussianBlur
         inkscape:collect="always"
         stdDeviation="1.6533285"
         id="feGaussianBlur1695" />
    </filter>
    <filter
       inkscape:collect="always"
       style="color-interpolation-filters:sRGB"
       id="filter1697"
       x="-0.083092988"
       width="1.166186"
       y="-0.57450794"
       height="2.1490159">
      <feGaussianBlur
         inkscape:collect="always"
         stdDeviation="1.6533285"
         id="feGaussianBlur1699" />
    </filter>
    <filter
       inkscape:collect="always"
       style="color-interpolation-filters:sRGB"
       id="filter1701"
       x="-0.1162368"
       width="1.2324736"
       y="-2.2980318"
       height="5.5960635">
      <feGaussianBlur
         inkscape:collect="always"
         stdDeviation="1.6533285"
         id="feGaussianBlur1703" />
    </filter>
    <filter
       inkscape:collect="always"
       style="color-interpolation-filters:sRGB"
       id="filter1705"
       x="-0.068967175"
       width="1.1379343"
       y="-0.94010563"
       height="2.8802113">
      <feGaussianBlur
         inkscape:collect="always"
         stdDeviation="1.6533285"
         id="feGaussianBlur1707" />
    </filter>
    <filter
       inkscape:collect="always"
       style="color-interpolation-filters:sRGB"
       id="filter1709"
       x="-0.2273644"
       width="1.4547288"
       y="-0.68940669"
       height="2.3788134">
      <feGaussianBlur
         inkscape:collect="always"
         stdDeviation="1.6533285"
         id="feGaussianBlur1711" />
    </filter>
    <filter
       inkscape:collect="always"
       style="color-interpolation-filters:sRGB"
       id="filter1713"
       x="-0.1915755"
       width="1.383151"
       y="-0.36932467"
       height="1.7386493">
      <feGaussianBlur
         inkscape:collect="always"
         stdDeviation="1.6533285"
         id="feGaussianBlur1715" />
    </filter>
    <filter
       inkscape:collect="always"
       style="color-interpolation-filters:sRGB"
       id="filter1717"
       x="-0.27586875"
       width="1.5517375"
       y="-0.51705626"
       height="2.0341125">
      <feGaussianBlur
         inkscape:collect="always"
         stdDeviation="1.6533285"
         id="feGaussianBlur1719" />
    </filter>
    <filter
       inkscape:collect="always"
       style="color-interpolation-filters:sRGB"
       id="filter1721"
       x="-0.82760739"
       width="2.6552148"
       y="-2.5853288"
       height="6.1706576">
      <feGaussianBlur
         inkscape:collect="always"
         stdDeviation="1.6533285"
         id="feGaussianBlur1723" />
    </filter>
    <filter
       inkscape:collect="always"
       style="color-interpolation-filters:sRGB"
       id="filter1725"
       x="-0.12693343"
       width="1.2538669"
       y="-0.37603744"
       height="1.7520749">
      <feGaussianBlur
         inkscape:collect="always"
         stdDeviation="1.6533285"
         id="feGaussianBlur1727" />
    </filter>
    <filter
       inkscape:collect="always"
       style="color-interpolation-filters:sRGB"
       id="filter1729"
       x="-0.68967354"
       width="2.3793471"
       y="-0.41364538"
       height="1.8272908">
      <feGaussianBlur
         inkscape:collect="always"
         stdDeviation="1.6533285"
         id="feGaussianBlur1731" />
    </filter>
    <filter
       inkscape:collect="always"
       style="color-interpolation-filters:sRGB"
       id="filter1733"
       x="-0.39037983"
       width="1.7807597"
       y="-0.89922844"
       height="2.7984569">
      <feGaussianBlur
         inkscape:collect="always"
         stdDeviation="1.6533285"
         id="feGaussianBlur1735" />
    </filter>
    <filter
       inkscape:collect="always"
       style="color-interpolation-filters:sRGB"
       id="filter1737"
       x="-0.19894373"
       width="1.3978875"
       y="-0.66716892"
       height="2.3343378">
      <feGaussianBlur
         inkscape:collect="always"
         stdDeviation="1.6533285"
         id="feGaussianBlur1739" />
    </filter>
    <filter
       inkscape:collect="always"
       style="color-interpolation-filters:sRGB"
       id="filter1741"
       x="-0.22989065"
       width="1.4597813"
       y="-0.57450603"
       height="2.1490121">
      <feGaussianBlur
         inkscape:collect="always"
         stdDeviation="1.6533285"
         id="feGaussianBlur1743" />
    </filter>
    <filter
       inkscape:collect="always"
       style="color-interpolation-filters:sRGB"
       id="filter1745"
       x="-0.11558737"
       width="1.2311747"
       y="-0.4700502"
       height="1.9401004">
      <feGaussianBlur
         inkscape:collect="always"
         stdDeviation="1.6533285"
         id="feGaussianBlur1747" />
    </filter>
    <filter
       inkscape:collect="always"
       style="color-interpolation-filters:sRGB"
       id="filter1749"
       x="-0.38315101"
       width="1.766302"
       y="-0.89922844"
       height="2.7984569">
      <feGaussianBlur
         inkscape:collect="always"
         stdDeviation="1.6533285"
         id="feGaussianBlur1751" />
    </filter>
    <filter
       inkscape:collect="always"
       style="color-interpolation-filters:sRGB"
       id="filter1753"
       x="-0.60853399"
       width="2.217068"
       y="-0.71318136"
       height="2.4263627">
      <feGaussianBlur
         inkscape:collect="always"
         stdDeviation="1.6533285"
         id="feGaussianBlur1755" />
    </filter>
    <filter
       inkscape:collect="always"
       style="color-interpolation-filters:sRGB"
       id="filter1757"
       x="-0.94045991"
       width="2.8809198"
       y="-1.3788194"
       height="3.7576388">
      <feGaussianBlur
         inkscape:collect="always"
         stdDeviation="1.6533285"
         id="feGaussianBlur1759" />
    </filter>
    <filter
       inkscape:collect="always"
       style="color-interpolation-filters:sRGB"
       id="filter1761"
       x="-0.79577493"
       width="2.5915499"
       y="-1.4772881"
       height="3.9545762">
      <feGaussianBlur
         inkscape:collect="always"
         stdDeviation="1.6533285"
         id="feGaussianBlur1763" />
    </filter>
    <filter
       inkscape:collect="always"
       style="color-interpolation-filters:sRGB"
       id="filter1765"
       x="-0.64656705"
       width="2.2931341"
       y="-1.5909347"
       height="4.1818694">
      <feGaussianBlur
         inkscape:collect="always"
         stdDeviation="1.6533285"
         id="feGaussianBlur1767" />
    </filter>
    <filter
       inkscape:collect="always"
       style="color-interpolation-filters:sRGB"
       id="filter1769"
       x="-0.10720285"
       width="1.2144057"
       y="-0.62673362"
       height="2.2534672">
      <feGaussianBlur
         inkscape:collect="always"
         stdDeviation="1.6533285"
         id="feGaussianBlur1771" />
    </filter>
    <filter
       inkscape:collect="always"
       style="color-interpolation-filters:sRGB"
       id="filter1773"
       x="-0.096233252"
       width="1.1924665"
       y="-0.39023068"
       height="1.7804614">
      <feGaussianBlur
         inkscape:collect="always"
         stdDeviation="1.6533285"
         id="feGaussianBlur1775" />
    </filter>
  </defs>
  <sodipodi:namedview
     id="base"
     pagecolor="#ffffff"
     bordercolor="#666666"
     borderopacity="1.0"
     inkscape:pageopacity="0.0"
     inkscape:pageshadow="2"
     inkscape:zoom="1.2174933"
     inkscape:cx="476.3601"
     inkscape:cy="162.70892"
     inkscape:document-units="mm"
     inkscape:current-layer="layer5"
     showgrid="false"
     inkscape:window-width="1920"
     inkscape:window-height="1039"
     inkscape:window-x="1920"
     inkscape:window-y="0"
     inkscape:window-maximized="1"
     inkscape:object-nodes="false"
     fit-margin-top="0"
     fit-margin-left="0"
     fit-margin-right="0"
     fit-margin-bottom="0" />
  <metadata
     id="metadata5">
    <rdf:RDF>
      <cc:Work
         rdf:about="">
        <dc:format>image/svg+xml</dc:format>
        <dc:type
           rdf:resource="http://purl.org/dc/dcmitype/StillImage" />
        <dc:title></dc:title>
      </cc:Work>
    </rdf:RDF>
  </metadata>
  <g
     inkscape:groupmode="layer"
     id="layer4"
     inkscape:label="FormFade">
    <path
       transform="translate(14.026162,-72.960005)"
       inkscape:connector-curvature="0"
       id="path1126"
       d="m 107.65703,193.67066 9.15368,-10.10684 -3.72927,-8.818 7.52635,-4.40902 0.94927,4.40902 2.16977,-0.33917 0.88145,1.89928 1.35611,-1.22097 1.15268,1.15313 0.61025,-1.22095 1.22049,0.54263 -0.20341,-1.76359 0.27122,-0.47481 -0.2034,-0.54265 -0.0678,3.3237 -0.40683,-1.76359 1.22049,0.0679 -1.08488,0.54265 -0.54244,1.35663 -0.94927,-1.22097 -1.3561,1.28879 -0.67805,-1.49227 -1.69512,1.08528 -0.2034,-3.39155 -10.44198,4.00205 1.76293,3.86636 5.69563,-4.54468 -5.08538,-8.47888 -2.50879,2.30625 -1.08488,-1.96708 -1.69513,0.67829 -0.27121,-1.62793 -1.49172,0.40699 -0.88146,-2.50976 1.3561,0.94964 -1.55952,0.27133 0.27122,0.54263 1.2883,-0.40697 0.47464,1.62794 1.28829,-0.54266 0.67805,1.96711 1.96635,-1.28879 1.4239,2.44191 2.57659,-1.9671 3.66148,6.3083 -9.69612,4.40898 1.22049,4.74819 -3.52587,2.64539 4.20392,5.01951 -4.20392,0.61047 -0.13561,2.10277 -0.67805,-1.62796 3.86489,0.0679 -2.78001,-2.23843 5.3566,-2.37409 -1.08488,-2.57757 3.45806,-1.15313 -2.03416,-3.32371 3.39026,-2.23843 -3.25464,-7.39357 6.91611,-3.79852 -0.27122,-3.05241 -2.44098,1.69578 1.89854,8.00405 2.57659,-0.54263 0.74585,2.64539 1.4239,-1.22094 1.08489,1.28879 0.88146,-1.15313 1.08488,0.94962 1.08488,-1.69578 -2.30537,1.89929 -4.67854,-0.74616 -1.2883,-5.62996 1.55952,0.40699 -0.0678,1.01746 -8.95026,1.7636 3.52586,8.27537 -3.66147,1.69578 1.49171,3.52721 -3.25464,0.74614 0.81366,2.37409 -3.9327,1.35661 1.3561,2.64541 -2.44098,-0.54265 4.94977,-2.78105 -0.61025,1.56011 -4.33952,2.10274 3.45806,-8.07187 -2.84781,-3.12022 4.33952,-1.28879 -1.28829,-3.86636 8.67904,-0.81398 -6.17026,-9.29284 -2.44098,2.03492 -0.67805,-2.17058 -1.49171,0.47481 -0.33903,-1.15313 -1.3561,-0.13558 -0.67805,-1.08531 1.49171,-0.8818 -1.15268,1.62796 -0.20343,-0.33917 1.89854,0.74613 1.42391,2.03495 3.11903,-0.8818 4.81416,10.3103 1.3561,-0.67832 -3.52587,-9.56416 -1.69512,2.64542 4.94976,7.73272 -0.88146,-10.03899 2.91562,0.33917 -2.50879,-2.17061 2.57659,-0.13559 -2.37318,-2.17061 -0.81365,0.47483 -1.01708,-2.03494 -1.83074,1.69577 -1.08488,-0.88179 1.83074,-1.15313 0.88146,1.9671 1.01708,-0.47483 -1.15268,-1.28879 -2.10196,1.4923 0.40683,-1.15313 1.15269,1.42445 5.62781,1.35661 -1.96634,-1.56011 -1.01708,1.42445 2.98342,1.22097 2.57659,-0.54266 -0.27122,2.71324 h 0.67805 l 0.13561,-1.83144 -1.83073,0.33917 0.0678,-1.42445 1.76292,0.61047 -1.22049,1.42445 0.27122,0.8818 h -0.40682 l -0.2034,0.8818 -1.01708,0.20351 -2.10195,3.79854 1.96634,-1.4923 -0.2034,3.25589 1.62732,-1.01746 -2.84781,-4.13769 -8.0688,5.29082 4.1361,6.71526 -3.72927,1.89926 1.3561,2.91674 -5.4244,2.2384 1.15268,3.93421 1.01707,-6.03695 1.15269,2.57758 -3.05122,-1.08531 1.83073,-1.56011 -2.78001,-1.62793 2.10196,-0.74614 -2.37318,-0.74616 3.59367,-0.27132 -2.64439,-2.57758 3.25464,0.20351 -1.35611,-3.12023 6.7127,0.33915 -3.39025,-6.10479 5.62782,-2.50973 0.67805,-5.6978 -2.30537,3.45937 1.22049,6.85092 -6.57709,5.76565 -0.94927,-3.18807 5.28879,2.50975 -3.25464,2.03493 1.83074,3.52721 -3.79708,1.35661 0.94927,2.50975 -4.27172,-1.28878 2.03415,-2.50976 -2.10196,-3.59503 3.52587,0.81397 -2.10196,-2.50975 2.50879,0.40699 4.94976,-11.87041 -3.45805,11.93823 6.50928,-15.94026 0.0678,4.27335 -2.37318,-1.69577 2.78001,-0.27133 -2.37317,-2.50975 5.89903,3.73069 -1.83073,-1.89925 1.76292,0.2035 -0.27122,2.30628 -1.4239,0.81395 -9.4249,10.98861 1.96635,-12.61654 -1.96635,1.9671 -1.69512,-2.03492 -1.89854,0.61047 -2.98343,-2.23843 5.96685,3.45937 2.16976,-2.50973 -0.33903,-0.81398 0.33903,-1.22096 -0.27122,-0.81396 0.40683,-1.15312 v -1.69578 l 0.54244,-1.28879 -0.0678,-1.56011 0.61024,0.47481 -0.88146,0.54265 0.33902,1.15313 -0.47463,0.2035 0.33902,0.33917 -0.54244,0.94962 0.33903,0.33917 -0.74586,1.42445 0.61025,0.40699 -0.74586,0.67829 0.61025,0.67832 -0.54244,0.27132 0.54244,0.61047 -0.61025,0.40699 0.81366,0.67832 -0.94927,-3.93421 v -1.62793 l -0.27122,-1.15312 0.27122,-1.76362 0.40683,-1.08528 -0.74585,1.83144 0.13561,2.37406 0.67805,5.4265 -0.47464,2.6454 8.47563,0.61047 1.96634,-4.40902 1.08488,-0.74613 0.27122,-1.08528 0.74585,-0.27133 0.0678,-0.74616 0.40683,-0.33914 0.13561,-0.8818 0.54244,-0.0679 -0.74586,0.47484 v 0.81395 l -0.61024,0.27133 -1.08489,1.62795 v 0.74614 l -2.57658,0.47481 -0.67805,-0.74614 2.91561,2.03492 0.27122,-1.15312 h 0.88147 l 0.27122,-0.54265 0.81366,-0.0679 0.33902,-0.67832 0.74586,-0.54265 v -1.01746 l 0.74585,-0.40699 -0.94927,1.15312 -0.33902,1.01749 -1.83074,0.81395 -0.47463,0.81398 -2.44098,0.20351 -0.47463,-1.89929 -1.49171,0.47481 -2.16976,-2.17058 -1.96635,0.0679 -1.96635,-2.30628 0.20341,-4.68031 6.7127,-15.46547 2.50878,-7.12225 3.66147,-8.88585 4.67854,-11.87041 -2.23756,-6.7831 -14.57808,6.7831 -9.69611,-6.64744 -1.49172,5.83346 1.55952,1.35661 -0.20341,0.88182 -0.61024,-0.67831 0.81366,-1.15313 -2.44098,-2.10276 0.74585,-3.66288 3.11904,6.10479 2.84781,0.47481 -2.03415,0.88182 0.81366,0.33914 -0.27122,-8.88587 -1.83074,-0.2035 -3.59367,3.66287 2.98342,3.05239 4.40733,0.81398 1.49171,-7.66491 3.11904,-0.61047 -0.54244,-0.61047 -1.89855,0.0679 -4.94976,9.56416 2.64439,-0.54265 -0.33902,-8.47886 3.66147,9.08935 2.30537,-9.22501 2.16976,8.88584 4.74635,-8.47885 4.67854,8.81802 6.23806,-6.24045 1.15269,6.10479 5.62782,-4.27335 1.76293,6.64742 5.62781,-3.1202 0.94927,5.29078 5.49223,-3.1202 -1.69513,9.08933 7.72976,-4.40901 -0.40683,9.08935 7.86538,-0.74613 -1.22048,6.91876 2.50877,0.6783 -0.33902,-5.90129 1.01708,1.35663 -2.78,4.6125 2.84781,-3.18805 -4.61075,0.61047 2.10196,-6.37611 -5.83123,2.71324 1.96635,-5.96913 1.55951,0.40699 0.88146,1.9671 -3.18682,5.29081 5.4244,-2.17058 -2.30539,5.62995 3.45807,-0.94961 -0.94928,-4.61252 -3.93268,2.44191 1.76293,-5.4943 -4.13611,4.13769 2.64441,-6.37611 -4.81416,5.15514 3.18682,-7.0544 -5.08538,5.83346 2.98342,-6.91877 1.2205,0.13559 -3.25464,6.85092 4.88195,-4.816 -1.08486,-1.56011 -6.23807,5.08733 1.83074,-7.80057 1.76292,0.54265 -2.57659,8.41104 3.52587,-7.12225 -5.89905,4.13769 0.27122,-8.07187 h 1.69513 l 0.81367,1.83141 -3.52587,5.62999 0.67806,-7.52924 -3.72929,5.01948 0.54244,-7.05441 -4.54294,3.79852 -1.15269,-7.05441 -4.74634,4.54468 -1.96635,-7.05443 -6.10245,4.61252 -1.55952,-7.25791 -6.17025,7.93623 -6.71269,-9.1572 2.03415,-0.8818 5.62781,9.56416 6.50928,-6.71526 0.88146,6.64744 3.79709,-4.74818 1.83073,-0.13559 -0.67805,6.17264 4.47513,-4.74819 0.61024,7.12225 6.03465,-4.47683 -0.54244,7.05441 7.39076,-2.71324 -1.08488,8.13974 7.45856,-3.12023 -0.81367,8.13971 7.32294,2.03492 -1.62731,3.45938 -3.39026,-3.18805 0.40683,-8.34322 -7.86537,2.64542 2.37316,-8.07189 -7.66197,4.00202 1.08489,-8.34319 -6.64491,3.39155 -1.55951,-6.37612 -4.67854,4.00203 -2.84781,-6.71526 -3.66148,-0.94965 1.42391,-0.61047 0.54244,6.78311 3.05123,-5.35866 -0.33903,5.6978 3.79708,-4.68034 0.94927,7.19007 4.0005,-5.22296 0.81365,6.78308 3.11904,-4.54466 -0.54244,7.19007 6.98392,-3.25589 -1.35608,7.86839 5.35658,-4.6125 -0.54245,8.00405 8.81466,2.17061 -2.16976,4.34117 -9.49271,-16.75425 -13.22198,-1.62794 -8.40782,-9.22501 -7.05172,5.49432 -3.59367,-7.93623 -2.84781,-0.67832 1.4239,-0.27133 3.66148,8.68237 2.64439,-6.98659 2.10196,0.6105 -1.69513,6.64741 -2.78,-8.07186 -5.01757,7.86838 -5.35659,-8.68236 -1.69513,8.5467 -4.33952,-8.13971 -3.72928,8.88584 -2.91561,-7.0544 5.08537,6.03694 0.40683,-8.07189 3.9327,8.20756 1.96634,-8.47889 2.6444,9.63201 2.37317,-9.49634 2.30537,8.88587 5.01757,-7.32576 -2.03416,-0.74613 -5.35658,7.86838 -4.47514,-9.02151 -4.94976,8.41104 -3.66147,-7.05443 3.45805,-0.94962 2.03415,8.68237 0.33903,-9.4285 2.50878,9.08933 3.72928,-8.47886 -0.27122,8.88584 4.47513,-8.5467 0.47463,9.36068 4.33952,-8.00405 2.98342,6.85093 4.27172,-4.816 -0.27122,5.76564 3.39025,-4.74818 0.61025,6.5796 7.11952,-3.59504 -10.50977,2.03495 5.4244,-4.00205 3.18683,6.85092 5.01757,-3.66285 -0.61024,6.64742 4.40733,-3.86637 -0.88146,8.0719 -5.35661,-11.73475 -8.67904,2.50973 -3.93269,-7.4614 -7.11953,5.69781 -6.23805,-8.13972 -11.12003,7.73273 -5.69562,-6.78311 -3.05123,3.52722 14.91711,-5.56214 3.79708,9.4285 4.81415,-8.13971 -22.44346,5.6978 40.68301,0.2035 -7.32294,2.50973 -30.71567,-7.93623 -2.03415,6.3083 24.00297,0.94962 16.34101,-1.69575 24.74883,21.29891 -3.32244,1.42445 -0.88146,-9.49635 -38.98789,-18.78918 -22.37566,5.96913 3.25465,9.4285 1.3561,8.07189 1.89854,7.52924 1.96634,10.24248 1.15269,10.92077 0.27122,-5.15515 0.13561,-6.71526 0.2034,-9.36068 -0.33902,-8.07187 v -6.44393 l -1.2883,-7.32576 -0.2034,-2.37407 1.62732,1.28879 -0.47464,2.37406 1.69513,10.17466 0.61024,4.81601 -0.94926,9.36065 -0.74586,3.39155 -0.54244,13.29486 1.15268,-3.45937 1.22049,-6.85092 1.83074,-7.12225 1.15269,-6.30828 2.10195,-7.19009 1.55952,-6.78311 2.57658,-5.49429"
       style="fill:none;stroke:#000000;stroke-width:0.5;stroke-linecap:round;stroke-linejoin:round;stroke-miterlimit:4;stroke-dasharray:none;stroke-opacity:1;filter:url(#filter1189)" />
    <path
       transform="translate(14.026162,-72.960005)"
       inkscape:connector-curvature="0"
       id="path1128"
       d="m 108.40291,164.70707 5.76343,-4.61239"
       style="fill:none;stroke:#000000;stroke-width:0.5;stroke-linecap:butt;stroke-linejoin:miter;stroke-opacity:1;stroke-miterlimit:4;stroke-dasharray:none;filter:url(#filter1193)" />
    <path
       transform="translate(14.026162,-72.960005)"
       inkscape:connector-curvature="0"
       id="path1130"
       d="m 128.81222,172.77872 -0.61026,-6.71509"
       style="fill:none;stroke:#000000;stroke-width:0.5;stroke-linecap:butt;stroke-linejoin:miter;stroke-opacity:1;stroke-miterlimit:4;stroke-dasharray:none;filter:url(#filter1197)" />
    <path
       transform="translate(14.026162,-72.960005)"
       inkscape:connector-curvature="0"
       id="path1132"
       d="m 129.28683,163.89284 8.95027,-8.20753 7.05171,-9.02153 9.83174,-9.22499 5.96684,-7.46142 3.52587,1.42445 -10.5776,-9.02151 -3.86488,7.80056 -5.3566,7.93621 -5.4922,9.56418 -4.67855,7.4614 -2.7122,3.32371 -4.0683,4.13769 2.98342,-7.12225 5.22098,-16.07595 4.0005,-9.76764 2.6444,-9.56416 1.55951,-2.44191 2.23756,0.47481 -4.88195,10.98861 -4.0005,10.98861 -4.67855,12.54873 -1.76293,5.56213 -2.91561,4.13769"
       style="fill:none;stroke:#000000;stroke-width:0.5;stroke-linecap:butt;stroke-linejoin:miter;stroke-opacity:1;stroke-miterlimit:4;stroke-dasharray:none;filter:url(#filter1201)" />
    <path
       transform="translate(14.026162,-72.960005)"
       inkscape:connector-curvature="0"
       id="path1134"
       d="m 116.6073,132.21579 -4.27172,-11.87041 -2.78001,-5.35865"
       style="fill:none;stroke:#000000;stroke-width:0.5;stroke-linecap:butt;stroke-linejoin:miter;stroke-opacity:1;stroke-miterlimit:4;stroke-dasharray:none;filter:url(#filter1205)" />
    <path
       transform="translate(14.026162,-72.960005)"
       inkscape:connector-curvature="0"
       id="path1136"
       d="m 119.92974,132.08013 0.67805,-8.34322 -0.27122,-8.27535"
       style="fill:none;stroke:#000000;stroke-width:0.5;stroke-linecap:butt;stroke-linejoin:miter;stroke-opacity:1;stroke-miterlimit:4;stroke-dasharray:none;filter:url(#filter1209)" />
    <path
       transform="translate(14.026162,-72.960005)"
       inkscape:connector-curvature="0"
       id="path1138"
       d="m 124.74389,135.81083 6.10246,-12.41306 3.39025,-8.81803"
       style="fill:none;stroke:#000000;stroke-width:0.5;stroke-linecap:butt;stroke-linejoin:miter;stroke-opacity:1;stroke-miterlimit:4;stroke-dasharray:none;filter:url(#filter1213)" />
    <path
       transform="translate(14.026162,-72.960005)"
       inkscape:connector-curvature="0"
       id="path1140"
       d="m 137.55904,156.36363 14.8493,-8.34322 13.96784,-12.07392"
       style="fill:none;stroke:#000000;stroke-width:0.5;stroke-linecap:butt;stroke-linejoin:miter;stroke-opacity:1;stroke-miterlimit:4;stroke-dasharray:none;filter:url(#filter1217)" />
    <path
       transform="translate(14.026162,-72.960005)"
       inkscape:connector-curvature="0"
       id="path1142"
       d="m 163.32494,132.96193 -7.93317,4.40901"
       style="fill:none;stroke:#000000;stroke-width:0.5;stroke-linecap:butt;stroke-linejoin:miter;stroke-opacity:1;stroke-miterlimit:4;stroke-dasharray:none;filter:url(#filter1221)" />
  </g>
  <g
     inkscape:groupmode="layer"
     id="layer2"
     inkscape:label="Form"
     transform="translate(14.026162,-72.960006)">
    <path
       style="fill:none;stroke:#000000;stroke-width:0.5;stroke-linecap:round;stroke-linejoin:round;stroke-miterlimit:4;stroke-dasharray:none;stroke-opacity:1"
       d="m 107.65703,193.67066 9.15368,-10.10684 -3.72927,-8.818 7.52635,-4.40902 0.94927,4.40902 2.16977,-0.33917 0.88145,1.89928 1.35611,-1.22097 1.15268,1.15313 0.61025,-1.22095 1.22049,0.54263 -0.20341,-1.76359 0.27122,-0.47481 -0.2034,-0.54265 -0.0678,3.3237 -0.40683,-1.76359 1.22049,0.0679 -1.08488,0.54265 -0.54244,1.35663 -0.94927,-1.22097 -1.3561,1.28879 -0.67805,-1.49227 -1.69512,1.08528 -0.2034,-3.39155 -10.44198,4.00205 1.76293,3.86636 5.69563,-4.54468 -5.08538,-8.47888 -2.50879,2.30625 -1.08488,-1.96708 -1.69513,0.67829 -0.27121,-1.62793 -1.49172,0.40699 -0.88146,-2.50976 1.3561,0.94964 -1.55952,0.27133 0.27122,0.54263 1.2883,-0.40697 0.47464,1.62794 1.28829,-0.54266 0.67805,1.96711 1.96635,-1.28879 1.4239,2.44191 2.57659,-1.9671 3.66148,6.3083 -9.69612,4.40898 1.22049,4.74819 -3.52587,2.64539 4.20392,5.01951 -4.20392,0.61047 -0.13561,2.10277 -0.67805,-1.62796 3.86489,0.0679 -2.78001,-2.23843 5.3566,-2.37409 -1.08488,-2.57757 3.45806,-1.15313 -2.03416,-3.32371 3.39026,-2.23843 -3.25464,-7.39357 6.91611,-3.79852 -0.27122,-3.05241 -2.44098,1.69578 1.89854,8.00405 2.57659,-0.54263 0.74585,2.64539 1.4239,-1.22094 1.08489,1.28879 0.88146,-1.15313 1.08488,0.94962 1.08488,-1.69578 -2.30537,1.89929 -4.67854,-0.74616 -1.2883,-5.62996 1.55952,0.40699 -0.0678,1.01746 -8.95026,1.7636 3.52586,8.27537 -3.66147,1.69578 1.49171,3.52721 -3.25464,0.74614 0.81366,2.37409 -3.9327,1.35661 1.3561,2.64541 -2.44098,-0.54265 4.94977,-2.78105 -0.61025,1.56011 -4.33952,2.10274 3.45806,-8.07187 -2.84781,-3.12022 4.33952,-1.28879 -1.28829,-3.86636 8.67904,-0.81398 -6.17026,-9.29284 -2.44098,2.03492 -0.67805,-2.17058 -1.49171,0.47481 -0.33903,-1.15313 -1.3561,-0.13558 -0.67805,-1.08531 1.49171,-0.8818 -1.15268,1.62796 -0.20343,-0.33917 1.89854,0.74613 1.42391,2.03495 3.11903,-0.8818 4.81416,10.3103 1.3561,-0.67832 -3.52587,-9.56416 -1.69512,2.64542 4.94976,7.73272 -0.88146,-10.03899 2.91562,0.33917 -2.50879,-2.17061 2.57659,-0.13559 -2.37318,-2.17061 -0.81365,0.47483 -1.01708,-2.03494 -1.83074,1.69577 -1.08488,-0.88179 1.83074,-1.15313 0.88146,1.9671 1.01708,-0.47483 -1.15268,-1.28879 -2.10196,1.4923 0.40683,-1.15313 1.15269,1.42445 5.62781,1.35661 -1.96634,-1.56011 -1.01708,1.42445 2.98342,1.22097 2.57659,-0.54266 -0.27122,2.71324 h 0.67805 l 0.13561,-1.83144 -1.83073,0.33917 0.0678,-1.42445 1.76292,0.61047 -1.22049,1.42445 0.27122,0.8818 h -0.40682 l -0.2034,0.8818 -1.01708,0.20351 -2.10195,3.79854 1.96634,-1.4923 -0.2034,3.25589 1.62732,-1.01746 -2.84781,-4.13769 -8.0688,5.29082 4.1361,6.71526 -3.72927,1.89926 1.3561,2.91674 -5.4244,2.2384 1.15268,3.93421 1.01707,-6.03695 1.15269,2.57758 -3.05122,-1.08531 1.83073,-1.56011 -2.78001,-1.62793 2.10196,-0.74614 -2.37318,-0.74616 3.59367,-0.27132 -2.64439,-2.57758 3.25464,0.20351 -1.35611,-3.12023 6.7127,0.33915 -3.39025,-6.10479 5.62782,-2.50973 0.67805,-5.6978 -2.30537,3.45937 1.22049,6.85092 -6.57709,5.76565 -0.94927,-3.18807 5.28879,2.50975 -3.25464,2.03493 1.83074,3.52721 -3.79708,1.35661 0.94927,2.50975 -4.27172,-1.28878 2.03415,-2.50976 -2.10196,-3.59503 3.52587,0.81397 -2.10196,-2.50975 2.50879,0.40699 4.94976,-11.87041 -3.45805,11.93823 6.50928,-15.94026 0.0678,4.27335 -2.37318,-1.69577 2.78001,-0.27133 -2.37317,-2.50975 5.89903,3.73069 -1.83073,-1.89925 1.76292,0.2035 -0.27122,2.30628 -1.4239,0.81395 -9.4249,10.98861 1.96635,-12.61654 -1.96635,1.9671 -1.69512,-2.03492 -1.89854,0.61047 -2.98343,-2.23843 5.96685,3.45937 2.16976,-2.50973 -0.33903,-0.81398 0.33903,-1.22096 -0.27122,-0.81396 0.40683,-1.15312 v -1.69578 l 0.54244,-1.28879 -0.0678,-1.56011 0.61024,0.47481 -0.88146,0.54265 0.33902,1.15313 -0.47463,0.2035 0.33902,0.33917 -0.54244,0.94962 0.33903,0.33917 -0.74586,1.42445 0.61025,0.40699 -0.74586,0.67829 0.61025,0.67832 -0.54244,0.27132 0.54244,0.61047 -0.61025,0.40699 0.81366,0.67832 -0.94927,-3.93421 v -1.62793 l -0.27122,-1.15312 0.27122,-1.76362 0.40683,-1.08528 -0.74585,1.83144 0.13561,2.37406 0.67805,5.4265 -0.47464,2.6454 8.47563,0.61047 1.96634,-4.40902 1.08488,-0.74613 0.27122,-1.08528 0.74585,-0.27133 0.0678,-0.74616 0.40683,-0.33914 0.13561,-0.8818 0.54244,-0.0679 -0.74586,0.47484 v 0.81395 l -0.61024,0.27133 -1.08489,1.62795 v 0.74614 l -2.57658,0.47481 -0.67805,-0.74614 2.91561,2.03492 0.27122,-1.15312 h 0.88147 l 0.27122,-0.54265 0.81366,-0.0679 0.33902,-0.67832 0.74586,-0.54265 v -1.01746 l 0.74585,-0.40699 -0.94927,1.15312 -0.33902,1.01749 -1.83074,0.81395 -0.47463,0.81398 -2.44098,0.20351 -0.47463,-1.89929 -1.49171,0.47481 -2.16976,-2.17058 -1.96635,0.0679 -1.96635,-2.30628 0.20341,-4.68031 6.7127,-15.46547 2.50878,-7.12225 3.66147,-8.88585 4.67854,-11.87041 -2.23756,-6.7831 -14.57808,6.7831 -9.69611,-6.64744 -1.49172,5.83346 1.55952,1.35661 -0.20341,0.88182 -0.61024,-0.67831 0.81366,-1.15313 -2.44098,-2.10276 0.74585,-3.66288 3.11904,6.10479 2.84781,0.47481 -2.03415,0.88182 0.81366,0.33914 -0.27122,-8.88587 -1.83074,-0.2035 -3.59367,3.66287 2.98342,3.05239 4.40733,0.81398 1.49171,-7.66491 3.11904,-0.61047 -0.54244,-0.61047 -1.89855,0.0679 -4.94976,9.56416 2.64439,-0.54265 -0.33902,-8.47886 3.66147,9.08935 2.30537,-9.22501 2.16976,8.88584 4.74635,-8.47885 4.67854,8.81802 6.23806,-6.24045 1.15269,6.10479 5.62782,-4.27335 1.76293,6.64742 5.62781,-3.1202 0.94927,5.29078 5.49223,-3.1202 -1.69513,9.08933 7.72976,-4.40901 -0.40683,9.08935 7.86538,-0.74613 -1.22048,6.91876 2.50877,0.6783 -0.33902,-5.90129 1.01708,1.35663 -2.78,4.6125 2.84781,-3.18805 -4.61075,0.61047 2.10196,-6.37611 -5.83123,2.71324 1.96635,-5.96913 1.55951,0.40699 0.88146,1.9671 -3.18682,5.29081 5.4244,-2.17058 -2.30539,5.62995 3.45807,-0.94961 -0.94928,-4.61252 -3.93268,2.44191 1.76293,-5.4943 -4.13611,4.13769 2.64441,-6.37611 -4.81416,5.15514 3.18682,-7.0544 -5.08538,5.83346 2.98342,-6.91877 1.2205,0.13559 -3.25464,6.85092 4.88195,-4.816 -1.08486,-1.56011 -6.23807,5.08733 1.83074,-7.80057 1.76292,0.54265 -2.57659,8.41104 3.52587,-7.12225 -5.89905,4.13769 0.27122,-8.07187 h 1.69513 l 0.81367,1.83141 -3.52587,5.62999 0.67806,-7.52924 -3.72929,5.01948 0.54244,-7.05441 -4.54294,3.79852 -1.15269,-7.05441 -4.74634,4.54468 -1.96635,-7.05443 -6.10245,4.61252 -1.55952,-7.25791 -6.17025,7.93623 -6.71269,-9.1572 2.03415,-0.8818 5.62781,9.56416 6.50928,-6.71526 0.88146,6.64744 3.79709,-4.74818 1.83073,-0.13559 -0.67805,6.17264 4.47513,-4.74819 0.61024,7.12225 6.03465,-4.47683 -0.54244,7.05441 7.39076,-2.71324 -1.08488,8.13974 7.45856,-3.12023 -0.81367,8.13971 7.32294,2.03492 -1.62731,3.45938 -3.39026,-3.18805 0.40683,-8.34322 -7.86537,2.64542 2.37316,-8.07189 -7.66197,4.00202 1.08489,-8.34319 -6.64491,3.39155 -1.55951,-6.37612 -4.67854,4.00203 -2.84781,-6.71526 -3.66148,-0.94965 1.42391,-0.61047 0.54244,6.78311 3.05123,-5.35866 -0.33903,5.6978 3.79708,-4.68034 0.94927,7.19007 4.0005,-5.22296 0.81365,6.78308 3.11904,-4.54466 -0.54244,7.19007 6.98392,-3.25589 -1.35608,7.86839 5.35658,-4.6125 -0.54245,8.00405 8.81466,2.17061 -2.16976,4.34117 -9.49271,-16.75425 -13.22198,-1.62794 -8.40782,-9.22501 -7.05172,5.49432 -3.59367,-7.93623 -2.84781,-0.67832 1.4239,-0.27133 3.66148,8.68237 2.64439,-6.98659 2.10196,0.6105 -1.69513,6.64741 -2.78,-8.07186 -5.01757,7.86838 -5.35659,-8.68236 -1.69513,8.5467 -4.33952,-8.13971 -3.72928,8.88584 -2.91561,-7.0544 5.08537,6.03694 0.40683,-8.07189 3.9327,8.20756 1.96634,-8.47889 2.6444,9.63201 2.37317,-9.49634 2.30537,8.88587 5.01757,-7.32576 -2.03416,-0.74613 -5.35658,7.86838 -4.47514,-9.02151 -4.94976,8.41104 -3.66147,-7.05443 3.45805,-0.94962 2.03415,8.68237 0.33903,-9.4285 2.50878,9.08933 3.72928,-8.47886 -0.27122,8.88584 4.47513,-8.5467 0.47463,9.36068 4.33952,-8.00405 2.98342,6.85093 4.27172,-4.816 -0.27122,5.76564 3.39025,-4.74818 0.61025,6.5796 7.11952,-3.59504 -10.50977,2.03495 5.4244,-4.00205 3.18683,6.85092 5.01757,-3.66285 -0.61024,6.64742 4.40733,-3.86637 -0.88146,8.0719 -5.35661,-11.73475 -8.67904,2.50973 -3.93269,-7.4614 -7.11953,5.69781 -6.23805,-8.13972 -11.12003,7.73273 -5.69562,-6.78311 -3.05123,3.52722 14.91711,-5.56214 3.79708,9.4285 4.81415,-8.13971 -22.44346,5.6978 40.68301,0.2035 -7.32294,2.50973 -30.71567,-7.93623 -2.03415,6.3083 24.00297,0.94962 16.34101,-1.69575 24.74883,21.29891 -3.32244,1.42445 -0.88146,-9.49635 -38.98789,-18.78918 -22.37566,5.96913 3.25465,9.4285 1.3561,8.07189 1.89854,7.52924 1.96634,10.24248 1.15269,10.92077 0.27122,-5.15515 0.13561,-6.71526 0.2034,-9.36068 -0.33902,-8.07187 v -6.44393 l -1.2883,-7.32576 -0.2034,-2.37407 1.62732,1.28879 -0.47464,2.37406 1.69513,10.17466 0.61024,4.81601 -0.94926,9.36065 -0.74586,3.39155 -0.54244,13.29486 1.15268,-3.45937 1.22049,-6.85092 1.83074,-7.12225 1.15269,-6.30828 2.10195,-7.19009 1.55952,-6.78311 2.57658,-5.49429"
       id="path1048"
       inkscape:connector-curvature="0" />
    <path
       style="fill:none;stroke:#000000;stroke-width:0.5;stroke-linecap:butt;stroke-linejoin:miter;stroke-opacity:1;stroke-miterlimit:4;stroke-dasharray:none"
       d="m 108.40291,164.70707 5.76343,-4.61239"
       id="path1050"
       inkscape:connector-curvature="0" />
    <path
       style="fill:none;stroke:#000000;stroke-width:0.5;stroke-linecap:butt;stroke-linejoin:miter;stroke-opacity:1;stroke-miterlimit:4;stroke-dasharray:none"
       d="m 128.81222,172.77872 -0.61026,-6.71509"
       id="path1052"
       inkscape:connector-curvature="0" />
    <path
       style="fill:none;stroke:#000000;stroke-width:0.5;stroke-linecap:butt;stroke-linejoin:miter;stroke-opacity:1;stroke-miterlimit:4;stroke-dasharray:none"
       d="m 129.28683,163.89284 8.95027,-8.20753 7.05171,-9.02153 9.83174,-9.22499 5.96684,-7.46142 3.52587,1.42445 -10.5776,-9.02151 -3.86488,7.80056 -5.3566,7.93621 -5.4922,9.56418 -4.67855,7.4614 -2.7122,3.32371 -4.0683,4.13769 2.98342,-7.12225 5.22098,-16.07595 4.0005,-9.76764 2.6444,-9.56416 1.55951,-2.44191 2.23756,0.47481 -4.88195,10.98861 -4.0005,10.98861 -4.67855,12.54873 -1.76293,5.56213 -2.91561,4.13769"
       id="path1054"
       inkscape:connector-curvature="0" />
    <path
       style="fill:none;stroke:#000000;stroke-width:0.5;stroke-linecap:butt;stroke-linejoin:miter;stroke-opacity:1;stroke-miterlimit:4;stroke-dasharray:none"
       d="m 116.6073,132.21579 -4.27172,-11.87041 -2.78001,-5.35865"
       id="path1056"
       inkscape:connector-curvature="0" />
    <path
       style="fill:none;stroke:#000000;stroke-width:0.5;stroke-linecap:butt;stroke-linejoin:miter;stroke-opacity:1;stroke-miterlimit:4;stroke-dasharray:none"
       d="m 119.92974,132.08013 0.67805,-8.34322 -0.27122,-8.27535"
       id="path1058"
       inkscape:connector-curvature="0" />
    <path
       style="fill:none;stroke:#000000;stroke-width:0.5;stroke-linecap:butt;stroke-linejoin:miter;stroke-opacity:1;stroke-miterlimit:4;stroke-dasharray:none"
       d="m 124.74389,135.81083 6.10246,-12.41306 3.39025,-8.81803"
       id="path1060"
       inkscape:connector-curvature="0" />
    <path
       style="fill:none;stroke:#000000;stroke-width:0.5;stroke-linecap:butt;stroke-linejoin:miter;stroke-opacity:1;stroke-miterlimit:4;stroke-dasharray:none"
       d="m 137.55904,156.36363 14.8493,-8.34322 13.96784,-12.07392"
       id="path1062"
       inkscape:connector-curvature="0" />
    <path
       style="fill:none;stroke:#000000;stroke-width:0.5;stroke-linecap:butt;stroke-linejoin:miter;stroke-opacity:1;stroke-miterlimit:4;stroke-dasharray:none"
       d="m 163.32494,132.96193 -7.93317,4.40901"
       id="path1064"
       inkscape:connector-curvature="0" />
  </g>
  <g
     inkscape:groupmode="layer"
     id="layer5"
     inkscape:label="cloud Fade">
    <path
       transform="translate(14.026162,-72.960005)"
       inkscape:connector-curvature="0"
       id="path1226"
       d="m -11.916566,121.68434 5.9452283,-0.95928 3.068502,-2.68597 10.356207,-0.76741 12.2740197,-0.19177 9.397293,2.30227"
       style="fill:none;stroke:#000000;stroke-width:0.1;stroke-linecap:butt;stroke-linejoin:miter;stroke-opacity:1;stroke-miterlimit:4;stroke-dasharray:none;filter:url(#filter1661)" />
    <path
       transform="translate(14.026162,-72.960005)"
       inkscape:connector-curvature="0"
       id="path1228"
       d="m -14.026162,125.32959 h 6.3287903 l 7.47948404,1.34297"
       style="fill:none;stroke:#000000;stroke-width:0.1;stroke-linecap:butt;stroke-linejoin:miter;stroke-opacity:1;stroke-miterlimit:4;stroke-dasharray:none;filter:url(#filter1665)" />
    <path
       transform="translate(14.026162,-72.960005)"
       inkscape:connector-curvature="0"
       id="path1230"
       d="m 13.590378,123.98659 8.438388,-0.95928 -3.643851,-4.41266 -8.6301677,0.95928"
       style="fill:none;stroke:#000000;stroke-width:0.1;stroke-linecap:butt;stroke-linejoin:miter;stroke-opacity:1;stroke-miterlimit:4;stroke-dasharray:none;filter:url(#filter1669)" />
    <path
       transform="translate(14.026162,-72.960005)"
       inkscape:connector-curvature="0"
       id="path1232"
       d="m 43.316515,137.22459 7.479482,-2.68599 14.191829,0.19177 -5.753442,2.11041"
       style="fill:none;stroke:#000000;stroke-width:0.1;stroke-linecap:butt;stroke-linejoin:miter;stroke-opacity:1;stroke-miterlimit:4;stroke-dasharray:none;filter:url(#filter1673)" />
    <path
       transform="translate(14.026162,-72.960005)"
       inkscape:connector-curvature="0"
       id="path1234"
       d="m 42.35761,157.75305 15.726083,-1.53482 13.424711,-5.75566 25.123378,-0.57556"
       style="fill:none;stroke:#000000;stroke-width:0.1;stroke-linecap:butt;stroke-linejoin:miter;stroke-opacity:1;stroke-miterlimit:4;stroke-dasharray:none;filter:url(#filter1677)" />
    <path
       transform="translate(14.026162,-72.960005)"
       inkscape:connector-curvature="0"
       id="path1236"
       d="m 67.672773,162.93314 11.890455,-2.87782 8.246602,1.34298 16.49321,-2.30226"
       style="fill:none;stroke:#000000;stroke-width:0.1;stroke-linecap:butt;stroke-linejoin:miter;stroke-opacity:1;stroke-miterlimit:4;stroke-dasharray:none;filter:url(#filter1681)" />
    <path
       transform="translate(14.026162,-72.960005)"
       inkscape:connector-curvature="0"
       id="path1238"
       d="m 73.809778,139.91054 11.12333,-2.11041 15.150742,0.95928 53.89061,-8.82532 7.86305,-7.86606 10.73977,-0.57556"
       style="fill:none;stroke:#000000;stroke-width:0.1;stroke-linecap:butt;stroke-linejoin:miter;stroke-opacity:1;stroke-miterlimit:4;stroke-dasharray:none;filter:url(#filter1685)" />
    <path
       transform="translate(14.026162,-72.960005)"
       inkscape:connector-curvature="0"
       id="path1240"
       d="m 98.357816,133.57934 10.739764,-3.4534 11.89046,0.95928"
       style="fill:none;stroke:#000000;stroke-width:0.1;stroke-linecap:butt;stroke-linejoin:miter;stroke-opacity:1;stroke-miterlimit:4;stroke-dasharray:none;filter:url(#filter1689)" />
    <path
       transform="translate(14.026162,-72.960005)"
       inkscape:connector-curvature="0"
       id="path1242"
       d="m 130.76889,128.78297 16.685,-5.37194 17.64391,-3.06969"
       style="fill:none;stroke:#000000;stroke-width:0.1;stroke-linecap:butt;stroke-linejoin:miter;stroke-opacity:1;stroke-miterlimit:4;stroke-dasharray:none;filter:url(#filter1693)" />
    <path
       transform="translate(14.026162,-72.960005)"
       inkscape:connector-curvature="0"
       id="path1244"
       d="m 171.2348,126.28884 11.89045,-0.95925 7.09591,-0.38372 12.27403,-3.64525 16.4932,-1.91854"
       style="fill:none;stroke:#000000;stroke-width:0.1;stroke-linecap:butt;stroke-linejoin:miter;stroke-opacity:1;stroke-miterlimit:4;stroke-dasharray:none;filter:url(#filter1697)" />
    <path
       transform="translate(14.026162,-72.960005)"
       inkscape:connector-curvature="0"
       id="path1246"
       d="m 192.71433,136.84088 7.28771,-1.53485 12.65758,1.15113 14.19182,-1.34297"
       style="fill:none;stroke:#000000;stroke-width:0.1;stroke-linecap:butt;stroke-linejoin:miter;stroke-opacity:1;stroke-miterlimit:4;stroke-dasharray:none;filter:url(#filter1701)" />
    <path
       transform="translate(14.026162,-72.960005)"
       inkscape:connector-curvature="0"
       id="path1248"
       d="m 226.2761,100.00473 -17.06857,0.95926 -17.06854,3.26153 -6.52057,-1.91854 -13.80828,1.53485 -3.06849,-1.72669"
       style="fill:none;stroke:#000000;stroke-width:0.1;stroke-linecap:butt;stroke-linejoin:miter;stroke-opacity:1;stroke-miterlimit:4;stroke-dasharray:none;filter:url(#filter1705)" />
    <path
       transform="translate(14.026162,-72.960005)"
       inkscape:connector-curvature="0"
       id="path1250"
       d="m 176.98825,96.935048 8.43837,-1.342972 0.95892,-1.918561 h 5.17811 l 2.87671,-2.494124"
       style="fill:none;stroke:#000000;stroke-width:0.1;stroke-linecap:butt;stroke-linejoin:miter;stroke-opacity:1;stroke-miterlimit:4;stroke-dasharray:none;filter:url(#filter1709)" />
    <path
       transform="translate(14.026162,-72.960005)"
       inkscape:connector-curvature="0"
       id="path1252"
       d="m 142.46757,107.48708 2.87672,-1.343 h 4.98632 l -1.15069,-2.11041 3.26029,-2.87781 -3.06851,-0.95928 6.32879,-0.383717 1.34248,0.767437 v -1.342997 l 1.34246,-1.53485 3.64385,-0.959276 1.15069,0.767436"
       style="fill:none;stroke:#000000;stroke-width:0.1;stroke-linecap:butt;stroke-linejoin:miter;stroke-opacity:1;stroke-miterlimit:4;stroke-dasharray:none;filter:url(#filter1713)" />
    <path
       transform="translate(14.026162,-72.960005)"
       inkscape:connector-curvature="0"
       id="path1254"
       d="m 135.75522,101.15586 5.75344,-3.261527 3.06851,-1.151156 2.1096,-3.261508 3.45206,5.371914 -4.98632,0.57559 -3.64385,1.151127"
       style="fill:none;stroke:#000000;stroke-width:0.1;stroke-linecap:butt;stroke-linejoin:miter;stroke-opacity:1;stroke-miterlimit:4;stroke-dasharray:none;filter:url(#filter1717)" />
    <path
       transform="translate(14.026162,-72.960005)"
       inkscape:connector-curvature="0"
       id="path1256"
       d="m 140.74154,104.41739 2.10959,-1.15112 2.68494,1.53481"
       style="fill:none;stroke:#000000;stroke-width:0.1;stroke-linecap:butt;stroke-linejoin:miter;stroke-opacity:1;stroke-miterlimit:4;stroke-dasharray:none;filter:url(#filter1721)" />
    <path
       transform="translate(14.026162,-72.960005)"
       inkscape:connector-curvature="0"
       id="path1258"
       d="m 170.46768,108.83005 4.79454,-2.49412 5.36989,1.34299 2.30137,-1.53484 3.64385,-0.19177 -0.76714,1.53484 h 2.87672 l -2.49315,2.68595 -1.15068,1.343 3.06848,1.53484 4.2192,-1.53484 -0.95891,3.26153 6.90414,-1.72669 2.49317,-0.19177 -2.87671,3.64525 3.83562,-0.76741"
       style="fill:none;stroke:#000000;stroke-width:0.1;stroke-linecap:butt;stroke-linejoin:miter;stroke-opacity:1;stroke-miterlimit:4;stroke-dasharray:none;filter:url(#filter1725)" />
    <path
       transform="translate(14.026162,-72.960005)"
       inkscape:connector-curvature="0"
       id="path1260"
       d="m 205.18013,111.51602 5.56166,-1.15113 -2.1096,2.68597 0.95891,1.91854 -4.60274,1.343 1.34246,1.53484 -0.76712,1.34297 2.87672,0.76741"
       style="fill:none;stroke:#000000;stroke-width:0.1;stroke-linecap:butt;stroke-linejoin:miter;stroke-opacity:1;stroke-miterlimit:4;stroke-dasharray:none;filter:url(#filter1729)" />
    <path
       transform="translate(14.026162,-72.960005)"
       inkscape:connector-curvature="0"
       id="path1262"
       d="m 194.24859,85.807452 1.53426,-2.68597 6.32877,-0.959255 2.3014,4.412659"
       style="fill:none;stroke:#000000;stroke-width:0.1;stroke-linecap:butt;stroke-linejoin:miter;stroke-opacity:1;stroke-miterlimit:4;stroke-dasharray:none;filter:url(#filter1733)" />
    <path
       transform="translate(14.026162,-72.960005)"
       inkscape:connector-curvature="0"
       id="path1264"
       d="m 194.63214,94.440924 7.28771,-4.220788 12.65757,-1.726714"
       style="fill:none;stroke:#000000;stroke-width:0.1;stroke-linecap:butt;stroke-linejoin:miter;stroke-opacity:1;stroke-miterlimit:4;stroke-dasharray:none;filter:url(#filter1737)" />
    <path
       transform="translate(14.026162,-72.960005)"
       inkscape:connector-curvature="0"
       id="path1266"
       d="m 131.91959,80.05182 4.79453,-2.68597 2.30138,0.383717 1.72604,-1.726714 4.41097,-2.877816 1.53426,2.494124 1.72603,-0.191772 0.76712,-2.302252 h -1.34246"
       style="fill:none;stroke:#000000;stroke-width:0.1;stroke-linecap:butt;stroke-linejoin:miter;stroke-opacity:1;stroke-miterlimit:4;stroke-dasharray:none;filter:url(#filter1741)" />
    <path
       transform="translate(14.026162,-72.960005)"
       inkscape:connector-curvature="0"
       id="path1268"
       d="m 157.61831,80.435512 3.45206,-1.726689 2.49317,1.91856 -0.38357,-3.64525 4.60277,-2.302253 1.53425,1.72669 -0.38357,-2.68597 h 3.06852 l 0.57534,1.918561 -0.76714,1.342972 4.02742,0.575563 v 3.453379 l -3.64385,1.151152 10.16442,-3.837097 9.58909,-1.342997"
       style="fill:none;stroke:#000000;stroke-width:0.1;stroke-linecap:butt;stroke-linejoin:miter;stroke-opacity:1;stroke-miterlimit:4;stroke-dasharray:none;filter:url(#filter1745)" />
    <path
       transform="translate(14.026162,-72.960005)"
       inkscape:connector-curvature="0"
       id="path1270"
       d="m 182.16634,86.958578 -6.137,-0.575563 -4.2192,0.95928 2.68494,1.918561 -0.76711,1.534818 3.06848,-1.151101 3.83566,0.575563"
       style="fill:none;stroke:#000000;stroke-width:0.1;stroke-linecap:butt;stroke-linejoin:miter;stroke-opacity:1;stroke-miterlimit:4;stroke-dasharray:none;filter:url(#filter1749)" />
    <path
       transform="translate(14.026162,-72.960005)"
       inkscape:connector-curvature="0"
       id="path1272"
       d="m 162.41285,95.016488 4.2192,-1.918536 2.30137,-3.64525"
       style="fill:none;stroke:#000000;stroke-width:0.1;stroke-linecap:butt;stroke-linejoin:miter;stroke-opacity:1;stroke-miterlimit:4;stroke-dasharray:none;filter:url(#filter1753)" />
    <path
       transform="translate(14.026162,-72.960005)"
       inkscape:connector-curvature="0"
       id="path1274"
       d="m 164.52245,91.563109 -0.57534,-2.877816 -3.64386,0.95928"
       style="fill:none;stroke:#000000;stroke-width:0.1;stroke-linecap:butt;stroke-linejoin:miter;stroke-opacity:1;stroke-miterlimit:4;stroke-dasharray:none;filter:url(#filter1757)" />
    <path
       transform="translate(14.026162,-72.960005)"
       inkscape:connector-curvature="0"
       id="path1276"
       d="m 155.50871,89.644573 2.49317,-2.685995 2.49315,0.191771"
       style="fill:none;stroke:#000000;stroke-width:0.1;stroke-linecap:butt;stroke-linejoin:miter;stroke-opacity:1;stroke-miterlimit:4;stroke-dasharray:none;filter:url(#filter1761)" />
    <path
       transform="translate(14.026162,-72.960005)"
       inkscape:connector-curvature="0"
       id="path1278"
       d="m 113.70034,90.603828 -6.13701,2.494124"
       style="fill:none;stroke:#000000;stroke-width:0.1;stroke-linecap:butt;stroke-linejoin:miter;stroke-opacity:1;stroke-miterlimit:4;stroke-dasharray:none;filter:url(#filter1765)" />
    <path
       transform="translate(14.026162,-72.960005)"
       inkscape:connector-curvature="0"
       id="path1280"
       d="m 114.27568,88.301576 -9.97264,1.342997 0.57535,-2.494124 -3.45207,0.767409 -4.410972,3.069687 -9.589081,-1.151126 -2.109596,2.110407 -5.369885,0.575563 -2.68494,0.95928"
       style="fill:none;stroke:#000000;stroke-width:0.1;stroke-linecap:butt;stroke-linejoin:miter;stroke-opacity:1;stroke-miterlimit:4;stroke-dasharray:none;filter:url(#filter1769)" />
    <path
       transform="translate(14.026162,-72.960005)"
       inkscape:connector-curvature="0"
       id="path1282"
       d="m 25.289053,102.88255 24.931596,-2.11041 9.589078,-8.057905 6.712355,0.575563"
       style="fill:none;stroke:#000000;stroke-width:0.1;stroke-linecap:butt;stroke-linejoin:miter;stroke-opacity:1;stroke-miterlimit:4;stroke-dasharray:none;filter:url(#filter1773)" />
  </g>
  <g
     inkscape:groupmode="layer"
     id="layer3"
     inkscape:label="cloud"
     transform="translate(14.026162,-72.960006)">
    <path
       style="fill:none;stroke:#000000;stroke-width:0.1;stroke-linecap:butt;stroke-linejoin:miter;stroke-opacity:1;stroke-miterlimit:4;stroke-dasharray:none"
       d="m -11.916566,121.68434 5.9452283,-0.95928 3.068502,-2.68597 10.356207,-0.76741 12.2740197,-0.19177 9.397293,2.30227"
       id="path1067"
       inkscape:connector-curvature="0" />
    <path
       style="fill:none;stroke:#000000;stroke-width:0.1;stroke-linecap:butt;stroke-linejoin:miter;stroke-opacity:1;stroke-miterlimit:4;stroke-dasharray:none"
       d="m -14.026162,125.32959 h 6.3287903 l 7.47948404,1.34297"
       id="path1069"
       inkscape:connector-curvature="0" />
    <path
       style="fill:none;stroke:#000000;stroke-width:0.1;stroke-linecap:butt;stroke-linejoin:miter;stroke-opacity:1;stroke-miterlimit:4;stroke-dasharray:none"
       d="m 13.590378,123.98659 8.438388,-0.95928 -3.643851,-4.41266 -8.6301677,0.95928"
       id="path1071"
       inkscape:connector-curvature="0" />
    <path
       style="fill:none;stroke:#000000;stroke-width:0.1;stroke-linecap:butt;stroke-linejoin:miter;stroke-opacity:1;stroke-miterlimit:4;stroke-dasharray:none"
       d="m 43.316515,137.22459 7.479482,-2.68599 14.191829,0.19177 -5.753442,2.11041"
       id="path1073"
       inkscape:connector-curvature="0" />
    <path
       style="fill:none;stroke:#000000;stroke-width:0.1;stroke-linecap:butt;stroke-linejoin:miter;stroke-opacity:1;stroke-miterlimit:4;stroke-dasharray:none"
       d="m 42.35761,157.75305 15.726083,-1.53482 13.424711,-5.75566 25.123378,-0.57556"
       id="path1075"
       inkscape:connector-curvature="0" />
    <path
       style="fill:none;stroke:#000000;stroke-width:0.1;stroke-linecap:butt;stroke-linejoin:miter;stroke-opacity:1;stroke-miterlimit:4;stroke-dasharray:none"
       d="m 67.672773,162.93314 11.890455,-2.87782 8.246602,1.34298 16.49321,-2.30226"
       id="path1077"
       inkscape:connector-curvature="0" />
    <path
       style="fill:none;stroke:#000000;stroke-width:0.1;stroke-linecap:butt;stroke-linejoin:miter;stroke-opacity:1;stroke-miterlimit:4;stroke-dasharray:none"
       d="m 73.809778,139.91054 11.12333,-2.11041 15.150742,0.95928 53.89061,-8.82532 7.86305,-7.86606 10.73977,-0.57556"
       id="path1079"
       inkscape:connector-curvature="0" />
    <path
       style="fill:none;stroke:#000000;stroke-width:0.1;stroke-linecap:butt;stroke-linejoin:miter;stroke-opacity:1;stroke-miterlimit:4;stroke-dasharray:none"
       d="m 98.357816,133.57934 10.739764,-3.4534 11.89046,0.95928"
       id="path1081"
       inkscape:connector-curvature="0" />
    <path
       style="fill:none;stroke:#000000;stroke-width:0.1;stroke-linecap:butt;stroke-linejoin:miter;stroke-opacity:1;stroke-miterlimit:4;stroke-dasharray:none"
       d="m 130.76889,128.78297 16.685,-5.37194 17.64391,-3.06969"
       id="path1083"
       inkscape:connector-curvature="0" />
    <path
       style="fill:none;stroke:#000000;stroke-width:0.1;stroke-linecap:butt;stroke-linejoin:miter;stroke-opacity:1;stroke-miterlimit:4;stroke-dasharray:none"
       d="m 171.2348,126.28884 11.89045,-0.95925 7.09591,-0.38372 12.27403,-3.64525 16.4932,-1.91854"
       id="path1085"
       inkscape:connector-curvature="0" />
    <path
       style="fill:none;stroke:#000000;stroke-width:0.1;stroke-linecap:butt;stroke-linejoin:miter;stroke-opacity:1;stroke-miterlimit:4;stroke-dasharray:none"
       d="m 192.71433,136.84088 7.28771,-1.53485 12.65758,1.15113 14.19182,-1.34297"
       id="path1087"
       inkscape:connector-curvature="0" />
    <path
       style="fill:none;stroke:#000000;stroke-width:0.1;stroke-linecap:butt;stroke-linejoin:miter;stroke-opacity:1;stroke-miterlimit:4;stroke-dasharray:none"
       d="m 226.2761,100.00473 -17.06857,0.95926 -17.06854,3.26153 -6.52057,-1.91854 -13.80828,1.53485 -3.06849,-1.72669"
       id="path1089"
       inkscape:connector-curvature="0" />
    <path
       style="fill:none;stroke:#000000;stroke-width:0.1;stroke-linecap:butt;stroke-linejoin:miter;stroke-opacity:1;stroke-miterlimit:4;stroke-dasharray:none"
       d="m 176.98825,96.935048 8.43837,-1.342972 0.95892,-1.918561 h 5.17811 l 2.87671,-2.494124"
       id="path1091"
       inkscape:connector-curvature="0" />
    <path
       style="fill:none;stroke:#000000;stroke-width:0.1;stroke-linecap:butt;stroke-linejoin:miter;stroke-opacity:1;stroke-miterlimit:4;stroke-dasharray:none"
       d="m 142.46757,107.48708 2.87672,-1.343 h 4.98632 l -1.15069,-2.11041 3.26029,-2.87781 -3.06851,-0.95928 6.32879,-0.383717 1.34248,0.767437 v -1.342997 l 1.34246,-1.53485 3.64385,-0.959276 1.15069,0.767436"
       id="path1093"
       inkscape:connector-curvature="0" />
    <path
       style="fill:none;stroke:#000000;stroke-width:0.1;stroke-linecap:butt;stroke-linejoin:miter;stroke-opacity:1;stroke-miterlimit:4;stroke-dasharray:none"
       d="m 135.75522,101.15586 5.75344,-3.261527 3.06851,-1.151156 2.1096,-3.261508 3.45206,5.371914 -4.98632,0.57559 -3.64385,1.151127"
       id="path1095"
       inkscape:connector-curvature="0" />
    <path
       style="fill:none;stroke:#000000;stroke-width:0.1;stroke-linecap:butt;stroke-linejoin:miter;stroke-opacity:1;stroke-miterlimit:4;stroke-dasharray:none"
       d="m 140.74154,104.41739 2.10959,-1.15112 2.68494,1.53481"
       id="path1097"
       inkscape:connector-curvature="0" />
    <path
       style="fill:none;stroke:#000000;stroke-width:0.1;stroke-linecap:butt;stroke-linejoin:miter;stroke-opacity:1;stroke-miterlimit:4;stroke-dasharray:none"
       d="m 170.46768,108.83005 4.79454,-2.49412 5.36989,1.34299 2.30137,-1.53484 3.64385,-0.19177 -0.76714,1.53484 h 2.87672 l -2.49315,2.68595 -1.15068,1.343 3.06848,1.53484 4.2192,-1.53484 -0.95891,3.26153 6.90414,-1.72669 2.49317,-0.19177 -2.87671,3.64525 3.83562,-0.76741"
       id="path1099"
       inkscape:connector-curvature="0" />
    <path
       style="fill:none;stroke:#000000;stroke-width:0.1;stroke-linecap:butt;stroke-linejoin:miter;stroke-opacity:1;stroke-miterlimit:4;stroke-dasharray:none"
       d="m 205.18013,111.51602 5.56166,-1.15113 -2.1096,2.68597 0.95891,1.91854 -4.60274,1.343 1.34246,1.53484 -0.76712,1.34297 2.87672,0.76741"
       id="path1101"
       inkscape:connector-curvature="0" />
    <path
       style="fill:none;stroke:#000000;stroke-width:0.1;stroke-linecap:butt;stroke-linejoin:miter;stroke-opacity:1;stroke-miterlimit:4;stroke-dasharray:none"
       d="m 194.24859,85.807452 1.53426,-2.68597 6.32877,-0.959255 2.3014,4.412659"
       id="path1103"
       inkscape:connector-curvature="0" />
    <path
       style="fill:none;stroke:#000000;stroke-width:0.1;stroke-linecap:butt;stroke-linejoin:miter;stroke-opacity:1;stroke-miterlimit:4;stroke-dasharray:none"
       d="m 194.63214,94.440924 7.28771,-4.220788 12.65757,-1.726714"
       id="path1105"
       inkscape:connector-curvature="0" />
    <path
       style="fill:none;stroke:#000000;stroke-width:0.1;stroke-linecap:butt;stroke-linejoin:miter;stroke-opacity:1;stroke-miterlimit:4;stroke-dasharray:none"
       d="m 131.91959,80.05182 4.79453,-2.68597 2.30138,0.383717 1.72604,-1.726714 4.41097,-2.877816 1.53426,2.494124 1.72603,-0.191772 0.76712,-2.302252 h -1.34246"
       id="path1107"
       inkscape:connector-curvature="0" />
    <path
       style="fill:none;stroke:#000000;stroke-width:0.1;stroke-linecap:butt;stroke-linejoin:miter;stroke-opacity:1;stroke-miterlimit:4;stroke-dasharray:none"
       d="m 157.61831,80.435512 3.45206,-1.726689 2.49317,1.91856 -0.38357,-3.64525 4.60277,-2.302253 1.53425,1.72669 -0.38357,-2.68597 h 3.06852 l 0.57534,1.918561 -0.76714,1.342972 4.02742,0.575563 v 3.453379 l -3.64385,1.151152 10.16442,-3.837097 9.58909,-1.342997"
       id="path1109"
       inkscape:connector-curvature="0" />
    <path
       style="fill:none;stroke:#000000;stroke-width:0.1;stroke-linecap:butt;stroke-linejoin:miter;stroke-opacity:1;stroke-miterlimit:4;stroke-dasharray:none"
       d="m 182.16634,86.958578 -6.137,-0.575563 -4.2192,0.95928 2.68494,1.918561 -0.76711,1.534818 3.06848,-1.151101 3.83566,0.575563"
       id="path1111"
       inkscape:connector-curvature="0" />
    <path
       style="fill:none;stroke:#000000;stroke-width:0.1;stroke-linecap:butt;stroke-linejoin:miter;stroke-opacity:1;stroke-miterlimit:4;stroke-dasharray:none"
       d="m 162.41285,95.016488 4.2192,-1.918536 2.30137,-3.64525"
       id="path1113"
       inkscape:connector-curvature="0" />
    <path
       style="fill:none;stroke:#000000;stroke-width:0.1;stroke-linecap:butt;stroke-linejoin:miter;stroke-opacity:1;stroke-miterlimit:4;stroke-dasharray:none"
       d="m 164.52245,91.563109 -0.57534,-2.877816 -3.64386,0.95928"
       id="path1115"
       inkscape:connector-curvature="0" />
    <path
       style="fill:none;stroke:#000000;stroke-width:0.1;stroke-linecap:butt;stroke-linejoin:miter;stroke-opacity:1;stroke-miterlimit:4;stroke-dasharray:none"
       d="m 155.50871,89.644573 2.49317,-2.685995 2.49315,0.191771"
       id="path1117"
       inkscape:connector-curvature="0" />
    <path
       style="fill:none;stroke:#000000;stroke-width:0.1;stroke-linecap:butt;stroke-linejoin:miter;stroke-opacity:1;stroke-miterlimit:4;stroke-dasharray:none"
       d="m 113.70034,90.603828 -6.13701,2.494124"
       id="path1119"
       inkscape:connector-curvature="0" />
    <path
       style="fill:none;stroke:#000000;stroke-width:0.1;stroke-linecap:butt;stroke-linejoin:miter;stroke-opacity:1;stroke-miterlimit:4;stroke-dasharray:none"
       d="m 114.27568,88.301576 -9.97264,1.342997 0.57535,-2.494124 -3.45207,0.767409 -4.410972,3.069687 -9.589081,-1.151126 -2.109596,2.110407 -5.369885,0.575563 -2.68494,0.95928"
       id="path1121"
       inkscape:connector-curvature="0" />
    <path
       style="fill:none;stroke:#000000;stroke-width:0.1;stroke-linecap:butt;stroke-linejoin:miter;stroke-opacity:1;stroke-miterlimit:4;stroke-dasharray:none"
       d="m 25.289053,102.88255 24.931596,-2.11041 9.589078,-8.057905 6.712355,0.575563"
       id="path1123"
       inkscape:connector-curvature="0" />
  </g>
</svg>
