<?xml version="1.0" encoding="UTF-8" standalone="no"?>
<!-- Created with Inkscape (http://www.inkscape.org/) -->

<svg
   xmlns:dc="http://purl.org/dc/elements/1.1/"
   xmlns:cc="http://creativecommons.org/ns#"
   xmlns:rdf="http://www.w3.org/1999/02/22-rdf-syntax-ns#"
   xmlns:svg="http://www.w3.org/2000/svg"
   xmlns="http://www.w3.org/2000/svg"
   xmlns:sodipodi="http://sodipodi.sourceforge.net/DTD/sodipodi-0.dtd"
   xmlns:inkscape="http://www.inkscape.org/namespaces/inkscape"
   width="177.57674mm"
   height="138.51042mm"
   viewBox="0 0 177.57674 138.51042"
   version="1.1"
   id="svg8"
   inkscape:version="0.92.2 2405546, 2018-03-11"
   sodipodi:docname="presentation_sec_nine.svg">
  <defs
     id="defs2">
    <filter
       inkscape:collect="always"
       style="color-interpolation-filters:sRGB"
       id="filter1224"
       x="-0.30240089"
       width="1.6048018"
       y="-0.27490908"
       height="1.5498182">
      <feGaussianBlur
         inkscape:collect="always"
         stdDeviation="1.5040551"
         id="feGaussianBlur1226" />
    </filter>
    <filter
       inkscape:collect="always"
       style="color-interpolation-filters:sRGB"
       id="filter1228"
       x="-0.98456019"
       width="2.9691203"
       y="-0.57994467"
       height="2.1598895">
      <feGaussianBlur
         inkscape:collect="always"
         stdDeviation="1.5040551"
         id="feGaussianBlur1230" />
    </filter>
    <filter
       inkscape:collect="always"
       style="color-interpolation-filters:sRGB"
       id="filter1232"
       x="-1.3229975"
       width="3.6459949"
       y="-0.8301174"
       height="2.6602347">
      <feGaussianBlur
         inkscape:collect="always"
         stdDeviation="1.5040551"
         id="feGaussianBlur1234" />
    </filter>
    <filter
       inkscape:collect="always"
       style="color-interpolation-filters:sRGB"
       id="filter1236"
       x="-0.74273717"
       width="2.4854743"
       y="-0.75599974"
       height="2.5119994">
      <feGaussianBlur
         inkscape:collect="always"
         stdDeviation="1.5040551"
         id="feGaussianBlur1238" />
    </filter>
    <filter
       inkscape:collect="always"
       style="color-interpolation-filters:sRGB"
       id="filter1240"
       x="-0.49227941"
       width="1.9845588"
       y="-0.38140512"
       height="1.7628102">
      <feGaussianBlur
         inkscape:collect="always"
         stdDeviation="1.5040551"
         id="feGaussianBlur1242" />
    </filter>
    <filter
       inkscape:collect="always"
       style="color-interpolation-filters:sRGB"
       id="filter1244"
       x="-1.9243695"
       width="4.8487391"
       y="-0.72993046"
       height="2.4598608">
      <feGaussianBlur
         inkscape:collect="always"
         stdDeviation="1.5040551"
         id="feGaussianBlur1246" />
    </filter>
    <filter
       inkscape:collect="always"
       style="color-interpolation-filters:sRGB"
       id="filter1248"
       x="-1.1760001"
       width="3.3520002"
       y="-0.57210797"
       height="2.1442158">
      <feGaussianBlur
         inkscape:collect="always"
         stdDeviation="1.5040551"
         id="feGaussianBlur1250" />
    </filter>
    <filter
       inkscape:collect="always"
       style="color-interpolation-filters:sRGB"
       id="filter1252"
       x="-0.8301174"
       width="2.6602347"
       y="-1.0584018"
       height="3.1168036">
      <feGaussianBlur
         inkscape:collect="always"
         stdDeviation="1.5040551"
         id="feGaussianBlur1254" />
    </filter>
    <filter
       inkscape:collect="always"
       style="color-interpolation-filters:sRGB"
       id="filter1256"
       x="-3.0239861"
       width="7.0479722"
       y="-0.56448019"
       height="2.1289604">
      <feGaussianBlur
         inkscape:collect="always"
         stdDeviation="1.5040551"
         id="feGaussianBlur1258" />
    </filter>
    <filter
       inkscape:collect="always"
       style="color-interpolation-filters:sRGB"
       id="filter1260"
       x="-0.47040004"
       width="1.9408001"
       y="-0.35576484"
       height="1.7115297">
      <feGaussianBlur
         inkscape:collect="always"
         stdDeviation="1.5040551"
         id="feGaussianBlur1262" />
    </filter>
    <filter
       inkscape:collect="always"
       style="color-interpolation-filters:sRGB"
       id="filter1264"
       x="-0.74273717"
       width="2.4854743"
       y="-0.36496559"
       height="1.7299312">
      <feGaussianBlur
         inkscape:collect="always"
         stdDeviation="1.5040551"
         id="feGaussianBlur1266" />
    </filter>
    <filter
       inkscape:collect="always"
       style="color-interpolation-filters:sRGB"
       id="filter1268"
       x="-1.6282793"
       width="4.2565584"
       y="-0.54981822"
       height="2.0996363">
      <feGaussianBlur
         inkscape:collect="always"
         stdDeviation="1.5040551"
         id="feGaussianBlur1270" />
    </filter>
    <filter
       inkscape:collect="always"
       style="color-interpolation-filters:sRGB"
       id="filter1272"
       x="-0.30240014"
       width="1.6048003"
       y="-1.0855358"
       height="3.1710718">
      <feGaussianBlur
         inkscape:collect="always"
         stdDeviation="1.5040551"
         id="feGaussianBlur1274" />
    </filter>
    <filter
       inkscape:collect="always"
       style="color-interpolation-filters:sRGB"
       id="filter1276"
       x="-1.5119994"
       width="4.0239987"
       y="-1.9243593"
       height="4.8487186">
      <feGaussianBlur
         inkscape:collect="always"
         stdDeviation="1.5040551"
         id="feGaussianBlur1278" />
    </filter>
    <filter
       inkscape:collect="always"
       style="color-interpolation-filters:sRGB"
       id="filter1280"
       x="-2.6460047"
       width="6.2920089"
       y="-0.64145422"
       height="2.2829084">
      <feGaussianBlur
         inkscape:collect="always"
         stdDeviation="1.5040551"
         id="feGaussianBlur1282" />
    </filter>
    <filter
       inkscape:collect="always"
       style="color-interpolation-filters:sRGB"
       id="filter1284"
       x="-0.52920008"
       width="2.0584002"
       y="-0.4150587"
       height="1.8301173">
      <feGaussianBlur
         inkscape:collect="always"
         stdDeviation="1.5040551"
         id="feGaussianBlur1286" />
    </filter>
    <filter
       inkscape:collect="always"
       style="color-interpolation-filters:sRGB"
       id="filter1288"
       x="-0.84672016"
       width="2.6934402"
       y="-0.69403249"
       height="2.3880651">
      <feGaussianBlur
         inkscape:collect="always"
         stdDeviation="1.5040551"
         id="feGaussianBlur1290" />
    </filter>
    <filter
       inkscape:collect="always"
       style="color-interpolation-filters:sRGB"
       id="filter1292"
       x="-0.61356521"
       width="2.2271304"
       y="-0.58800006"
       height="2.1760001">
      <feGaussianBlur
         inkscape:collect="always"
         stdDeviation="1.5040551"
         id="feGaussianBlur1294" />
    </filter>
    <filter
       inkscape:collect="always"
       style="color-interpolation-filters:sRGB"
       id="filter1296"
       x="-5.2919936"
       width="11.583987"
       y="-1.1442177"
       height="3.2884355">
      <feGaussianBlur
         inkscape:collect="always"
         stdDeviation="1.5040551"
         id="feGaussianBlur1298" />
    </filter>
    <filter
       inkscape:collect="always"
       style="color-interpolation-filters:sRGB"
       id="filter1300"
       x="-0.71755958"
       width="2.4351192"
       y="-0.90075767"
       height="2.8015153">
      <feGaussianBlur
         inkscape:collect="always"
         stdDeviation="1.5040551"
         id="feGaussianBlur1302" />
    </filter>
    <filter
       inkscape:collect="always"
       style="color-interpolation-filters:sRGB"
       id="filter1304"
       x="-1.5679988"
       width="4.1359978"
       y="-2.1167603"
       height="5.2335205">
      <feGaussianBlur
         inkscape:collect="always"
         stdDeviation="1.5040551"
         id="feGaussianBlur1306" />
    </filter>
    <filter
       inkscape:collect="always"
       style="color-interpolation-filters:sRGB"
       id="filter1308"
       x="-1.2451758"
       width="3.4903517"
       y="-1.114108"
       height="3.2282162">
      <feGaussianBlur
         inkscape:collect="always"
         stdDeviation="1.5040551"
         id="feGaussianBlur1310" />
    </filter>
    <filter
       inkscape:collect="always"
       style="color-interpolation-filters:sRGB"
       id="filter1312"
       x="-2.1167986"
       width="5.2335973"
       y="-1.0584018"
       height="3.1168036">
      <feGaussianBlur
         inkscape:collect="always"
         stdDeviation="1.5040551"
         id="feGaussianBlur1314" />
    </filter>
    <filter
       inkscape:collect="always"
       style="color-interpolation-filters:sRGB"
       id="filter1316"
       x="-2.8223989"
       width="6.6447978"
       y="-2.0160022"
       height="5.0320039">
      <feGaussianBlur
         inkscape:collect="always"
         stdDeviation="1.5040551"
         id="feGaussianBlur1318" />
    </filter>
    <filter
       inkscape:collect="always"
       style="color-interpolation-filters:sRGB"
       id="filter1336"
       x="-0.02396513"
       width="1.0479302"
       y="-0.024034973"
       height="1.04807">
      <feGaussianBlur
         inkscape:collect="always"
         stdDeviation="1.0535539"
         id="feGaussianBlur1338" />
    </filter>
  </defs>
  <sodipodi:namedview
     id="base"
     pagecolor="#ffffff"
     bordercolor="#666666"
     borderopacity="1.0"
     inkscape:pageopacity="0.0"
     inkscape:pageshadow="2"
     inkscape:zoom="1.2158824"
     inkscape:cx="199.19772"
     inkscape:cy="192.17056"
     inkscape:document-units="mm"
     inkscape:current-layer="layer5"
     showgrid="false"
     inkscape:window-width="1920"
     inkscape:window-height="1039"
     inkscape:window-x="0"
     inkscape:window-y="0"
     inkscape:window-maximized="1"
     inkscape:snap-others="false"
     inkscape:snap-nodes="false"
     fit-margin-top="0"
     fit-margin-left="0"
     fit-margin-right="0"
     fit-margin-bottom="0" />
  <metadata
     id="metadata5">
    <rdf:RDF>
      <cc:Work
         rdf:about="">
        <dc:format>image/svg+xml</dc:format>
        <dc:type
           rdf:resource="http://purl.org/dc/dcmitype/StillImage" />
        <dc:title />
      </cc:Work>
    </rdf:RDF>
  </metadata>
  <g
     inkscape:groupmode="layer"
     id="layer5"
     inkscape:label="FormFade"
     transform="translate(-24.868409,-98.732788)">
    <path
       inkscape:connector-curvature="0"
       id="path1320"
       d="m 122.52422,202.86865 -2.47265,0.89528 1.44948,3.19739 -6.22426,1.23633 -0.42632,2.8137 -2.68581,-0.46895 0.59684,-2.98423 1.66265,-0.9379 -1.32159,-1.44949 0.72474,-0.81001 0.81001,1.0658 -1.23633,1.02317 1.10843,1.32159 -2.34475,1.15106 1.53475,0.21316 -1.23633,2.68581 6.05374,-4.9453 3.87951,7.0769 -7.16217,2.51529 1.57738,4.8174 -2.94161,0.89528 1.02317,3.62371 -2.68581,0.59685 1.66264,1.83317 -2.21686,1.15106 2.2595,0.59685 -1.40686,0.1279 -0.85264,-1.10843 2.21686,-0.25579 -1.7479,-0.93791 1.79054,-0.59684 -1.36422,-1.44949 2.43002,-0.0853 -1.79055,-1.96107 2.60055,-0.17053 -1.32159,-2.08897 2.30213,-0.12789 -1.79054,-1.74791 2.30212,-0.1279 -2.25949,-1.70528 2.85634,-0.17052 -2.21686,-2.21687 7.75901,-4.34846 -3.92214,-4.34845 2.98424,-0.72475 -1.27896,-3.15476 1.74791,0.72474 -3.15476,1.10843 1.44948,2.81371 -4.30583,4.34846 5.49953,7.84428 -1.83318,2.85634 2.34476,2.64318 -2.25949,2.77108 2.04633,2.30212 -1.74791,2.1316 1.87581,2.21686 0.38368,-0.17053 v -0.68211 l -1.32159,0.59685 -1.49212,-1.53475 2.34476,-0.25579 -2.43002,1.10843 2.81371,1.10843 -0.25579,-1.1937 -0.89527,0.72475 0.76737,-1.57738 -2.21686,0.46895 2.25949,0.17053 -1.62001,0.34105 -0.1279,-1.27896 1.49212,-0.25579 -1.53475,-0.25579 1.49212,-0.38369 -1.44949,-0.29842 1.53475,-0.42632 -1.70527,-0.21316 1.74791,-0.46895 -1.96107,-0.29843 2.04633,-0.46895 -1.96107,-0.51158 2.1316,-0.68211 -2.21686,-0.2558 2.21686,-0.81 -2.21686,-0.29842 2.25949,-0.59685 -2.30213,-0.59685 2.30213,-0.9379 -2.34476,-0.55422 2.47266,-0.9379 -2.43003,-0.25579 1.96107,-1.44949 -2.34475,-0.38369 2.30212,-1.62001 -2.77107,0.0853 2.34475,-1.62001 -4.43372,0.29842 1.87581,0.63948 -2.17423,0.25579 1.19369,0.34106 3.24003,-3.45319 -4.81741,-3.24003 8.31323,-0.89527 -0.76738,-1.74791 1.49212,-0.89527 0.59685,0.46895 -3.62372,5.75532 0.89528,-3.75162 2.0037,-2.21686 -0.72475,3.92214 -1.8758,2.2595 0.89527,-4.81741 1.0658,-1.49212 1.10843,0.81 -2.04634,0.29843 1.15107,1.23632 -1.70528,-0.25579 1.62001,1.44949 -2.34475,-0.0426 1.57738,1.19369 -1.91844,-0.38369 1.10843,1.91844 -1.02317,-0.29842 -0.21316,-6.56532 -6.60795,5.54215 1.53475,4.30583 -2.68581,1.8758 1.36422,2.1316 -2.68581,0.46895 1.66265,1.74791 -2.43003,0.42632 1.49212,1.44949 -2.04633,0.55421 1.49212,1.32159 -1.87581,0.0853 2.34476,1.15106 -0.38369,0.38369 -0.0426,-1.23633 -0.38369,1.10843 -0.34105,-3.41055 -0.46895,3.36792 -0.46896,-2.21686 0.63948,-0.81001 1.0658,0.59685 -1.44949,2.0037 0.68212,0.55422 -0.1279,-5.37163 2.77108,-0.63948 -1.36423,-2.17423 2.17423,-0.17053 -1.49211,-1.7479 2.21686,-0.21317 -2.08897,-1.15106 2.47265,-0.55421 -2.34475,-1.66265 6.39479,-0.51158 -1.74791,3.02687 2.47265,-0.0426 -2.30212,1.40686 2.38739,0.12789 -1.91844,1.23633 2.1316,0.51159 -2.08897,1.32158 2.38739,0.38369 -2.25949,0.89527 2.25949,0.81001 -2.34476,0.72474 2.30213,0.21316 -2.2595,0.85264 2.38739,0.42632 -2.34475,0.59685 2.25949,0.42632 -2.17423,0.42632 1.91844,0.55421 -1.87581,0.51159 2.04634,0.21316 -1.74791,0.34105 1.32159,0.29843 -1.44949,0.34105 1.36422,0.29843 -0.81,2.04633 -0.72475,-5.45689 2.08897,-2.21686 -2.1316,-2.55792 1.79054,-2.89897 -5.84057,-7.3327 5.45688,-5.37162 1.57739,2.60055 -6.86375,1.62001 1.87581,5.28636 3.11213,-2.72844 -5.11583,-4.98794 5.32899,-3.45319 0.89527,-2.51528 -3.11213,1.8758 -1.57738,13.77012 3.58108,-11.76642 0.89527,7.37533 2.34476,-3.0695 v -2.25949 l -0.9379,4.90267 -1.36423,-0.21316 0.72475,-5.03057 -4.1353,9.50693 -2.68581,-6.05374 5.11583,-5.11583 -4.05003,-0.63948 -2.21687,9.93324 -0.46895,8.18534 -2.0037,1.7479 -0.1279,-2.72844 3.41056,-2.38739 2.21686,-14.75065 -2.0037,2.64318 -0.89527,-1.91844 -0.1279,2.30212 -1.19369,-1.40685 -0.1279,2.60055 -2.0037,-1.87581 1.70528,-0.76737 -1.32159,-1.1937 1.66264,-0.42632 -0.81,-1.06579 1.0658,-0.63948 -0.93791,-0.68211 0.81001,1.40685 -1.0658,0.63948 0.76738,1.19369 -1.36423,0.42632 1.23633,0.29843 -1.70528,2.68581 1.36423,0.38369 0.29842,-2.72845 1.44948,1.70528 -0.42631,-2.34476 1.36422,1.74791 0.34105,-2.85634 1.10844,10.74325 -4.51899,8.78219 1.53475,-5.75532 8.48376,-9.72008 -4.3911,-4.17793 -1.83317,3.75161 1.10843,6.35216 -2.9416,0.98053 1.49212,1.87581 -1.79055,0.68211 0.46895,-3.36792 6.43743,-2.2595 -2.1316,3.70898 2.47265,-0.42632 -2.17423,1.49212 2.81371,2.72845 -1.10843,11.29746 -0.98053,-8.69691 1.19369,-8.05744 -4.09267,-9.97588 -5.54215,3.11213 2.1316,-5.15846 -0.98053,-0.21316 0.46895,2.9416 -1.40686,2.94161 1.49212,0.55421 0.85264,-2.64318 1.10843,1.44949 0.29843,-2.2595 1.7479,1.79055 4.77478,-6.48006 0.17053,1.79054 -2.68581,-0.51158 1.79054,1.66264 -2.30213,-0.21316 1.53475,1.36423 -2.04633,-0.38369 2.30213,-0.46895 -0.81001,-3.1974 2.0037,0.51159 -0.81001,2.43002 -5.03057,2.98423 -0.72474,-1.70528 0.76737,-1.0658 -0.9379,-1.06579 0.68211,-1.91844 -0.9379,-1.66265 0.72474,-1.44948 -0.59684,-1.02317 0.55421,-1.0658 -0.72474,-0.81001 h 0.59684 l -0.42631,1.23633 0.55421,0.51159 -0.46895,1.40685 0.46895,1.57738 -0.34105,1.02317 0.55421,1.83317 -0.46895,1.53475 0.72474,1.15106 -0.51158,0.51159 v -7.07691 l -0.21316,-3.75161 -0.0426,7.11954 -0.81001,-1.66265 0.29843,-2.17423 -0.63948,-1.0658 0.25579,-0.9379 -0.55422,0.25579 0.63948,0.38369 v 1.40686 l 0.51158,1.40685 -0.0853,1.19369 0.42632,0.81001 -0.68211,-2.43002 -0.38369,-3.02687 -10.06114,-24.42811 -7.929541,-12.53379 5.499161,-5.28406 -5.185001,-10.00825 13.263951,0.48232 1.08523,-6.39081 9.88767,2.77337 -2.17046,-12.41988 2.29104,2.17047 -37.983125,6.87313 19.172435,22.6693 1.9293,17.12255 8.80244,21.82523 0.36175,2.53221 -5.06442,-13.38453 -6.14965,-7.35547 -13.866856,-21.46348 0.602906,-27.61313 25.44267,-4.70267 14.8315,42.6858 31.23058,-19.65476 11.21406,3.25569 -18.56953,36.29499 4.46151,-47.14731 -32.91871,24.83976 v -37.74197 l -19.77534,30.14535 -9.525928,-30.74825 -14.590344,31.35115 -2.652789,-4.22035 -0.241163,-12.9022 14.952088,16.1579 12.661046,-30.98941 10.73174,34.84801 19.17243,-28.57778 7.47605,0.12058 -3.01454,43.40929 32.43639,-20.73999 5.90849,3.37628 0.6029,10.61116 -29.0601,15.79616 18.56953,-37.38023 -31.95406,23.63395 1.80872,-39.30952 -18.08721,30.26592 -9.88767,-37.25964 -10.852323,31.7129 -18.448948,-18.56953 -6.149649,12.05813 11.214068,7.59663 -0.72349,-25.08092 11.093487,23.75452 5.426155,-31.23057 7.59663,33.40104 17.84604,-31.10999 -4.82325,35.81266 23.2722,-28.93952 -7.47604,38.46545 27.85429,-26.76906 -20.37825,33.40103 34.60685,-14.59034 -1.56756,-5.30558 -8.19953,-2.89395 -2.41163,22.42813 -17.36371,7.47604 21.22232,-30.26592 3.25569,0.48233 -15.55499,28.21604 7.35546,-2.17047 -3.8586,4.58209 3.37627,-0.12058 1.20582,-2.89395 -5.30558,2.41163 5.06442,-5.06442 -6.5114,4.09976 7.83779,-7.35546 9.28477,-20.25767 -30.74825,24.47802 22.18697,-32.43639 -20.37825,11.93756 -8.80244,15.43441 -9.16418,16.39907 -3.49686,5.06442 0.84407,-5.66733 2.04988,-13.62569 0.84407,-11.57581 0.72349,-38.34487 -19.53418,30.14533 -13.98744,-34.2451 -11.816974,31.83348 17.484294,17.36371 3.97919,-15.79615 21.22232,-31.11 -1.9293,26.40732 -5.66733,13.98744 -6.63197,24.23685 0.6029,-10.9729 2.41163,-16.27848 -0.60291,-16.27849 -1.56755,18.81069 0.12058,13.6257 -1.80872,9.40534 -2.29105,-12.78162 -1.9293,-11.45523 -0.84407,-7.95837 21.94581,-30.50708 -3.85861,37.98313 27.37197,-27.97488 -11.09348,39.79185 27.85429,-1.80872 0.60291,-21.46348 4.34093,2.04988 3.13511,10.24941 -38.22429,9.28477 6.99372,-38.70662 4.82326,0.24116 -6.5114,42.56523 12.05814,4.58209 11.45523,-35.20976 -8.19954,-4.34093 -19.29301,30.98941 18.0872,-31.59232 -4.34093,-5.54674 -22.78988,29.7836 7.11431,-37.50081 -22.06639,29.66302 -10.97291,-35.08918 -5.7879,30.98941 -14.469767,-25.80441 -3.73802,26.64848 -8.320114,-11.33464 11.575809,-15.19326 16.881392,26.04558 18.0872,-29.7836 9.40535,40.7565 27.85429,-26.88964 -14.34918,37.5008 25.32209,-21.82522 -27.8543,26.28673 -14.10802,14.71093 5.90849,-2.65279 9.88767,-6.27023 7.59663,-3.73803 23.87511,-15.07267 3.01453,-1.20581 0.96465,-7.95837 -4.82325,13.02279 -25.80441,9.16418 23.39278,-29.30127 -33.28046,19.29302 -5.7879,13.26395 -5.42616,10.85232 14.71093,-7.23488 18.20778,-8.68186 13.38453,-25.44267 -30.86883,20.86058 9.28477,-39.79185 -16.1579,34.12453 -7.71721,25.56324 -0.96465,2.17047 -0.60291,0.36174 0.12058,0.72349 -0.84407,0.24116 -0.12058,1.08523 -1.47103,0.4753 v 1.74791 l -1.40685,0.68211 0.25579,0.76737 -0.51158,0.59685 v -0.9379 l 0.9379,-0.42632 0.0853,-1.15106 1.27896,-0.51159 0.25579,-1.44948 1.36422,-0.51159 -0.29842,-0.85264 0.72475,-0.21315 -0.17053,-0.68212 1.02316,-0.25579 -0.98053,-0.59684 0.34105,1.36422 -1.15106,0.72474 -0.0426,0.76738 -2.51529,2.08896 -0.12789,-1.49212 -0.59685,1.02317 -0.63948,-1.23633 -0.85264,1.15107 -0.42632,-0.98054 -0.46895,0.81001 1.0658,-0.72474 0.59685,0.9379 0.98053,-1.70528 0.0426,1.83317 0.93791,-1.10843 1.27896,0.29843 -0.81001,1.10843 -6.94901,-1.15106 0.51158,-1.3216 -1.15106,0.1279 -0.0853,-0.98053 -1.23633,0.55421 -0.55421,-1.10843 0.85263,-0.21316 0.42632,3.1974 0.55422,-2.55792 0.25579,2.08897 1.0658,-0.59685 -2.21686,-0.29843 0.85264,-1.27895 -1.23633,3.02686 7.88691,2.34476 4.22283,-7.14243 13.65584,-4.94384 11.45523,-5.63718"
       style="fill:none;stroke:#000000;stroke-width:0.40000001;stroke-linecap:round;stroke-linejoin:round;stroke-miterlimit:4;stroke-dasharray:none;stroke-opacity:1;filter:url(#filter1336)" />
  </g>
  <g
     inkscape:groupmode="layer"
     id="layer2"
     inkscape:label="Form"
     transform="translate(-24.868409,-98.732788)">
    <path
       style="fill:none;stroke:#000000;stroke-width:0.40000001;stroke-linecap:round;stroke-linejoin:round;stroke-miterlimit:4;stroke-dasharray:none;stroke-opacity:1"
       d="m 122.52422,202.86865 -2.47265,0.89528 1.44948,3.19739 -6.22426,1.23633 -0.42632,2.8137 -2.68581,-0.46895 0.59684,-2.98423 1.66265,-0.9379 -1.32159,-1.44949 0.72474,-0.81001 0.81001,1.0658 -1.23633,1.02317 1.10843,1.32159 -2.34475,1.15106 1.53475,0.21316 -1.23633,2.68581 6.05374,-4.9453 3.87951,7.0769 -7.16217,2.51529 1.57738,4.8174 -2.94161,0.89528 1.02317,3.62371 -2.68581,0.59685 1.66264,1.83317 -2.21686,1.15106 2.2595,0.59685 -1.40686,0.1279 -0.85264,-1.10843 2.21686,-0.25579 -1.7479,-0.93791 1.79054,-0.59684 -1.36422,-1.44949 2.43002,-0.0853 -1.79055,-1.96107 2.60055,-0.17053 -1.32159,-2.08897 2.30213,-0.12789 -1.79054,-1.74791 2.30212,-0.1279 -2.25949,-1.70528 2.85634,-0.17052 -2.21686,-2.21687 7.75901,-4.34846 -3.92214,-4.34845 2.98424,-0.72475 -1.27896,-3.15476 1.74791,0.72474 -3.15476,1.10843 1.44948,2.81371 -4.30583,4.34846 5.49953,7.84428 -1.83318,2.85634 2.34476,2.64318 -2.25949,2.77108 2.04633,2.30212 -1.74791,2.1316 1.87581,2.21686 0.38368,-0.17053 v -0.68211 l -1.32159,0.59685 -1.49212,-1.53475 2.34476,-0.25579 -2.43002,1.10843 2.81371,1.10843 -0.25579,-1.1937 -0.89527,0.72475 0.76737,-1.57738 -2.21686,0.46895 2.25949,0.17053 -1.62001,0.34105 -0.1279,-1.27896 1.49212,-0.25579 -1.53475,-0.25579 1.49212,-0.38369 -1.44949,-0.29842 1.53475,-0.42632 -1.70527,-0.21316 1.74791,-0.46895 -1.96107,-0.29843 2.04633,-0.46895 -1.96107,-0.51158 2.1316,-0.68211 -2.21686,-0.2558 2.21686,-0.81 -2.21686,-0.29842 2.25949,-0.59685 -2.30213,-0.59685 2.30213,-0.9379 -2.34476,-0.55422 2.47266,-0.9379 -2.43003,-0.25579 1.96107,-1.44949 -2.34475,-0.38369 2.30212,-1.62001 -2.77107,0.0853 2.34475,-1.62001 -4.43372,0.29842 1.87581,0.63948 -2.17423,0.25579 1.19369,0.34106 3.24003,-3.45319 -4.81741,-3.24003 8.31323,-0.89527 -0.76738,-1.74791 1.49212,-0.89527 0.59685,0.46895 -3.62372,5.75532 0.89528,-3.75162 2.0037,-2.21686 -0.72475,3.92214 -1.8758,2.2595 0.89527,-4.81741 1.0658,-1.49212 1.10843,0.81 -2.04634,0.29843 1.15107,1.23632 -1.70528,-0.25579 1.62001,1.44949 -2.34475,-0.0426 1.57738,1.19369 -1.91844,-0.38369 1.10843,1.91844 -1.02317,-0.29842 -0.21316,-6.56532 -6.60795,5.54215 1.53475,4.30583 -2.68581,1.8758 1.36422,2.1316 -2.68581,0.46895 1.66265,1.74791 -2.43003,0.42632 1.49212,1.44949 -2.04633,0.55421 1.49212,1.32159 -1.87581,0.0853 2.34476,1.15106 -0.38369,0.38369 -0.0426,-1.23633 -0.38369,1.10843 -0.34105,-3.41055 -0.46895,3.36792 -0.46896,-2.21686 0.63948,-0.81001 1.0658,0.59685 -1.44949,2.0037 0.68212,0.55422 -0.1279,-5.37163 2.77108,-0.63948 -1.36423,-2.17423 2.17423,-0.17053 -1.49211,-1.7479 2.21686,-0.21317 -2.08897,-1.15106 2.47265,-0.55421 -2.34475,-1.66265 6.39479,-0.51158 -1.74791,3.02687 2.47265,-0.0426 -2.30212,1.40686 2.38739,0.12789 -1.91844,1.23633 2.1316,0.51159 -2.08897,1.32158 2.38739,0.38369 -2.25949,0.89527 2.25949,0.81001 -2.34476,0.72474 2.30213,0.21316 -2.2595,0.85264 2.38739,0.42632 -2.34475,0.59685 2.25949,0.42632 -2.17423,0.42632 1.91844,0.55421 -1.87581,0.51159 2.04634,0.21316 -1.74791,0.34105 1.32159,0.29843 -1.44949,0.34105 1.36422,0.29843 -0.81,2.04633 -0.72475,-5.45689 2.08897,-2.21686 -2.1316,-2.55792 1.79054,-2.89897 -5.84057,-7.3327 5.45688,-5.37162 1.57739,2.60055 -6.86375,1.62001 1.87581,5.28636 3.11213,-2.72844 -5.11583,-4.98794 5.32899,-3.45319 0.89527,-2.51528 -3.11213,1.8758 -1.57738,13.77012 3.58108,-11.76642 0.89527,7.37533 2.34476,-3.0695 v -2.25949 l -0.9379,4.90267 -1.36423,-0.21316 0.72475,-5.03057 -4.1353,9.50693 -2.68581,-6.05374 5.11583,-5.11583 -4.05003,-0.63948 -2.21687,9.93324 -0.46895,8.18534 -2.0037,1.7479 -0.1279,-2.72844 3.41056,-2.38739 2.21686,-14.75065 -2.0037,2.64318 -0.89527,-1.91844 -0.1279,2.30212 -1.19369,-1.40685 -0.1279,2.60055 -2.0037,-1.87581 1.70528,-0.76737 -1.32159,-1.1937 1.66264,-0.42632 -0.81,-1.06579 1.0658,-0.63948 -0.93791,-0.68211 0.81001,1.40685 -1.0658,0.63948 0.76738,1.19369 -1.36423,0.42632 1.23633,0.29843 -1.70528,2.68581 1.36423,0.38369 0.29842,-2.72845 1.44948,1.70528 -0.42631,-2.34476 1.36422,1.74791 0.34105,-2.85634 1.10844,10.74325 -4.51899,8.78219 1.53475,-5.75532 8.48376,-9.72008 -4.3911,-4.17793 -1.83317,3.75161 1.10843,6.35216 -2.9416,0.98053 1.49212,1.87581 -1.79055,0.68211 0.46895,-3.36792 6.43743,-2.2595 -2.1316,3.70898 2.47265,-0.42632 -2.17423,1.49212 2.81371,2.72845 -1.10843,11.29746 -0.98053,-8.69691 1.19369,-8.05744 -4.09267,-9.97588 -5.54215,3.11213 2.1316,-5.15846 -0.98053,-0.21316 0.46895,2.9416 -1.40686,2.94161 1.49212,0.55421 0.85264,-2.64318 1.10843,1.44949 0.29843,-2.2595 1.7479,1.79055 4.77478,-6.48006 0.17053,1.79054 -2.68581,-0.51158 1.79054,1.66264 -2.30213,-0.21316 1.53475,1.36423 -2.04633,-0.38369 2.30213,-0.46895 -0.81001,-3.1974 2.0037,0.51159 -0.81001,2.43002 -5.03057,2.98423 -0.72474,-1.70528 0.76737,-1.0658 -0.9379,-1.06579 0.68211,-1.91844 -0.9379,-1.66265 0.72474,-1.44948 -0.59684,-1.02317 0.55421,-1.0658 -0.72474,-0.81001 h 0.59684 l -0.42631,1.23633 0.55421,0.51159 -0.46895,1.40685 0.46895,1.57738 -0.34105,1.02317 0.55421,1.83317 -0.46895,1.53475 0.72474,1.15106 -0.51158,0.51159 v -7.07691 l -0.21316,-3.75161 -0.0426,7.11954 -0.81001,-1.66265 0.29843,-2.17423 -0.63948,-1.0658 0.25579,-0.9379 -0.55422,0.25579 0.63948,0.38369 v 1.40686 l 0.51158,1.40685 -0.0853,1.19369 0.42632,0.81001 -0.68211,-2.43002 -0.38369,-3.02687 -10.06114,-24.42811 -7.929541,-12.53379 5.499161,-5.28406 -5.185001,-10.00825 13.263951,0.48232 1.08523,-6.39081 9.88767,2.77337 -2.17046,-12.41988 2.29104,2.17047 -37.983125,6.87313 19.172435,22.6693 1.9293,17.12255 8.80244,21.82523 0.36175,2.53221 -5.06442,-13.38453 -6.14965,-7.35547 -13.866856,-21.46348 0.602906,-27.61313 25.44267,-4.70267 14.8315,42.6858 31.23058,-19.65476 11.21406,3.25569 -18.56953,36.29499 4.46151,-47.14731 -32.91871,24.83976 v -37.74197 l -19.77534,30.14535 -9.525928,-30.74825 -14.590344,31.35115 -2.652789,-4.22035 -0.241163,-12.9022 14.952088,16.1579 12.661046,-30.98941 10.73174,34.84801 19.17243,-28.57778 7.47605,0.12058 -3.01454,43.40929 32.43639,-20.73999 5.90849,3.37628 0.6029,10.61116 -29.0601,15.79616 18.56953,-37.38023 -31.95406,23.63395 1.80872,-39.30952 -18.08721,30.26592 -9.88767,-37.25964 -10.852323,31.7129 -18.448948,-18.56953 -6.149649,12.05813 11.214068,7.59663 -0.72349,-25.08092 11.093487,23.75452 5.426155,-31.23057 7.59663,33.40104 17.84604,-31.10999 -4.82325,35.81266 23.2722,-28.93952 -7.47604,38.46545 27.85429,-26.76906 -20.37825,33.40103 34.60685,-14.59034 -1.56756,-5.30558 -8.19953,-2.89395 -2.41163,22.42813 -17.36371,7.47604 21.22232,-30.26592 3.25569,0.48233 -15.55499,28.21604 7.35546,-2.17047 -3.8586,4.58209 3.37627,-0.12058 1.20582,-2.89395 -5.30558,2.41163 5.06442,-5.06442 -6.5114,4.09976 7.83779,-7.35546 9.28477,-20.25767 -30.74825,24.47802 22.18697,-32.43639 -20.37825,11.93756 -8.80244,15.43441 -9.16418,16.39907 -3.49686,5.06442 0.84407,-5.66733 2.04988,-13.62569 0.84407,-11.57581 0.72349,-38.34487 -19.53418,30.14533 -13.98744,-34.2451 -11.816974,31.83348 17.484294,17.36371 3.97919,-15.79615 21.22232,-31.11 -1.9293,26.40732 -5.66733,13.98744 -6.63197,24.23685 0.6029,-10.9729 2.41163,-16.27848 -0.60291,-16.27849 -1.56755,18.81069 0.12058,13.6257 -1.80872,9.40534 -2.29105,-12.78162 -1.9293,-11.45523 -0.84407,-7.95837 21.94581,-30.50708 -3.85861,37.98313 27.37197,-27.97488 -11.09348,39.79185 27.85429,-1.80872 0.60291,-21.46348 4.34093,2.04988 3.13511,10.24941 -38.22429,9.28477 6.99372,-38.70662 4.82326,0.24116 -6.5114,42.56523 12.05814,4.58209 11.45523,-35.20976 -8.19954,-4.34093 -19.29301,30.98941 18.0872,-31.59232 -4.34093,-5.54674 -22.78988,29.7836 7.11431,-37.50081 -22.06639,29.66302 -10.97291,-35.08918 -5.7879,30.98941 -14.469767,-25.80441 -3.73802,26.64848 -8.320114,-11.33464 11.575809,-15.19326 16.881392,26.04558 18.0872,-29.7836 9.40535,40.7565 27.85429,-26.88964 -14.34918,37.5008 25.32209,-21.82522 -27.8543,26.28673 -14.10802,14.71093 5.90849,-2.65279 9.88767,-6.27023 7.59663,-3.73803 23.87511,-15.07267 3.01453,-1.20581 0.96465,-7.95837 -4.82325,13.02279 -25.80441,9.16418 23.39278,-29.30127 -33.28046,19.29302 -5.7879,13.26395 -5.42616,10.85232 14.71093,-7.23488 18.20778,-8.68186 13.38453,-25.44267 -30.86883,20.86058 9.28477,-39.79185 -16.1579,34.12453 -7.71721,25.56324 -0.96465,2.17047 -0.60291,0.36174 0.12058,0.72349 -0.84407,0.24116 -0.12058,1.08523 -1.47103,0.4753 v 1.74791 l -1.40685,0.68211 0.25579,0.76737 -0.51158,0.59685 v -0.9379 l 0.9379,-0.42632 0.0853,-1.15106 1.27896,-0.51159 0.25579,-1.44948 1.36422,-0.51159 -0.29842,-0.85264 0.72475,-0.21315 -0.17053,-0.68212 1.02316,-0.25579 -0.98053,-0.59684 0.34105,1.36422 -1.15106,0.72474 -0.0426,0.76738 -2.51529,2.08896 -0.12789,-1.49212 -0.59685,1.02317 -0.63948,-1.23633 -0.85264,1.15107 -0.42632,-0.98054 -0.46895,0.81001 1.0658,-0.72474 0.59685,0.9379 0.98053,-1.70528 0.0426,1.83317 0.93791,-1.10843 1.27896,0.29843 -0.81001,1.10843 -6.94901,-1.15106 0.51158,-1.3216 -1.15106,0.1279 -0.0853,-0.98053 -1.23633,0.55421 -0.55421,-1.10843 0.85263,-0.21316 0.42632,3.1974 0.55422,-2.55792 0.25579,2.08897 1.0658,-0.59685 -2.21686,-0.29843 0.85264,-1.27895 -1.23633,3.02686 7.88691,2.34476 4.22283,-7.14243 13.65584,-4.94384 11.45523,-5.63718"
       id="path908"
       inkscape:connector-curvature="0" />
  </g>
  <g
     inkscape:groupmode="layer"
     id="layer4"
     inkscape:label="cloud Fade"
     transform="translate(-24.868409,-98.732788)">
    <path
       inkscape:connector-curvature="0"
       id="path960"
       d="m 113.23045,102.34252 -0.59684,1.96107 -1.53475,3.15476 0.51158,3.66635 4.00741,-0.85264 2.98423,1.70528 1.27896,3.49582 1.27896,-0.59685 -0.0853,-3.32529 1.96107,1.53475"
       style="fill:none;stroke:#000000;stroke-width:0.26458332px;stroke-linecap:butt;stroke-linejoin:miter;stroke-opacity:1;filter:url(#filter1224)" />
    <path
       inkscape:connector-curvature="0"
       id="path962"
       d="m 132.2443,114.27946 -1.02316,2.55792 0.9379,2.38739 -1.19369,0.85264 3.66634,0.42632"
       style="fill:none;stroke:#000000;stroke-width:0.26458332px;stroke-linecap:butt;stroke-linejoin:miter;stroke-opacity:1;filter:url(#filter1228)" />
    <path
       inkscape:connector-curvature="0"
       id="path964"
       d="m 134.63169,123.06165 1.44949,-0.76738 1.10843,1.53475 0.17053,2.81371 -1.70528,-1.10843 0.0853,1.10843"
       style="fill:none;stroke:#000000;stroke-width:0.26458332px;stroke-linecap:butt;stroke-linejoin:miter;stroke-opacity:1;filter:url(#filter1232)" />
    <path
       inkscape:connector-curvature="0"
       id="path966"
       d="m 128.49269,125.5343 -4.17793,-1.96107 -0.68211,-2.81371"
       style="fill:none;stroke:#000000;stroke-width:0.26458332px;stroke-linecap:butt;stroke-linejoin:miter;stroke-opacity:1;filter:url(#filter1236)" />
    <path
       inkscape:connector-curvature="0"
       id="path968"
       d="m 140.17385,112.31839 0.51158,5.2011 3.24003,4.2632 3.58108,-0.85264"
       style="fill:none;stroke:#000000;stroke-width:0.26458332px;stroke-linecap:butt;stroke-linejoin:miter;stroke-opacity:1;filter:url(#filter1240)" />
    <path
       inkscape:connector-curvature="0"
       id="path970"
       d="m 144.69283,125.02271 -1.53475,2.64319 -0.34105,2.30212"
       style="fill:none;stroke:#000000;stroke-width:0.26458332px;stroke-linecap:butt;stroke-linejoin:miter;stroke-opacity:1;filter:url(#filter1244)" />
    <path
       inkscape:connector-curvature="0"
       id="path972"
       d="m 139.32121,120.50373 -3.0695,-4.09267 0.0853,-2.21686"
       style="fill:none;stroke:#000000;stroke-width:0.26458332px;stroke-linecap:butt;stroke-linejoin:miter;stroke-opacity:1;filter:url(#filter1248)" />
    <path
       inkscape:connector-curvature="0"
       id="path974"
       d="m 139.83279,107.20256 1.96107,-1.70528 -0.85264,-1.70527 -3.49582,1.02316"
       style="fill:none;stroke:#000000;stroke-width:0.26458332px;stroke-linecap:butt;stroke-linejoin:miter;stroke-opacity:1;filter:url(#filter1252)" />
    <path
       inkscape:connector-curvature="0"
       id="path976"
       d="m 144.86336,110.95417 -0.68211,3.49582 1.1937,2.89897"
       style="fill:none;stroke:#000000;stroke-width:0.26458332px;stroke-linecap:butt;stroke-linejoin:miter;stroke-opacity:1;filter:url(#filter1256)" />
    <path
       inkscape:connector-curvature="0"
       id="path978"
       d="m 168.05514,113.34156 0.34106,4.34846 2.64318,2.04633 3.92214,-0.17052 0.76737,2.04633 -1.27896,1.8758"
       style="fill:none;stroke:#000000;stroke-width:0.26458332px;stroke-linecap:butt;stroke-linejoin:miter;stroke-opacity:1;filter:url(#filter1260)" />
    <path
       inkscape:connector-curvature="0"
       id="path980"
       d="m 178.5426,113.93841 2.55792,-0.85264 1.44948,-3.58109 -1.53475,-3.49581 0.76738,-0.85264 1.62001,0.42632 -0.51158,-1.53475"
       style="fill:none;stroke:#000000;stroke-width:0.26458332px;stroke-linecap:butt;stroke-linejoin:miter;stroke-opacity:1;filter:url(#filter1264)" />
    <path
       inkscape:connector-curvature="0"
       id="path982"
       d="m 159.10243,104.30359 -0.0853,3.92214 -2.1316,2.64318"
       style="fill:none;stroke:#000000;stroke-width:0.26458332px;stroke-linecap:butt;stroke-linejoin:miter;stroke-opacity:1;filter:url(#filter1268)" />
    <path
       inkscape:connector-curvature="0"
       id="path984"
       d="m 178.28681,128.77433 2.98424,-0.85264 3.24002,0.68211 2.21687,1.02317 3.49581,-3.3253"
       style="fill:none;stroke:#000000;stroke-width:0.26458332px;stroke-linecap:butt;stroke-linejoin:miter;stroke-opacity:1;filter:url(#filter1272)" />
    <path
       inkscape:connector-curvature="0"
       id="path986"
       d="m 196.44802,119.22477 2.38739,1.87581"
       style="fill:none;stroke:#000000;stroke-width:0.26458332px;stroke-linecap:butt;stroke-linejoin:miter;stroke-opacity:1;filter:url(#filter1276)" />
    <path
       inkscape:connector-curvature="0"
       id="path988"
       d="m 184.59634,107.88467 1.10843,2.30213 0.25579,3.32529"
       style="fill:none;stroke:#000000;stroke-width:0.26458332px;stroke-linecap:butt;stroke-linejoin:miter;stroke-opacity:1;filter:url(#filter1280)" />
    <path
       inkscape:connector-curvature="0"
       id="path990"
       d="m 28.563406,232.79628 2.557917,-2.04633 1.53475,-3.32529 1.53475,1.02316 1.193694,-2.1316 -1.449485,-2.21686"
       style="fill:none;stroke:#000000;stroke-width:0.26458332px;stroke-linecap:butt;stroke-linejoin:miter;stroke-opacity:1;filter:url(#filter1284)" />
    <path
       inkscape:connector-curvature="0"
       id="path992"
       d="m 29.586573,226.74255 1.193694,-1.70528 1.278959,-0.34106 0.767374,-1.70528 0.852641,-0.17053 0.170526,-1.27895 -1.705279,0.25579"
       style="fill:none;stroke:#000000;stroke-width:0.26458332px;stroke-linecap:butt;stroke-linejoin:miter;stroke-opacity:1;filter:url(#filter1288)" />
    <path
       inkscape:connector-curvature="0"
       id="path994"
       d="m 36.407685,222.1383 1.278959,-0.76738 -0.426321,-0.76737 2.131597,-0.68212 -0.767373,-2.30212 1.620012,1.02316 -0.68211,2.04634 0.170527,1.79054 2.557918,1.27896"
       style="fill:none;stroke:#000000;stroke-width:0.26458332px;stroke-linecap:butt;stroke-linejoin:miter;stroke-opacity:1;filter:url(#filter1292)" />
    <path
       inkscape:connector-curvature="0"
       id="path996"
       d="m 40.415088,211.90663 -0.682112,3.15476"
       style="fill:none;stroke:#000000;stroke-width:0.26458332px;stroke-linecap:butt;stroke-linejoin:miter;stroke-opacity:1;filter:url(#filter1296)" />
    <path
       inkscape:connector-curvature="0"
       id="path998"
       d="m 30.268685,210.37188 2.898971,-0.0853 2.131597,-0.42632 -1.364221,-1.96107 -1.193694,-1.53475"
       style="fill:none;stroke:#000000;stroke-width:0.26458332px;stroke-linecap:butt;stroke-linejoin:miter;stroke-opacity:1;filter:url(#filter1300)" />
    <path
       inkscape:connector-curvature="0"
       id="path1000"
       d="m 36.578211,207.7287 1.364224,0.0853 0.937903,1.62001"
       style="fill:none;stroke:#000000;stroke-width:0.26458332px;stroke-linecap:butt;stroke-linejoin:miter;stroke-opacity:1;filter:url(#filter1304)" />
    <path
       inkscape:connector-curvature="0"
       id="path1002"
       d="m 31.462379,214.72034 1.875806,1.62001 -0.341056,0.51158 0.255791,0.85264 -0.42632,0.17053 -0.767374,-0.42632 -0.682112,0.51158 -0.937903,-1.62001"
       style="fill:none;stroke:#000000;stroke-width:0.26458332px;stroke-linecap:butt;stroke-linejoin:miter;stroke-opacity:1;filter:url(#filter1308)" />
    <path
       inkscape:connector-curvature="0"
       id="path1004"
       d="m 28.733932,221.02986 1.705279,-1.70527 -1.364223,-1.70528"
       style="fill:none;stroke:#000000;stroke-width:0.26458332px;stroke-linecap:butt;stroke-linejoin:miter;stroke-opacity:1;filter:url(#filter1312)" />
    <path
       inkscape:connector-curvature="0"
       id="path1006"
       d="m 28.478141,211.48031 1.278959,1.79054"
       style="fill:none;stroke:#000000;stroke-width:0.26458332px;stroke-linecap:butt;stroke-linejoin:miter;stroke-opacity:1;filter:url(#filter1316)" />
  </g>
  <g
     inkscape:groupmode="layer"
     id="layer3"
     inkscape:label="cloud"
     transform="translate(-24.868409,-98.732788)">
    <path
       style="fill:none;stroke:#000000;stroke-width:0.1;stroke-linecap:butt;stroke-linejoin:miter;stroke-miterlimit:4;stroke-dasharray:none;stroke-opacity:1"
       d="m 113.23045,102.34252 -0.59684,1.96107 -1.53475,3.15476 0.51158,3.66635 4.00741,-0.85264 2.98423,1.70528 1.27896,3.49582 1.27896,-0.59685 -0.0853,-3.32529 1.96107,1.53475"
       id="path911"
       inkscape:connector-curvature="0" />
    <path
       style="fill:none;stroke:#000000;stroke-width:0.1;stroke-linecap:butt;stroke-linejoin:miter;stroke-miterlimit:4;stroke-dasharray:none;stroke-opacity:1"
       d="m 132.2443,114.27946 -1.02316,2.55792 0.9379,2.38739 -1.19369,0.85264 3.66634,0.42632"
       id="path913"
       inkscape:connector-curvature="0" />
    <path
       style="fill:none;stroke:#000000;stroke-width:0.1;stroke-linecap:butt;stroke-linejoin:miter;stroke-miterlimit:4;stroke-dasharray:none;stroke-opacity:1"
       d="m 134.63169,123.06165 1.44949,-0.76738 1.10843,1.53475 0.17053,2.81371 -1.70528,-1.10843 0.0853,1.10843"
       id="path915"
       inkscape:connector-curvature="0" />
    <path
       style="fill:none;stroke:#000000;stroke-width:0.1;stroke-linecap:butt;stroke-linejoin:miter;stroke-miterlimit:4;stroke-dasharray:none;stroke-opacity:1"
       d="m 128.49269,125.5343 -4.17793,-1.96107 -0.68211,-2.81371"
       id="path917"
       inkscape:connector-curvature="0" />
    <path
       style="fill:none;stroke:#000000;stroke-width:0.1;stroke-linecap:butt;stroke-linejoin:miter;stroke-miterlimit:4;stroke-dasharray:none;stroke-opacity:1"
       d="m 140.17385,112.31839 0.51158,5.2011 3.24003,4.2632 3.58108,-0.85264"
       id="path919"
       inkscape:connector-curvature="0" />
    <path
       style="fill:none;stroke:#000000;stroke-width:0.1;stroke-linecap:butt;stroke-linejoin:miter;stroke-miterlimit:4;stroke-dasharray:none;stroke-opacity:1"
       d="m 144.69283,125.02271 -1.53475,2.64319 -0.34105,2.30212"
       id="path921"
       inkscape:connector-curvature="0" />
    <path
       style="fill:none;stroke:#000000;stroke-width:0.1;stroke-linecap:butt;stroke-linejoin:miter;stroke-miterlimit:4;stroke-dasharray:none;stroke-opacity:1"
       d="m 139.32121,120.50373 -3.0695,-4.09267 0.0853,-2.21686"
       id="path923"
       inkscape:connector-curvature="0" />
    <path
       style="fill:none;stroke:#000000;stroke-width:0.1;stroke-linecap:butt;stroke-linejoin:miter;stroke-miterlimit:4;stroke-dasharray:none;stroke-opacity:1"
       d="m 139.83279,107.20256 1.96107,-1.70528 -0.85264,-1.70527 -3.49582,1.02316"
       id="path925"
       inkscape:connector-curvature="0" />
    <path
       style="fill:none;stroke:#000000;stroke-width:0.1;stroke-linecap:butt;stroke-linejoin:miter;stroke-miterlimit:4;stroke-dasharray:none;stroke-opacity:1"
       d="m 144.86336,110.95417 -0.68211,3.49582 1.1937,2.89897"
       id="path927"
       inkscape:connector-curvature="0" />
    <path
       style="fill:none;stroke:#000000;stroke-width:0.1;stroke-linecap:butt;stroke-linejoin:miter;stroke-miterlimit:4;stroke-dasharray:none;stroke-opacity:1"
       d="m 168.05514,113.34156 0.34106,4.34846 2.64318,2.04633 3.92214,-0.17052 0.76737,2.04633 -1.27896,1.8758"
       id="path929"
       inkscape:connector-curvature="0" />
    <path
       style="fill:none;stroke:#000000;stroke-width:0.1;stroke-linecap:butt;stroke-linejoin:miter;stroke-miterlimit:4;stroke-dasharray:none;stroke-opacity:1"
       d="m 178.5426,113.93841 2.55792,-0.85264 1.44948,-3.58109 -1.53475,-3.49581 0.76738,-0.85264 1.62001,0.42632 -0.51158,-1.53475"
       id="path931"
       inkscape:connector-curvature="0" />
    <path
       style="fill:none;stroke:#000000;stroke-width:0.1;stroke-linecap:butt;stroke-linejoin:miter;stroke-miterlimit:4;stroke-dasharray:none;stroke-opacity:1"
       d="m 159.10243,104.30359 -0.0853,3.92214 -2.1316,2.64318"
       id="path933"
       inkscape:connector-curvature="0" />
    <path
       style="fill:none;stroke:#000000;stroke-width:0.1;stroke-linecap:butt;stroke-linejoin:miter;stroke-miterlimit:4;stroke-dasharray:none;stroke-opacity:1"
       d="m 178.28681,128.77433 2.98424,-0.85264 3.24002,0.68211 2.21687,1.02317 3.49581,-3.3253"
       id="path935"
       inkscape:connector-curvature="0" />
    <path
       style="fill:none;stroke:#000000;stroke-width:0.1;stroke-linecap:butt;stroke-linejoin:miter;stroke-miterlimit:4;stroke-dasharray:none;stroke-opacity:1"
       d="m 196.44802,119.22477 2.38739,1.87581"
       id="path937"
       inkscape:connector-curvature="0" />
    <path
       style="fill:none;stroke:#000000;stroke-width:0.1;stroke-linecap:butt;stroke-linejoin:miter;stroke-miterlimit:4;stroke-dasharray:none;stroke-opacity:1"
       d="m 184.59634,107.88467 1.10843,2.30213 0.25579,3.32529"
       id="path939"
       inkscape:connector-curvature="0" />
    <path
       style="fill:none;stroke:#000000;stroke-width:0.1;stroke-linecap:butt;stroke-linejoin:miter;stroke-miterlimit:4;stroke-dasharray:none;stroke-opacity:1"
       d="m 28.563406,232.79628 2.557917,-2.04633 1.53475,-3.32529 1.53475,1.02316 1.193694,-2.1316 -1.449485,-2.21686"
       id="path941"
       inkscape:connector-curvature="0" />
    <path
       style="fill:none;stroke:#000000;stroke-width:0.1;stroke-linecap:butt;stroke-linejoin:miter;stroke-miterlimit:4;stroke-dasharray:none;stroke-opacity:1"
       d="m 29.586573,226.74255 1.193694,-1.70528 1.278959,-0.34106 0.767374,-1.70528 0.852641,-0.17053 0.170526,-1.27895 -1.705279,0.25579"
       id="path943"
       inkscape:connector-curvature="0" />
    <path
       style="fill:none;stroke:#000000;stroke-width:0.1;stroke-linecap:butt;stroke-linejoin:miter;stroke-miterlimit:4;stroke-dasharray:none;stroke-opacity:1"
       d="m 36.407685,222.1383 1.278959,-0.76738 -0.426321,-0.76737 2.131597,-0.68212 -0.767373,-2.30212 1.620012,1.02316 -0.68211,2.04634 0.170527,1.79054 2.557918,1.27896"
       id="path945"
       inkscape:connector-curvature="0" />
    <path
       style="fill:none;stroke:#000000;stroke-width:0.1;stroke-linecap:butt;stroke-linejoin:miter;stroke-miterlimit:4;stroke-dasharray:none;stroke-opacity:1"
       d="m 40.415088,211.90663 -0.682112,3.15476"
       id="path947"
       inkscape:connector-curvature="0" />
    <path
       style="fill:none;stroke:#000000;stroke-width:0.1;stroke-linecap:butt;stroke-linejoin:miter;stroke-miterlimit:4;stroke-dasharray:none;stroke-opacity:1"
       d="m 30.268685,210.37188 2.898971,-0.0853 2.131597,-0.42632 -1.364221,-1.96107 -1.193694,-1.53475"
       id="path949"
       inkscape:connector-curvature="0" />
    <path
       style="fill:none;stroke:#000000;stroke-width:0.1;stroke-linecap:butt;stroke-linejoin:miter;stroke-miterlimit:4;stroke-dasharray:none;stroke-opacity:1"
       d="m 36.578211,207.7287 1.364224,0.0853 0.937903,1.62001"
       id="path951"
       inkscape:connector-curvature="0" />
    <path
       style="fill:none;stroke:#000000;stroke-width:0.1;stroke-linecap:butt;stroke-linejoin:miter;stroke-miterlimit:4;stroke-dasharray:none;stroke-opacity:1"
       d="m 31.462379,214.72034 1.875806,1.62001 -0.341056,0.51158 0.255791,0.85264 -0.42632,0.17053 -0.767374,-0.42632 -0.682112,0.51158 -0.937903,-1.62001"
       id="path953"
       inkscape:connector-curvature="0" />
    <path
       style="fill:none;stroke:#000000;stroke-width:0.1;stroke-linecap:butt;stroke-linejoin:miter;stroke-miterlimit:4;stroke-dasharray:none;stroke-opacity:1"
       d="m 28.733932,221.02986 1.705279,-1.70527 -1.364223,-1.70528"
       id="path955"
       inkscape:connector-curvature="0" />
    <path
       style="fill:none;stroke:#000000;stroke-width:0.1;stroke-linecap:butt;stroke-linejoin:miter;stroke-miterlimit:4;stroke-dasharray:none;stroke-opacity:1"
       d="m 28.478141,211.48031 1.278959,1.79054"
       id="path957"
       inkscape:connector-curvature="0" />
  </g>
</svg>
