<?xml version="1.0" encoding="UTF-8" standalone="no"?>
<!-- Created with Inkscape (http://www.inkscape.org/) -->

<svg
   xmlns:dc="http://purl.org/dc/elements/1.1/"
   xmlns:cc="http://creativecommons.org/ns#"
   xmlns:rdf="http://www.w3.org/1999/02/22-rdf-syntax-ns#"
   xmlns:svg="http://www.w3.org/2000/svg"
   xmlns="http://www.w3.org/2000/svg"
   xmlns:sodipodi="http://sodipodi.sourceforge.net/DTD/sodipodi-0.dtd"
   xmlns:inkscape="http://www.inkscape.org/namespaces/inkscape"
   width="114.80751mm"
   height="96.561333mm"
   viewBox="0 0 114.80751 96.561333"
   version="1.1"
   id="svg8"
   inkscape:version="0.92.2 2405546, 2018-03-11"
   sodipodi:docname="presentation_cap2_seven.svg">
  <defs
     id="defs2">
    <filter
       inkscape:collect="always"
       style="color-interpolation-filters:sRGB"
       id="filter999"
       x="-0.022008911"
       width="1.0440178"
       y="-0.026387181"
       height="1.0527744">
      <feGaussianBlur
         inkscape:collect="always"
         stdDeviation="1.0084391"
         id="feGaussianBlur1001" />
    </filter>
    <filter
       inkscape:collect="always"
       style="color-interpolation-filters:sRGB"
       id="filter1003"
       x="-0.035399549"
       width="1.0707991"
       y="-0.043071982"
       height="1.086144">
      <feGaussianBlur
         inkscape:collect="always"
         stdDeviation="1.0084391"
         id="feGaussianBlur1005" />
    </filter>
    <filter
       inkscape:collect="always"
       style="color-interpolation-filters:sRGB"
       id="filter1007"
       x="-0.15929797"
       width="1.3185959"
       y="-0.19677982"
       height="1.3935596">
      <feGaussianBlur
         inkscape:collect="always"
         stdDeviation="1.0084391"
         id="feGaussianBlur1009" />
    </filter>
    <filter
       inkscape:collect="always"
       style="color-interpolation-filters:sRGB"
       id="filter1011"
       x="-0.12238746"
       width="1.2447749"
       y="-0.1987281"
       height="1.3974562">
      <feGaussianBlur
         inkscape:collect="always"
         stdDeviation="1.0084391"
         id="feGaussianBlur1013" />
    </filter>
    <filter
       inkscape:collect="always"
       style="color-interpolation-filters:sRGB"
       id="filter1015"
       x="-1.1354166"
       width="3.270833"
       y="-0.76717287"
       height="2.5343456">
      <feGaussianBlur
         inkscape:collect="always"
         stdDeviation="1.0084391"
         id="feGaussianBlur1017" />
    </filter>
    <filter
       inkscape:collect="always"
       style="color-interpolation-filters:sRGB"
       id="filter1019"
       x="-1.8923624"
       width="4.7847247"
       y="-1.4192708"
       height="3.8385415">
      <feGaussianBlur
         inkscape:collect="always"
         stdDeviation="1.0084391"
         id="feGaussianBlur1021" />
    </filter>
  </defs>
  <sodipodi:namedview
     id="base"
     pagecolor="#ffffff"
     bordercolor="#666666"
     borderopacity="1.0"
     inkscape:pageopacity="0.0"
     inkscape:pageshadow="2"
     inkscape:zoom="2.4317648"
     inkscape:cx="119.03083"
     inkscape:cy="214.74828"
     inkscape:document-units="mm"
     inkscape:current-layer="layer3"
     showgrid="false"
     inkscape:window-width="1920"
     inkscape:window-height="1039"
     inkscape:window-x="0"
     inkscape:window-y="0"
     inkscape:window-maximized="1"
     inkscape:snap-others="false"
     inkscape:object-nodes="false"
     inkscape:snap-nodes="false"
     fit-margin-top="0"
     fit-margin-left="0"
     fit-margin-right="0"
     fit-margin-bottom="0" />
  <metadata
     id="metadata5">
    <rdf:RDF>
      <cc:Work
         rdf:about="">
        <dc:format>image/svg+xml</dc:format>
        <dc:type
           rdf:resource="http://purl.org/dc/dcmitype/StillImage" />
        <dc:title></dc:title>
      </cc:Work>
    </rdf:RDF>
  </metadata>
  <g
     inkscape:groupmode="layer"
     id="layer3"
     inkscape:label="Form Fade"
     transform="translate(-36.289548,-105.14643)">
    <path
       inkscape:connector-curvature="0"
       id="path933"
       d="m 64.07582,182.27742 -2.344759,-0.21316 2.387389,2.30213 -3.282659,0.12789 2.174229,2.21687 -5.925841,-1.70528 2.344759,8.10007 -6.522689,-4.34846 0.63948,7.41796 -2.984238,-1.87581 0.04263,3.24003 -2.64318,-1.66265 -0.170529,3.36793 -3.325291,-3.11214 -2.60055,0.42633 -1.492118,-1.36423 0.08526,2.04634 -1.492118,-0.93791 -0.255793,1.02317 0.810008,0.46895 -0.04263,-2.17423 1.620014,1.23633 0.04263,-2.04633 2.302123,0.72474 -0.298423,1.57738 1.193694,-0.98054 -0.170527,1.79055 1.364221,-1.02317 0.511585,2.1316 0.63948,-2.38739 2.046332,1.87581 -0.127897,-3.0695 2.643182,1.57738 -0.08526,-3.49582 3.666347,1.70527 -0.213159,-7.8869 6.863744,4.68951 -2.60055,-9.93324 -2.941603,-1.36423 0.682112,-1.02317 1.961068,0.68212 0.127897,-1.57739 1.321591,0.81001 0.383685,-1.27896 1.023168,1.27896 1.023167,-1.44949 0.554215,1.10844 -0.511582,0.0426 0.383685,-0.93791 -0.08526,0.89528 -0.468953,-0.81001 -0.170526,1.27896 -0.468953,-1.70528 -1.065797,1.44949 -0.980536,-0.89527 -0.213158,1.23632 -1.492121,-0.68211 -1.492118,2.94161 2.984239,0.29842 -2.728447,11.46799 -7.588486,-3.83687 -0.937903,3.36792 -2.941605,-1.79054 -1.577383,2.98423 2.302127,0.85265 -0.682112,1.32158 0.937903,0.0853 0.04263,-0.85264 -1.278959,0.25579 1.236327,-0.72474 -2.174229,-0.25579 1.790541,-0.81001 -2.557915,-0.51158 0.810006,-1.70528 1.918438,1.70528 0.682112,-2.85634 2.643179,2.04633 1.278959,-3.87951 5.328994,5.15847 -0.255791,-8.52639 6.863744,5.84058 2.600547,-0.68212 -1.492118,2.30213 2.259494,-0.68211 -0.980535,2.43002 h 0.63948 l 0.852638,-2.0037 1.875806,-0.29843 -0.298424,-1.83317 1.151062,-0.46895 0.213162,1.66264 -2.17423,0.0426 -0.127897,1.96107 -2.728444,0.12789 0.980535,-2.30212 -2.003702,0.46895 1.151061,-3.11213 -12.320632,-0.17053 -1.364223,3.75161 -3.154762,-2.25949 -0.596847,2.9416 -2.557918,-1.66264 -0.937903,2.17422 2.259494,0.68212 -1.278959,0.98053 1.620012,0.81001 0.383688,-0.85264 -2.131597,-0.25579 1.321591,-1.44949 -2.38739,-1.36422 -0.298424,0.76737 2.643182,1.32159 0.298424,1.79055 -3.0695,-3.58109 8.057438,-3.62371 3.367923,6.56532 -3.581082,-2.0037 0.213159,3.45318 -2.728444,-1.66264 0.170526,3.19739 -2.387388,-1.91843 -1.321591,1.36422 -2.302124,-4.17793 0.937901,0.17052 0.255793,0.85264 -1.833173,-0.72474 0.341053,1.32159 -1.321588,-0.72474 v 1.96107 l -1.492118,-1.02317 -0.08526,1.62002 -0.383688,-0.81001 1.193694,0.68211 v -1.96107 l 1.278959,0.89527 0.170529,-1.74791 2.088965,0.72474 v -0.9379 l -4.646882,2.9416 4.135297,-3.36792 -2.344756,1.15106 -1.833174,1.49212 2.472653,-0.17053 -1.96107,1.27896 0.383688,-2.30212 3.623715,-0.0853 -2.046333,1.02317 2.387389,-0.76738 -1.023165,1.3216 1.53475,-1.1937 -0.511585,1.62001 1.193694,-1.02316 -0.341053,1.79054 0.89527,-1.19369 0.08526,2.25949 0.767377,-2.38739 0.511582,2.21686 0.596847,0.21316 -0.170527,-2.85634 2.088965,1.79054 -0.170526,-3.15476 2.643179,1.74791 -0.298423,-7.54586 6.437423,4.09267 -1.406853,-7.84428 7.119535,2.1316 -0.937903,3.83687 2.302127,-0.81 -1.620015,2.34475 2.131597,-0.76737 -0.937903,2.43002 1.53475,0.1279 0.63948,-1.91844 1.236326,0.25579 -0.298423,-1.44949 2.131597,0.1279 -1.278959,-1.36422 0.511585,-0.21316 -0.04263,-0.42632 -0.596847,0.63948 0.554214,2.0037 h -1.875805 l 0.554214,1.32159 -1.577382,-0.46895 -0.810006,1.96107 0.383688,-2.64318 -1.747911,1.10843 1.321591,-2.21687 -2.17423,0.55422 1.577383,-1.96107 -9.592189,-3.32529 0.511583,8.01481 -7.034271,-4.39109 -0.810008,2.98423 -3.112133,-1.83317 0.341056,4.56161 1.449488,0.55422 -2.344758,-4.68951 2.344758,1.57738 0.810006,-2.68581 2.813709,2.0037 1.364223,-3.41056 5.925839,4.1353 -0.980533,-7.75902 9.336397,6.82112 0.937903,1.96107 0.127894,-1.79054 1.023168,0.63948 -0.127897,-1.62002 1.449488,0.38369 -1.023168,-1.32159 1.577383,1.02317 -1.108432,-1.49212 1.449488,1.06579 -0.511585,-0.98053 0.639479,0.21316 -0.127894,-0.55422 0.170526,-0.12789 0.213159,0.51158 -0.511582,-0.0853 0.127897,0.46895 -0.724744,-0.34106 -0.852639,2.21687 -4.050035,1.27895 0.383688,-3.70897 -7.290064,-5.79795 1.662647,-2.47265 -2.813709,-0.59685 2.0037,-0.89527 0.08526,-1.53475 1.321591,0.63948 0.255791,-1.23633 1.10843,1.02317 0.89527,-1.49212 0.511585,1.74791 -1.108432,-1.66265 -0.980533,1.44949 -1.023167,-0.89527 -0.255791,1.40685 -1.961071,-0.59684 -0.810006,1.66264 2.088965,0.0853 -1.278959,1.91844 2.984236,-0.0853 -8.952709,9.93324 11.638523,-6.139 0.937903,-4.98794 -2.515285,1.83318 2.344756,1.79054 -6.60795,-0.25579 1.53475,7.75901 -7.119536,0.34106 2.771077,-4.73215 6.565318,3.92214 -3.240027,-7.71638 5.67005,1.10843 -2.131597,-1.96107 3.11213,-0.38369 -1.705277,-1.8758 1.151062,0.0853 0.639479,1.23633 -2.813709,-0.1279 2.216862,2.08897 -2.643179,0.17053 1.53475,1.49211 -5.712683,-1.23632 -4.220561,11.0843 -7.460592,2.08897 2.472653,-2.55792 16.072244,-8.39849 -4.60425,5.49952 2.898971,-11.16957 0.554218,-0.25579 -2.515286,11.16957 -3.367923,-13.00275 5.584785,11.97958 -4.646882,-12.4059 1.151062,0.68212 0.511582,-1.3216 1.108432,0.72475 0.46895,-1.23633 1.108432,1.44949 1.065798,-1.02317 -6.735847,1.10843 2.046332,0.72474 -2.0037,0.81001 2.088965,0.29843 -1.406853,1.06579 2.43002,-0.46895 -1.918438,1.91844 3.112132,-0.29842 -2.728444,0.72474 3.0695,0.21316 -5.712682,10.18904 -5.414256,-4.98794 -1.151064,3.36792 -2.898971,-2.08896 -0.724744,5.15846 -1.193694,-4.09267 16.370667,0.42632 2.728444,-5.71268 -0.511582,4.56162 2.046332,-2.17423 -0.341055,-1.23632 -2.472653,3.53845 -11.80905,2.9416 0.213161,3.1974 -2.60055,-1.66265 -0.980535,2.64318 -4.646882,-4.26319 1.406856,2.43002 -2.60055,-1.66265 2.685812,0.34106 0.298426,2.1316 -1.833176,0.17052 -0.08526,-1.44948 1.449485,1.40685 0.127897,-0.72474 -0.937903,0.98053 -0.04263,-1.44948 -0.980536,0.72474 -0.213159,-0.98053 0.852639,0.17052 0.08526,1.32159 0.767374,-0.9379 0.08526,1.02317 -1.449486,-0.34106 v -1.27896 l 2.046333,0.72475 1.875806,1.74791 1.193694,-2.30213 -2.515285,0.81001 -0.426318,-1.70528 3.708979,3.36793 2.984235,-4.60426 4.391092,0.68211 2.984235,-10.18903 5.414259,2.34476 -1.108433,4.22056 2.259494,-2.60055 -0.42632,-0.98054 -4.987936,5.07321 -4.604252,-4.81741 0.341056,7.33269 -1.705277,0.72475 -2.771076,-6.65059 -0.468953,3.36792 -2.685812,-2.0037 -1.108432,2.81371 -1.747909,-2.08896 20.505967,-1.57739 -9.2085,-3.58108 5.0732,-2.1316 -2.856338,-1.0658 1.065797,-1.27895 -2.344756,-0.2558 -0.170529,-1.70527 1.790541,0.55421 3.069503,11.55326 2.088965,-10.48746 1.023165,1.32159 -0.68211,2.55792 -2.856341,-0.0426 0.937903,-3.24003 1.065798,-0.55422 -1.705277,10.70062 1.620015,-5.41426 2.515285,3.36793 1.747909,-1.02317 2.728444,-0.34105 1.0658,-1.10844 h 2.557917 l 0.383686,-0.9379 -2.728444,1.70528 -1.321591,-0.21316 -1.151062,0.76738 -1.961071,0.29842 -1.449485,0.72474 2.088965,-0.51158 1.449488,-0.9379 h 1.662644 l 1.833173,-1.1937 2.387391,0.1279 0.04263,-0.38369 -1.023168,0.29842 -0.213159,-0.72474 16.328035,-9.93324 9.720086,-7.07691 11.681158,-7.50322 7.33269,-5.54215 21.45745,-6.62362 -3.01453,-4.70267 0.24116,6.27023 -5.66732,-3.73802 2.04988,6.14965 -6.63197,-3.13512 0.72349,6.14965 -6.39082,-3.61744 0.84407,6.87314 -3.37627,-2.41163 1.44697,-3.61744 4.94384,3.73802 -1.3264,-6.02907 5.78791,3.01454 -0.48233,-5.42616 6.14965,3.01453 -0.96465,-5.54674 3.49686,3.37628 -1.44698,-5.30558 -6.51139,-3.37628 0.96465,6.39081 -6.75256,-3.8586 1.20582,6.63197 -6.75256,-3.73802 1.20582,7.23488 -3.13512,-1.32639 0.48233,-4.22035 6.02906,3.97918 -1.20581,-7.47604 5.66732,4.22035 -0.24116,-6.63198 5.66733,4.22035 -0.12058,-6.87314 3.01453,2.65279 -0.96465,3.37628 -7.23488,-3.8586 -11.33465,-1.20582 0.84407,6.87314 -5.90849,-3.61744 8.92302,1.9293 0.12058,-6.87314 7.35547,2.77337 -1.08524,-6.63197 7.1143,3.97919 -3.37628,-5.30558 0.36175,6.99371 -7.1143,-3.73802 -0.36174,6.75256 -9.28477,-1.80872 0.60291,5.7879 6.75255,-3.13511 0.72349,-6.99372 1.44698,-7.59663 5.66732,3.97919 0.36175,-3.13512 -3.73803,-1.68814 -0.36174,6.87314 -7.83779,-3.73802 0.72349,7.35546 -8.19953,-2.77337 -0.36175,4.70267 3.01454,1.20582 1.08523,-9.16418 6.75256,4.09976 0.6029,-6.27023 6.5114,3.49686 0.24116,-5.66733 2.53221,4.46152 -10.73174,-2.41163 -4.70268,9.28476 -6.02907,-1.9293 0.84408,-2.41163 -0.60291,-6.87313 7.23488,3.37627 -0.60291,-5.54674 5.54675,3.61744 0.12058,-5.06441 5.7879,3.37627 -1.20581,-2.65279 -3.73802,-1.32639 0.6029,4.58209 -4.94383,-3.73802 0.6029,5.185 -6.02906,-2.41163 -0.12058,5.54674 -7.23489,-2.41162 0.24116,4.46151 3.73803,0.6029 -3.37628,-13.50511 8.19953,4.34093 0.48233,-6.63197 6.14965,3.97918 -0.36175,-4.70267 3.01454,3.97918 -6.14965,-3.73802 0.12058,5.90849 -6.99372,-4.46151 0.60291,6.75255 -7.59663,-3.49686 0.60291,9.16419 -2.29105,-5.06442 4.46151,1.56755 -1.32639,-7.23488 0.72348,-5.185 6.75256,3.01454 1.56756,-4.46151 4.94384,3.49686 -0.36175,-2.41163 -2.65279,-1.44697 -0.72349,3.8586 -5.06441,-3.01453 -1.56756,5.42616 -7.1143,-3.49686 1.20581,6.02907 -6.511393,-0.12059 5.185003,3.37628 -3.255701,-6.99372 1.567558,-7.59662 7.596623,3.49686 0.24117,-4.70268 4.94383,4.09977 0.36175,-3.13512 2.65279,2.65279 -11.45523,-2.89395 -0.24116,5.185 -8.802448,-2.41163 -0.602906,7.1143 3.135117,-0.48232 v -8.68186 l -5.908487,-0.36175 1.929302,3.37628 -5.064419,1.3264 4.099766,3.13511 -4.099766,-1.20581 3.979185,-1.32639 -3.738023,-3.2557 5.667325,0.24116 0.723487,-3.8586 4.099767,1.80872 1.326395,-2.89395 4.220345,2.04988 1.44698,-2.77337 3.49686,2.89395 v -2.65279 l 1.44698,2.04988 -3.2557,-2.17046 -1.20581,2.04988 -4.09977,-1.9293 -0.72349,2.89395 -3.979184,-1.68814 -1.085233,2.65279 -3.255695,-1.80872 -8.923023,-0.24116 3.858604,3.73802 -4.099766,0.84407 3.738022,1.44698 -0.964649,0.84407 -3.014536,-3.37628 5.667325,-1.44698 -2.170465,-4.22034 7.596624,1.32639 -0.844068,-2.53221 4.943835,1.56756 -0.120581,-2.29104 3.85861,1.56755 0.6029,-1.68814 3.37628,2.04989 -5.66732,-1.9293 -1.326399,2.65278 -3.979185,-2.04988 -0.120582,2.89395 -4.099766,-1.9293 0.361744,2.53221 -5.546744,-0.96465 1.929302,3.73802 -4.340929,-0.96465 3.617442,5.66732 -8.199533,-7.83778 5.908487,-0.36175 -0.120581,-3.37627 5.184997,1.08523 2.411627,-2.65279 4.099766,1.56756 1.567559,-1.3264 2.170465,0.96465 -2.170465,0.36175 -3.135114,-1.56756 -2.291046,2.29104 -4.461512,-1.08523 -1.085231,2.77337 -5.064419,-0.72349 1.205815,4.22035 -4.46151,1.56756 1.929302,1.44698 1.688139,-0.48233 -2.049883,-6.02907 59.446614,38.46545 -5.185,47.50906 -4.22035,-5.185 -1.32639,1.80872 2.41162,3.49686 1.80872,-4.46151 4.09977,2.41163 -0.12058,-3.8586 3.73802,1.20581 0.24116,-4.09977 3.37628,0.72349 0.12058,-4.09977 2.41163,0.12059 0.48233,-3.2557 -1.68814,1.80872 0.12058,3.73802 -3.61744,0.24117 0.24116,3.49685 -3.49686,-1.08523 0.12058,3.97919 -3.49686,-2.17047 -2.53221,5.66733 -1.56755,-5.66733 1.80872,-4.70267 4.82325,3.61744 v -5.78791 l 4.09977,2.04989 0.12058,-5.66732 3.73802,0.96465 0.12058,-4.46151 2.17047,1.56755 -0.84407,-3.49686 -0.48233,4.94384 -2.65279,-1.08523 -0.48232,5.7879 -4.09977,-2.17046 0.36174,5.42616 -4.34093,-2.17047 -1.08523,5.42617 -4.46151,-4.94384 -1.32639,0.96465 -0.12058,-2.17046 1.68814,5.7879 1.44697,-4.82325 4.09977,3.97918 1.32639,-5.54674 -3.49686,-3.73802 -1.20581,5.30558 -3.13512,-5.30558 -0.96465,2.65279 2.41163,2.53221 1.44698,-5.185 3.01453,4.58209 1.80872,-5.54674 3.73802,1.9293 0.60291,-5.30558 3.49686,1.08523 -0.36174,-4.82325 2.29104,1.56755 -0.36174,-4.34093 1.32639,2.41163 -2.04988,-0.24116 0.36174,3.8586 -3.97918,-1.32639 0.24116,5.54674 -3.2557,-1.9293 -0.6029,5.42616 -3.85861,-3.2557 1.20582,-7.1143 4.70267,3.01454 0.84407,-6.75256 4.46151,1.44698 -0.60291,-6.02907 1.44698,3.97918 -3.61744,-1.44697 0.12058,6.39081 -4.58209,-2.04988 -0.60291,6.99372 -4.94383,-3.61745 -1.3264,5.30559 -3.8586,-5.06442 -0.48233,1.32639 2.53221,3.13512 1.56756,-4.58209 2.65279,5.30558 0.96465,-6.99372 -6.14965,-4.82326 -2.41163,5.66733 3.73803,0.72348 2.5322,-8.07895 6.63198,3.61744 0.6029,-8.68185 4.34094,2.65279 -0.24117,-5.78791 1.20582,4.70267 -3.73803,-2.17046 0.12058,7.23488 -4.82325,-3.73802 -0.60291,7.83779 -5.66732,-4.70267 -3.13512,7.35546 -0.84407,-5.78791 6.14965,4.94384 2.04989,-8.80244 -0.72349,-6.87314 6.02907,2.41163 -0.36175,-6.39081 4.22035,3.97918 -2.29105,-4.82325 0.12059,6.63197 -5.42616,-3.13511 0.12058,7.35546 -6.5114,-3.61744 -0.36174,6.87314 -5.42616,-4.09977 -0.36175,3.13511 3.73803,1.92931 0.24116,-7.1143 4.82325,4.70267 v -6.39081 l 5.66733,2.41162 0.6029,-6.87313 -5.185,-4.22035 1.3264,6.87314 -6.27023,-4.22035 0.72349,6.99372 -6.63198,-4.46151 -0.36174,7.23488 2.89395,-7.59663 6.63198,3.61745 -0.60291,-6.87314 5.42616,3.73802 -0.48232,-6.75256 4.58209,3.85861 -0.36175,-3.2557 -3.13511,-1.68814 -10.97291,13.86686 -5.7879,-2.89395 10.73174,-25.08093 -29.7836,-3.49686 0.84407,-23.63394 -19.413599,0.36174 1.446977,9.88767 32.918712,-1.68814 -6.87314,28.21604 25.32209,-1.44697 -10.85232,25.44266 4.94383,-35.20976 -33.762781,-6.99371 -2.773371,-19.89593 19.172442,7.23488 -3.01454,28.33662 32.07464,11.57581 -3.73802,39.55069 -9.16418,-11.93756 12.54046,-28.81894 -32.91871,-13.38453 7.71721,-23.2722 -38.344877,-2.77338 5.184997,3.61745 27.13081,-3.97919 9.76709,44.85627 -3.73802,-3.73803 13.14336,-21.58406 -24.71918,2.65279 5.185,-22.18697 9.52593,6.63197 -4.58209,27.73372 -4.70267,-4.82326 11.57581,-21.10173 -27.733718,3.25569 2.532211,-18.32836 17.122557,8.19953 -6.75256,22.06639 -17.243137,-29.54244 33.521617,17.12256 14.71093,69.8166 -12.17872,-23.99569 19.29302,17.36372 -1.9293,-31.83348 -27.97488,-7.95837 0.12058,-31.23057 -34.486267,-6.51139 3.738023,8.32011 35.692084,1.9293 -2.77337,34.96859 26.28673,2.29105 -8.19953,38.22429 -6.14965,-6.99372 15.555,-28.69836 -24.83976,-1.68814 4.58209,-33.15987 -29.06011,0.72348 -6.752555,-18.93127 17.604875,3.37628 -15.31383,10.73174 22.6693,-5.06442 -14.952092,13.38453 -1.808721,1.80872 -11.214068,15.43442 -20.016504,26.40732 -0.602908,0.18087 -0.301453,1.50727 -1.205813,0.24116 0.06029,1.08523 -1.205815,0.24116 0.120582,0.72349 -1.627849,1.50727 0.06029,0.30145 h -0.422037 l 0.72349,-0.42203 1.02494,-1.74843 0.72349,-0.0603 V 177.323 l 1.085231,-0.30146 0.120581,-1.32639 1.386687,-0.48233 0.120581,-0.66319 0.602906,-0.24117 -0.422034,0.54262 -1.266106,0.30145 -0.241162,1.50727 -1.02494,0.24116 -0.120582,0.96465 -0.78378,0.12058 0.361744,0.36175 2.713082,-4.46151 7.355462,-16.03732 8.320113,-19.65477 5.787906,-17.12255 6.993718,-13.50511 -4.099766,15.67558 -9.284764,16.27848 -14.952088,34.48627 10.249416,-38.34487 2.77337,-17.84604 8.681858,-8.07895 16.881385,1.9293 -10.249411,14.71092 -5.305578,8.32012 -22.789877,39.4301 28.818945,-19.29302 15.554991,-9.88767 14.34918,-18.20778 -19.65476,11.57581 -19.293015,17.36371 -20.257666,18.93128 28.698361,-28.93953 9.0436,-10.24942 10.85232,-18.20778 -19.17243,10.37 -10.852322,18.93127 -18.69011,27.97488 17.001971,-45.45918 1.567558,-11.57581 35.692083,6.51139 -4.34093,27.61314 22.66929,-2.65279 -16.27848,16.64022 -21.82523,10.12884 -20.257664,9.0436 -6.873137,2.89395 13.625695,-2.53221 19.534176,-4.34092 14.71093,-2.77338 c 0,0 27.73371,-5.42616 27.1308,-5.06441 -0.60291,0.36174 -18.93127,18.56953 -18.93127,18.56953 l -10.73174,-0.36175 -23.995691,-2.04988 -20.739994,-1.3264 34.365685,4.09977 21.3429,2.65279 2.89395,3.13512 15.19325,-15.67558 -19.53418,-0.72349 -27.61313,3.37628 -26.769056,2.77337 38.344866,-1.44698 17.00198,-1.44697"
       style="fill:none;stroke:#000000;stroke-width:0.30000001;stroke-linecap:round;stroke-linejoin:round;stroke-miterlimit:4;stroke-dasharray:none;stroke-opacity:1;filter:url(#filter999)" />
    <path
       inkscape:connector-curvature="0"
       id="path935"
       d="m 88.024392,146.15271 12.419878,-15.79615 46.30324,38.46545 -20.49883,5.30558 -20.61941,4.70267 -27.251385,7.71721"
       style="fill:none;stroke:#000000;stroke-width:0.30000001;stroke-linecap:round;stroke-linejoin:round;stroke-miterlimit:4;stroke-dasharray:none;stroke-opacity:1;filter:url(#filter1003)" />
    <path
       inkscape:connector-curvature="0"
       id="path937"
       d="m 117.20508,156.16097 -15.19325,12.2993"
       style="fill:none;stroke:#000000;stroke-width:0.30000001;stroke-linecap:round;stroke-linejoin:round;stroke-miterlimit:4;stroke-dasharray:none;stroke-opacity:1;filter:url(#filter1007)" />
    <path
       inkscape:connector-curvature="0"
       id="path939"
       d="m 110.81427,146.03213 -17.484297,11.33465 -2.291045,0.84407"
       style="fill:none;stroke:#000000;stroke-width:0.30000001;stroke-linecap:round;stroke-linejoin:round;stroke-miterlimit:4;stroke-dasharray:none;stroke-opacity:1;filter:url(#filter1011)" />
    <path
       inkscape:connector-curvature="0"
       id="path941"
       d="m 70.342714,191.35803 0.682112,-1.44949 0.596847,-0.76737 -1.278959,0.85263 2.1316,-1.79054"
       style="fill:none;stroke:#000000;stroke-width:0.30000001;stroke-linecap:round;stroke-linejoin:round;stroke-miterlimit:4;stroke-dasharray:none;stroke-opacity:1;filter:url(#filter1015)" />
    <path
       inkscape:connector-curvature="0"
       id="path943"
       d="m 59.94052,182.23479 1.023168,-0.76737 0.255791,-0.93791"
       style="fill:none;stroke:#000000;stroke-width:0.30000001;stroke-linecap:round;stroke-linejoin:round;stroke-miterlimit:4;stroke-dasharray:none;stroke-opacity:1;filter:url(#filter1019)" />
  </g>
  <g
     inkscape:groupmode="layer"
     id="layer2"
     inkscape:label="Form"
     transform="translate(-36.289548,-105.14643)">
    <path
       style="fill:none;stroke:#000000;stroke-width:0.30000001;stroke-linecap:round;stroke-linejoin:round;stroke-miterlimit:4;stroke-dasharray:none;stroke-opacity:1"
       d="m 64.07582,182.27742 -2.344759,-0.21316 2.387389,2.30213 -3.282659,0.12789 2.174229,2.21687 -5.925841,-1.70528 2.344759,8.10007 -6.522689,-4.34846 0.63948,7.41796 -2.984238,-1.87581 0.04263,3.24003 -2.64318,-1.66265 -0.170529,3.36793 -3.325291,-3.11214 -2.60055,0.42633 -1.492118,-1.36423 0.08526,2.04634 -1.492118,-0.93791 -0.255793,1.02317 0.810008,0.46895 -0.04263,-2.17423 1.620014,1.23633 0.04263,-2.04633 2.302123,0.72474 -0.298423,1.57738 1.193694,-0.98054 -0.170527,1.79055 1.364221,-1.02317 0.511585,2.1316 0.63948,-2.38739 2.046332,1.87581 -0.127897,-3.0695 2.643182,1.57738 -0.08526,-3.49582 3.666347,1.70527 -0.213159,-7.8869 6.863744,4.68951 -2.60055,-9.93324 -2.941603,-1.36423 0.682112,-1.02317 1.961068,0.68212 0.127897,-1.57739 1.321591,0.81001 0.383685,-1.27896 1.023168,1.27896 1.023167,-1.44949 0.554215,1.10844 -0.511582,0.0426 0.383685,-0.93791 -0.08526,0.89528 -0.468953,-0.81001 -0.170526,1.27896 -0.468953,-1.70528 -1.065797,1.44949 -0.980536,-0.89527 -0.213158,1.23632 -1.492121,-0.68211 -1.492118,2.94161 2.984239,0.29842 -2.728447,11.46799 -7.588486,-3.83687 -0.937903,3.36792 -2.941605,-1.79054 -1.577383,2.98423 2.302127,0.85265 -0.682112,1.32158 0.937903,0.0853 0.04263,-0.85264 -1.278959,0.25579 1.236327,-0.72474 -2.174229,-0.25579 1.790541,-0.81001 -2.557915,-0.51158 0.810006,-1.70528 1.918438,1.70528 0.682112,-2.85634 2.643179,2.04633 1.278959,-3.87951 5.328994,5.15847 -0.255791,-8.52639 6.863744,5.84058 2.600547,-0.68212 -1.492118,2.30213 2.259494,-0.68211 -0.980535,2.43002 h 0.63948 l 0.852638,-2.0037 1.875806,-0.29843 -0.298424,-1.83317 1.151062,-0.46895 0.213162,1.66264 -2.17423,0.0426 -0.127897,1.96107 -2.728444,0.12789 0.980535,-2.30212 -2.003702,0.46895 1.151061,-3.11213 -12.320632,-0.17053 -1.364223,3.75161 -3.154762,-2.25949 -0.596847,2.9416 -2.557918,-1.66264 -0.937903,2.17422 2.259494,0.68212 -1.278959,0.98053 1.620012,0.81001 0.383688,-0.85264 -2.131597,-0.25579 1.321591,-1.44949 -2.38739,-1.36422 -0.298424,0.76737 2.643182,1.32159 0.298424,1.79055 -3.0695,-3.58109 8.057438,-3.62371 3.367923,6.56532 -3.581082,-2.0037 0.213159,3.45318 -2.728444,-1.66264 0.170526,3.19739 -2.387388,-1.91843 -1.321591,1.36422 -2.302124,-4.17793 0.937901,0.17052 0.255793,0.85264 -1.833173,-0.72474 0.341053,1.32159 -1.321588,-0.72474 v 1.96107 l -1.492118,-1.02317 -0.08526,1.62002 -0.383688,-0.81001 1.193694,0.68211 v -1.96107 l 1.278959,0.89527 0.170529,-1.74791 2.088965,0.72474 v -0.9379 l -4.646882,2.9416 4.135297,-3.36792 -2.344756,1.15106 -1.833174,1.49212 2.472653,-0.17053 -1.96107,1.27896 0.383688,-2.30212 3.623715,-0.0853 -2.046333,1.02317 2.387389,-0.76738 -1.023165,1.3216 1.53475,-1.1937 -0.511585,1.62001 1.193694,-1.02316 -0.341053,1.79054 0.89527,-1.19369 0.08526,2.25949 0.767377,-2.38739 0.511582,2.21686 0.596847,0.21316 -0.170527,-2.85634 2.088965,1.79054 -0.170526,-3.15476 2.643179,1.74791 -0.298423,-7.54586 6.437423,4.09267 -1.406853,-7.84428 7.119535,2.1316 -0.937903,3.83687 2.302127,-0.81 -1.620015,2.34475 2.131597,-0.76737 -0.937903,2.43002 1.53475,0.1279 0.63948,-1.91844 1.236326,0.25579 -0.298423,-1.44949 2.131597,0.1279 -1.278959,-1.36422 0.511585,-0.21316 -0.04263,-0.42632 -0.596847,0.63948 0.554214,2.0037 h -1.875805 l 0.554214,1.32159 -1.577382,-0.46895 -0.810006,1.96107 0.383688,-2.64318 -1.747911,1.10843 1.321591,-2.21687 -2.17423,0.55422 1.577383,-1.96107 -9.592189,-3.32529 0.511583,8.01481 -7.034271,-4.39109 -0.810008,2.98423 -3.112133,-1.83317 0.341056,4.56161 1.449488,0.55422 -2.344758,-4.68951 2.344758,1.57738 0.810006,-2.68581 2.813709,2.0037 1.364223,-3.41056 5.925839,4.1353 -0.980533,-7.75902 9.336397,6.82112 0.937903,1.96107 0.127894,-1.79054 1.023168,0.63948 -0.127897,-1.62002 1.449488,0.38369 -1.023168,-1.32159 1.577383,1.02317 -1.108432,-1.49212 1.449488,1.06579 -0.511585,-0.98053 0.639479,0.21316 -0.127894,-0.55422 0.170526,-0.12789 0.213159,0.51158 -0.511582,-0.0853 0.127897,0.46895 -0.724744,-0.34106 -0.852639,2.21687 -4.050035,1.27895 0.383688,-3.70897 -7.290064,-5.79795 1.662647,-2.47265 -2.813709,-0.59685 2.0037,-0.89527 0.08526,-1.53475 1.321591,0.63948 0.255791,-1.23633 1.10843,1.02317 0.89527,-1.49212 0.511585,1.74791 -1.108432,-1.66265 -0.980533,1.44949 -1.023167,-0.89527 -0.255791,1.40685 -1.961071,-0.59684 -0.810006,1.66264 2.088965,0.0853 -1.278959,1.91844 2.984236,-0.0853 -8.952709,9.93324 11.638523,-6.139 0.937903,-4.98794 -2.515285,1.83318 2.344756,1.79054 -6.60795,-0.25579 1.53475,7.75901 -7.119536,0.34106 2.771077,-4.73215 6.565318,3.92214 -3.240027,-7.71638 5.67005,1.10843 -2.131597,-1.96107 3.11213,-0.38369 -1.705277,-1.8758 1.151062,0.0853 0.639479,1.23633 -2.813709,-0.1279 2.216862,2.08897 -2.643179,0.17053 1.53475,1.49211 -5.712683,-1.23632 -4.220561,11.0843 -7.460592,2.08897 2.472653,-2.55792 16.072244,-8.39849 -4.60425,5.49952 2.898971,-11.16957 0.554218,-0.25579 -2.515286,11.16957 -3.367923,-13.00275 5.584785,11.97958 -4.646882,-12.4059 1.151062,0.68212 0.511582,-1.3216 1.108432,0.72475 0.46895,-1.23633 1.108432,1.44949 1.065798,-1.02317 -6.735847,1.10843 2.046332,0.72474 -2.0037,0.81001 2.088965,0.29843 -1.406853,1.06579 2.43002,-0.46895 -1.918438,1.91844 3.112132,-0.29842 -2.728444,0.72474 3.0695,0.21316 -5.712682,10.18904 -5.414256,-4.98794 -1.151064,3.36792 -2.898971,-2.08896 -0.724744,5.15846 -1.193694,-4.09267 16.370667,0.42632 2.728444,-5.71268 -0.511582,4.56162 2.046332,-2.17423 -0.341055,-1.23632 -2.472653,3.53845 -11.80905,2.9416 0.213161,3.1974 -2.60055,-1.66265 -0.980535,2.64318 -4.646882,-4.26319 1.406856,2.43002 -2.60055,-1.66265 2.685812,0.34106 0.298426,2.1316 -1.833176,0.17052 -0.08526,-1.44948 1.449485,1.40685 0.127897,-0.72474 -0.937903,0.98053 -0.04263,-1.44948 -0.980536,0.72474 -0.213159,-0.98053 0.852639,0.17052 0.08526,1.32159 0.767374,-0.9379 0.08526,1.02317 -1.449486,-0.34106 v -1.27896 l 2.046333,0.72475 1.875806,1.74791 1.193694,-2.30213 -2.515285,0.81001 -0.426318,-1.70528 3.708979,3.36793 2.984235,-4.60426 4.391092,0.68211 2.984235,-10.18903 5.414259,2.34476 -1.108433,4.22056 2.259494,-2.60055 -0.42632,-0.98054 -4.987936,5.07321 -4.604252,-4.81741 0.341056,7.33269 -1.705277,0.72475 -2.771076,-6.65059 -0.468953,3.36792 -2.685812,-2.0037 -1.108432,2.81371 -1.747909,-2.08896 20.505967,-1.57739 -9.2085,-3.58108 5.0732,-2.1316 -2.856338,-1.0658 1.065797,-1.27895 -2.344756,-0.2558 -0.170529,-1.70527 1.790541,0.55421 3.069503,11.55326 2.088965,-10.48746 1.023165,1.32159 -0.68211,2.55792 -2.856341,-0.0426 0.937903,-3.24003 1.065798,-0.55422 -1.705277,10.70062 1.620015,-5.41426 2.515285,3.36793 1.747909,-1.02317 2.728444,-0.34105 1.0658,-1.10844 h 2.557917 l 0.383686,-0.9379 -2.728444,1.70528 -1.321591,-0.21316 -1.151062,0.76738 -1.961071,0.29842 -1.449485,0.72474 2.088965,-0.51158 1.449488,-0.9379 h 1.662644 l 1.833173,-1.1937 2.387391,0.1279 0.04263,-0.38369 -1.023168,0.29842 -0.213159,-0.72474 16.328035,-9.93324 9.720086,-7.07691 11.681158,-7.50322 7.33269,-5.54215 21.45745,-6.62362 -3.01453,-4.70267 0.24116,6.27023 -5.66732,-3.73802 2.04988,6.14965 -6.63197,-3.13512 0.72349,6.14965 -6.39082,-3.61744 0.84407,6.87314 -3.37627,-2.41163 1.44697,-3.61744 4.94384,3.73802 -1.3264,-6.02907 5.78791,3.01454 -0.48233,-5.42616 6.14965,3.01453 -0.96465,-5.54674 3.49686,3.37628 -1.44698,-5.30558 -6.51139,-3.37628 0.96465,6.39081 -6.75256,-3.8586 1.20582,6.63197 -6.75256,-3.73802 1.20582,7.23488 -3.13512,-1.32639 0.48233,-4.22035 6.02906,3.97918 -1.20581,-7.47604 5.66732,4.22035 -0.24116,-6.63198 5.66733,4.22035 -0.12058,-6.87314 3.01453,2.65279 -0.96465,3.37628 -7.23488,-3.8586 -11.33465,-1.20582 0.84407,6.87314 -5.90849,-3.61744 8.92302,1.9293 0.12058,-6.87314 7.35547,2.77337 -1.08524,-6.63197 7.1143,3.97919 -3.37628,-5.30558 0.36175,6.99371 -7.1143,-3.73802 -0.36174,6.75256 -9.28477,-1.80872 0.60291,5.7879 6.75255,-3.13511 0.72349,-6.99372 1.44698,-7.59663 5.66732,3.97919 0.36175,-3.13512 -3.73803,-1.68814 -0.36174,6.87314 -7.83779,-3.73802 0.72349,7.35546 -8.19953,-2.77337 -0.36175,4.70267 3.01454,1.20582 1.08523,-9.16418 6.75256,4.09976 0.6029,-6.27023 6.5114,3.49686 0.24116,-5.66733 2.53221,4.46152 -10.73174,-2.41163 -4.70268,9.28476 -6.02907,-1.9293 0.84408,-2.41163 -0.60291,-6.87313 7.23488,3.37627 -0.60291,-5.54674 5.54675,3.61744 0.12058,-5.06441 5.7879,3.37627 -1.20581,-2.65279 -3.73802,-1.32639 0.6029,4.58209 -4.94383,-3.73802 0.6029,5.185 -6.02906,-2.41163 -0.12058,5.54674 -7.23489,-2.41162 0.24116,4.46151 3.73803,0.6029 -3.37628,-13.50511 8.19953,4.34093 0.48233,-6.63197 6.14965,3.97918 -0.36175,-4.70267 3.01454,3.97918 -6.14965,-3.73802 0.12058,5.90849 -6.99372,-4.46151 0.60291,6.75255 -7.59663,-3.49686 0.60291,9.16419 -2.29105,-5.06442 4.46151,1.56755 -1.32639,-7.23488 0.72348,-5.185 6.75256,3.01454 1.56756,-4.46151 4.94384,3.49686 -0.36175,-2.41163 -2.65279,-1.44697 -0.72349,3.8586 -5.06441,-3.01453 -1.56756,5.42616 -7.1143,-3.49686 1.20581,6.02907 -6.511393,-0.12059 5.185003,3.37628 -3.255701,-6.99372 1.567558,-7.59662 7.596623,3.49686 0.24117,-4.70268 4.94383,4.09977 0.36175,-3.13512 2.65279,2.65279 -11.45523,-2.89395 -0.24116,5.185 -8.802448,-2.41163 -0.602906,7.1143 3.135117,-0.48232 v -8.68186 l -5.908487,-0.36175 1.929302,3.37628 -5.064419,1.3264 4.099766,3.13511 -4.099766,-1.20581 3.979185,-1.32639 -3.738023,-3.2557 5.667325,0.24116 0.723487,-3.8586 4.099767,1.80872 1.326395,-2.89395 4.220345,2.04988 1.44698,-2.77337 3.49686,2.89395 v -2.65279 l 1.44698,2.04988 -3.2557,-2.17046 -1.20581,2.04988 -4.09977,-1.9293 -0.72349,2.89395 -3.979184,-1.68814 -1.085233,2.65279 -3.255695,-1.80872 -8.923023,-0.24116 3.858604,3.73802 -4.099766,0.84407 3.738022,1.44698 -0.964649,0.84407 -3.014536,-3.37628 5.667325,-1.44698 -2.170465,-4.22034 7.596624,1.32639 -0.844068,-2.53221 4.943835,1.56756 -0.120581,-2.29104 3.85861,1.56755 0.6029,-1.68814 3.37628,2.04989 -5.66732,-1.9293 -1.326399,2.65278 -3.979185,-2.04988 -0.120582,2.89395 -4.099766,-1.9293 0.361744,2.53221 -5.546744,-0.96465 1.929302,3.73802 -4.340929,-0.96465 3.617442,5.66732 -8.199533,-7.83778 5.908487,-0.36175 -0.120581,-3.37627 5.184997,1.08523 2.411627,-2.65279 4.099766,1.56756 1.567559,-1.3264 2.170465,0.96465 -2.170465,0.36175 -3.135114,-1.56756 -2.291046,2.29104 -4.461512,-1.08523 -1.085231,2.77337 -5.064419,-0.72349 1.205815,4.22035 -4.46151,1.56756 1.929302,1.44698 1.688139,-0.48233 -2.049883,-6.02907 59.446614,38.46545 -5.185,47.50906 -4.22035,-5.185 -1.32639,1.80872 2.41162,3.49686 1.80872,-4.46151 4.09977,2.41163 -0.12058,-3.8586 3.73802,1.20581 0.24116,-4.09977 3.37628,0.72349 0.12058,-4.09977 2.41163,0.12059 0.48233,-3.2557 -1.68814,1.80872 0.12058,3.73802 -3.61744,0.24117 0.24116,3.49685 -3.49686,-1.08523 0.12058,3.97919 -3.49686,-2.17047 -2.53221,5.66733 -1.56755,-5.66733 1.80872,-4.70267 4.82325,3.61744 v -5.78791 l 4.09977,2.04989 0.12058,-5.66732 3.73802,0.96465 0.12058,-4.46151 2.17047,1.56755 -0.84407,-3.49686 -0.48233,4.94384 -2.65279,-1.08523 -0.48232,5.7879 -4.09977,-2.17046 0.36174,5.42616 -4.34093,-2.17047 -1.08523,5.42617 -4.46151,-4.94384 -1.32639,0.96465 -0.12058,-2.17046 1.68814,5.7879 1.44697,-4.82325 4.09977,3.97918 1.32639,-5.54674 -3.49686,-3.73802 -1.20581,5.30558 -3.13512,-5.30558 -0.96465,2.65279 2.41163,2.53221 1.44698,-5.185 3.01453,4.58209 1.80872,-5.54674 3.73802,1.9293 0.60291,-5.30558 3.49686,1.08523 -0.36174,-4.82325 2.29104,1.56755 -0.36174,-4.34093 1.32639,2.41163 -2.04988,-0.24116 0.36174,3.8586 -3.97918,-1.32639 0.24116,5.54674 -3.2557,-1.9293 -0.6029,5.42616 -3.85861,-3.2557 1.20582,-7.1143 4.70267,3.01454 0.84407,-6.75256 4.46151,1.44698 -0.60291,-6.02907 1.44698,3.97918 -3.61744,-1.44697 0.12058,6.39081 -4.58209,-2.04988 -0.60291,6.99372 -4.94383,-3.61745 -1.3264,5.30559 -3.8586,-5.06442 -0.48233,1.32639 2.53221,3.13512 1.56756,-4.58209 2.65279,5.30558 0.96465,-6.99372 -6.14965,-4.82326 -2.41163,5.66733 3.73803,0.72348 2.5322,-8.07895 6.63198,3.61744 0.6029,-8.68185 4.34094,2.65279 -0.24117,-5.78791 1.20582,4.70267 -3.73803,-2.17046 0.12058,7.23488 -4.82325,-3.73802 -0.60291,7.83779 -5.66732,-4.70267 -3.13512,7.35546 -0.84407,-5.78791 6.14965,4.94384 2.04989,-8.80244 -0.72349,-6.87314 6.02907,2.41163 -0.36175,-6.39081 4.22035,3.97918 -2.29105,-4.82325 0.12059,6.63197 -5.42616,-3.13511 0.12058,7.35546 -6.5114,-3.61744 -0.36174,6.87314 -5.42616,-4.09977 -0.36175,3.13511 3.73803,1.92931 0.24116,-7.1143 4.82325,4.70267 v -6.39081 l 5.66733,2.41162 0.6029,-6.87313 -5.185,-4.22035 1.3264,6.87314 -6.27023,-4.22035 0.72349,6.99372 -6.63198,-4.46151 -0.36174,7.23488 2.89395,-7.59663 6.63198,3.61745 -0.60291,-6.87314 5.42616,3.73802 -0.48232,-6.75256 4.58209,3.85861 -0.36175,-3.2557 -3.13511,-1.68814 -10.97291,13.86686 -5.7879,-2.89395 10.73174,-25.08093 -29.7836,-3.49686 0.84407,-23.63394 -19.413599,0.36174 1.446977,9.88767 32.918712,-1.68814 -6.87314,28.21604 25.32209,-1.44697 -10.85232,25.44266 4.94383,-35.20976 -33.762781,-6.99371 -2.773371,-19.89593 19.172442,7.23488 -3.01454,28.33662 32.07464,11.57581 -3.73802,39.55069 -9.16418,-11.93756 12.54046,-28.81894 -32.91871,-13.38453 7.71721,-23.2722 -38.344877,-2.77338 5.184997,3.61745 27.13081,-3.97919 9.76709,44.85627 -3.73802,-3.73803 13.14336,-21.58406 -24.71918,2.65279 5.185,-22.18697 9.52593,6.63197 -4.58209,27.73372 -4.70267,-4.82326 11.57581,-21.10173 -27.733718,3.25569 2.532211,-18.32836 17.122557,8.19953 -6.75256,22.06639 -17.243137,-29.54244 33.521617,17.12256 14.71093,69.8166 -12.17872,-23.99569 19.29302,17.36372 -1.9293,-31.83348 -27.97488,-7.95837 0.12058,-31.23057 -34.486267,-6.51139 3.738023,8.32011 35.692084,1.9293 -2.77337,34.96859 26.28673,2.29105 -8.19953,38.22429 -6.14965,-6.99372 15.555,-28.69836 -24.83976,-1.68814 4.58209,-33.15987 -29.06011,0.72348 -6.752555,-18.93127 17.604875,3.37628 -15.31383,10.73174 22.6693,-5.06442 -14.952092,13.38453 -1.808721,1.80872 -11.214068,15.43442 -20.016504,26.40732 -0.602908,0.18087 -0.301453,1.50727 -1.205813,0.24116 0.06029,1.08523 -1.205815,0.24116 0.120582,0.72349 -1.627849,1.50727 0.06029,0.30145 h -0.422037 l 0.72349,-0.42203 1.02494,-1.74843 0.72349,-0.0603 V 177.323 l 1.085231,-0.30146 0.120581,-1.32639 1.386687,-0.48233 0.120581,-0.66319 0.602906,-0.24117 -0.422034,0.54262 -1.266106,0.30145 -0.241162,1.50727 -1.02494,0.24116 -0.120582,0.96465 -0.78378,0.12058 0.361744,0.36175 2.713082,-4.46151 7.355462,-16.03732 8.320113,-19.65477 5.787906,-17.12255 6.993718,-13.50511 -4.099766,15.67558 -9.284764,16.27848 -14.952088,34.48627 10.249416,-38.34487 2.77337,-17.84604 8.681858,-8.07895 16.881385,1.9293 -10.249411,14.71092 -5.305578,8.32012 -22.789877,39.4301 28.818945,-19.29302 15.554991,-9.88767 14.34918,-18.20778 -19.65476,11.57581 -19.293015,17.36371 -20.257666,18.93128 28.698361,-28.93953 9.0436,-10.24942 10.85232,-18.20778 -19.17243,10.37 -10.852322,18.93127 -18.69011,27.97488 17.001971,-45.45918 1.567558,-11.57581 35.692083,6.51139 -4.34093,27.61314 22.66929,-2.65279 -16.27848,16.64022 -21.82523,10.12884 -20.257664,9.0436 -6.873137,2.89395 13.625695,-2.53221 19.534176,-4.34092 14.71093,-2.77338 c 0,0 27.73371,-5.42616 27.1308,-5.06441 -0.60291,0.36174 -18.93127,18.56953 -18.93127,18.56953 l -10.73174,-0.36175 -23.995691,-2.04988 -20.739994,-1.3264 34.365685,4.09977 21.3429,2.65279 2.89395,3.13512 15.19325,-15.67558 -19.53418,-0.72349 -27.61313,3.37628 -26.769056,2.77337 38.344866,-1.44698 17.00198,-1.44697"
       id="path920"
       inkscape:connector-curvature="0" />
    <path
       style="fill:none;stroke:#000000;stroke-width:0.30000001;stroke-linecap:round;stroke-linejoin:round;stroke-miterlimit:4;stroke-dasharray:none;stroke-opacity:1"
       d="m 88.024392,146.15271 12.419878,-15.79615 46.30324,38.46545 -20.49883,5.30558 -20.61941,4.70267 -27.251385,7.71721"
       id="path922"
       inkscape:connector-curvature="0" />
    <path
       style="fill:none;stroke:#000000;stroke-width:0.30000001;stroke-linecap:round;stroke-linejoin:round;stroke-miterlimit:4;stroke-dasharray:none;stroke-opacity:1"
       d="m 117.20508,156.16097 -15.19325,12.2993"
       id="path924"
       inkscape:connector-curvature="0" />
    <path
       style="fill:none;stroke:#000000;stroke-width:0.30000001;stroke-linecap:round;stroke-linejoin:round;stroke-miterlimit:4;stroke-dasharray:none;stroke-opacity:1"
       d="m 110.81427,146.03213 -17.484297,11.33465 -2.291045,0.84407"
       id="path926"
       inkscape:connector-curvature="0" />
    <path
       style="fill:none;stroke:#000000;stroke-width:0.30000001;stroke-linecap:round;stroke-linejoin:round;stroke-miterlimit:4;stroke-dasharray:none;stroke-opacity:1"
       d="m 70.342714,191.35803 0.682112,-1.44949 0.596847,-0.76737 -1.278959,0.85263 2.1316,-1.79054"
       id="path928"
       inkscape:connector-curvature="0" />
    <path
       style="fill:none;stroke:#000000;stroke-width:0.30000001;stroke-linecap:round;stroke-linejoin:round;stroke-miterlimit:4;stroke-dasharray:none;stroke-opacity:1"
       d="m 59.94052,182.23479 1.023168,-0.76737 0.255791,-0.93791"
       id="path930"
       inkscape:connector-curvature="0" />
  </g>
</svg>
