<?xml version="1.0" encoding="UTF-8" standalone="no"?>
<!-- Created with Inkscape (http://www.inkscape.org/) -->

<svg
   xmlns:dc="http://purl.org/dc/elements/1.1/"
   xmlns:cc="http://creativecommons.org/ns#"
   xmlns:rdf="http://www.w3.org/1999/02/22-rdf-syntax-ns#"
   xmlns:svg="http://www.w3.org/2000/svg"
   xmlns="http://www.w3.org/2000/svg"
   xmlns:sodipodi="http://sodipodi.sourceforge.net/DTD/sodipodi-0.dtd"
   xmlns:inkscape="http://www.inkscape.org/namespaces/inkscape"
   width="196.7597mm"
   height="169.91115mm"
   viewBox="0 0 196.7597 169.91115"
   version="1.1"
   id="svg8"
   inkscape:version="0.92.4 5da689c313, 2019-01-14"
   sodipodi:docname="presentation_cap2_eight.svg">
  <defs
     id="defs2">
    <filter
       inkscape:collect="always"
       style="color-interpolation-filters:sRGB"
       id="filter930"
       x="-0.085294314"
       width="1.1705886"
       y="-0.087425239"
       height="1.1748505">
      <feGaussianBlur
         inkscape:collect="always"
         stdDeviation="1.4684195"
         id="feGaussianBlur932" />
    </filter>
    <filter
       inkscape:collect="always"
       style="color-interpolation-filters:sRGB"
       id="filter934"
       x="-0.026587745"
       width="1.0531754"
       y="-0.023558553"
       height="1.0471171">
      <feGaussianBlur
         inkscape:collect="always"
         stdDeviation="1.4684195"
         id="feGaussianBlur936" />
    </filter>
    <filter
       inkscape:collect="always"
       style="color-interpolation-filters:sRGB"
       id="filter938"
       x="-0.20321825"
       width="1.4064364"
       y="-0.13235801"
       height="1.264716">
      <feGaussianBlur
         inkscape:collect="always"
         stdDeviation="1.4684195"
         id="feGaussianBlur940" />
    </filter>
    <filter
       inkscape:collect="always"
       style="color-interpolation-filters:sRGB"
       id="filter1012"
       x="-0.054987706"
       width="1.1099755"
       y="-0.17914484"
       height="1.3582897">
      <feGaussianBlur
         inkscape:collect="always"
         stdDeviation="1.3528818"
         id="feGaussianBlur1014" />
    </filter>
    <filter
       inkscape:collect="always"
       style="color-interpolation-filters:sRGB"
       id="filter1016"
       x="-0.060775902"
       width="1.1215518"
       y="-0.14431116"
       height="1.2886223">
      <feGaussianBlur
         inkscape:collect="always"
         stdDeviation="1.3528818"
         id="feGaussianBlur1018" />
    </filter>
    <filter
       inkscape:collect="always"
       style="color-interpolation-filters:sRGB"
       id="filter1020"
       x="-0.064954221"
       width="1.1299084"
       y="-0.25975946"
       height="1.5195189">
      <feGaussianBlur
         inkscape:collect="always"
         stdDeviation="1.3528818"
         id="feGaussianBlur1022" />
    </filter>
    <filter
       inkscape:collect="always"
       style="color-interpolation-filters:sRGB"
       id="filter1024"
       x="-0.097127885"
       width="1.1942558"
       y="-0.24739029"
       height="1.4947805">
      <feGaussianBlur
         inkscape:collect="always"
         stdDeviation="1.3528818"
         id="feGaussianBlur1026" />
    </filter>
    <filter
       inkscape:collect="always"
       style="color-interpolation-filters:sRGB"
       id="filter1028"
       x="-0.33524755"
       width="1.6704952"
       y="-0.43293348"
       height="1.865867">
      <feGaussianBlur
         inkscape:collect="always"
         stdDeviation="1.3528818"
         id="feGaussianBlur1030" />
    </filter>
    <filter
       inkscape:collect="always"
       style="color-interpolation-filters:sRGB"
       id="filter1032"
       x="-0.053023882"
       width="1.1060477"
       y="-0.17317311"
       height="1.3463463">
      <feGaussianBlur
         inkscape:collect="always"
         stdDeviation="1.3528818"
         id="feGaussianBlur1034" />
    </filter>
    <filter
       inkscape:collect="always"
       style="color-interpolation-filters:sRGB"
       id="filter1036"
       x="-0.10939651"
       width="1.218793"
       y="-0.35828912"
       height="1.7165782">
      <feGaussianBlur
         inkscape:collect="always"
         stdDeviation="1.3528818"
         id="feGaussianBlur1038" />
    </filter>
    <filter
       inkscape:collect="always"
       style="color-interpolation-filters:sRGB"
       id="filter1040"
       x="-0.09447889"
       width="1.1889578"
       y="-0.1385386"
       height="1.2770772">
      <feGaussianBlur
         inkscape:collect="always"
         stdDeviation="1.3528818"
         id="feGaussianBlur1042" />
    </filter>
    <filter
       inkscape:collect="always"
       style="color-interpolation-filters:sRGB"
       id="filter1044"
       x="-0.099929623"
       width="1.1998591"
       y="-0.358289"
       height="1.716578">
      <feGaussianBlur
         inkscape:collect="always"
         stdDeviation="1.3528818"
         id="feGaussianBlur1046" />
    </filter>
    <filter
       inkscape:collect="always"
       style="color-interpolation-filters:sRGB"
       id="filter1048"
       x="-0.11056034"
       width="1.2211207"
       y="-0.31486073"
       height="1.6297215">
      <feGaussianBlur
         inkscape:collect="always"
         stdDeviation="1.3528818"
         id="feGaussianBlur1050" />
    </filter>
  </defs>
  <sodipodi:namedview
     id="base"
     pagecolor="#ffffff"
     bordercolor="#666666"
     borderopacity="1.0"
     inkscape:pageopacity="0.0"
     inkscape:pageshadow="2"
     inkscape:zoom="0.47641546"
     inkscape:cx="443.2218"
     inkscape:cy="313.00521"
     inkscape:document-units="mm"
     inkscape:current-layer="layer5"
     showgrid="false"
     inkscape:window-width="1920"
     inkscape:window-height="1039"
     inkscape:window-x="0"
     inkscape:window-y="0"
     inkscape:window-maximized="1"
     inkscape:snap-others="false"
     inkscape:object-nodes="false"
     inkscape:snap-nodes="false"
     fit-margin-top="0"
     fit-margin-left="0"
     fit-margin-right="0"
     fit-margin-bottom="0" />
  <metadata
     id="metadata5">
    <rdf:RDF>
      <cc:Work
         rdf:about="">
        <dc:format>image/svg+xml</dc:format>
        <dc:type
           rdf:resource="http://purl.org/dc/dcmitype/StillImage" />
        <dc:title />
      </cc:Work>
    </rdf:RDF>
  </metadata>
  <g
     inkscape:groupmode="layer"
     id="layer5"
     inkscape:label="cloudFade"
     transform="translate(-4.7869613,-55.351555)">
    <path
       inkscape:connector-curvature="0"
       id="path942"
       d="M 8.3463034,118.28445 56.459506,102.65985 67.39434,100.15992"
       style="fill:none;stroke:#000000;stroke-width:0.30000001;stroke-linecap:round;stroke-linejoin:round;stroke-miterlimit:4;stroke-dasharray:none;stroke-opacity:1;filter:url(#filter1012)" />
    <path
       inkscape:connector-curvature="0"
       id="path944"
       d="M 9.9084224,81.097883 27.0917,71.723119 l 18.432982,-3.749896 17.808142,-4.999888 -23.431755,0.937491 8.435414,-3.749919 -5.936028,-1.562436 -2.499386,6.249824 -12.496943,3.124928 -6.248477,2.812428 -6.248454,-1.56247"
       style="fill:none;stroke:#000000;stroke-width:0.30000001;stroke-linecap:round;stroke-linejoin:round;stroke-miterlimit:4;stroke-dasharray:none;stroke-opacity:1;filter:url(#filter1016)" />
    <path
       inkscape:connector-curvature="0"
       id="path946"
       d="m 75.517329,75.473038 16.558438,-7.812293 33.429323,-4.68741"
       style="fill:none;stroke:#000000;stroke-width:0.30000001;stroke-linecap:round;stroke-linejoin:round;stroke-miterlimit:4;stroke-dasharray:none;stroke-opacity:1;filter:url(#filter1020)" />
    <path
       inkscape:connector-curvature="0"
       id="path948"
       d="m 154.56048,84.84779 18.12053,-11.249711 15.30876,-1.87496 -13.43421,6.874825"
       style="fill:none;stroke:#000000;stroke-width:0.30000001;stroke-linecap:round;stroke-linejoin:round;stroke-miterlimit:4;stroke-dasharray:none;stroke-opacity:1;filter:url(#filter1024)" />
    <path
       inkscape:connector-curvature="0"
       id="path950"
       d="m 150.49896,80.785393 5.3112,-5.624844 4.37393,-1.87496 -2.81181,3.124906"
       style="fill:none;stroke:#000000;stroke-width:0.30000001;stroke-linecap:round;stroke-linejoin:round;stroke-miterlimit:4;stroke-dasharray:none;stroke-opacity:1;filter:url(#filter1028)" />
    <path
       inkscape:connector-curvature="0"
       id="path952"
       d="M 8.0338774,138.90894 41.775614,125.47178 69.268852,120.1594"
       style="fill:none;stroke:#000000;stroke-width:0.30000001;stroke-linecap:round;stroke-linejoin:round;stroke-miterlimit:4;stroke-dasharray:none;stroke-opacity:1;filter:url(#filter1032)" />
    <path
       inkscape:connector-curvature="0"
       id="path954"
       d="m 32.715313,123.28434 12.809369,-3.12494 16.870886,-5.93734"
       style="fill:none;stroke:#000000;stroke-width:0.30000001;stroke-linecap:round;stroke-linejoin:round;stroke-miterlimit:4;stroke-dasharray:none;stroke-opacity:1;filter:url(#filter1036)" />
    <path
       inkscape:connector-curvature="0"
       id="path956"
       d="m 29.591086,102.03485 28.118101,-14.062142 6.248477,-5.624845 -11.87209,2.499927 5.311199,-6.249846"
       style="fill:none;stroke:#000000;stroke-width:0.30000001;stroke-linecap:round;stroke-linejoin:round;stroke-miterlimit:4;stroke-dasharray:none;stroke-opacity:1;filter:url(#filter1040)" />
    <path
       inkscape:connector-curvature="0"
       id="path958"
       d="m 165.80773,107.97222 32.49203,-9.062283"
       style="fill:none;stroke:#000000;stroke-width:0.30000001;stroke-linecap:round;stroke-linejoin:round;stroke-miterlimit:4;stroke-dasharray:none;stroke-opacity:1;filter:url(#filter1044)" />
    <path
       inkscape:connector-curvature="0"
       id="path960"
       d="m 150.49896,122.34684 29.36782,-10.31223"
       style="fill:none;stroke:#000000;stroke-width:0.30000001;stroke-linecap:round;stroke-linejoin:round;stroke-miterlimit:4;stroke-dasharray:none;stroke-opacity:1;filter:url(#filter1048)" />
    <text
       xml:space="preserve"
       style="font-style:normal;font-variant:normal;font-weight:bold;font-stretch:normal;font-size:42.33333206px;line-height:1.25;font-family:Hack;-inkscape-font-specification:'Hack Bold';letter-spacing:0px;word-spacing:0px;fill:#000000;fill-opacity:1;stroke:none;stroke-width:0.26458332"
       x="162.50993"
       y="178.61224"
       id="text869"><tspan
         sodipodi:role="line"
         id="tspan867"
         x="162.50993"
         y="178.61224"
         style="font-size:14.11111069px;stroke-width:0.26458332">LwC</tspan></text>
  </g>
  <g
     inkscape:groupmode="layer"
     id="layer3"
     inkscape:label="cloud"
     transform="translate(-4.7869613,-55.351555)">
    <path
       style="fill:none;stroke:#000000;stroke-width:0.30000001;stroke-linecap:butt;stroke-linejoin:miter;stroke-miterlimit:4;stroke-dasharray:none;stroke-opacity:1"
       d="M 8.3463034,118.28445 56.459506,102.65985 67.39434,100.15992"
       id="path885"
       inkscape:connector-curvature="0" />
    <path
       style="fill:none;stroke:#000000;stroke-width:0.30000001;stroke-linecap:butt;stroke-linejoin:miter;stroke-miterlimit:4;stroke-dasharray:none;stroke-opacity:1"
       d="M 9.9084224,81.097883 27.0917,71.723119 l 18.432982,-3.749896 17.808142,-4.999888 -23.431755,0.937491 8.435414,-3.749919 -5.936028,-1.562436 -2.499386,6.249824 -12.496943,3.124928 -6.248477,2.812428 -6.248454,-1.56247"
       id="path887"
       inkscape:connector-curvature="0" />
    <path
       style="fill:none;stroke:#000000;stroke-width:0.30000001;stroke-linecap:butt;stroke-linejoin:miter;stroke-miterlimit:4;stroke-dasharray:none;stroke-opacity:1"
       d="m 75.517329,75.473038 16.558438,-7.812293 33.429323,-4.68741"
       id="path889"
       inkscape:connector-curvature="0" />
    <path
       style="fill:none;stroke:#000000;stroke-width:0.30000001;stroke-linecap:butt;stroke-linejoin:miter;stroke-miterlimit:4;stroke-dasharray:none;stroke-opacity:1"
       d="m 154.56048,84.84779 18.12053,-11.249711 15.30876,-1.87496 -13.43421,6.874825"
       id="path891"
       inkscape:connector-curvature="0" />
    <path
       style="fill:none;stroke:#000000;stroke-width:0.30000001;stroke-linecap:butt;stroke-linejoin:miter;stroke-miterlimit:4;stroke-dasharray:none;stroke-opacity:1"
       d="m 150.49896,80.785393 5.3112,-5.624844 4.37393,-1.87496 -2.81181,3.124906"
       id="path893"
       inkscape:connector-curvature="0" />
    <path
       style="fill:none;stroke:#000000;stroke-width:0.30000001;stroke-linecap:butt;stroke-linejoin:miter;stroke-miterlimit:4;stroke-dasharray:none;stroke-opacity:1"
       d="M 8.0338774,138.90894 41.775614,125.47178 69.268852,120.1594"
       id="path895"
       inkscape:connector-curvature="0" />
    <path
       style="fill:none;stroke:#000000;stroke-width:0.30000001;stroke-linecap:butt;stroke-linejoin:miter;stroke-miterlimit:4;stroke-dasharray:none;stroke-opacity:1"
       d="m 32.715313,123.28434 12.809369,-3.12494 16.870886,-5.93734"
       id="path897"
       inkscape:connector-curvature="0" />
    <path
       style="fill:none;stroke:#000000;stroke-width:0.30000001;stroke-linecap:butt;stroke-linejoin:miter;stroke-miterlimit:4;stroke-dasharray:none;stroke-opacity:1"
       d="m 29.591086,102.03485 28.118101,-14.062142 6.248477,-5.624845 -11.87209,2.499927 5.311199,-6.249846"
       id="path899"
       inkscape:connector-curvature="0" />
    <path
       style="fill:none;stroke:#000000;stroke-width:0.30000001;stroke-linecap:butt;stroke-linejoin:miter;stroke-miterlimit:4;stroke-dasharray:none;stroke-opacity:1"
       d="m 165.80773,107.97222 32.49203,-9.062283"
       id="path901"
       inkscape:connector-curvature="0" />
    <path
       style="fill:none;stroke:#000000;stroke-width:0.30000001;stroke-linecap:butt;stroke-linejoin:miter;stroke-miterlimit:4;stroke-dasharray:none;stroke-opacity:1"
       d="m 150.49896,122.34684 29.36782,-10.31223"
       id="path903"
       inkscape:connector-curvature="0" />
  </g>
  <g
     inkscape:groupmode="layer"
     id="layer4"
     inkscape:label="FormFade"
     transform="translate(-4.7869613,-55.351555)">
    <path
       inkscape:connector-curvature="0"
       id="path909"
       d="m 140.81384,154.76791 -0.78107,4.68739 -7.65437,-0.93747 -2.26505,24.37437 8.2792,-3.35928 2.49939,9.92162 8.35732,-7.26545 2.10887,5.78112 3.51476,-4.45303 1.64023,5.31238 1.4059,-1.56246 -1.32782,-3.20305 -2.49938,4.37489 -1.79643,-5.39049 -3.74909,3.35929 -1.24967,-5.70299 -4.37393,3.20305 0.078,-3.28115 2.26505,-0.46873 0.15624,4.53111 3.04614,-3.04681 1.32779,4.92176 3.20235,-2.96867 2.34317,4.68739 2.26507,-2.73432 -1.95264,-1.4062 -2.96802,3.59365 -1.87454,-4.3749 -3.7491,2.3437 -0.70293,-5.23422 -3.43667,1.40619 1.87455,2.49994 2.96801,-2.81243 1.56212,5.07801 3.74907,-3.43743 2.81184,5.31239 1.79642,-1.40623 -3.67097,-3.35929 -3.28044,3.59367 -0.70296,-4.29678 -3.51476,2.26558 -2.88993,-5.078 h 2.34319 l 1.79642,5.78109 8.98216,1.87495 -13.35609,-6.79668 7.57627,2.57806 6.639,2.96867 -5.15499,1.24995 -9.13837,-5.62485 4.0615,-1.32809 -3.04613,7.8123 -6.79522,-1.56245 2.10887,-7.26544 -3.8272,6.79669 -0.078,-7.57791 -3.82717,4.53113 2.34317,-27.03058 7.10762,1.32809 -1.87453,-3.59367 -3.59287,0.78125 1.40591,5.78109 -7.88869,-0.46873 -5.15501,28.90551 4.06151,-4.60925 0.078,4.68738 1.24968,-4.14051 -0.46862,4.29676 -0.23423,-4.84363 -2.34315,4.68738 0.31242,-5.078 -3.98342,4.53114 -1.64021,-2.96867 5.70172,-3.74992 -6.01415,-2.42179 23.58797,-9.7654 -11.63776,14.99964 6.17036,-5.54673 3.12421,10.15598 2.6556,-5.46861 4.29584,4.14052 -12.02832,-2.42183 0.78108,-6.64044 -5.70173,5.15611 4.68635,-16.87457 3.59285,10.8591 9.68515,-1.48433 -1.17158,4.45299 1.87454,-0.23428 -5.77985,-1.40622 1.01538,-8.67165 -18.12056,9.21852 -1.3278,-21.24946 -6.17036,7.73419 6.40469,13.28089 -5.93606,3.74992 5.31119,0.62497 -0.78104,5.07801 2.42126,-4.14052 -0.23422,3.98428 1.87454,-3.59368 2.49939,3.90617 -0.78106,0.93746 0.15624,-4.06238 0.54672,1.17185 -2.03076,2.57804 1.71835,-0.078 0.15623,-3.43742 -2.42127,0.15627 0.70296,2.49993 0.70293,-3.1249 0.23423,4.68737 -1.17159,-4.37488 -7.96681,1.48433 4.76446,-6.71859 -7.65436,-8.04668 16.48032,-8.04666 -1.01538,21.01511 4.76447,-6.24986 0.15624,8.67168 3.43666,-8.51541 1.24969,8.35917 -2.88992,-8.28106 -2.6556,7.73419 -1.40592,-9.37477 -6.17036,4.84363 2.42129,-25.62435 7.49816,1.0156 -0.54674,-4.29678 -2.96802,-0.23428 1.17159,5.70298 -7.18573,-0.39062 3.28046,4.0624 -5.46744,17.96828 15.69928,-10.93721 -2.57748,8.4373 9.13837,-0.85936 -3.74907,2.89054 3.74907,2.0312 -0.23423,-5.15612 -9.60702,0.70311 1.3278,-9.84349 -14.44959,12.10905 6.7171,-17.10895 4.84256,14.68715 -18.04244,-14.60901 -0.15623,23.59315 9.99753,1.71872 -9.99753,-4.3749 6.7952,-24.29626 -0.23423,19.45263 8.35732,-12.89029 0.078,0.078 -2.96807,18.04625 6.24847,-17.73392 8.04491,5.93733 -0.70296,6.24986 3.67097,0.15626 -1.17158,-3.74991 -9.91945,1.09373 -1.01535,-9.92163 -18.97973,9.8435 -0.078,-6.64045 14.91822,-6.4061 -11.95018,-2.26555 17.88623,27.57742 6.639,-2.65619 -0.23423,5.70299 4.92065,-4.29676 2.10887,5.46861 4.13961,-3.43741 1.01537,3.7499 0.93726,-2.3437 -2.65559,2.81243 -0.85917,-4.84363 -4.29581,3.04681 -2.88992,-4.68739 -3.43664,3.74992 -1.09351,-2.34369 1.40592,-1.64061 2.88992,4.76552 1.40589,-4.06241 0.23423,3.74992 0.93726,-3.67178 0.62484,4.37489 1.64024,-3.82802 0.46864,4.453 1.56211,-3.67178 v 4.37489 l 2.10886,-4.0624 0.46863,4.37489 0.54674,-3.12491 0.85917,1.48433 -3.35855,1.17185 -11.55967,-4.60927 5.54552,-1.17185 6.48277,2.57807 2.03076,3.67178 -3.12423,0.078 -8.27922,-5.78108 -2.34318,2.18744 2.34318,1.56247 8.04489,-2.73431 3.67098,3.67178 -14.8401,-7.49981 -24.68146,-11.09347 0.31242,-6.24986 13.82475,-6.01546 5.31119,-7.8123 -4.92068,1.32809 -13.35609,25.62435 3.04613,6.64045 1.5621,-27.81179 5.70173,22.65568 12.73125,-13.04655 2.26509,9.60915 3.51476,-2.81245 -2.49939,-4.29676 -7.88869,4.06241 -12.96558,-16.79646 7.6544,2.49993 6.17035,-6.48421 -19.76078,12.03095 9.45079,14.84336 8.74786,-15.07774"
       style="fill:none;stroke:#000000;stroke-width:0.80000001;stroke-linecap:round;stroke-linejoin:round;stroke-miterlimit:4;stroke-dasharray:none;stroke-opacity:1;filter:url(#filter930)" />
    <path
       sodipodi:nodetypes="cccccccccccccccccccccccccccccccccccccccccccccccccccccccccccccccccccccccccccccccccccccccccc"
       inkscape:connector-curvature="0"
       id="path911"
       d="m 102.18649,221.73849 0.44184,-15.90949 -14.138682,14.36273 -3.976502,-19.44494 -15.022319,13.47889 -4.639254,-19.22398 -1.988257,-2.6516 -3.976501,8.83862 6.406574,11.93213 9.278519,-15.02565 5.964736,19.66591 14.359613,-14.36276 1.32549,17.23531 11.929493,-12.59504 -3.75556,-9.50148 -6.848433,5.52411 -3.75558,-8.39666 -5.302019,5.30316 -2.20917,-7.73377 -6.406575,5.08219 -4.197404,-8.61766 -6.185672,6.62897 -5.081093,-10.60635 -1.988256,7.29186 9.720358,-5.0822 2.650986,9.50152 7.290252,-5.08221 2.871911,7.73377 4.639254,-5.7451 3.534688,7.95478 5.08106,-5.74512 4.418343,7.7338 9.49941,-2.43061 -0.221,-9.50152 -6.18567,6.40799 -1.98827,-8.17571 -6.627473,5.96605 -0.88368,-8.83859 -4.639254,7.95475 -0.441839,-10.16441 -5.964758,6.62894 -0.441816,-8.8386 -4.418341,7.51282 -1.988268,-9.05958 -8.836647,5.0822 -5.081092,-9.05958 3.755599,-0.88384 -2.20917,9.05958 6.185672,-6.18703 1.988234,9.50151 7.73209,-6.18706 0.662752,9.28056 5.301995,-7.07087 -0.441815,9.05954 6.185648,-7.51281 1.54642,9.05958 6.406573,-6.62894 0.22102,8.39666 6.40657,-5.0822 1.54643,7.73379 5.08108,-6.40798 -1.98827,-8.17574 -6.84841,4.64027 -1.98823,-8.1757 -4.860183,6.18703 -2.20917,-8.39669 -6.848424,5.0822 -1.104579,-7.95475 -5.522897,5.96605 -1.988268,-8.8386 -5.964736,6.18704 -1.104614,-9.28057 -4.639242,7.29186 -0.662753,-9.05954 -3.313749,5.96604 -0.883655,-6.40798 2.430084,6.62894 4.418341,-4.64027 1.546395,8.61764 5.081081,-5.96605 1.54643,8.61765 6.406574,-6.18704 1.104614,7.51282 5.964738,-4.86122 1.54642,7.51281 6.406583,-5.0822 1.98826,8.61764 5.96474,-5.52414 1.54642,7.07091 8.71778,-4.4224 -2.75301,-7.06779 -4.86016,4.64026 -0.66275,-9.05958 -4.19743,7.29186 -0.44181,-8.61764 -7.732093,6.84992 -0.88368,-10.38536 -5.74383,6.84993 -3.092824,-8.61768 -5.302018,5.30319 -2.20917,-8.83863 -4.418318,5.52415 -1.767331,-8.83863 -4.860179,7.7338 -2.209171,-9.05958 -3.313749,7.07087 -0.662753,-7.29182 3.976502,8.61764 4.197416,-7.7338 1.988256,9.50152 5.081093,-5.7451 0.221005,7.29186 5.52292,-4.41931 3.7556,8.1757 4.639241,-4.64026 2.20917,8.39669 7.290263,-7.7338 0.66274,9.72247 5.52293,-6.187 0.22101,9.94342 6.40657,-7.29186 -2.43007,-10.16441 -5.52293,5.96608 -2.20916,-7.07091 -5.74383,4.86125 -1.767333,-9.50151 -5.08109,7.29186 -2.871915,-10.38536 -6.406575,7.07087 v -8.39669 l -5.743833,5.7451 -0.883677,-8.17571 -6.185673,5.7451 -1.325493,-8.61764 -4.41834,7.07087 1.325493,-7.07087 1.104579,8.39669 6.185672,-6.62897 0.441839,7.95475 5.96477,-4.86122 0.441816,6.84992 6.627511,-5.0822 1.325481,8.61764 5.522935,-5.08221 1.98825,5.96605 6.627493,-3.75639 1.76733,7.95475 4.63927,-4.19836 2.65098,6.18703 4.86018,-5.30315 -1.76733,-9.94346 -7.953,7.29186 -0.22101,-10.16439 -5.96473,6.84991 -1.767333,-9.28053 -6.18568,7.0709 -1.32551,-9.94345 -6.62749,7.29186 -1.10458,-9.94346 -5.302017,7.07091 -1.546396,-8.17572 -4.860179,5.52413 -2.651009,-8.39668 -1.546406,7.51283 6.406586,-6.408 1.546418,8.61764 5.964735,-6.18701 v 9.28053 l 6.848425,-7.0709 v 9.05957 l 7.069353,-5.96604 0.44183,9.05957 6.185683,-5.96606 1.98823,8.39667 7.06932,-7.07087 2.20917,9.05958 5.52292,-6.18703 -0.22101,-8.61765 -6.18566,7.07088 -1.98827,-9.94342 -6.62749,6.40798 -0.66276,-7.95475 -8.394823,5.0822 -0.44184,-8.17572 -7.732088,5.30318 -1.546429,-9.05958 -6.18565,6.62895 -0.662763,-9.5015 -5.964736,6.40799 -0.221016,-7.51282 -1.988234,6.84993 5.52292,-5.7451 0.441838,8.61764 6.406586,-6.18703 0.441839,8.39669 6.848413,-5.0822 0.662741,7.07087 7.290259,-4.19833 1.988243,8.83861 6.84841,-5.74511 2.87192,7.07091 6.62751,-5.30318 0.88368,8.17573 4.1974,-6.18703 0.22102,-9.28054 -9.2785,8.8386 -1.10459,-12.15308 -6.40658,8.61764 -1.10457,-11.04827 -7.069353,7.29186 -0.88365,-10.16441 -7.953008,6.84992 -0.441838,-10.60632 -6.185672,7.51281 -1.325493,-7.73379 -5.743834,5.30318 -0.441839,-7.0709 -1.988256,6.62896 5.964758,-5.74509 0.221017,7.95475 5.743822,-5.52413 0.662775,7.73379 7.953008,-6.84993 -0.883682,8.8386 7.953002,-4.86122 1.325503,9.28053 7.51118,-7.07087 0.66274,10.16438 9.2785,-7.07088 1.54641,8.61764 7.06933,-6.40799 0.88368,5.7451 4.41834,-3.97738 -0.88368,4.19834 -2.43007,-5.30317 6.6275,-6.40798 -11.70859,5.30316 -1.98826,-9.50151 -5.96475,6.40801 -2.43007,-9.28056 -6.18567,6.40801 -1.32552,-9.72249 -6.406573,7.07089 -1.76733,-9.05958 -7.732101,5.52415 -1.10458,-7.73379 -5.743833,6.40798 -2.20917,-9.28053 -5.743834,6.84991 1.325516,-7.95474 3.092825,8.39668 6.848424,-5.52413 0.883677,8.39668 7.290226,-5.52413 -0.44181,7.73379 8.394843,-5.30318 1.10455,8.61766 7.06935,-6.18703 1.10458,9.05958 7.51117,-5.96607 1.10459,8.17572 7.51115,-5.74511 3.7556,8.61766 4.86018,-7.29186 -1.10459,-9.05958 -11.48768,7.51281 -2.20917,-10.38536 -5.96475,7.95476 -1.54642,-10.8273 -6.40657,7.29186 -1.32549,-9.05958 -6.18567,5.96606 -2.430113,-9.72248 -6.627474,7.51282 -1.988268,-9.28053 -6.406574,6.40798 -3.092848,-9.05958 -1.767331,6.40799 7.73209,-4.19833 2.20917,7.51281 5.522915,-5.30316 2.20915,7.95476 6.185673,-5.74511 2.43011,8.17572 7.51115,-6.84993 0.88365,8.83862 4.86018,-4.86124 2.65101,9.05958 7.51117,-6.408 5.08108,10.38536 5.08109,-7.95474 -1.54643,-9.72247 -5.08108,7.95474 -2.43007,-9.5015 -4.19744,7.51283 -1.98823,-9.72249 -6.40659,7.51284 -0.66274,-9.7225 -6.40661,6.40801 -3.75556,-9.94345 -5.30202,7.51284 -3.976503,-11.04827 -5.08108,8.39669 -1.988234,-9.94346 -6.406609,8.17574 -1.767331,-9.72247 -2.209171,8.39665 6.406609,-7.51281 2.871911,10.38536 4.639245,-7.51281 2.65101,10.16441 6.185673,-7.51282 2.87192,9.28053 7.51115,-6.62894 1.98825,9.28054 6.40659,-6.62897 0.66275,8.83862 5.08109,-5.96607 2.43008,8.39669 4.63924,-6.84993 2.4301,7.95474 5.74383,-6.84991 -2.20917,-7.7338 -4.41834,6.40801 -2.20917,-8.61766 -4.63924,7.07089 -2.65101,-9.05957 -7.953,5.30316 -1.5464,-9.50149 -6.62751,7.29183 -3.09285,-9.72247 -6.406573,6.62897 -1.54643,-8.83862 -6.406572,5.74509 -1.546429,-7.07087 -3.092813,5.52414 -3.313761,-7.291863 -0.441839,7.512813 4.41834,-5.96605 1.988268,6.18703 3.976486,-5.30318 2.43009,8.39669 8.836643,-5.96608 0.44185,7.29186 6.18566,-4.41929 2.20917,8.39666 7.51117,-4.86122 1.54643,7.73377 7.95299,-5.0822 0.66275,8.39668 5.08108,-7.07087 1.3255,7.73376 6.18567,-5.96604 -3.53467,-9.05958 -5.96473,6.84992 -1.98827,-10.60635 -4.1974,8.61765 -3.09285,-11.26921 -6.18567,8.8386 -1.3255,-10.164413 -7.953,6.187033 -2.20916,-9.722473 -5.74383,6.407993 -1.10459,-7.954753 -4.639243,6.849923 -1.98827,-8.175713 -5.081081,7.51282 -1.325493,-7.73377 -3.313749,5.7451 2.20917,1.98867 5.522923,-8.838602 1.54641,9.722475 4.41832,-7.733803 1.54643,8.838633 4.860183,-7.070913 1.10458,7.512823 6.40657,-3.977383 1.76733,7.733803 6.84843,-6.407983 1.54641,9.501503 6.84843,-7.0709 2.65101,11.04828 5.96473,-7.0709 2.20917,7.7338 6.84842,-7.29186 -1.76734,-9.280533 -4.41834,8.175703 -1.54641,-7.954753 -3.53467,6.628973 -1.98823,-9.059583 -5.74383,5.966053 -1.98827,-7.291863 -2.87191,6.408013 -0.44184,-7.733803 -7.06933,5.08221 -2.20917,-7.733796 -2.87191,6.187026 -1.98827,-8.175699 -5.30199,6.187029 -2.20917,-8.396689 -4.860183,7.291859 -0.44181,-7.95475 -6.406601,7.29186 3.976501,-7.954751 0.88368,8.175701 4.63924,-6.849919 0.88368,8.396689 5.301993,-5.524138 1.76733,6.407978 4.19744,-5.303149 1.76733,7.954749 6.40657,-5.7451 0.44184,7.29186 5.08108,-5.74509 1.1046,6.62894 4.86014,-4.86122 0.88369,8.838593 5.30198,-6.407983 1.76733,7.070873 3.7556,-5.745093 3.75559,6.187033 0.66275,-9.059583 -3.31376,-6.628965 -8.17393,7.070905 -1.76733,-10.38536 -9.4994,6.62894 -1.10459,-9.722466 -7.51119,7.512811 -1.10457,-9.280531 -9.72034,6.849919 -2.20917,-9.059579 -5.301993,6.187028 0.44184,-6.849919 -4.19743,6.407992 7.511193,-6.407992 -1.104593,6.849919 8.836653,-4.419307 2.20917,7.954749 7.51117,-6.187028 1.10458,9.059578 9.49943,-7.291835 0.66274,9.943421 9.27852,-5.524136 3.31375,8.396686 6.84842,-7.733795 0.22101,-7.291835 -3.31375,6.407992 -2.20917,-11.490191 -7.73207,10.385361 -1.54643,-12.374057 -7.73209,9.72247 -2.43008,-10.606325 -3.9765,8.396666 -3.53467,-9.72247 -5.96475,7.954749 -1.98824,-8.61764 -4.41834,7.51281 -1.98826,-7.291858 -4.418323,5.303185 8.173913,-5.524137 1.76733,7.733796 5.74383,-7.291858 3.53466,9.059579 4.19744,-8.396688 2.20917,9.72247 6.40657,-8.396688 0.66275,9.722493 8.61575,-7.733797 2.43009,11.711177 6.84843,-8.617674 -0.44184,7.954749 -76.216264,53.031689 -1.325515,-1.32578 -1.54643,0.44191 -1.767331,-1.10482 -1.767321,0.88386 -0.883654,-1.32578 -2.20917,0.22106 -1.767332,-1.54676 -1.988268,0.66289 -2.20917,-1.76772 -1.767332,1.10483 -4.41834,-2.20966 -2.650975,1.10483 -1.325527,-1.10483 -5.301984,-0.88384 -1.325493,-0.66289 -3.976502,-1.10483 -1.325515,-1.10483 -2.871923,0.66289 -1.325493,-0.88387 -0.662741,-1.10483 -4.860179,0.44193 -4.197404,-5.96604 -3.7556,1.10483 2.871923,5.74509 2.430072,-6.62897 1.54643,4.41931 2.651009,-0.88387 -0.883689,1.76772 -7.952992,-0.66289 1.988256,2.20965 -0.662741,-7.95475 3.534664,6.40799 1.325493,-3.0935 -5.743834,0.88386 32.03294,8.39667 23.638064,4.64029 44.846098,19.88688 -0.44182,8.83859 -9.16806,-7.18135 -7.4007,-4.52979 -6.075193,-4.75077 -13.144569,-4.75075 12.260889,7.51281 21.318463,21.32317 -0.221,3.42496 -13.91774,0.33143 -19.772051,1.43629 -8.17394,-2.65159 21.097568,2.09918 -16.347835,2.43061 -14.470069,-0.33143 13.255022,-0.33146 -15.905996,10.27488 16.347811,-9.94342 37.55586,-3.64595 -27.945981,11.26924 -24.521752,15.02566 7.842547,8.61764 37.224476,-30.93516 8.39484,-4.30881 -0.55229,-2.32015 8.06346,-26.84728 -9.83082,-4.41931 -9.16804,-5.96606 -29.492372,-10.27487 31.591102,10.82728 17.34197,10.38538 1.54639,-0.99436 -21.42893,-24.19568 -19.440653,-27.399723 5.302017,5.966083 4.970603,9.17005 30.707423,35.02301 -14.69094,-35.13348 -21.760318,-21.875588 22.091678,22.869938 -10.05171,-37.122197 9.60987,37.674607 14.47006,31.7085 1.98823,-2.09916 -5.41244,-25.74247 -0.99413,-20.991713"
       style="fill:none;stroke:#000000;stroke-width:0.80000001;stroke-linecap:round;stroke-linejoin:round;stroke-miterlimit:4;stroke-dasharray:none;stroke-opacity:1;filter:url(#filter934)" />
    <path
       inkscape:connector-curvature="0"
       id="path913"
       d="m 132.01025,152.7973 -0.55229,2.20966 -6.73797,-2.87255 1.21505,6.62897 -3.75558,-1.3258 1.21505,3.86689 -3.7556,1.32581 1.43597,4.08785 -4.19744,3.53544 3.31376,4.08785 -2.98236,3.53544 3.86604,0.88387 -4.97063,-3.64593 3.64514,-4.75076 -0.88368,-4.3088 3.31375,-2.65159 -1.10458,-4.30883 3.64511,0.99434 -1.21504,-4.4193 5.96477,1.3258 0.88366,-4.52981 2.31961,1.65724 -9.27848,0.11042 4.41833,3.42496 3.64512,-0.33146 1.98827,0.22106"
       style="fill:none;stroke:#000000;stroke-width:0.80000001;stroke-linecap:round;stroke-linejoin:round;stroke-miterlimit:4;stroke-dasharray:none;stroke-opacity:1;filter:url(#filter938)" />
  </g>
  <g
     inkscape:groupmode="layer"
     id="layer2"
     inkscape:label="Form"
     transform="translate(-4.7869613,-55.351555)">
    <path
       style="fill:none;stroke:#000000;stroke-width:0.80000001;stroke-linecap:round;stroke-linejoin:round;stroke-miterlimit:4;stroke-dasharray:none;stroke-opacity:1"
       d="m 140.81384,154.76791 -0.78107,4.68739 -7.65437,-0.93747 -2.26505,24.37437 8.2792,-3.35928 2.49939,9.92162 8.35732,-7.26545 2.10887,5.78112 3.51476,-4.45303 1.64023,5.31238 1.4059,-1.56246 -1.32782,-3.20305 -2.49938,4.37489 -1.79643,-5.39049 -3.74909,3.35929 -1.24967,-5.70299 -4.37393,3.20305 0.078,-3.28115 2.26505,-0.46873 0.15624,4.53111 3.04614,-3.04681 1.32779,4.92176 3.20235,-2.96867 2.34317,4.68739 2.26507,-2.73432 -1.95264,-1.4062 -2.96802,3.59365 -1.87454,-4.3749 -3.7491,2.3437 -0.70293,-5.23422 -3.43667,1.40619 1.87455,2.49994 2.96801,-2.81243 1.56212,5.07801 3.74907,-3.43743 2.81184,5.31239 1.79642,-1.40623 -3.67097,-3.35929 -3.28044,3.59367 -0.70296,-4.29678 -3.51476,2.26558 -2.88993,-5.078 h 2.34319 l 1.79642,5.78109 8.98216,1.87495 -13.35609,-6.79668 7.57627,2.57806 6.639,2.96867 -5.15499,1.24995 -9.13837,-5.62485 4.0615,-1.32809 -3.04613,7.8123 -6.79522,-1.56245 2.10887,-7.26544 -3.8272,6.79669 -0.078,-7.57791 -3.82717,4.53113 2.34317,-27.03058 7.10762,1.32809 -1.87453,-3.59367 -3.59287,0.78125 1.40591,5.78109 -7.88869,-0.46873 -5.15501,28.90551 4.06151,-4.60925 0.078,4.68738 1.24968,-4.14051 -0.46862,4.29676 -0.23423,-4.84363 -2.34315,4.68738 0.31242,-5.078 -3.98342,4.53114 -1.64021,-2.96867 5.70172,-3.74992 -6.01415,-2.42179 23.58797,-9.7654 -11.63776,14.99964 6.17036,-5.54673 3.12421,10.15598 2.6556,-5.46861 4.29584,4.14052 -12.02832,-2.42183 0.78108,-6.64044 -5.70173,5.15611 4.68635,-16.87457 3.59285,10.8591 9.68515,-1.48433 -1.17158,4.45299 1.87454,-0.23428 -5.77985,-1.40622 1.01538,-8.67165 -18.12056,9.21852 -1.3278,-21.24946 -6.17036,7.73419 6.40469,13.28089 -5.93606,3.74992 5.31119,0.62497 -0.78104,5.07801 2.42126,-4.14052 -0.23422,3.98428 1.87454,-3.59368 2.49939,3.90617 -0.78106,0.93746 0.15624,-4.06238 0.54672,1.17185 -2.03076,2.57804 1.71835,-0.078 0.15623,-3.43742 -2.42127,0.15627 0.70296,2.49993 0.70293,-3.1249 0.23423,4.68737 -1.17159,-4.37488 -7.96681,1.48433 4.76446,-6.71859 -7.65436,-8.04668 16.48032,-8.04666 -1.01538,21.01511 4.76447,-6.24986 0.15624,8.67168 3.43666,-8.51541 1.24969,8.35917 -2.88992,-8.28106 -2.6556,7.73419 -1.40592,-9.37477 -6.17036,4.84363 2.42129,-25.62435 7.49816,1.0156 -0.54674,-4.29678 -2.96802,-0.23428 1.17159,5.70298 -7.18573,-0.39062 3.28046,4.0624 -5.46744,17.96828 15.69928,-10.93721 -2.57748,8.4373 9.13837,-0.85936 -3.74907,2.89054 3.74907,2.0312 -0.23423,-5.15612 -9.60702,0.70311 1.3278,-9.84349 -14.44959,12.10905 6.7171,-17.10895 4.84256,14.68715 -18.04244,-14.60901 -0.15623,23.59315 9.99753,1.71872 -9.99753,-4.3749 6.7952,-24.29626 -0.23423,19.45263 8.35732,-12.89029 0.078,0.078 -2.96807,18.04625 6.24847,-17.73392 8.04491,5.93733 -0.70296,6.24986 3.67097,0.15626 -1.17158,-3.74991 -9.91945,1.09373 -1.01535,-9.92163 -18.97973,9.8435 -0.078,-6.64045 14.91822,-6.4061 -11.95018,-2.26555 17.88623,27.57742 6.639,-2.65619 -0.23423,5.70299 4.92065,-4.29676 2.10887,5.46861 4.13961,-3.43741 1.01537,3.7499 0.93726,-2.3437 -2.65559,2.81243 -0.85917,-4.84363 -4.29581,3.04681 -2.88992,-4.68739 -3.43664,3.74992 -1.09351,-2.34369 1.40592,-1.64061 2.88992,4.76552 1.40589,-4.06241 0.23423,3.74992 0.93726,-3.67178 0.62484,4.37489 1.64024,-3.82802 0.46864,4.453 1.56211,-3.67178 v 4.37489 l 2.10886,-4.0624 0.46863,4.37489 0.54674,-3.12491 0.85917,1.48433 -3.35855,1.17185 -11.55967,-4.60927 5.54552,-1.17185 6.48277,2.57807 2.03076,3.67178 -3.12423,0.078 -8.27922,-5.78108 -2.34318,2.18744 2.34318,1.56247 8.04489,-2.73431 3.67098,3.67178 -14.8401,-7.49981 -24.68146,-11.09347 0.31242,-6.24986 13.82475,-6.01546 5.31119,-7.8123 -4.92068,1.32809 -13.35609,25.62435 3.04613,6.64045 1.5621,-27.81179 5.70173,22.65568 12.73125,-13.04655 2.26509,9.60915 3.51476,-2.81245 -2.49939,-4.29676 -7.88869,4.06241 -12.96558,-16.79646 7.6544,2.49993 6.17035,-6.48421 -19.76078,12.03095 9.45079,14.84336 8.74786,-15.07774"
       id="path878"
       inkscape:connector-curvature="0" />
    <path
       style="fill:none;stroke:#000000;stroke-width:0.80000001;stroke-linecap:round;stroke-linejoin:round;stroke-miterlimit:4;stroke-dasharray:none;stroke-opacity:1"
       d="m 102.18649,221.73849 0.44184,-15.90949 -14.138682,14.36273 -3.976502,-19.44494 -15.022319,13.47889 -4.639254,-19.22398 -1.988257,-2.6516 -3.976501,8.83862 6.406574,11.93213 9.278519,-15.02565 5.964736,19.66591 14.359613,-14.36276 1.32549,17.23531 11.929493,-12.59504 -3.75556,-9.50148 -6.848433,5.52411 -3.75558,-8.39666 -5.302019,5.30316 -2.20917,-7.73377 -6.406575,5.08219 -4.197404,-8.61766 -6.185672,6.62897 -5.081093,-10.60635 -1.988256,7.29186 9.720358,-5.0822 2.650986,9.50152 7.290252,-5.08221 2.871911,7.73377 4.639254,-5.7451 3.534688,7.95478 5.08106,-5.74512 4.418343,7.7338 9.49941,-2.43061 -0.221,-9.50152 -6.18567,6.40799 -1.98827,-8.17571 -6.627473,5.96605 -0.88368,-8.83859 -4.639254,7.95475 -0.441839,-10.16441 -5.964758,6.62894 -0.441816,-8.8386 -4.418341,7.51282 -1.988268,-9.05958 -8.836647,5.0822 -5.081092,-9.05958 3.755599,-0.88384 -2.20917,9.05958 6.185672,-6.18703 1.988234,9.50151 7.73209,-6.18706 0.662752,9.28056 5.301995,-7.07087 -0.441815,9.05954 6.185648,-7.51281 1.54642,9.05958 6.406573,-6.62894 0.22102,8.39666 6.40657,-5.0822 1.54643,7.73379 5.08108,-6.40798 -1.98827,-8.17574 -6.84841,4.64027 -1.98823,-8.1757 -4.860183,6.18703 -2.20917,-8.39669 -6.848424,5.0822 -1.104579,-7.95475 -5.522897,5.96605 -1.988268,-8.8386 -5.964736,6.18704 -1.104614,-9.28057 -4.639242,7.29186 -0.662753,-9.05954 -3.313749,5.96604 -0.883655,-6.40798 2.430084,6.62894 4.418341,-4.64027 1.546395,8.61764 5.081081,-5.96605 1.54643,8.61765 6.406574,-6.18704 1.104614,7.51282 5.964738,-4.86122 1.54642,7.51281 6.406583,-5.0822 1.98826,8.61764 5.96474,-5.52414 1.54642,7.07091 8.71778,-4.4224 -2.75301,-7.06779 -4.86016,4.64026 -0.66275,-9.05958 -4.19743,7.29186 -0.44181,-8.61764 -7.732093,6.84992 -0.88368,-10.38536 -5.74383,6.84993 -3.092824,-8.61768 -5.302018,5.30319 -2.20917,-8.83863 -4.418318,5.52415 -1.767331,-8.83863 -4.860179,7.7338 -2.209171,-9.05958 -3.313749,7.07087 -0.662753,-7.29182 3.976502,8.61764 4.197416,-7.7338 1.988256,9.50152 5.081093,-5.7451 0.221005,7.29186 5.52292,-4.41931 3.7556,8.1757 4.639241,-4.64026 2.20917,8.39669 7.290263,-7.7338 0.66274,9.72247 5.52293,-6.187 0.22101,9.94342 6.40657,-7.29186 -2.43007,-10.16441 -5.52293,5.96608 -2.20916,-7.07091 -5.74383,4.86125 -1.767333,-9.50151 -5.08109,7.29186 -2.871915,-10.38536 -6.406575,7.07087 v -8.39669 l -5.743833,5.7451 -0.883677,-8.17571 -6.185673,5.7451 -1.325493,-8.61764 -4.41834,7.07087 1.325493,-7.07087 1.104579,8.39669 6.185672,-6.62897 0.441839,7.95475 5.96477,-4.86122 0.441816,6.84992 6.627511,-5.0822 1.325481,8.61764 5.522935,-5.08221 1.98825,5.96605 6.627493,-3.75639 1.76733,7.95475 4.63927,-4.19836 2.65098,6.18703 4.86018,-5.30315 -1.76733,-9.94346 -7.953,7.29186 -0.22101,-10.16439 -5.96473,6.84991 -1.767333,-9.28053 -6.18568,7.0709 -1.32551,-9.94345 -6.62749,7.29186 -1.10458,-9.94346 -5.302017,7.07091 -1.546396,-8.17572 -4.860179,5.52413 -2.651009,-8.39668 -1.546406,7.51283 6.406586,-6.408 1.546418,8.61764 5.964735,-6.18701 v 9.28053 l 6.848425,-7.0709 v 9.05957 l 7.069353,-5.96604 0.44183,9.05957 6.185683,-5.96606 1.98823,8.39667 7.06932,-7.07087 2.20917,9.05958 5.52292,-6.18703 -0.22101,-8.61765 -6.18566,7.07088 -1.98827,-9.94342 -6.62749,6.40798 -0.66276,-7.95475 -8.394823,5.0822 -0.44184,-8.17572 -7.732088,5.30318 -1.546429,-9.05958 -6.18565,6.62895 -0.662763,-9.5015 -5.964736,6.40799 -0.221016,-7.51282 -1.988234,6.84993 5.52292,-5.7451 0.441838,8.61764 6.406586,-6.18703 0.441839,8.39669 6.848413,-5.0822 0.662741,7.07087 7.290259,-4.19833 1.988243,8.83861 6.84841,-5.74511 2.87192,7.07091 6.62751,-5.30318 0.88368,8.17573 4.1974,-6.18703 0.22102,-9.28054 -9.2785,8.8386 -1.10459,-12.15308 -6.40658,8.61764 -1.10457,-11.04827 -7.069353,7.29186 -0.88365,-10.16441 -7.953008,6.84992 -0.441838,-10.60632 -6.185672,7.51281 -1.325493,-7.73379 -5.743834,5.30318 -0.441839,-7.0709 -1.988256,6.62896 5.964758,-5.74509 0.221017,7.95475 5.743822,-5.52413 0.662775,7.73379 7.953008,-6.84993 -0.883682,8.8386 7.953002,-4.86122 1.325503,9.28053 7.51118,-7.07087 0.66274,10.16438 9.2785,-7.07088 1.54641,8.61764 7.06933,-6.40799 0.88368,5.7451 4.41834,-3.97738 -0.88368,4.19834 -2.43007,-5.30317 6.6275,-6.40798 -11.70859,5.30316 -1.98826,-9.50151 -5.96475,6.40801 -2.43007,-9.28056 -6.18567,6.40801 -1.32552,-9.72249 -6.406573,7.07089 -1.76733,-9.05958 -7.732101,5.52415 -1.10458,-7.73379 -5.743833,6.40798 -2.20917,-9.28053 -5.743834,6.84991 1.325516,-7.95474 3.092825,8.39668 6.848424,-5.52413 0.883677,8.39668 7.290226,-5.52413 -0.44181,7.73379 8.394843,-5.30318 1.10455,8.61766 7.06935,-6.18703 1.10458,9.05958 7.51117,-5.96607 1.10459,8.17572 7.51115,-5.74511 3.7556,8.61766 4.86018,-7.29186 -1.10459,-9.05958 -11.48768,7.51281 -2.20917,-10.38536 -5.96475,7.95476 -1.54642,-10.8273 -6.40657,7.29186 -1.32549,-9.05958 -6.18567,5.96606 -2.430113,-9.72248 -6.627474,7.51282 -1.988268,-9.28053 -6.406574,6.40798 -3.092848,-9.05958 -1.767331,6.40799 7.73209,-4.19833 2.20917,7.51281 5.522915,-5.30316 2.20915,7.95476 6.185673,-5.74511 2.43011,8.17572 7.51115,-6.84993 0.88365,8.83862 4.86018,-4.86124 2.65101,9.05958 7.51117,-6.408 5.08108,10.38536 5.08109,-7.95474 -1.54643,-9.72247 -5.08108,7.95474 -2.43007,-9.5015 -4.19744,7.51283 -1.98823,-9.72249 -6.40659,7.51284 -0.66274,-9.7225 -6.40661,6.40801 -3.75556,-9.94345 -5.30202,7.51284 -3.976503,-11.04827 -5.08108,8.39669 -1.988234,-9.94346 -6.406609,8.17574 -1.767331,-9.72247 -2.209171,8.39665 6.406609,-7.51281 2.871911,10.38536 4.639245,-7.51281 2.65101,10.16441 6.185673,-7.51282 2.87192,9.28053 7.51115,-6.62894 1.98825,9.28054 6.40659,-6.62897 0.66275,8.83862 5.08109,-5.96607 2.43008,8.39669 4.63924,-6.84993 2.4301,7.95474 5.74383,-6.84991 -2.20917,-7.7338 -4.41834,6.40801 -2.20917,-8.61766 -4.63924,7.07089 -2.65101,-9.05957 -7.953,5.30316 -1.5464,-9.50149 -6.62751,7.29183 -3.09285,-9.72247 -6.406573,6.62897 -1.54643,-8.83862 -6.406572,5.74509 -1.546429,-7.07087 -3.092813,5.52414 -3.313761,-7.291863 -0.441839,7.512813 4.41834,-5.96605 1.988268,6.18703 3.976486,-5.30318 2.43009,8.39669 8.836643,-5.96608 0.44185,7.29186 6.18566,-4.41929 2.20917,8.39666 7.51117,-4.86122 1.54643,7.73377 7.95299,-5.0822 0.66275,8.39668 5.08108,-7.07087 1.3255,7.73376 6.18567,-5.96604 -3.53467,-9.05958 -5.96473,6.84992 -1.98827,-10.60635 -4.1974,8.61765 -3.09285,-11.26921 -6.18567,8.8386 -1.3255,-10.164413 -7.953,6.187033 -2.20916,-9.722473 -5.74383,6.407993 -1.10459,-7.954753 -4.639243,6.849923 -1.98827,-8.175713 -5.081081,7.51282 -1.325493,-7.73377 -3.313749,5.7451 2.20917,1.98867 5.522923,-8.838602 1.54641,9.722475 4.41832,-7.733803 1.54643,8.838633 4.860183,-7.070913 1.10458,7.512823 6.40657,-3.977383 1.76733,7.733803 6.84843,-6.407983 1.54641,9.501503 6.84843,-7.0709 2.65101,11.04828 5.96473,-7.0709 2.20917,7.7338 6.84842,-7.29186 -1.76734,-9.280533 -4.41834,8.175703 -1.54641,-7.954753 -3.53467,6.628973 -1.98823,-9.059583 -5.74383,5.966053 -1.98827,-7.291863 -2.87191,6.408013 -0.44184,-7.733803 -7.06933,5.08221 -2.20917,-7.733796 -2.87191,6.187026 -1.98827,-8.175699 -5.30199,6.187029 -2.20917,-8.396689 -4.860183,7.291859 -0.44181,-7.95475 -6.406601,7.29186 3.976501,-7.954751 0.88368,8.175701 4.63924,-6.849919 0.88368,8.396689 5.301993,-5.524138 1.76733,6.407978 4.19744,-5.303149 1.76733,7.954749 6.40657,-5.7451 0.44184,7.29186 5.08108,-5.74509 1.1046,6.62894 4.86014,-4.86122 0.88369,8.838593 5.30198,-6.407983 1.76733,7.070873 3.7556,-5.745093 3.75559,6.187033 0.66275,-9.059583 -3.31376,-6.628965 -8.17393,7.070905 -1.76733,-10.38536 -9.4994,6.62894 -1.10459,-9.722466 -7.51119,7.512811 -1.10457,-9.280531 -9.72034,6.849919 -2.20917,-9.059579 -5.301993,6.187028 0.44184,-6.849919 -4.19743,6.407992 7.511193,-6.407992 -1.104593,6.849919 8.836653,-4.419307 2.20917,7.954749 7.51117,-6.187028 1.10458,9.059578 9.49943,-7.291835 0.66274,9.943421 9.27852,-5.524136 3.31375,8.396686 6.84842,-7.733795 0.22101,-7.291835 -3.31375,6.407992 -2.20917,-11.490191 -7.73207,10.385361 -1.54643,-12.374057 -7.73209,9.72247 -2.43008,-10.606325 -3.9765,8.396666 -3.53467,-9.72247 -5.96475,7.954749 -1.98824,-8.61764 -4.41834,7.51281 -1.98826,-7.291858 -4.418323,5.303185 8.173913,-5.524137 1.76733,7.733796 5.74383,-7.291858 3.53466,9.059579 4.19744,-8.396688 2.20917,9.72247 6.40657,-8.396688 0.66275,9.722493 8.61575,-7.733797 2.43009,11.711177 6.84843,-8.617674 -0.44184,7.954749 -76.216264,53.031689 -1.325515,-1.32578 -1.54643,0.44191 -1.767331,-1.10482 -1.767321,0.88386 -0.883654,-1.32578 -2.20917,0.22106 -1.767332,-1.54676 -1.988268,0.66289 -2.20917,-1.76772 -1.767332,1.10483 -4.41834,-2.20966 -2.650975,1.10483 -1.325527,-1.10483 -5.301984,-0.88384 -1.325493,-0.66289 -3.976502,-1.10483 -1.325515,-1.10483 -2.871923,0.66289 -1.325493,-0.88387 -0.662741,-1.10483 -4.860179,0.44193 -4.197404,-5.96604 -3.7556,1.10483 2.871923,5.74509 2.430072,-6.62897 1.54643,4.41931 2.651009,-0.88387 -0.883689,1.76772 -7.952992,-0.66289 1.988256,2.20965 -0.662741,-7.95475 3.534664,6.40799 1.325493,-3.0935 -5.743834,0.88386 32.03294,8.39667 23.638064,4.64029 44.846098,19.88688 -0.44182,8.83859 -9.16806,-7.18135 -7.4007,-4.52979 -6.075193,-4.75077 -13.144569,-4.75075 12.260889,7.51281 21.318463,21.32317 -0.221,3.42496 -13.91774,0.33143 -19.772051,1.43629 -8.17394,-2.65159 21.097568,2.09918 -16.347835,2.43061 -14.470069,-0.33143 13.255022,-0.33146 -15.905996,10.27488 16.347811,-9.94342 37.55586,-3.64595 -27.945981,11.26924 -24.521752,15.02566 7.842547,8.61764 37.224476,-30.93516 8.39484,-4.30881 -0.55229,-2.32015 8.06346,-26.84728 -9.83082,-4.41931 -9.16804,-5.96606 -29.492372,-10.27487 31.591102,10.82728 17.34197,10.38538 1.54639,-0.99436 -21.42893,-24.19568 -19.440653,-27.399723 5.302017,5.966083 4.970603,9.17005 30.707423,35.02301 -14.69094,-35.13348 -21.760318,-21.875588 22.091678,22.869938 -10.05171,-37.122197 9.60987,37.674607 14.47006,31.7085 1.98823,-2.09916 -5.41244,-25.74247 -0.99413,-20.991713"
       id="path880"
       inkscape:connector-curvature="0"
       sodipodi:nodetypes="cccccccccccccccccccccccccccccccccccccccccccccccccccccccccccccccccccccccccccccccccccccccccc" />
    <path
       style="fill:none;stroke:#000000;stroke-width:0.80000001;stroke-linecap:round;stroke-linejoin:round;stroke-miterlimit:4;stroke-dasharray:none;stroke-opacity:1"
       d="m 132.01025,152.7973 -0.55229,2.20966 -6.73797,-2.87255 1.21505,6.62897 -3.75558,-1.3258 1.21505,3.86689 -3.7556,1.32581 1.43597,4.08785 -4.19744,3.53544 3.31376,4.08785 -2.98236,3.53544 3.86604,0.88387 -4.97063,-3.64593 3.64514,-4.75076 -0.88368,-4.3088 3.31375,-2.65159 -1.10458,-4.30883 3.64511,0.99434 -1.21504,-4.4193 5.96477,1.3258 0.88366,-4.52981 2.31961,1.65724 -9.27848,0.11042 4.41833,3.42496 3.64512,-0.33146 1.98827,0.22106"
       id="path882"
       inkscape:connector-curvature="0" />
  </g>
</svg>
