<?xml version="1.0" encoding="UTF-8" standalone="no"?>
<!-- Created with Inkscape (http://www.inkscape.org/) -->

<svg
   xmlns:dc="http://purl.org/dc/elements/1.1/"
   xmlns:cc="http://creativecommons.org/ns#"
   xmlns:rdf="http://www.w3.org/1999/02/22-rdf-syntax-ns#"
   xmlns:svg="http://www.w3.org/2000/svg"
   xmlns="http://www.w3.org/2000/svg"
   xmlns:sodipodi="http://sodipodi.sourceforge.net/DTD/sodipodi-0.dtd"
   xmlns:inkscape="http://www.inkscape.org/namespaces/inkscape"
   width="270.88876mm"
   height="246.94209mm"
   viewBox="0 0 270.88876 246.94209"
   version="1.1"
   id="svg8"
   inkscape:version="0.92.4 5da689c313, 2019-01-14"
   sodipodi:docname="presentation_cap2_six.svg">
  <defs
     id="defs2">
    <filter
       inkscape:collect="always"
       style="color-interpolation-filters:sRGB"
       id="filter4734"
       x="-0.026096886"
       width="1.0521938"
       y="-0.022479881"
       height="1.0449598">
      <feGaussianBlur
         inkscape:collect="always"
         stdDeviation="2.1435344"
         id="feGaussianBlur4736" />
    </filter>
    <filter
       inkscape:collect="always"
       style="color-interpolation-filters:sRGB"
       id="filter4738"
       x="-3.7710065"
       width="8.5420131"
       y="-0.65582681"
       height="2.3116536">
      <feGaussianBlur
         inkscape:collect="always"
         stdDeviation="2.1435344"
         id="feGaussianBlur4740" />
    </filter>
    <filter
       inkscape:collect="always"
       style="color-interpolation-filters:sRGB"
       id="filter4742"
       x="-0.51132203"
       width="2.0226441"
       y="-0.52013804"
       height="2.0402761">
      <feGaussianBlur
         inkscape:collect="always"
         stdDeviation="2.1435344"
         id="feGaussianBlur4744" />
    </filter>
    <filter
       inkscape:collect="always"
       style="color-interpolation-filters:sRGB"
       id="filter4746"
       x="-0.30472731"
       width="1.6094546"
       y="-0.5801542"
       height="2.1603084">
      <feGaussianBlur
         inkscape:collect="always"
         stdDeviation="2.1435344"
         id="feGaussianBlur4748" />
    </filter>
    <filter
       inkscape:collect="always"
       style="color-interpolation-filters:sRGB"
       id="filter4750"
       x="-0.217036"
       width="1.434072"
       y="-0.5292634"
       height="2.0585268">
      <feGaussianBlur
         inkscape:collect="always"
         stdDeviation="2.1435344"
         id="feGaussianBlur4752" />
    </filter>
    <filter
       inkscape:collect="always"
       style="color-interpolation-filters:sRGB"
       id="filter4754"
       x="-1.0402771"
       width="3.0805543"
       y="-0.94274991"
       height="2.8854998">
      <feGaussianBlur
         inkscape:collect="always"
         stdDeviation="2.1435344"
         id="feGaussianBlur4756" />
    </filter>
    <filter
       inkscape:collect="always"
       style="color-interpolation-filters:sRGB"
       id="filter4758"
       x="-0.45709093"
       width="1.9141819"
       y="-0.51132203"
       height="2.0226441">
      <feGaussianBlur
         inkscape:collect="always"
         stdDeviation="2.1435344"
         id="feGaussianBlur4760" />
    </filter>
    <filter
       inkscape:collect="always"
       style="color-interpolation-filters:sRGB"
       id="filter4762"
       x="-0.11647877"
       width="1.2329575"
       y="-0.071150949"
       height="1.1423019">
      <feGaussianBlur
         inkscape:collect="always"
         stdDeviation="2.1435344"
         id="feGaussianBlur4764" />
    </filter>
    <filter
       inkscape:collect="always"
       style="color-interpolation-filters:sRGB"
       id="filter4766"
       x="-0.025740614"
       width="1.0514812"
       y="-0.051835055"
       height="1.1036701">
      <feGaussianBlur
         inkscape:collect="always"
         stdDeviation="2.1435344"
         id="feGaussianBlur4768" />
    </filter>
    <filter
       inkscape:collect="always"
       style="color-interpolation-filters:sRGB"
       id="filter4904"
       x="-0.084064865"
       width="1.1681297"
       y="-0.3702857"
       height="1.7405714">
      <feGaussianBlur
         inkscape:collect="always"
         stdDeviation="2.2100402"
         id="feGaussianBlur4906" />
    </filter>
    <filter
       inkscape:collect="always"
       style="color-interpolation-filters:sRGB"
       id="filter4908"
       x="-0.099692309"
       width="1.1993846"
       y="-0.50167709"
       height="2.0033542">
      <feGaussianBlur
         inkscape:collect="always"
         stdDeviation="2.2100402"
         id="feGaussianBlur4910" />
    </filter>
    <filter
       inkscape:collect="always"
       style="color-interpolation-filters:sRGB"
       id="filter4912"
       x="-0.14534579"
       width="1.2906916"
       y="-0.34560003"
       height="1.6912001">
      <feGaussianBlur
         inkscape:collect="always"
         stdDeviation="2.2100402"
         id="feGaussianBlur4914" />
    </filter>
    <filter
       inkscape:collect="always"
       style="color-interpolation-filters:sRGB"
       id="filter4916"
       x="-0.25083871"
       width="1.5016774"
       y="-0.37931704"
       height="1.7586341">
      <feGaussianBlur
         inkscape:collect="always"
         stdDeviation="2.2100402"
         id="feGaussianBlur4918" />
    </filter>
    <filter
       inkscape:collect="always"
       style="color-interpolation-filters:sRGB"
       id="filter4920"
       x="-0.26813798"
       width="1.536276"
       y="-0.38880001"
       height="1.7776">
      <feGaussianBlur
         inkscape:collect="always"
         stdDeviation="2.2100402"
         id="feGaussianBlur4922" />
    </filter>
    <filter
       inkscape:collect="always"
       style="color-interpolation-filters:sRGB"
       id="filter4924"
       x="-0.28800018"
       width="1.5760004"
       y="-1.1963081"
       height="3.3926162">
      <feGaussianBlur
         inkscape:collect="always"
         stdDeviation="2.2100402"
         id="feGaussianBlur4926" />
    </filter>
    <filter
       inkscape:collect="always"
       style="color-interpolation-filters:sRGB"
       id="filter4928"
       x="-0.37931704"
       width="1.7586341"
       y="-1.296"
       height="3.592">
      <feGaussianBlur
         inkscape:collect="always"
         stdDeviation="2.2100402"
         id="feGaussianBlur4930" />
    </filter>
  </defs>
  <sodipodi:namedview
     id="base"
     pagecolor="#ffffff"
     bordercolor="#666666"
     borderopacity="1.0"
     inkscape:pageopacity="0.0"
     inkscape:pageshadow="2"
     inkscape:zoom="0.5257299"
     inkscape:cx="813.3713"
     inkscape:cy="274.7259"
     inkscape:document-units="mm"
     inkscape:current-layer="layer4"
     showgrid="false"
     inkscape:window-width="1920"
     inkscape:window-height="1039"
     inkscape:window-x="0"
     inkscape:window-y="0"
     inkscape:window-maximized="1"
     inkscape:object-nodes="false"
     inkscape:snap-nodes="false"
     inkscape:snap-others="false"
     fit-margin-top="0"
     fit-margin-left="0"
     fit-margin-right="0"
     fit-margin-bottom="0" />
  <metadata
     id="metadata5">
    <rdf:RDF>
      <cc:Work
         rdf:about="">
        <dc:format>image/svg+xml</dc:format>
        <dc:type
           rdf:resource="http://purl.org/dc/dcmitype/StillImage" />
        <dc:title />
      </cc:Work>
    </rdf:RDF>
  </metadata>
  <g
     inkscape:groupmode="layer"
     id="layer4"
     inkscape:label="FormFade">
    <path
       transform="translate(-8.1825785,-48.212862)"
       sodipodi:nodetypes="ccccccccccccccccccccccccccccccccccccccccccccccccccccccccccccccccccccccccccccccccccccccccccccccccccccccccccccccccccccccccccccccccccccccccccccccccccccccccccccccccccccccccccccccccccccccccccccccccccccccccccccccccccccccccccccccccccccccccccccccccccccccccccccccccccccccccccccccccccccccccccccccccccccccccccccccccccccccccccccccccccccccccccccccccccccccccccccccccccccccccccccccccccccccccccccccccccccccccccccccccccccccccccccccccccccccccccccccccccccccccccccccccccc"
       inkscape:connector-curvature="0"
       id="path4671"
       d="m 100.6114,227.59518 6.48005,-4.09266 17.22331,20.97492 -20.29281,12.10747 10.06115,10.23166 -15.006451,0.34105 -3.410556,5.28637 7.673747,4.09266 0.68211,-9.8906 4.2632,5.28637 4.77478,-46.72462 11.93694,45.18985 -10.57272,-8.18532 9.89061,-12.78959 -17.56436,-15.51803 9.37903,-10.06114 9.37903,12.61906 3.24002,-13.81275 6.99165,3.58108 1.53475,-6.30953 4.43372,1.36422 0.17053,-4.26319 3.0695,1.02317 0.51158,-2.89898 4.77478,2.38739 -0.68211,1.1937 -2.04634,-4.43372 1.70528,1.53475 -1.53475,2.89897 -1.02317,-3.41056 3.0695,0.85264 -3.58108,1.36422 -2.21686,-1.36422 -0.34106,3.0695 -3.24002,-1.02317 v 4.2632 l -4.94531,-1.8758 -1.36422,5.96847 -6.30953,-2.72845 -23.36231,38.0277 8.35586,8.86746 -16.029609,-2.55794 3.240026,11.93694 0.852643,-13.47168 5.28636,6.82112 -0.17053,-30.0129 17.56436,-4.09267 -15.68855,-8.86744 -3.75162,-6.99164 -4.774774,2.21686 -0.170527,-3.92214 -5.968473,3.75161 v -1.8758 l 3.410555,-2.55792 0.682112,3.41055 -4.433723,0.68212 5.286361,-3.58109 0.341056,2.72845 2.216863,-1.36423 -0.51158,3.75162 5.45688,-3.58109 0.34106,7.16217 4.94531,-5.45689 16.02961,41.77931 -9.37903,6.99164 9.72008,9.8906 -8.35586,3.24003 3.92214,6.30955 -2.89897,1.87579 -1.36422,-3.75161 4.9453,-2.21686 -6.139,-9.72008 8.52639,-5.11585 -9.72008,-3.92213 9.2085,-8.52639 -10.06114,-5.28636 8.35586,-9.2085 -16.37067,-15.17697 4.94531,-6.65059 12.44853,12.96011 0.85264,-14.32433 5.62742,4.94531 0.85263,-7.84428 5.96848,3.0695 1.19369,-5.11583 3.24003,0.85263 5.28636,-4.43372 -39.22139,21.99809 13.98328,3.58108 -18.24648,5.11583 20.12228,4.60425 -8.69691,3.41056 8.18533,3.41055 -8.18533,7.33271 7.50322,5.79795 -5.62742,5.45687 7.84428,10.23168 0.85264,-9.54957 -8.52639,1.36423 6.48005,9.72008 -5.79794,5.4569 3.58108,0.85264 -2.89897,-4.7748 7.50322,-7.33269 -9.72008,-1.19369 8.18533,-2.89896 -7.33269,-1.02317 6.139,-2.89899 -6.48006,-1.36422 4.43373,-2.38739 -5.28637,-2.72843 8.35587,-8.01481 -8.86745,-4.26319 8.18533,-3.58109 -19.78122,-2.72844 19.44017,-5.96848 -15.51803,-2.55791 17.73489,-3.75162 -18.24647,-5.96847 17.2233,-6.65058 5.11584,12.44853 3.58108,-5.11584 -3.75161,-1.8758 3.24003,7.33269 1.02317,-2.89897 -5.96848,-2.04633 3.41056,4.9453 2.55792,-4.43372 -5.11584,-1.19369 3.58109,-3.24003 0.17052,8.86744 -5.96847,0.17053 5.11583,-6.48006 1.53475,5.62742 -6.65058,-1.19369 -5.96847,-10.06114 -12.61906,11.59589 4.43372,17.56436 -2.38739,17.56435 -14.49486,-1.87579 1.705279,7.50322 4.433721,0.51159 -3.0695,1.87579 2.04633,0.17053 1.36423,-13.47169 4.9453,5.96847 1.02317,-32.05922 19.26964,-6.82111 3.0695,-11.76642 5.96847,3.0695 9.54956,-8.69692 -38.53928,18.75806 10.40219,-10.23167 5.96848,13.81275 -10.06114,14.15381 10.06114,4.2632 -9.20851,6.65058 11.5959,3.24002 -9.54956,4.9453 9.72008,6.99164 -10.06114,4.43373 7.67375,2.38739 -6.139,1.36422 -2.38738,-2.89896 10.57272,-2.55791 -9.54956,-13.30119 3.24003,-41.60877 -15.51803,37.34558 6.82111,7.84427 2.89898,-3.58108 -9.89062,-9.72007 8.52639,-2.04634 -8.52639,-3.24003 19.78123,-9.37903 -15.51803,-4.9453 16.02961,-14.83592 3.58108,9.72008 -18.58753,-9.37902 -6.139,4.9453 -1.02316,-5.11583 -3.069504,1.02317 0.341055,-2.72845 -4.60425,0.17053 0.852639,2.04633 -2.216862,-0.51158 3.410556,-2.38739 5.115836,6.30953 6.139,-3.92214 -1.1937,6.139 9.54956,-6.139 4.94531,16.54119 -8.52639,12.44853 -8.35586,1.70528 7.50322,5.62742 -7.50322,5.11583 9.03797,3.7516 -17.052779,6.82112 9.037969,-1.70526 -6.650581,-6.99165 -0.852638,11.25482 3.751609,-2.38738 1.87581,-10.57273 10.40219,1.53477 -9.72008,-15.8591 2.04633,-9.37902 16.37067,-2.89898 -2.55792,-14.32433 -2.21686,61.56054 7.84428,-5.79795 -11.08431,-21.65703 7.3327,-4.77478 -17.90542,-6.139 20.12228,-23.87389 8.52639,2.89897 1.02317,-7.84428 2.55791,-4.09267 0.34106,-4.9453 2.89897,-6.30953 -1.19369,-0.51158 -0.51159,6.139 -2.55791,4.77478 -1.02317,6.139 -1.8758,0.85263 4.9453,-11.25483 0.85264,2.55792 0.68211,-2.55792 0.68211,1.36422 0.17053,-2.55791 h 1.36422 l -0.68211,-0.68211 v 1.70527 l -1.36422,-0.17052 -0.34106,1.8758 -0.34105,-1.53475 -1.70528,0.51158 3.92214,-2.38738 -2.38739,-9.37903 -7.50322,10.23166 -5.96848,-6.82111 -3.92214,7.16217 -8.52639,-9.54956 -4.77477,5.62742 5.96847,5.62742 7.84428,-10.4022 5.45689,7.84428 4.26319,-9.89061 3.0695,10.40219 5.62742,-7.67375 -5.96847,-2.55791 -5.11584,10.23166 -5.11583,-7.33269 -5.96848,7.50322 -10.57272,-8.18533 12.78959,-1.87581 4.43372,10.06114 2.72844,-9.03797 5.62742,8.86744 4.43373,-1.02316 -3.41056,-8.86745 4.26319,-0.51158 -12.44853,9.89061 -10.40219,-9.37903 -6.65059,10.91378 6.30953,0.17053 7.3327,-8.52639 9.54955,7.50322 h 5.11584 l -8.69692,-9.03797 -5.11583,8.52639 -13.98328,-0.34106 11.08431,-9.2085 -12.96012,4.43373 3.58109,8.86744 -2.38739,4.60425 1.8758,3.92214 -1.02316,3.0695 0.68211,0.85264 -1.02317,-4.09267 1.19369,-4.60425 -1.53475,-2.72844 2.04634,-4.43373 -3.75161,-3.24002 v 4.9453 l 1.70527,2.21686 -0.17052,1.36423 -1.1937,-1.70528 1.36422,-5.11584 2.72845,2.72845 -1.87581,14.15381 -0.68211,-23.8739 2.04634,-31.88869 -1.02317,-8.18534 2.21686,-5.96847 L 41.267726,102.59831 213.84185,71.391724 229.53041,153.75665 170.86885,68.492753 142.04965,151.0282 90.038676,80.770753 87.821814,160.74829 55.421532,149.83451 68.04059,88.444503 79.977535,88.103447 76.055396,85.204476 67.187952,169.61573 103.33984,74.290697 168.48146,148.12923 221.5156,76.337029 236.18099,152.90401 232.42938,155.2914 160.46665,66.105362 127.38426,152.2219 56.103644,92.196115 l 5.286361,-4.433724 39.903505,69.745869 14.32434,-84.752313 41.26772,75.884863 43.65512,-79.295419 37.85717,66.505839 -7.3327,18.92859 -46.89514,-82.876511 10.23167,-0.852641 -4.60425,-1.705277 -6.99164,78.101729 -3.92214,-78.101729 -29.84237,80.489119 -54.73942,-71.962731 -15.859085,86.628121 -19.95175,-5.96847 13.130638,-72.474316 46.042507,67.187956 13.81275,-84.070208 31.54764,79.636478 21.65703,-76.225922 -13.13064,-3.0695 4.94531,-0.682112 2.72844,78.954374 28.13709,-76.566983 11.42536,2.387388 15.68856,81.682815 2.04633,-30.695 -32.40028,-55.080482 -38.70981,78.954372 -42.63195,-77.078566 -16.20014,83.899676 -62.072115,-35.46978 4.945306,-27.28445 8.526388,3.0695 -15.688555,16.71172 54.73942,45.87198 12.960116,-84.752311 50.3057,75.202751 54.90995,-76.566975 15.68855,27.79603 -28.98972,47.065675 -55.08048,-78.954372 -24.21495,84.752312 -78.442781,-52.863615 9.549556,-7.844277 19.440168,73.497482 -6.821112,-77.249094 -9.2085,3.0695 -7.67375,53.034144 42.290891,14.66539 L 106.92093,73.438059 152.11079,150.17556 187.7511,70.880141 219.46927,149.49345 235.66941,114.1942 195.59538,70.880141 174.27941,148.12923 138.46857,68.663279 111.35465,153.92718 81.682814,87.250809 104.87459,73.949641 145.80126,150.34609 153.64554,66.958 190.8206,145.91237 227.48408,86.568697 232.77044,155.2914 83.38809,85.886588 47.577255,131.75856 l 56.785755,24.55601 23.02125,-86.287067 59.85526,77.590147 37.85717,-65.141618 -1.36422,68.722698 13.98327,-9.72008 -71.79219,-74.691176 -32.91187,84.922836 -50.817284,-64.630028 -6.821111,77.078558 -13.98328,0.68211 1.364224,-75.884862 36.151891,67.699532 14.32433,-82.364923 41.0972,74.520643 2.89898,-82.023866 39.22139,80.148066 33.7645,-54.22784 4.77478,60.87842 -23.19178,-5.11583 -15.85908,-76.908037 -22.16862,77.249087 -1.8758,9.54956 -11.59589,17.39383 -7.50323,13.30117 -11.76641,17.73489 4.9453,-2.89897 13.81275,-10.74325 19.44017,-14.32434 11.76642,-10.23166 12.10747,-7.3327 8.69692,-12.44853 -13.98328,-78.954366 -4.26319,78.101726 -7.3327,12.44853 -14.66539,14.15381 -30.18342,31.8887 5.11584,-18.41701 7.67375,-30.52447 4.60425,-8.52639 -15.00645,-81.000702 -8.86744,84.411262 -7.84428,9.03797 -4.43373,15.17697 -5.62741,12.78959 -3.24003,11.42536 -7.67375,1.19369 -6.650585,-19.78122 -8.355862,-16.88225 -21.486503,-77.41962 10.74325,0.341056 -4.092667,77.078564 19.610697,24.21495 10.06114,13.81275 1.19369,4.77478 -18.758054,-21.99809 -18.417,-17.22331 -24.897058,-72.815365 58.320502,61.560535 1.70528,18.07594 2.38739,16.20015 -0.51158,13.30116 33.25292,-4.43372 2.38739,-26.94339 4.77477,-24.04442 3.06951,-82.023869 20.97491,80.659649 -15.17697,24.38547 -16.5412,32.05923"
       style="fill:none;stroke:#000000;stroke-width:0.7;stroke-linecap:round;stroke-linejoin:round;stroke-opacity:1;stroke-miterlimit:4;stroke-dasharray:none;filter:url(#filter4734)" />
    <path
       transform="translate(-8.1825785,-48.212862)"
       inkscape:connector-curvature="0"
       id="path4673"
       d="m 128.74848,153.24507 -1.36422,7.84427"
       style="fill:none;stroke:#000000;stroke-width:0.7;stroke-linecap:round;stroke-linejoin:round;stroke-opacity:1;stroke-miterlimit:4;stroke-dasharray:none;filter:url(#filter4738)" />
    <path
       transform="translate(-8.1825785,-48.212862)"
       inkscape:connector-curvature="0"
       id="path4675"
       d="m 172.57413,157.33773 10.06114,-9.89061"
       style="fill:none;stroke:#000000;stroke-width:0.7;stroke-linecap:round;stroke-linejoin:round;stroke-opacity:1;stroke-miterlimit:4;stroke-dasharray:none;filter:url(#filter4742)" />
    <path
       transform="translate(-8.1825785,-48.212862)"
       inkscape:connector-curvature="0"
       id="path4677"
       d="m 187.92163,157.33773 16.88225,-8.86744"
       style="fill:none;stroke:#000000;stroke-width:0.7;stroke-linecap:round;stroke-linejoin:round;stroke-opacity:1;stroke-miterlimit:4;stroke-dasharray:none;filter:url(#filter4746)" />
    <path
       transform="translate(-8.1825785,-48.212862)"
       inkscape:connector-curvature="0"
       id="path4679"
       d="m 204.12177,161.77145 23.70336,-9.72008"
       style="fill:none;stroke:#000000;stroke-width:0.7;stroke-linecap:round;stroke-linejoin:round;stroke-opacity:1;stroke-miterlimit:4;stroke-dasharray:none;filter:url(#filter4750)" />
    <path
       transform="translate(-8.1825785,-48.212862)"
       inkscape:connector-curvature="0"
       id="path4681"
       d="m 145.97179,214.46454 h -1.36422 v -1.8758 h -1.53475 v -0.85264 l -2.04633,-1.87581 4.60425,5.45689"
       style="fill:none;stroke:#000000;stroke-width:0.7;stroke-linecap:round;stroke-linejoin:round;stroke-opacity:1;stroke-miterlimit:4;stroke-dasharray:none;filter:url(#filter4754)" />
    <path
       transform="translate(-8.1825785,-48.212862)"
       inkscape:connector-curvature="0"
       id="path4683"
       d="m 96.177676,221.62671 4.092664,-1.53475 0.34106,-2.38739 6.82111,-5.28636 -8.185334,6.82111 -0.341056,3.24003 -0.341053,-1.8758"
       style="fill:none;stroke:#000000;stroke-width:0.7;stroke-linecap:round;stroke-linejoin:round;stroke-opacity:1;stroke-miterlimit:4;stroke-dasharray:none;filter:url(#filter4758)" />
    <path
       transform="translate(-8.1825785,-48.212862)"
       inkscape:connector-curvature="0"
       id="path4685"
       d="m 100.95245,266.64605 -4.774774,7.67376 8.014804,1.70527 7.67375,-18.41701 -7.16216,-7.33269 11.0843,-25.40864 8.01481,22.16861 -8.01481,5.62742 8.52639,1.36422 -9.2085,3.58108 9.72009,2.55792 -8.86745,4.2632 11.08431,0.85264 -9.37903,9.37903 8.69692,10.4022 -10.06115,-0.34108 8.18534,-5.96847 -2.04633,15.17698 h -3.41056 l -0.68211,-1.87579 4.77478,-0.34107 -4.43372,-2.72844 5.62741,-1.53474 -7.84428,-5.4569 9.72009,-1.87582 -8.18534,-2.72843 4.60425,-3.41056 -6.30953,-4.09266 10.23167,-5.28637 -11.59589,-3.92213 9.37903,-5.45689 -19.09911,-9.89062 19.6107,-5.96847 -2.04634,-13.81275 4.43372,11.25483 6.65059,-0.85263 -2.55792,-6.65059 -5.11583,6.99164 5.79794,-14.66539 6.139,1.70528 -33.7645,29.16025 6.65058,18.58754 1.70528,-44.67829 -8.18533,3.75161 -1.53475,-6.48005 -3.240029,3.41055 -1.023168,-4.9453 -4.774779,1.36422 7.503226,0.68211 1.02316,4.43372 5.28637,-3.58108 17.90541,12.61905 -20.97491,11.25484 19.61069,3.75161 -5.62741,34.10555 6.30952,-24.72652 -17.05278,-25.92023"
       style="fill:none;stroke:#000000;stroke-width:0.7;stroke-linecap:round;stroke-linejoin:round;stroke-opacity:1;stroke-miterlimit:4;stroke-dasharray:none;filter:url(#filter4762)" />
    <path
       transform="translate(-8.1825785,-48.212862)"
       inkscape:connector-curvature="0"
       id="path4687"
       d="M 218.95769,74.631753 207.3618,148.64081 158.9319,67.128529 129.26007,151.71032 59.684729,89.297144 48.770949,136.36281 83.217564,162.62409 119.71051,72.585418 177.34891,146.93554 240.10314,136.70387 47.747782,138.06809 236.01047,117.60476 46.383561,125.10798 229.87147,92.7077 40.244559,107.37309 222.02719,78.042309 80.830176,86.909753 174.27941,68.492753 109.13779,73.267529 231.9178,103.96253 55.933117,152.73348 238.73891,142.50181 218.61663,149.32293 81.85334,88.615032 65.823729,166.3757 55.933117,152.73348 136.42224,68.833806 237.71574,145.57131"
       style="fill:none;stroke:#000000;stroke-width:0.7;stroke-linecap:round;stroke-linejoin:round;stroke-opacity:1;stroke-miterlimit:4;stroke-dasharray:none;filter:url(#filter4766)" />
    <text
       xml:space="preserve"
       style="font-style:normal;font-variant:normal;font-weight:bold;font-stretch:normal;font-size:42.33333206px;line-height:1.25;font-family:Hack;-inkscape-font-specification:'Hack Bold';letter-spacing:0px;word-spacing:0px;fill:#000000;fill-opacity:1;stroke:none;stroke-width:0.26458332"
       x="137.89558"
       y="202.1512"
       id="text881"><tspan
         sodipodi:role="line"
         x="137.89558"
         y="202.1512"
         style="font-size:14.11111069px;stroke-width:0.26458332"
         id="tspan887">Mondrian</tspan></text>
    <text
       xml:space="preserve"
       style="font-style:normal;font-variant:normal;font-weight:bold;font-stretch:normal;font-size:42.33333206px;line-height:1.25;font-family:Hack;-inkscape-font-specification:'Hack Bold';letter-spacing:0px;word-spacing:0px;fill:#000000;fill-opacity:1;stroke:none;stroke-width:0.26458332"
       x="213.88913"
       y="201.44839"
       id="text893"><tspan
         sodipodi:role="line"
         id="tspan891"
         x="213.88913"
         y="201.44839"
         style="font-size:14.11111069px;stroke-width:0.26458332">Memory</tspan></text>
    <text
       xml:space="preserve"
       style="font-style:normal;font-variant:normal;font-weight:bold;font-stretch:normal;font-size:42.33333206px;line-height:1.25;font-family:Hack;-inkscape-font-specification:'Hack Bold';letter-spacing:0px;word-spacing:0px;fill:#000000;fill-opacity:1;stroke:none;stroke-width:0.26458332"
       x="149.47075"
       y="215.73946"
       id="text897"><tspan
         sodipodi:role="line"
         id="tspan895"
         x="149.47075"
         y="215.73946"
         style="font-size:14.11111069px;stroke-width:0.26458332">Protection e</tspan></text>
    <text
       xml:space="preserve"
       style="font-style:normal;font-variant:normal;font-weight:bold;font-stretch:normal;font-size:42.33333206px;line-height:1.25;font-family:Hack;-inkscape-font-specification:'Hack Bold';letter-spacing:0px;word-spacing:0px;fill:#000000;fill-opacity:1;stroke:none;stroke-width:0.26458332"
       x="170.83379"
       y="231.19983"
       id="text897-3"><tspan
         sodipodi:role="line"
         id="tspan895-6"
         x="170.83379"
         y="231.19983"
         style="font-size:14.11111069px;stroke-width:0.26458332">Mondrix</tspan></text>
  </g>
  <g
     inkscape:groupmode="layer"
     id="layer2"
     inkscape:label="Form"
     transform="translate(-8.1825785,-48.212863)">
    <path
       style="fill:none;stroke:#000000;stroke-width:0.7;stroke-linecap:round;stroke-linejoin:round;stroke-opacity:1;stroke-miterlimit:4;stroke-dasharray:none"
       d="m 100.6114,227.59518 6.48005,-4.09266 17.22331,20.97492 -20.29281,12.10747 10.06115,10.23166 -15.006451,0.34105 -3.410556,5.28637 7.673747,4.09266 0.68211,-9.8906 4.2632,5.28637 4.77478,-46.72462 11.93694,45.18985 -10.57272,-8.18532 9.89061,-12.78959 -17.56436,-15.51803 9.37903,-10.06114 9.37903,12.61906 3.24002,-13.81275 6.99165,3.58108 1.53475,-6.30953 4.43372,1.36422 0.17053,-4.26319 3.0695,1.02317 0.51158,-2.89898 4.77478,2.38739 -0.68211,1.1937 -2.04634,-4.43372 1.70528,1.53475 -1.53475,2.89897 -1.02317,-3.41056 3.0695,0.85264 -3.58108,1.36422 -2.21686,-1.36422 -0.34106,3.0695 -3.24002,-1.02317 v 4.2632 l -4.94531,-1.8758 -1.36422,5.96847 -6.30953,-2.72845 -23.36231,38.0277 8.35586,8.86746 -16.029609,-2.55794 3.240026,11.93694 0.852643,-13.47168 5.28636,6.82112 -0.17053,-30.0129 17.56436,-4.09267 -15.68855,-8.86744 -3.75162,-6.99164 -4.774774,2.21686 -0.170527,-3.92214 -5.968473,3.75161 v -1.8758 l 3.410555,-2.55792 0.682112,3.41055 -4.433723,0.68212 5.286361,-3.58109 0.341056,2.72845 2.216863,-1.36423 -0.51158,3.75162 5.45688,-3.58109 0.34106,7.16217 4.94531,-5.45689 16.02961,41.77931 -9.37903,6.99164 9.72008,9.8906 -8.35586,3.24003 3.92214,6.30955 -2.89897,1.87579 -1.36422,-3.75161 4.9453,-2.21686 -6.139,-9.72008 8.52639,-5.11585 -9.72008,-3.92213 9.2085,-8.52639 -10.06114,-5.28636 8.35586,-9.2085 -16.37067,-15.17697 4.94531,-6.65059 12.44853,12.96011 0.85264,-14.32433 5.62742,4.94531 0.85263,-7.84428 5.96848,3.0695 1.19369,-5.11583 3.24003,0.85263 5.28636,-4.43372 -39.22139,21.99809 13.98328,3.58108 -18.24648,5.11583 20.12228,4.60425 -8.69691,3.41056 8.18533,3.41055 -8.18533,7.33271 7.50322,5.79795 -5.62742,5.45687 7.84428,10.23168 0.85264,-9.54957 -8.52639,1.36423 6.48005,9.72008 -5.79794,5.4569 3.58108,0.85264 -2.89897,-4.7748 7.50322,-7.33269 -9.72008,-1.19369 8.18533,-2.89896 -7.33269,-1.02317 6.139,-2.89899 -6.48006,-1.36422 4.43373,-2.38739 -5.28637,-2.72843 8.35587,-8.01481 -8.86745,-4.26319 8.18533,-3.58109 -19.78122,-2.72844 19.44017,-5.96848 -15.51803,-2.55791 17.73489,-3.75162 -18.24647,-5.96847 17.2233,-6.65058 5.11584,12.44853 3.58108,-5.11584 -3.75161,-1.8758 3.24003,7.33269 1.02317,-2.89897 -5.96848,-2.04633 3.41056,4.9453 2.55792,-4.43372 -5.11584,-1.19369 3.58109,-3.24003 0.17052,8.86744 -5.96847,0.17053 5.11583,-6.48006 1.53475,5.62742 -6.65058,-1.19369 -5.96847,-10.06114 -12.61906,11.59589 4.43372,17.56436 -2.38739,17.56435 -14.49486,-1.87579 1.705279,7.50322 4.433721,0.51159 -3.0695,1.87579 2.04633,0.17053 1.36423,-13.47169 4.9453,5.96847 1.02317,-32.05922 19.26964,-6.82111 3.0695,-11.76642 5.96847,3.0695 9.54956,-8.69692 -38.53928,18.75806 10.40219,-10.23167 5.96848,13.81275 -10.06114,14.15381 10.06114,4.2632 -9.20851,6.65058 11.5959,3.24002 -9.54956,4.9453 9.72008,6.99164 -10.06114,4.43373 7.67375,2.38739 -6.139,1.36422 -2.38738,-2.89896 10.57272,-2.55791 -9.54956,-13.30119 3.24003,-41.60877 -15.51803,37.34558 6.82111,7.84427 2.89898,-3.58108 -9.89062,-9.72007 8.52639,-2.04634 -8.52639,-3.24003 19.78123,-9.37903 -15.51803,-4.9453 16.02961,-14.83592 3.58108,9.72008 -18.58753,-9.37902 -6.139,4.9453 -1.02316,-5.11583 -3.069504,1.02317 0.341055,-2.72845 -4.60425,0.17053 0.852639,2.04633 -2.216862,-0.51158 3.410556,-2.38739 5.115836,6.30953 6.139,-3.92214 -1.1937,6.139 9.54956,-6.139 4.94531,16.54119 -8.52639,12.44853 -8.35586,1.70528 7.50322,5.62742 -7.50322,5.11583 9.03797,3.7516 -17.052779,6.82112 9.037969,-1.70526 -6.650581,-6.99165 -0.852638,11.25482 3.751609,-2.38738 1.87581,-10.57273 10.40219,1.53477 -9.72008,-15.8591 2.04633,-9.37902 16.37067,-2.89898 -2.55792,-14.32433 -2.21686,61.56054 7.84428,-5.79795 -11.08431,-21.65703 7.3327,-4.77478 -17.90542,-6.139 20.12228,-23.87389 8.52639,2.89897 1.02317,-7.84428 2.55791,-4.09267 0.34106,-4.9453 2.89897,-6.30953 -1.19369,-0.51158 -0.51159,6.139 -2.55791,4.77478 -1.02317,6.139 -1.8758,0.85263 4.9453,-11.25483 0.85264,2.55792 0.68211,-2.55792 0.68211,1.36422 0.17053,-2.55791 h 1.36422 l -0.68211,-0.68211 v 1.70527 l -1.36422,-0.17052 -0.34106,1.8758 -0.34105,-1.53475 -1.70528,0.51158 3.92214,-2.38738 -2.38739,-9.37903 -7.50322,10.23166 -5.96848,-6.82111 -3.92214,7.16217 -8.52639,-9.54956 -4.77477,5.62742 5.96847,5.62742 7.84428,-10.4022 5.45689,7.84428 4.26319,-9.89061 3.0695,10.40219 5.62742,-7.67375 -5.96847,-2.55791 -5.11584,10.23166 -5.11583,-7.33269 -5.96848,7.50322 -10.57272,-8.18533 12.78959,-1.87581 4.43372,10.06114 2.72844,-9.03797 5.62742,8.86744 4.43373,-1.02316 -3.41056,-8.86745 4.26319,-0.51158 -12.44853,9.89061 -10.40219,-9.37903 -6.65059,10.91378 6.30953,0.17053 7.3327,-8.52639 9.54955,7.50322 h 5.11584 l -8.69692,-9.03797 -5.11583,8.52639 -13.98328,-0.34106 11.08431,-9.2085 -12.96012,4.43373 3.58109,8.86744 -2.38739,4.60425 1.8758,3.92214 -1.02316,3.0695 0.68211,0.85264 -1.02317,-4.09267 1.19369,-4.60425 -1.53475,-2.72844 2.04634,-4.43373 -3.75161,-3.24002 v 4.9453 l 1.70527,2.21686 -0.17052,1.36423 -1.1937,-1.70528 1.36422,-5.11584 2.72845,2.72845 -1.87581,14.15381 -0.68211,-23.8739 2.04634,-31.88869 -1.02317,-8.18534 2.21686,-5.96847 L 41.267726,102.59831 213.84185,71.391724 229.53041,153.75665 170.86885,68.492753 142.04965,151.0282 90.038676,80.770753 87.821814,160.74829 55.421532,149.83451 68.04059,88.444503 79.977535,88.103447 76.055396,85.204476 67.187952,169.61573 103.33984,74.290697 168.48146,148.12923 221.5156,76.337029 236.18099,152.90401 232.42938,155.2914 160.46665,66.105362 127.38426,152.2219 56.103644,92.196115 l 5.286361,-4.433724 39.903505,69.745869 14.32434,-84.752313 41.26772,75.884863 43.65512,-79.295419 37.85717,66.505839 -7.3327,18.92859 -46.89514,-82.876511 10.23167,-0.852641 -4.60425,-1.705277 -6.99164,78.101729 -3.92214,-78.101729 -29.84237,80.489119 -54.73942,-71.962731 -15.859085,86.628121 -19.95175,-5.96847 13.130638,-72.474316 46.042507,67.187956 13.81275,-84.070208 31.54764,79.636478 21.65703,-76.225922 -13.13064,-3.0695 4.94531,-0.682112 2.72844,78.954374 28.13709,-76.566983 11.42536,2.387388 15.68856,81.682815 2.04633,-30.695 -32.40028,-55.080482 -38.70981,78.954372 -42.63195,-77.078566 -16.20014,83.899676 -62.072115,-35.46978 4.945306,-27.28445 8.526388,3.0695 -15.688555,16.71172 54.73942,45.87198 12.960116,-84.752311 50.3057,75.202751 54.90995,-76.566975 15.68855,27.79603 -28.98972,47.065675 -55.08048,-78.954372 -24.21495,84.752312 -78.442781,-52.863615 9.549556,-7.844277 19.440168,73.497482 -6.821112,-77.249094 -9.2085,3.0695 -7.67375,53.034144 42.290891,14.66539 L 106.92093,73.438059 152.11079,150.17556 187.7511,70.880141 219.46927,149.49345 235.66941,114.1942 195.59538,70.880141 174.27941,148.12923 138.46857,68.663279 111.35465,153.92718 81.682814,87.250809 104.87459,73.949641 145.80126,150.34609 153.64554,66.958 190.8206,145.91237 227.48408,86.568697 232.77044,155.2914 83.38809,85.886588 47.577255,131.75856 l 56.785755,24.55601 23.02125,-86.287067 59.85526,77.590147 37.85717,-65.141618 -1.36422,68.722698 13.98327,-9.72008 -71.79219,-74.691176 -32.91187,84.922836 -50.817284,-64.630028 -6.821111,77.078558 -13.98328,0.68211 1.364224,-75.884862 36.151891,67.699532 14.32433,-82.364923 41.0972,74.520643 2.89898,-82.023866 39.22139,80.148066 33.7645,-54.22784 4.77478,60.87842 -23.19178,-5.11583 -15.85908,-76.908037 -22.16862,77.249087 -1.8758,9.54956 -11.59589,17.39383 -7.50323,13.30117 -11.76641,17.73489 4.9453,-2.89897 13.81275,-10.74325 19.44017,-14.32434 11.76642,-10.23166 12.10747,-7.3327 8.69692,-12.44853 -13.98328,-78.954366 -4.26319,78.101726 -7.3327,12.44853 -14.66539,14.15381 -30.18342,31.8887 5.11584,-18.41701 7.67375,-30.52447 4.60425,-8.52639 -15.00645,-81.000702 -8.86744,84.411262 -7.84428,9.03797 -4.43373,15.17697 -5.62741,12.78959 -3.24003,11.42536 -7.67375,1.19369 -6.650585,-19.78122 -8.355862,-16.88225 -21.486503,-77.41962 10.74325,0.341056 -4.092667,77.078564 19.610697,24.21495 10.06114,13.81275 1.19369,4.77478 -18.758054,-21.99809 -18.417,-17.22331 -24.897058,-72.815365 58.320502,61.560535 1.70528,18.07594 2.38739,16.20015 -0.51158,13.30116 33.25292,-4.43372 2.38739,-26.94339 4.77477,-24.04442 3.06951,-82.023869 20.97491,80.659649 -15.17697,24.38547 -16.5412,32.05923"
       id="path4637"
       inkscape:connector-curvature="0"
       sodipodi:nodetypes="ccccccccccccccccccccccccccccccccccccccccccccccccccccccccccccccccccccccccccccccccccccccccccccccccccccccccccccccccccccccccccccccccccccccccccccccccccccccccccccccccccccccccccccccccccccccccccccccccccccccccccccccccccccccccccccccccccccccccccccccccccccccccccccccccccccccccccccccccccccccccccccccccccccccccccccccccccccccccccccccccccccccccccccccccccccccccccccccccccccccccccccccccccccccccccccccccccccccccccccccccccccccccccccccccccccccccccccccccccccccccccccccccccc" />
    <path
       style="fill:none;stroke:#000000;stroke-width:0.7;stroke-linecap:round;stroke-linejoin:round;stroke-opacity:1;stroke-miterlimit:4;stroke-dasharray:none"
       d="m 128.74848,153.24507 -1.36422,7.84427"
       id="path4639"
       inkscape:connector-curvature="0" />
    <path
       style="fill:none;stroke:#000000;stroke-width:0.7;stroke-linecap:round;stroke-linejoin:round;stroke-opacity:1;stroke-miterlimit:4;stroke-dasharray:none"
       d="m 172.57413,157.33773 10.06114,-9.89061"
       id="path4641"
       inkscape:connector-curvature="0" />
    <path
       style="fill:none;stroke:#000000;stroke-width:0.7;stroke-linecap:round;stroke-linejoin:round;stroke-opacity:1;stroke-miterlimit:4;stroke-dasharray:none"
       d="m 187.92163,157.33773 16.88225,-8.86744"
       id="path4643"
       inkscape:connector-curvature="0" />
    <path
       style="fill:none;stroke:#000000;stroke-width:0.7;stroke-linecap:round;stroke-linejoin:round;stroke-opacity:1;stroke-miterlimit:4;stroke-dasharray:none"
       d="m 204.12177,161.77145 23.70336,-9.72008"
       id="path4645"
       inkscape:connector-curvature="0" />
    <path
       style="fill:none;stroke:#000000;stroke-width:0.7;stroke-linecap:round;stroke-linejoin:round;stroke-opacity:1;stroke-miterlimit:4;stroke-dasharray:none"
       d="m 145.97179,214.46454 h -1.36422 v -1.8758 h -1.53475 v -0.85264 l -2.04633,-1.87581 4.60425,5.45689"
       id="path4647"
       inkscape:connector-curvature="0" />
    <path
       style="fill:none;stroke:#000000;stroke-width:0.7;stroke-linecap:round;stroke-linejoin:round;stroke-opacity:1;stroke-miterlimit:4;stroke-dasharray:none"
       d="m 96.177676,221.62671 4.092664,-1.53475 0.34106,-2.38739 6.82111,-5.28636 -8.185334,6.82111 -0.341056,3.24003 -0.341053,-1.8758"
       id="path4649"
       inkscape:connector-curvature="0" />
    <path
       style="fill:none;stroke:#000000;stroke-width:0.7;stroke-linecap:round;stroke-linejoin:round;stroke-opacity:1;stroke-miterlimit:4;stroke-dasharray:none"
       d="m 100.95245,266.64605 -4.774774,7.67376 8.014804,1.70527 7.67375,-18.41701 -7.16216,-7.33269 11.0843,-25.40864 8.01481,22.16861 -8.01481,5.62742 8.52639,1.36422 -9.2085,3.58108 9.72009,2.55792 -8.86745,4.2632 11.08431,0.85264 -9.37903,9.37903 8.69692,10.4022 -10.06115,-0.34108 8.18534,-5.96847 -2.04633,15.17698 h -3.41056 l -0.68211,-1.87579 4.77478,-0.34107 -4.43372,-2.72844 5.62741,-1.53474 -7.84428,-5.4569 9.72009,-1.87582 -8.18534,-2.72843 4.60425,-3.41056 -6.30953,-4.09266 10.23167,-5.28637 -11.59589,-3.92213 9.37903,-5.45689 -19.09911,-9.89062 19.6107,-5.96847 -2.04634,-13.81275 4.43372,11.25483 6.65059,-0.85263 -2.55792,-6.65059 -5.11583,6.99164 5.79794,-14.66539 6.139,1.70528 -33.7645,29.16025 6.65058,18.58754 1.70528,-44.67829 -8.18533,3.75161 -1.53475,-6.48005 -3.240029,3.41055 -1.023168,-4.9453 -4.774779,1.36422 7.503226,0.68211 1.02316,4.43372 5.28637,-3.58108 17.90541,12.61905 -20.97491,11.25484 19.61069,3.75161 -5.62741,34.10555 6.30952,-24.72652 -17.05278,-25.92023"
       id="path4651"
       inkscape:connector-curvature="0" />
    <path
       style="fill:none;stroke:#000000;stroke-width:0.7;stroke-linecap:round;stroke-linejoin:round;stroke-opacity:1;stroke-miterlimit:4;stroke-dasharray:none"
       d="M 218.95769,74.631753 207.3618,148.64081 158.9319,67.128529 129.26007,151.71032 59.684729,89.297144 48.770949,136.36281 83.217564,162.62409 119.71051,72.585418 177.34891,146.93554 240.10314,136.70387 47.747782,138.06809 236.01047,117.60476 46.383561,125.10798 229.87147,92.7077 40.244559,107.37309 222.02719,78.042309 80.830176,86.909753 174.27941,68.492753 109.13779,73.267529 231.9178,103.96253 55.933117,152.73348 238.73891,142.50181 218.61663,149.32293 81.85334,88.615032 65.823729,166.3757 55.933117,152.73348 136.42224,68.833806 237.71574,145.57131"
       id="path4668"
       inkscape:connector-curvature="0" />
  </g>
  <g
     inkscape:groupmode="layer"
     id="layer5"
     inkscape:label="cloudFade">
    <path
       transform="translate(-8.1825785,-48.212862)"
       inkscape:connector-curvature="0"
       id="path4799"
       d="m 8.185334,71.562253 16.370668,0.341056 25.238115,-11.595891 13.301168,-2.728444 8.185332,3.0695"
       style="fill:none;stroke:#000000;stroke-width:0.26458332px;stroke-linecap:round;stroke-linejoin:round;stroke-opacity:1;filter:url(#filter4904)" />
    <path
       transform="translate(-8.1825785,-48.212862)"
       inkscape:connector-curvature="0"
       id="path4801"
       d="m 247.2653,219.58038 -14.66539,-10.57273 -15.68856,4.77478 -22.85072,1.70528"
       style="fill:none;stroke:#000000;stroke-width:0.26458332px;stroke-linecap:round;stroke-linejoin:round;stroke-opacity:1;filter:url(#filter4908)" />
    <path
       transform="translate(-8.1825785,-48.212862)"
       inkscape:connector-curvature="0"
       id="path4803"
       d="m 16.370668,197.41176 3.751612,-6.48005 4.433722,3.0695 4.77478,-5.45689 8.185332,-1.70528 1.70528,5.79795 13.642223,-10.57273"
       style="fill:none;stroke:#000000;stroke-width:0.26458332px;stroke-linecap:round;stroke-linejoin:round;stroke-opacity:1;filter:url(#filter4912)" />
    <path
       transform="translate(-8.1825785,-48.212862)"
       inkscape:connector-curvature="0"
       id="path4805"
       d="m 43.99617,200.14021 -8.185332,5.11583 -4.433724,-3.0695 -5.456889,4.09267 -3.069501,7.84428"
       style="fill:none;stroke:#000000;stroke-width:0.26458332px;stroke-linecap:round;stroke-linejoin:round;stroke-opacity:1;filter:url(#filter4916)" />
    <path
       transform="translate(-8.1825785,-48.212862)"
       inkscape:connector-curvature="0"
       id="path4807"
       d="m 239.76208,88.273976 3.75161,-5.115835 7.16217,1.364223 7.16216,-5.115835 1.70528,-4.774776"
       style="fill:none;stroke:#000000;stroke-width:0.26458332px;stroke-linecap:round;stroke-linejoin:round;stroke-opacity:1;filter:url(#filter4920)" />
    <path
       transform="translate(-8.1825785,-48.212862)"
       inkscape:connector-curvature="0"
       id="path4809"
       d="m 260.56647,59.28425 6.48005,-4.433721 8.86746,4.433721 3.06948,-2.728444"
       style="fill:none;stroke:#000000;stroke-width:0.26458332px;stroke-linecap:round;stroke-linejoin:round;stroke-opacity:1;filter:url(#filter4924)" />
    <path
       transform="translate(-8.1825785,-48.212862)"
       inkscape:connector-curvature="0"
       id="path4811"
       d="m 176.6668,52.463138 -4.77478,-4.092667 -4.77478,2.387391 -4.43372,0.341056"
       style="fill:none;stroke:#000000;stroke-width:0.26458332px;stroke-linecap:round;stroke-linejoin:round;stroke-opacity:1;filter:url(#filter4928)" />
  </g>
  <g
     inkscape:groupmode="layer"
     id="layer3"
     inkscape:label="cloud"
     transform="translate(-8.1825785,-48.212863)">
    <path
       style="fill:none;stroke:#000000;stroke-width:0.26458332px;stroke-linecap:butt;stroke-linejoin:miter;stroke-opacity:1"
       d="m 8.185334,71.562253 16.370668,0.341056 25.238115,-11.595891 13.301168,-2.728444 8.185332,3.0695"
       id="path4654"
       inkscape:connector-curvature="0" />
    <path
       style="fill:none;stroke:#000000;stroke-width:0.26458332px;stroke-linecap:butt;stroke-linejoin:miter;stroke-opacity:1"
       d="m 247.2653,219.58038 -14.66539,-10.57273 -15.68856,4.77478 -22.85072,1.70528"
       id="path4656"
       inkscape:connector-curvature="0" />
    <path
       style="fill:none;stroke:#000000;stroke-width:0.26458332px;stroke-linecap:butt;stroke-linejoin:miter;stroke-opacity:1"
       d="m 16.370668,197.41176 3.751612,-6.48005 4.433722,3.0695 4.77478,-5.45689 8.185332,-1.70528 1.70528,5.79795 13.642223,-10.57273"
       id="path4658"
       inkscape:connector-curvature="0" />
    <path
       style="fill:none;stroke:#000000;stroke-width:0.26458332px;stroke-linecap:butt;stroke-linejoin:miter;stroke-opacity:1"
       d="m 43.99617,200.14021 -8.185332,5.11583 -4.433724,-3.0695 -5.456889,4.09267 -3.069501,7.84428"
       id="path4660"
       inkscape:connector-curvature="0" />
    <path
       style="fill:none;stroke:#000000;stroke-width:0.26458332px;stroke-linecap:butt;stroke-linejoin:miter;stroke-opacity:1"
       d="m 239.76208,88.273976 3.75161,-5.115835 7.16217,1.364223 7.16216,-5.115835 1.70528,-4.774776"
       id="path4662"
       inkscape:connector-curvature="0" />
    <path
       style="fill:none;stroke:#000000;stroke-width:0.26458332px;stroke-linecap:butt;stroke-linejoin:miter;stroke-opacity:1"
       d="m 260.56647,59.28425 6.48005,-4.433721 8.86746,4.433721 3.06948,-2.728444"
       id="path4664"
       inkscape:connector-curvature="0" />
    <path
       style="fill:none;stroke:#000000;stroke-width:0.26458332px;stroke-linecap:butt;stroke-linejoin:miter;stroke-opacity:1"
       d="m 176.6668,52.463138 -4.77478,-4.092667 -4.77478,2.387391 -4.43372,0.341056"
       id="path4666"
       inkscape:connector-curvature="0" />
  </g>
</svg>
